%TF.GenerationSoftware,KiCad,Pcbnew,9.0.8*%
%TF.CreationDate,2026-04-17T16:11:34+02:00*%
%TF.ProjectId,LARA_hat,4c415241-5f68-4617-942e-6b696361645f,rev?*%
%TF.SameCoordinates,Original*%
%TF.FileFunction,Legend,Top*%
%TF.FilePolarity,Positive*%
%FSLAX46Y46*%
G04 Gerber Fmt 4.6, Leading zero omitted, Abs format (unit mm)*
G04 Created by KiCad (PCBNEW 9.0.8) date 2026-04-17 16:11:34*
%MOMM*%
%LPD*%
G01*
G04 APERTURE LIST*
%ADD10C,0.100000*%
%ADD11C,0.150000*%
%ADD12C,0.000000*%
%ADD13C,0.120000*%
G04 APERTURE END LIST*
D10*
X176303617Y-80988585D02*
X175922665Y-80988585D01*
X175922665Y-80988585D02*
X175922665Y-80188585D01*
X176532188Y-80760013D02*
X176913141Y-80760013D01*
X176455998Y-80988585D02*
X176722665Y-80188585D01*
X176722665Y-80188585D02*
X176989331Y-80988585D01*
X177713141Y-80988585D02*
X177446474Y-80607632D01*
X177255998Y-80988585D02*
X177255998Y-80188585D01*
X177255998Y-80188585D02*
X177560760Y-80188585D01*
X177560760Y-80188585D02*
X177636950Y-80226680D01*
X177636950Y-80226680D02*
X177675045Y-80264775D01*
X177675045Y-80264775D02*
X177713141Y-80340966D01*
X177713141Y-80340966D02*
X177713141Y-80455251D01*
X177713141Y-80455251D02*
X177675045Y-80531442D01*
X177675045Y-80531442D02*
X177636950Y-80569537D01*
X177636950Y-80569537D02*
X177560760Y-80607632D01*
X177560760Y-80607632D02*
X177255998Y-80607632D01*
X178017902Y-80760013D02*
X178398855Y-80760013D01*
X177941712Y-80988585D02*
X178208379Y-80188585D01*
X178208379Y-80188585D02*
X178475045Y-80988585D01*
X179351236Y-80988585D02*
X179351236Y-80188585D01*
X179351236Y-80188585D02*
X179655998Y-80188585D01*
X179655998Y-80188585D02*
X179732188Y-80226680D01*
X179732188Y-80226680D02*
X179770283Y-80264775D01*
X179770283Y-80264775D02*
X179808379Y-80340966D01*
X179808379Y-80340966D02*
X179808379Y-80455251D01*
X179808379Y-80455251D02*
X179770283Y-80531442D01*
X179770283Y-80531442D02*
X179732188Y-80569537D01*
X179732188Y-80569537D02*
X179655998Y-80607632D01*
X179655998Y-80607632D02*
X179351236Y-80607632D01*
X180151236Y-80988585D02*
X180151236Y-80455251D01*
X180151236Y-80607632D02*
X180189331Y-80531442D01*
X180189331Y-80531442D02*
X180227426Y-80493347D01*
X180227426Y-80493347D02*
X180303617Y-80455251D01*
X180303617Y-80455251D02*
X180379807Y-80455251D01*
X180760759Y-80988585D02*
X180684569Y-80950490D01*
X180684569Y-80950490D02*
X180646474Y-80912394D01*
X180646474Y-80912394D02*
X180608378Y-80836204D01*
X180608378Y-80836204D02*
X180608378Y-80607632D01*
X180608378Y-80607632D02*
X180646474Y-80531442D01*
X180646474Y-80531442D02*
X180684569Y-80493347D01*
X180684569Y-80493347D02*
X180760759Y-80455251D01*
X180760759Y-80455251D02*
X180875045Y-80455251D01*
X180875045Y-80455251D02*
X180951236Y-80493347D01*
X180951236Y-80493347D02*
X180989331Y-80531442D01*
X180989331Y-80531442D02*
X181027426Y-80607632D01*
X181027426Y-80607632D02*
X181027426Y-80836204D01*
X181027426Y-80836204D02*
X180989331Y-80912394D01*
X180989331Y-80912394D02*
X180951236Y-80950490D01*
X180951236Y-80950490D02*
X180875045Y-80988585D01*
X180875045Y-80988585D02*
X180760759Y-80988585D01*
X181294093Y-80455251D02*
X181484569Y-80988585D01*
X181675046Y-80455251D02*
X181484569Y-80988585D01*
X181484569Y-80988585D02*
X181408379Y-81179061D01*
X181408379Y-81179061D02*
X181370284Y-81217156D01*
X181370284Y-81217156D02*
X181294093Y-81255251D01*
X182284570Y-80950490D02*
X182208379Y-80988585D01*
X182208379Y-80988585D02*
X182055998Y-80988585D01*
X182055998Y-80988585D02*
X181979808Y-80950490D01*
X181979808Y-80950490D02*
X181941712Y-80874299D01*
X181941712Y-80874299D02*
X181941712Y-80569537D01*
X181941712Y-80569537D02*
X181979808Y-80493347D01*
X181979808Y-80493347D02*
X182055998Y-80455251D01*
X182055998Y-80455251D02*
X182208379Y-80455251D01*
X182208379Y-80455251D02*
X182284570Y-80493347D01*
X182284570Y-80493347D02*
X182322665Y-80569537D01*
X182322665Y-80569537D02*
X182322665Y-80645728D01*
X182322665Y-80645728D02*
X181941712Y-80721918D01*
X183008379Y-80950490D02*
X182932188Y-80988585D01*
X182932188Y-80988585D02*
X182779807Y-80988585D01*
X182779807Y-80988585D02*
X182703617Y-80950490D01*
X182703617Y-80950490D02*
X182665522Y-80912394D01*
X182665522Y-80912394D02*
X182627426Y-80836204D01*
X182627426Y-80836204D02*
X182627426Y-80607632D01*
X182627426Y-80607632D02*
X182665522Y-80531442D01*
X182665522Y-80531442D02*
X182703617Y-80493347D01*
X182703617Y-80493347D02*
X182779807Y-80455251D01*
X182779807Y-80455251D02*
X182932188Y-80455251D01*
X182932188Y-80455251D02*
X183008379Y-80493347D01*
X183236950Y-80455251D02*
X183541712Y-80455251D01*
X183351236Y-80188585D02*
X183351236Y-80874299D01*
X183351236Y-80874299D02*
X183389331Y-80950490D01*
X183389331Y-80950490D02*
X183465521Y-80988585D01*
X183465521Y-80988585D02*
X183541712Y-80988585D01*
X176303617Y-82276540D02*
X175922665Y-82276540D01*
X175922665Y-82276540D02*
X175922665Y-81476540D01*
X176913141Y-81743206D02*
X176913141Y-82276540D01*
X176570284Y-81743206D02*
X176570284Y-82162254D01*
X176570284Y-82162254D02*
X176608379Y-82238445D01*
X176608379Y-82238445D02*
X176684569Y-82276540D01*
X176684569Y-82276540D02*
X176798855Y-82276540D01*
X176798855Y-82276540D02*
X176875046Y-82238445D01*
X176875046Y-82238445D02*
X176913141Y-82200349D01*
X177636951Y-82238445D02*
X177560760Y-82276540D01*
X177560760Y-82276540D02*
X177408379Y-82276540D01*
X177408379Y-82276540D02*
X177332189Y-82238445D01*
X177332189Y-82238445D02*
X177294094Y-82200349D01*
X177294094Y-82200349D02*
X177255998Y-82124159D01*
X177255998Y-82124159D02*
X177255998Y-81895587D01*
X177255998Y-81895587D02*
X177294094Y-81819397D01*
X177294094Y-81819397D02*
X177332189Y-81781302D01*
X177332189Y-81781302D02*
X177408379Y-81743206D01*
X177408379Y-81743206D02*
X177560760Y-81743206D01*
X177560760Y-81743206D02*
X177636951Y-81781302D01*
X178322665Y-82276540D02*
X178322665Y-81857492D01*
X178322665Y-81857492D02*
X178284570Y-81781302D01*
X178284570Y-81781302D02*
X178208379Y-81743206D01*
X178208379Y-81743206D02*
X178055998Y-81743206D01*
X178055998Y-81743206D02*
X177979808Y-81781302D01*
X178322665Y-82238445D02*
X178246474Y-82276540D01*
X178246474Y-82276540D02*
X178055998Y-82276540D01*
X178055998Y-82276540D02*
X177979808Y-82238445D01*
X177979808Y-82238445D02*
X177941712Y-82162254D01*
X177941712Y-82162254D02*
X177941712Y-82086064D01*
X177941712Y-82086064D02*
X177979808Y-82009873D01*
X177979808Y-82009873D02*
X178055998Y-81971778D01*
X178055998Y-81971778D02*
X178246474Y-81971778D01*
X178246474Y-81971778D02*
X178322665Y-81933683D01*
X178665522Y-82238445D02*
X178741713Y-82276540D01*
X178741713Y-82276540D02*
X178894094Y-82276540D01*
X178894094Y-82276540D02*
X178970284Y-82238445D01*
X178970284Y-82238445D02*
X179008380Y-82162254D01*
X179008380Y-82162254D02*
X179008380Y-82124159D01*
X179008380Y-82124159D02*
X178970284Y-82047968D01*
X178970284Y-82047968D02*
X178894094Y-82009873D01*
X178894094Y-82009873D02*
X178779808Y-82009873D01*
X178779808Y-82009873D02*
X178703618Y-81971778D01*
X178703618Y-81971778D02*
X178665522Y-81895587D01*
X178665522Y-81895587D02*
X178665522Y-81857492D01*
X178665522Y-81857492D02*
X178703618Y-81781302D01*
X178703618Y-81781302D02*
X178779808Y-81743206D01*
X178779808Y-81743206D02*
X178894094Y-81743206D01*
X178894094Y-81743206D02*
X178970284Y-81781302D01*
X179960761Y-82276540D02*
X179960761Y-81476540D01*
X179960761Y-81857492D02*
X180417904Y-81857492D01*
X180417904Y-82276540D02*
X180417904Y-81476540D01*
X181103618Y-82238445D02*
X181027427Y-82276540D01*
X181027427Y-82276540D02*
X180875046Y-82276540D01*
X180875046Y-82276540D02*
X180798856Y-82238445D01*
X180798856Y-82238445D02*
X180760760Y-82162254D01*
X180760760Y-82162254D02*
X180760760Y-81857492D01*
X180760760Y-81857492D02*
X180798856Y-81781302D01*
X180798856Y-81781302D02*
X180875046Y-81743206D01*
X180875046Y-81743206D02*
X181027427Y-81743206D01*
X181027427Y-81743206D02*
X181103618Y-81781302D01*
X181103618Y-81781302D02*
X181141713Y-81857492D01*
X181141713Y-81857492D02*
X181141713Y-81933683D01*
X181141713Y-81933683D02*
X180760760Y-82009873D01*
X181484570Y-82276540D02*
X181484570Y-81743206D01*
X181484570Y-81895587D02*
X181522665Y-81819397D01*
X181522665Y-81819397D02*
X181560760Y-81781302D01*
X181560760Y-81781302D02*
X181636951Y-81743206D01*
X181636951Y-81743206D02*
X181713141Y-81743206D01*
X181979808Y-82276540D02*
X181979808Y-81743206D01*
X181979808Y-81895587D02*
X182017903Y-81819397D01*
X182017903Y-81819397D02*
X182055998Y-81781302D01*
X182055998Y-81781302D02*
X182132189Y-81743206D01*
X182132189Y-81743206D02*
X182208379Y-81743206D01*
X182779808Y-82238445D02*
X182703617Y-82276540D01*
X182703617Y-82276540D02*
X182551236Y-82276540D01*
X182551236Y-82276540D02*
X182475046Y-82238445D01*
X182475046Y-82238445D02*
X182436950Y-82162254D01*
X182436950Y-82162254D02*
X182436950Y-81857492D01*
X182436950Y-81857492D02*
X182475046Y-81781302D01*
X182475046Y-81781302D02*
X182551236Y-81743206D01*
X182551236Y-81743206D02*
X182703617Y-81743206D01*
X182703617Y-81743206D02*
X182779808Y-81781302D01*
X182779808Y-81781302D02*
X182817903Y-81857492D01*
X182817903Y-81857492D02*
X182817903Y-81933683D01*
X182817903Y-81933683D02*
X182436950Y-82009873D01*
X183160760Y-82276540D02*
X183160760Y-81743206D01*
X183160760Y-81895587D02*
X183198855Y-81819397D01*
X183198855Y-81819397D02*
X183236950Y-81781302D01*
X183236950Y-81781302D02*
X183313141Y-81743206D01*
X183313141Y-81743206D02*
X183389331Y-81743206D01*
X183998855Y-82276540D02*
X183998855Y-81857492D01*
X183998855Y-81857492D02*
X183960760Y-81781302D01*
X183960760Y-81781302D02*
X183884569Y-81743206D01*
X183884569Y-81743206D02*
X183732188Y-81743206D01*
X183732188Y-81743206D02*
X183655998Y-81781302D01*
X183998855Y-82238445D02*
X183922664Y-82276540D01*
X183922664Y-82276540D02*
X183732188Y-82276540D01*
X183732188Y-82276540D02*
X183655998Y-82238445D01*
X183655998Y-82238445D02*
X183617902Y-82162254D01*
X183617902Y-82162254D02*
X183617902Y-82086064D01*
X183617902Y-82086064D02*
X183655998Y-82009873D01*
X183655998Y-82009873D02*
X183732188Y-81971778D01*
X183732188Y-81971778D02*
X183922664Y-81971778D01*
X183922664Y-81971778D02*
X183998855Y-81933683D01*
X175922665Y-82764495D02*
X175922665Y-83412114D01*
X175922665Y-83412114D02*
X175960760Y-83488304D01*
X175960760Y-83488304D02*
X175998855Y-83526400D01*
X175998855Y-83526400D02*
X176075046Y-83564495D01*
X176075046Y-83564495D02*
X176227427Y-83564495D01*
X176227427Y-83564495D02*
X176303617Y-83526400D01*
X176303617Y-83526400D02*
X176341712Y-83488304D01*
X176341712Y-83488304D02*
X176379808Y-83412114D01*
X176379808Y-83412114D02*
X176379808Y-82764495D01*
X176760760Y-83564495D02*
X176760760Y-82764495D01*
X176760760Y-82764495D02*
X177065522Y-82764495D01*
X177065522Y-82764495D02*
X177141712Y-82802590D01*
X177141712Y-82802590D02*
X177179807Y-82840685D01*
X177179807Y-82840685D02*
X177217903Y-82916876D01*
X177217903Y-82916876D02*
X177217903Y-83031161D01*
X177217903Y-83031161D02*
X177179807Y-83107352D01*
X177179807Y-83107352D02*
X177141712Y-83145447D01*
X177141712Y-83145447D02*
X177065522Y-83183542D01*
X177065522Y-83183542D02*
X176760760Y-83183542D01*
X177560760Y-83564495D02*
X177560760Y-82764495D01*
X177560760Y-82764495D02*
X177827426Y-83335923D01*
X177827426Y-83335923D02*
X178094093Y-82764495D01*
X178094093Y-82764495D02*
X178094093Y-83564495D01*
X179046474Y-82840685D02*
X179084570Y-82802590D01*
X179084570Y-82802590D02*
X179160760Y-82764495D01*
X179160760Y-82764495D02*
X179351236Y-82764495D01*
X179351236Y-82764495D02*
X179427427Y-82802590D01*
X179427427Y-82802590D02*
X179465522Y-82840685D01*
X179465522Y-82840685D02*
X179503617Y-82916876D01*
X179503617Y-82916876D02*
X179503617Y-82993066D01*
X179503617Y-82993066D02*
X179465522Y-83107352D01*
X179465522Y-83107352D02*
X179008379Y-83564495D01*
X179008379Y-83564495D02*
X179503617Y-83564495D01*
X179998856Y-82764495D02*
X180075046Y-82764495D01*
X180075046Y-82764495D02*
X180151237Y-82802590D01*
X180151237Y-82802590D02*
X180189332Y-82840685D01*
X180189332Y-82840685D02*
X180227427Y-82916876D01*
X180227427Y-82916876D02*
X180265522Y-83069257D01*
X180265522Y-83069257D02*
X180265522Y-83259733D01*
X180265522Y-83259733D02*
X180227427Y-83412114D01*
X180227427Y-83412114D02*
X180189332Y-83488304D01*
X180189332Y-83488304D02*
X180151237Y-83526400D01*
X180151237Y-83526400D02*
X180075046Y-83564495D01*
X180075046Y-83564495D02*
X179998856Y-83564495D01*
X179998856Y-83564495D02*
X179922665Y-83526400D01*
X179922665Y-83526400D02*
X179884570Y-83488304D01*
X179884570Y-83488304D02*
X179846475Y-83412114D01*
X179846475Y-83412114D02*
X179808379Y-83259733D01*
X179808379Y-83259733D02*
X179808379Y-83069257D01*
X179808379Y-83069257D02*
X179846475Y-82916876D01*
X179846475Y-82916876D02*
X179884570Y-82840685D01*
X179884570Y-82840685D02*
X179922665Y-82802590D01*
X179922665Y-82802590D02*
X179998856Y-82764495D01*
X180570284Y-82840685D02*
X180608380Y-82802590D01*
X180608380Y-82802590D02*
X180684570Y-82764495D01*
X180684570Y-82764495D02*
X180875046Y-82764495D01*
X180875046Y-82764495D02*
X180951237Y-82802590D01*
X180951237Y-82802590D02*
X180989332Y-82840685D01*
X180989332Y-82840685D02*
X181027427Y-82916876D01*
X181027427Y-82916876D02*
X181027427Y-82993066D01*
X181027427Y-82993066D02*
X180989332Y-83107352D01*
X180989332Y-83107352D02*
X180532189Y-83564495D01*
X180532189Y-83564495D02*
X181027427Y-83564495D01*
X181713142Y-82764495D02*
X181560761Y-82764495D01*
X181560761Y-82764495D02*
X181484570Y-82802590D01*
X181484570Y-82802590D02*
X181446475Y-82840685D01*
X181446475Y-82840685D02*
X181370285Y-82954971D01*
X181370285Y-82954971D02*
X181332189Y-83107352D01*
X181332189Y-83107352D02*
X181332189Y-83412114D01*
X181332189Y-83412114D02*
X181370285Y-83488304D01*
X181370285Y-83488304D02*
X181408380Y-83526400D01*
X181408380Y-83526400D02*
X181484570Y-83564495D01*
X181484570Y-83564495D02*
X181636951Y-83564495D01*
X181636951Y-83564495D02*
X181713142Y-83526400D01*
X181713142Y-83526400D02*
X181751237Y-83488304D01*
X181751237Y-83488304D02*
X181789332Y-83412114D01*
X181789332Y-83412114D02*
X181789332Y-83221638D01*
X181789332Y-83221638D02*
X181751237Y-83145447D01*
X181751237Y-83145447D02*
X181713142Y-83107352D01*
X181713142Y-83107352D02*
X181636951Y-83069257D01*
X181636951Y-83069257D02*
X181484570Y-83069257D01*
X181484570Y-83069257D02*
X181408380Y-83107352D01*
X181408380Y-83107352D02*
X181370285Y-83145447D01*
X181370285Y-83145447D02*
X181332189Y-83221638D01*
X131828265Y-80596800D02*
X131971122Y-80644419D01*
X131971122Y-80644419D02*
X132209217Y-80644419D01*
X132209217Y-80644419D02*
X132304455Y-80596800D01*
X132304455Y-80596800D02*
X132352074Y-80549180D01*
X132352074Y-80549180D02*
X132399693Y-80453942D01*
X132399693Y-80453942D02*
X132399693Y-80358704D01*
X132399693Y-80358704D02*
X132352074Y-80263466D01*
X132352074Y-80263466D02*
X132304455Y-80215847D01*
X132304455Y-80215847D02*
X132209217Y-80168228D01*
X132209217Y-80168228D02*
X132018741Y-80120609D01*
X132018741Y-80120609D02*
X131923503Y-80072990D01*
X131923503Y-80072990D02*
X131875884Y-80025371D01*
X131875884Y-80025371D02*
X131828265Y-79930133D01*
X131828265Y-79930133D02*
X131828265Y-79834895D01*
X131828265Y-79834895D02*
X131875884Y-79739657D01*
X131875884Y-79739657D02*
X131923503Y-79692038D01*
X131923503Y-79692038D02*
X132018741Y-79644419D01*
X132018741Y-79644419D02*
X132256836Y-79644419D01*
X132256836Y-79644419D02*
X132399693Y-79692038D01*
X132685408Y-79977752D02*
X133066360Y-79977752D01*
X132828265Y-79644419D02*
X132828265Y-80501561D01*
X132828265Y-80501561D02*
X132875884Y-80596800D01*
X132875884Y-80596800D02*
X132971122Y-80644419D01*
X132971122Y-80644419D02*
X133066360Y-80644419D01*
X133828265Y-80644419D02*
X133828265Y-80120609D01*
X133828265Y-80120609D02*
X133780646Y-80025371D01*
X133780646Y-80025371D02*
X133685408Y-79977752D01*
X133685408Y-79977752D02*
X133494932Y-79977752D01*
X133494932Y-79977752D02*
X133399694Y-80025371D01*
X133828265Y-80596800D02*
X133733027Y-80644419D01*
X133733027Y-80644419D02*
X133494932Y-80644419D01*
X133494932Y-80644419D02*
X133399694Y-80596800D01*
X133399694Y-80596800D02*
X133352075Y-80501561D01*
X133352075Y-80501561D02*
X133352075Y-80406323D01*
X133352075Y-80406323D02*
X133399694Y-80311085D01*
X133399694Y-80311085D02*
X133494932Y-80263466D01*
X133494932Y-80263466D02*
X133733027Y-80263466D01*
X133733027Y-80263466D02*
X133828265Y-80215847D01*
X134161599Y-79977752D02*
X134542551Y-79977752D01*
X134304456Y-79644419D02*
X134304456Y-80501561D01*
X134304456Y-80501561D02*
X134352075Y-80596800D01*
X134352075Y-80596800D02*
X134447313Y-80644419D01*
X134447313Y-80644419D02*
X134542551Y-80644419D01*
X135304456Y-79977752D02*
X135304456Y-80644419D01*
X134875885Y-79977752D02*
X134875885Y-80501561D01*
X134875885Y-80501561D02*
X134923504Y-80596800D01*
X134923504Y-80596800D02*
X135018742Y-80644419D01*
X135018742Y-80644419D02*
X135161599Y-80644419D01*
X135161599Y-80644419D02*
X135256837Y-80596800D01*
X135256837Y-80596800D02*
X135304456Y-80549180D01*
X135733028Y-80596800D02*
X135828266Y-80644419D01*
X135828266Y-80644419D02*
X136018742Y-80644419D01*
X136018742Y-80644419D02*
X136113980Y-80596800D01*
X136113980Y-80596800D02*
X136161599Y-80501561D01*
X136161599Y-80501561D02*
X136161599Y-80453942D01*
X136161599Y-80453942D02*
X136113980Y-80358704D01*
X136113980Y-80358704D02*
X136018742Y-80311085D01*
X136018742Y-80311085D02*
X135875885Y-80311085D01*
X135875885Y-80311085D02*
X135780647Y-80263466D01*
X135780647Y-80263466D02*
X135733028Y-80168228D01*
X135733028Y-80168228D02*
X135733028Y-80120609D01*
X135733028Y-80120609D02*
X135780647Y-80025371D01*
X135780647Y-80025371D02*
X135875885Y-79977752D01*
X135875885Y-79977752D02*
X136018742Y-79977752D01*
X136018742Y-79977752D02*
X136113980Y-80025371D01*
X132599712Y-120725619D02*
X132266379Y-120249428D01*
X132028284Y-120725619D02*
X132028284Y-119725619D01*
X132028284Y-119725619D02*
X132409236Y-119725619D01*
X132409236Y-119725619D02*
X132504474Y-119773238D01*
X132504474Y-119773238D02*
X132552093Y-119820857D01*
X132552093Y-119820857D02*
X132599712Y-119916095D01*
X132599712Y-119916095D02*
X132599712Y-120058952D01*
X132599712Y-120058952D02*
X132552093Y-120154190D01*
X132552093Y-120154190D02*
X132504474Y-120201809D01*
X132504474Y-120201809D02*
X132409236Y-120249428D01*
X132409236Y-120249428D02*
X132028284Y-120249428D01*
X133171141Y-120725619D02*
X133075903Y-120678000D01*
X133075903Y-120678000D02*
X133028284Y-120630380D01*
X133028284Y-120630380D02*
X132980665Y-120535142D01*
X132980665Y-120535142D02*
X132980665Y-120249428D01*
X132980665Y-120249428D02*
X133028284Y-120154190D01*
X133028284Y-120154190D02*
X133075903Y-120106571D01*
X133075903Y-120106571D02*
X133171141Y-120058952D01*
X133171141Y-120058952D02*
X133313998Y-120058952D01*
X133313998Y-120058952D02*
X133409236Y-120106571D01*
X133409236Y-120106571D02*
X133456855Y-120154190D01*
X133456855Y-120154190D02*
X133504474Y-120249428D01*
X133504474Y-120249428D02*
X133504474Y-120535142D01*
X133504474Y-120535142D02*
X133456855Y-120630380D01*
X133456855Y-120630380D02*
X133409236Y-120678000D01*
X133409236Y-120678000D02*
X133313998Y-120725619D01*
X133313998Y-120725619D02*
X133171141Y-120725619D01*
X133933046Y-120725619D02*
X133933046Y-119725619D01*
X133933046Y-120106571D02*
X134028284Y-120058952D01*
X134028284Y-120058952D02*
X134218760Y-120058952D01*
X134218760Y-120058952D02*
X134313998Y-120106571D01*
X134313998Y-120106571D02*
X134361617Y-120154190D01*
X134361617Y-120154190D02*
X134409236Y-120249428D01*
X134409236Y-120249428D02*
X134409236Y-120535142D01*
X134409236Y-120535142D02*
X134361617Y-120630380D01*
X134361617Y-120630380D02*
X134313998Y-120678000D01*
X134313998Y-120678000D02*
X134218760Y-120725619D01*
X134218760Y-120725619D02*
X134028284Y-120725619D01*
X134028284Y-120725619D02*
X133933046Y-120678000D01*
X134980665Y-120725619D02*
X134885427Y-120678000D01*
X134885427Y-120678000D02*
X134837808Y-120630380D01*
X134837808Y-120630380D02*
X134790189Y-120535142D01*
X134790189Y-120535142D02*
X134790189Y-120249428D01*
X134790189Y-120249428D02*
X134837808Y-120154190D01*
X134837808Y-120154190D02*
X134885427Y-120106571D01*
X134885427Y-120106571D02*
X134980665Y-120058952D01*
X134980665Y-120058952D02*
X135123522Y-120058952D01*
X135123522Y-120058952D02*
X135218760Y-120106571D01*
X135218760Y-120106571D02*
X135266379Y-120154190D01*
X135266379Y-120154190D02*
X135313998Y-120249428D01*
X135313998Y-120249428D02*
X135313998Y-120535142D01*
X135313998Y-120535142D02*
X135266379Y-120630380D01*
X135266379Y-120630380D02*
X135218760Y-120678000D01*
X135218760Y-120678000D02*
X135123522Y-120725619D01*
X135123522Y-120725619D02*
X134980665Y-120725619D01*
X136313998Y-120630380D02*
X136266379Y-120678000D01*
X136266379Y-120678000D02*
X136123522Y-120725619D01*
X136123522Y-120725619D02*
X136028284Y-120725619D01*
X136028284Y-120725619D02*
X135885427Y-120678000D01*
X135885427Y-120678000D02*
X135790189Y-120582761D01*
X135790189Y-120582761D02*
X135742570Y-120487523D01*
X135742570Y-120487523D02*
X135694951Y-120297047D01*
X135694951Y-120297047D02*
X135694951Y-120154190D01*
X135694951Y-120154190D02*
X135742570Y-119963714D01*
X135742570Y-119963714D02*
X135790189Y-119868476D01*
X135790189Y-119868476D02*
X135885427Y-119773238D01*
X135885427Y-119773238D02*
X136028284Y-119725619D01*
X136028284Y-119725619D02*
X136123522Y-119725619D01*
X136123522Y-119725619D02*
X136266379Y-119773238D01*
X136266379Y-119773238D02*
X136313998Y-119820857D01*
X136885427Y-120725619D02*
X136790189Y-120678000D01*
X136790189Y-120678000D02*
X136742570Y-120582761D01*
X136742570Y-120582761D02*
X136742570Y-119725619D01*
X137694951Y-120725619D02*
X137694951Y-120201809D01*
X137694951Y-120201809D02*
X137647332Y-120106571D01*
X137647332Y-120106571D02*
X137552094Y-120058952D01*
X137552094Y-120058952D02*
X137361618Y-120058952D01*
X137361618Y-120058952D02*
X137266380Y-120106571D01*
X137694951Y-120678000D02*
X137599713Y-120725619D01*
X137599713Y-120725619D02*
X137361618Y-120725619D01*
X137361618Y-120725619D02*
X137266380Y-120678000D01*
X137266380Y-120678000D02*
X137218761Y-120582761D01*
X137218761Y-120582761D02*
X137218761Y-120487523D01*
X137218761Y-120487523D02*
X137266380Y-120392285D01*
X137266380Y-120392285D02*
X137361618Y-120344666D01*
X137361618Y-120344666D02*
X137599713Y-120344666D01*
X137599713Y-120344666D02*
X137694951Y-120297047D01*
X138075904Y-120058952D02*
X138266380Y-120725619D01*
X138266380Y-120725619D02*
X138456856Y-120249428D01*
X138456856Y-120249428D02*
X138647332Y-120725619D01*
X138647332Y-120725619D02*
X138837808Y-120058952D01*
X133095084Y-112191219D02*
X133095084Y-111191219D01*
X133523655Y-111286457D02*
X133571274Y-111238838D01*
X133571274Y-111238838D02*
X133666512Y-111191219D01*
X133666512Y-111191219D02*
X133904607Y-111191219D01*
X133904607Y-111191219D02*
X133999845Y-111238838D01*
X133999845Y-111238838D02*
X134047464Y-111286457D01*
X134047464Y-111286457D02*
X134095083Y-111381695D01*
X134095083Y-111381695D02*
X134095083Y-111476933D01*
X134095083Y-111476933D02*
X134047464Y-111619790D01*
X134047464Y-111619790D02*
X133476036Y-112191219D01*
X133476036Y-112191219D02*
X134095083Y-112191219D01*
X135095083Y-112095980D02*
X135047464Y-112143600D01*
X135047464Y-112143600D02*
X134904607Y-112191219D01*
X134904607Y-112191219D02*
X134809369Y-112191219D01*
X134809369Y-112191219D02*
X134666512Y-112143600D01*
X134666512Y-112143600D02*
X134571274Y-112048361D01*
X134571274Y-112048361D02*
X134523655Y-111953123D01*
X134523655Y-111953123D02*
X134476036Y-111762647D01*
X134476036Y-111762647D02*
X134476036Y-111619790D01*
X134476036Y-111619790D02*
X134523655Y-111429314D01*
X134523655Y-111429314D02*
X134571274Y-111334076D01*
X134571274Y-111334076D02*
X134666512Y-111238838D01*
X134666512Y-111238838D02*
X134809369Y-111191219D01*
X134809369Y-111191219D02*
X134904607Y-111191219D01*
X134904607Y-111191219D02*
X135047464Y-111238838D01*
X135047464Y-111238838D02*
X135095083Y-111286457D01*
X144931484Y-127075619D02*
X144931484Y-126075619D01*
X144931484Y-126075619D02*
X145169579Y-126075619D01*
X145169579Y-126075619D02*
X145312436Y-126123238D01*
X145312436Y-126123238D02*
X145407674Y-126218476D01*
X145407674Y-126218476D02*
X145455293Y-126313714D01*
X145455293Y-126313714D02*
X145502912Y-126504190D01*
X145502912Y-126504190D02*
X145502912Y-126647047D01*
X145502912Y-126647047D02*
X145455293Y-126837523D01*
X145455293Y-126837523D02*
X145407674Y-126932761D01*
X145407674Y-126932761D02*
X145312436Y-127028000D01*
X145312436Y-127028000D02*
X145169579Y-127075619D01*
X145169579Y-127075619D02*
X144931484Y-127075619D01*
X145836246Y-126408952D02*
X146074341Y-127075619D01*
X146312436Y-126408952D02*
X146074341Y-127075619D01*
X146074341Y-127075619D02*
X145979103Y-127313714D01*
X145979103Y-127313714D02*
X145931484Y-127361333D01*
X145931484Y-127361333D02*
X145836246Y-127408952D01*
X146693389Y-126408952D02*
X146693389Y-127075619D01*
X146693389Y-126504190D02*
X146741008Y-126456571D01*
X146741008Y-126456571D02*
X146836246Y-126408952D01*
X146836246Y-126408952D02*
X146979103Y-126408952D01*
X146979103Y-126408952D02*
X147074341Y-126456571D01*
X147074341Y-126456571D02*
X147121960Y-126551809D01*
X147121960Y-126551809D02*
X147121960Y-127075619D01*
X148026722Y-127075619D02*
X148026722Y-126551809D01*
X148026722Y-126551809D02*
X147979103Y-126456571D01*
X147979103Y-126456571D02*
X147883865Y-126408952D01*
X147883865Y-126408952D02*
X147693389Y-126408952D01*
X147693389Y-126408952D02*
X147598151Y-126456571D01*
X148026722Y-127028000D02*
X147931484Y-127075619D01*
X147931484Y-127075619D02*
X147693389Y-127075619D01*
X147693389Y-127075619D02*
X147598151Y-127028000D01*
X147598151Y-127028000D02*
X147550532Y-126932761D01*
X147550532Y-126932761D02*
X147550532Y-126837523D01*
X147550532Y-126837523D02*
X147598151Y-126742285D01*
X147598151Y-126742285D02*
X147693389Y-126694666D01*
X147693389Y-126694666D02*
X147931484Y-126694666D01*
X147931484Y-126694666D02*
X148026722Y-126647047D01*
X148502913Y-127075619D02*
X148502913Y-126408952D01*
X148502913Y-126504190D02*
X148550532Y-126456571D01*
X148550532Y-126456571D02*
X148645770Y-126408952D01*
X148645770Y-126408952D02*
X148788627Y-126408952D01*
X148788627Y-126408952D02*
X148883865Y-126456571D01*
X148883865Y-126456571D02*
X148931484Y-126551809D01*
X148931484Y-126551809D02*
X148931484Y-127075619D01*
X148931484Y-126551809D02*
X148979103Y-126456571D01*
X148979103Y-126456571D02*
X149074341Y-126408952D01*
X149074341Y-126408952D02*
X149217198Y-126408952D01*
X149217198Y-126408952D02*
X149312437Y-126456571D01*
X149312437Y-126456571D02*
X149360056Y-126551809D01*
X149360056Y-126551809D02*
X149360056Y-127075619D01*
X149836246Y-127075619D02*
X149836246Y-126408952D01*
X149836246Y-126075619D02*
X149788627Y-126123238D01*
X149788627Y-126123238D02*
X149836246Y-126170857D01*
X149836246Y-126170857D02*
X149883865Y-126123238D01*
X149883865Y-126123238D02*
X149836246Y-126075619D01*
X149836246Y-126075619D02*
X149836246Y-126170857D01*
X150217198Y-127075619D02*
X150741007Y-126408952D01*
X150217198Y-126408952D02*
X150741007Y-127075619D01*
X151502912Y-127028000D02*
X151407674Y-127075619D01*
X151407674Y-127075619D02*
X151217198Y-127075619D01*
X151217198Y-127075619D02*
X151121960Y-127028000D01*
X151121960Y-127028000D02*
X151074341Y-126932761D01*
X151074341Y-126932761D02*
X151074341Y-126551809D01*
X151074341Y-126551809D02*
X151121960Y-126456571D01*
X151121960Y-126456571D02*
X151217198Y-126408952D01*
X151217198Y-126408952D02*
X151407674Y-126408952D01*
X151407674Y-126408952D02*
X151502912Y-126456571D01*
X151502912Y-126456571D02*
X151550531Y-126551809D01*
X151550531Y-126551809D02*
X151550531Y-126647047D01*
X151550531Y-126647047D02*
X151074341Y-126742285D01*
X152121960Y-127075619D02*
X152026722Y-127028000D01*
X152026722Y-127028000D02*
X151979103Y-126932761D01*
X151979103Y-126932761D02*
X151979103Y-126075619D01*
X159930112Y-120884380D02*
X159882493Y-120932000D01*
X159882493Y-120932000D02*
X159739636Y-120979619D01*
X159739636Y-120979619D02*
X159644398Y-120979619D01*
X159644398Y-120979619D02*
X159501541Y-120932000D01*
X159501541Y-120932000D02*
X159406303Y-120836761D01*
X159406303Y-120836761D02*
X159358684Y-120741523D01*
X159358684Y-120741523D02*
X159311065Y-120551047D01*
X159311065Y-120551047D02*
X159311065Y-120408190D01*
X159311065Y-120408190D02*
X159358684Y-120217714D01*
X159358684Y-120217714D02*
X159406303Y-120122476D01*
X159406303Y-120122476D02*
X159501541Y-120027238D01*
X159501541Y-120027238D02*
X159644398Y-119979619D01*
X159644398Y-119979619D02*
X159739636Y-119979619D01*
X159739636Y-119979619D02*
X159882493Y-120027238D01*
X159882493Y-120027238D02*
X159930112Y-120074857D01*
X160311065Y-120693904D02*
X160787255Y-120693904D01*
X160215827Y-120979619D02*
X160549160Y-119979619D01*
X160549160Y-119979619D02*
X160882493Y-120979619D01*
X161215827Y-120979619D02*
X161215827Y-119979619D01*
X161215827Y-119979619D02*
X161787255Y-120979619D01*
X161787255Y-120979619D02*
X161787255Y-119979619D01*
X175884493Y-118134819D02*
X175313065Y-118134819D01*
X175598779Y-118134819D02*
X175598779Y-117134819D01*
X175598779Y-117134819D02*
X175503541Y-117277676D01*
X175503541Y-117277676D02*
X175408303Y-117372914D01*
X175408303Y-117372914D02*
X175313065Y-117420533D01*
X176265446Y-117230057D02*
X176313065Y-117182438D01*
X176313065Y-117182438D02*
X176408303Y-117134819D01*
X176408303Y-117134819D02*
X176646398Y-117134819D01*
X176646398Y-117134819D02*
X176741636Y-117182438D01*
X176741636Y-117182438D02*
X176789255Y-117230057D01*
X176789255Y-117230057D02*
X176836874Y-117325295D01*
X176836874Y-117325295D02*
X176836874Y-117420533D01*
X176836874Y-117420533D02*
X176789255Y-117563390D01*
X176789255Y-117563390D02*
X176217827Y-118134819D01*
X176217827Y-118134819D02*
X176836874Y-118134819D01*
X177122589Y-117134819D02*
X177455922Y-118134819D01*
X177455922Y-118134819D02*
X177789255Y-117134819D01*
X178884494Y-118134819D02*
X178884494Y-117134819D01*
X179360684Y-118134819D02*
X179360684Y-117134819D01*
X179360684Y-117134819D02*
X179932112Y-118134819D01*
X179932112Y-118134819D02*
X179932112Y-117134819D01*
D11*
X145921733Y-114798180D02*
X145874114Y-114845800D01*
X145874114Y-114845800D02*
X145731257Y-114893419D01*
X145731257Y-114893419D02*
X145636019Y-114893419D01*
X145636019Y-114893419D02*
X145493162Y-114845800D01*
X145493162Y-114845800D02*
X145397924Y-114750561D01*
X145397924Y-114750561D02*
X145350305Y-114655323D01*
X145350305Y-114655323D02*
X145302686Y-114464847D01*
X145302686Y-114464847D02*
X145302686Y-114321990D01*
X145302686Y-114321990D02*
X145350305Y-114131514D01*
X145350305Y-114131514D02*
X145397924Y-114036276D01*
X145397924Y-114036276D02*
X145493162Y-113941038D01*
X145493162Y-113941038D02*
X145636019Y-113893419D01*
X145636019Y-113893419D02*
X145731257Y-113893419D01*
X145731257Y-113893419D02*
X145874114Y-113941038D01*
X145874114Y-113941038D02*
X145921733Y-113988657D01*
X146778876Y-114226752D02*
X146778876Y-114893419D01*
X146540781Y-113845800D02*
X146302686Y-114560085D01*
X146302686Y-114560085D02*
X146921733Y-114560085D01*
X147804819Y-81738094D02*
X146804819Y-81738094D01*
X146804819Y-81738094D02*
X146804819Y-81499999D01*
X146804819Y-81499999D02*
X146852438Y-81357142D01*
X146852438Y-81357142D02*
X146947676Y-81261904D01*
X146947676Y-81261904D02*
X147042914Y-81214285D01*
X147042914Y-81214285D02*
X147233390Y-81166666D01*
X147233390Y-81166666D02*
X147376247Y-81166666D01*
X147376247Y-81166666D02*
X147566723Y-81214285D01*
X147566723Y-81214285D02*
X147661961Y-81261904D01*
X147661961Y-81261904D02*
X147757200Y-81357142D01*
X147757200Y-81357142D02*
X147804819Y-81499999D01*
X147804819Y-81499999D02*
X147804819Y-81738094D01*
X146804819Y-80261904D02*
X146804819Y-80738094D01*
X146804819Y-80738094D02*
X147281009Y-80785713D01*
X147281009Y-80785713D02*
X147233390Y-80738094D01*
X147233390Y-80738094D02*
X147185771Y-80642856D01*
X147185771Y-80642856D02*
X147185771Y-80404761D01*
X147185771Y-80404761D02*
X147233390Y-80309523D01*
X147233390Y-80309523D02*
X147281009Y-80261904D01*
X147281009Y-80261904D02*
X147376247Y-80214285D01*
X147376247Y-80214285D02*
X147614342Y-80214285D01*
X147614342Y-80214285D02*
X147709580Y-80261904D01*
X147709580Y-80261904D02*
X147757200Y-80309523D01*
X147757200Y-80309523D02*
X147804819Y-80404761D01*
X147804819Y-80404761D02*
X147804819Y-80642856D01*
X147804819Y-80642856D02*
X147757200Y-80738094D01*
X147757200Y-80738094D02*
X147709580Y-80785713D01*
X148093466Y-119794019D02*
X148093466Y-120508304D01*
X148093466Y-120508304D02*
X148045847Y-120651161D01*
X148045847Y-120651161D02*
X147950609Y-120746400D01*
X147950609Y-120746400D02*
X147807752Y-120794019D01*
X147807752Y-120794019D02*
X147712514Y-120794019D01*
X148474419Y-119794019D02*
X149093466Y-119794019D01*
X149093466Y-119794019D02*
X148760133Y-120174971D01*
X148760133Y-120174971D02*
X148902990Y-120174971D01*
X148902990Y-120174971D02*
X148998228Y-120222590D01*
X148998228Y-120222590D02*
X149045847Y-120270209D01*
X149045847Y-120270209D02*
X149093466Y-120365447D01*
X149093466Y-120365447D02*
X149093466Y-120603542D01*
X149093466Y-120603542D02*
X149045847Y-120698780D01*
X149045847Y-120698780D02*
X148998228Y-120746400D01*
X148998228Y-120746400D02*
X148902990Y-120794019D01*
X148902990Y-120794019D02*
X148617276Y-120794019D01*
X148617276Y-120794019D02*
X148522038Y-120746400D01*
X148522038Y-120746400D02*
X148474419Y-120698780D01*
X164761905Y-107454819D02*
X164761905Y-106454819D01*
X164761905Y-106454819D02*
X165000000Y-106454819D01*
X165000000Y-106454819D02*
X165142857Y-106502438D01*
X165142857Y-106502438D02*
X165238095Y-106597676D01*
X165238095Y-106597676D02*
X165285714Y-106692914D01*
X165285714Y-106692914D02*
X165333333Y-106883390D01*
X165333333Y-106883390D02*
X165333333Y-107026247D01*
X165333333Y-107026247D02*
X165285714Y-107216723D01*
X165285714Y-107216723D02*
X165238095Y-107311961D01*
X165238095Y-107311961D02*
X165142857Y-107407200D01*
X165142857Y-107407200D02*
X165000000Y-107454819D01*
X165000000Y-107454819D02*
X164761905Y-107454819D01*
X166285714Y-107454819D02*
X165714286Y-107454819D01*
X166000000Y-107454819D02*
X166000000Y-106454819D01*
X166000000Y-106454819D02*
X165904762Y-106597676D01*
X165904762Y-106597676D02*
X165809524Y-106692914D01*
X165809524Y-106692914D02*
X165714286Y-106740533D01*
X152333333Y-101359580D02*
X152285714Y-101407200D01*
X152285714Y-101407200D02*
X152142857Y-101454819D01*
X152142857Y-101454819D02*
X152047619Y-101454819D01*
X152047619Y-101454819D02*
X151904762Y-101407200D01*
X151904762Y-101407200D02*
X151809524Y-101311961D01*
X151809524Y-101311961D02*
X151761905Y-101216723D01*
X151761905Y-101216723D02*
X151714286Y-101026247D01*
X151714286Y-101026247D02*
X151714286Y-100883390D01*
X151714286Y-100883390D02*
X151761905Y-100692914D01*
X151761905Y-100692914D02*
X151809524Y-100597676D01*
X151809524Y-100597676D02*
X151904762Y-100502438D01*
X151904762Y-100502438D02*
X152047619Y-100454819D01*
X152047619Y-100454819D02*
X152142857Y-100454819D01*
X152142857Y-100454819D02*
X152285714Y-100502438D01*
X152285714Y-100502438D02*
X152333333Y-100550057D01*
X152714286Y-100550057D02*
X152761905Y-100502438D01*
X152761905Y-100502438D02*
X152857143Y-100454819D01*
X152857143Y-100454819D02*
X153095238Y-100454819D01*
X153095238Y-100454819D02*
X153190476Y-100502438D01*
X153190476Y-100502438D02*
X153238095Y-100550057D01*
X153238095Y-100550057D02*
X153285714Y-100645295D01*
X153285714Y-100645295D02*
X153285714Y-100740533D01*
X153285714Y-100740533D02*
X153238095Y-100883390D01*
X153238095Y-100883390D02*
X152666667Y-101454819D01*
X152666667Y-101454819D02*
X153285714Y-101454819D01*
X133666666Y-86354819D02*
X133666666Y-87069104D01*
X133666666Y-87069104D02*
X133619047Y-87211961D01*
X133619047Y-87211961D02*
X133523809Y-87307200D01*
X133523809Y-87307200D02*
X133380952Y-87354819D01*
X133380952Y-87354819D02*
X133285714Y-87354819D01*
X134571428Y-86354819D02*
X134380952Y-86354819D01*
X134380952Y-86354819D02*
X134285714Y-86402438D01*
X134285714Y-86402438D02*
X134238095Y-86450057D01*
X134238095Y-86450057D02*
X134142857Y-86592914D01*
X134142857Y-86592914D02*
X134095238Y-86783390D01*
X134095238Y-86783390D02*
X134095238Y-87164342D01*
X134095238Y-87164342D02*
X134142857Y-87259580D01*
X134142857Y-87259580D02*
X134190476Y-87307200D01*
X134190476Y-87307200D02*
X134285714Y-87354819D01*
X134285714Y-87354819D02*
X134476190Y-87354819D01*
X134476190Y-87354819D02*
X134571428Y-87307200D01*
X134571428Y-87307200D02*
X134619047Y-87259580D01*
X134619047Y-87259580D02*
X134666666Y-87164342D01*
X134666666Y-87164342D02*
X134666666Y-86926247D01*
X134666666Y-86926247D02*
X134619047Y-86831009D01*
X134619047Y-86831009D02*
X134571428Y-86783390D01*
X134571428Y-86783390D02*
X134476190Y-86735771D01*
X134476190Y-86735771D02*
X134285714Y-86735771D01*
X134285714Y-86735771D02*
X134190476Y-86783390D01*
X134190476Y-86783390D02*
X134142857Y-86831009D01*
X134142857Y-86831009D02*
X134095238Y-86926247D01*
X162620819Y-113574504D02*
X163430342Y-113574504D01*
X163430342Y-113574504D02*
X163525580Y-113526885D01*
X163525580Y-113526885D02*
X163573200Y-113479266D01*
X163573200Y-113479266D02*
X163620819Y-113384028D01*
X163620819Y-113384028D02*
X163620819Y-113193552D01*
X163620819Y-113193552D02*
X163573200Y-113098314D01*
X163573200Y-113098314D02*
X163525580Y-113050695D01*
X163525580Y-113050695D02*
X163430342Y-113003076D01*
X163430342Y-113003076D02*
X162620819Y-113003076D01*
X162716057Y-112574504D02*
X162668438Y-112526885D01*
X162668438Y-112526885D02*
X162620819Y-112431647D01*
X162620819Y-112431647D02*
X162620819Y-112193552D01*
X162620819Y-112193552D02*
X162668438Y-112098314D01*
X162668438Y-112098314D02*
X162716057Y-112050695D01*
X162716057Y-112050695D02*
X162811295Y-112003076D01*
X162811295Y-112003076D02*
X162906533Y-112003076D01*
X162906533Y-112003076D02*
X163049390Y-112050695D01*
X163049390Y-112050695D02*
X163620819Y-112622123D01*
X163620819Y-112622123D02*
X163620819Y-112003076D01*
X126005219Y-75974533D02*
X126719504Y-75974533D01*
X126719504Y-75974533D02*
X126862361Y-76022152D01*
X126862361Y-76022152D02*
X126957600Y-76117390D01*
X126957600Y-76117390D02*
X127005219Y-76260247D01*
X127005219Y-76260247D02*
X127005219Y-76355485D01*
X127005219Y-74974533D02*
X127005219Y-75545961D01*
X127005219Y-75260247D02*
X126005219Y-75260247D01*
X126005219Y-75260247D02*
X126148076Y-75355485D01*
X126148076Y-75355485D02*
X126243314Y-75450723D01*
X126243314Y-75450723D02*
X126290933Y-75545961D01*
X133666666Y-118354819D02*
X133666666Y-119069104D01*
X133666666Y-119069104D02*
X133619047Y-119211961D01*
X133619047Y-119211961D02*
X133523809Y-119307200D01*
X133523809Y-119307200D02*
X133380952Y-119354819D01*
X133380952Y-119354819D02*
X133285714Y-119354819D01*
X134047619Y-118354819D02*
X134714285Y-118354819D01*
X134714285Y-118354819D02*
X134285714Y-119354819D01*
X160259733Y-117599619D02*
X159926400Y-117123428D01*
X159688305Y-117599619D02*
X159688305Y-116599619D01*
X159688305Y-116599619D02*
X160069257Y-116599619D01*
X160069257Y-116599619D02*
X160164495Y-116647238D01*
X160164495Y-116647238D02*
X160212114Y-116694857D01*
X160212114Y-116694857D02*
X160259733Y-116790095D01*
X160259733Y-116790095D02*
X160259733Y-116932952D01*
X160259733Y-116932952D02*
X160212114Y-117028190D01*
X160212114Y-117028190D02*
X160164495Y-117075809D01*
X160164495Y-117075809D02*
X160069257Y-117123428D01*
X160069257Y-117123428D02*
X159688305Y-117123428D01*
X161164495Y-116599619D02*
X160688305Y-116599619D01*
X160688305Y-116599619D02*
X160640686Y-117075809D01*
X160640686Y-117075809D02*
X160688305Y-117028190D01*
X160688305Y-117028190D02*
X160783543Y-116980571D01*
X160783543Y-116980571D02*
X161021638Y-116980571D01*
X161021638Y-116980571D02*
X161116876Y-117028190D01*
X161116876Y-117028190D02*
X161164495Y-117075809D01*
X161164495Y-117075809D02*
X161212114Y-117171047D01*
X161212114Y-117171047D02*
X161212114Y-117409142D01*
X161212114Y-117409142D02*
X161164495Y-117504380D01*
X161164495Y-117504380D02*
X161116876Y-117552000D01*
X161116876Y-117552000D02*
X161021638Y-117599619D01*
X161021638Y-117599619D02*
X160783543Y-117599619D01*
X160783543Y-117599619D02*
X160688305Y-117552000D01*
X160688305Y-117552000D02*
X160640686Y-117504380D01*
X134743866Y-126552019D02*
X134743866Y-127266304D01*
X134743866Y-127266304D02*
X134696247Y-127409161D01*
X134696247Y-127409161D02*
X134601009Y-127504400D01*
X134601009Y-127504400D02*
X134458152Y-127552019D01*
X134458152Y-127552019D02*
X134362914Y-127552019D01*
X135172438Y-126647257D02*
X135220057Y-126599638D01*
X135220057Y-126599638D02*
X135315295Y-126552019D01*
X135315295Y-126552019D02*
X135553390Y-126552019D01*
X135553390Y-126552019D02*
X135648628Y-126599638D01*
X135648628Y-126599638D02*
X135696247Y-126647257D01*
X135696247Y-126647257D02*
X135743866Y-126742495D01*
X135743866Y-126742495D02*
X135743866Y-126837733D01*
X135743866Y-126837733D02*
X135696247Y-126980590D01*
X135696247Y-126980590D02*
X135124819Y-127552019D01*
X135124819Y-127552019D02*
X135743866Y-127552019D01*
X153694133Y-111387380D02*
X153646514Y-111435000D01*
X153646514Y-111435000D02*
X153503657Y-111482619D01*
X153503657Y-111482619D02*
X153408419Y-111482619D01*
X153408419Y-111482619D02*
X153265562Y-111435000D01*
X153265562Y-111435000D02*
X153170324Y-111339761D01*
X153170324Y-111339761D02*
X153122705Y-111244523D01*
X153122705Y-111244523D02*
X153075086Y-111054047D01*
X153075086Y-111054047D02*
X153075086Y-110911190D01*
X153075086Y-110911190D02*
X153122705Y-110720714D01*
X153122705Y-110720714D02*
X153170324Y-110625476D01*
X153170324Y-110625476D02*
X153265562Y-110530238D01*
X153265562Y-110530238D02*
X153408419Y-110482619D01*
X153408419Y-110482619D02*
X153503657Y-110482619D01*
X153503657Y-110482619D02*
X153646514Y-110530238D01*
X153646514Y-110530238D02*
X153694133Y-110577857D01*
X154027467Y-110482619D02*
X154646514Y-110482619D01*
X154646514Y-110482619D02*
X154313181Y-110863571D01*
X154313181Y-110863571D02*
X154456038Y-110863571D01*
X154456038Y-110863571D02*
X154551276Y-110911190D01*
X154551276Y-110911190D02*
X154598895Y-110958809D01*
X154598895Y-110958809D02*
X154646514Y-111054047D01*
X154646514Y-111054047D02*
X154646514Y-111292142D01*
X154646514Y-111292142D02*
X154598895Y-111387380D01*
X154598895Y-111387380D02*
X154551276Y-111435000D01*
X154551276Y-111435000D02*
X154456038Y-111482619D01*
X154456038Y-111482619D02*
X154170324Y-111482619D01*
X154170324Y-111482619D02*
X154075086Y-111435000D01*
X154075086Y-111435000D02*
X154027467Y-111387380D01*
D10*
X174957419Y-100761904D02*
X175766942Y-100761904D01*
X175766942Y-100761904D02*
X175862180Y-100714285D01*
X175862180Y-100714285D02*
X175909800Y-100666666D01*
X175909800Y-100666666D02*
X175957419Y-100571428D01*
X175957419Y-100571428D02*
X175957419Y-100380952D01*
X175957419Y-100380952D02*
X175909800Y-100285714D01*
X175909800Y-100285714D02*
X175862180Y-100238095D01*
X175862180Y-100238095D02*
X175766942Y-100190476D01*
X175766942Y-100190476D02*
X174957419Y-100190476D01*
X175290752Y-99285714D02*
X175957419Y-99285714D01*
X174909800Y-99523809D02*
X175624085Y-99761904D01*
X175624085Y-99761904D02*
X175624085Y-99142857D01*
D11*
X155065733Y-118777019D02*
X154732400Y-118300828D01*
X154494305Y-118777019D02*
X154494305Y-117777019D01*
X154494305Y-117777019D02*
X154875257Y-117777019D01*
X154875257Y-117777019D02*
X154970495Y-117824638D01*
X154970495Y-117824638D02*
X155018114Y-117872257D01*
X155018114Y-117872257D02*
X155065733Y-117967495D01*
X155065733Y-117967495D02*
X155065733Y-118110352D01*
X155065733Y-118110352D02*
X155018114Y-118205590D01*
X155018114Y-118205590D02*
X154970495Y-118253209D01*
X154970495Y-118253209D02*
X154875257Y-118300828D01*
X154875257Y-118300828D02*
X154494305Y-118300828D01*
X155446686Y-117872257D02*
X155494305Y-117824638D01*
X155494305Y-117824638D02*
X155589543Y-117777019D01*
X155589543Y-117777019D02*
X155827638Y-117777019D01*
X155827638Y-117777019D02*
X155922876Y-117824638D01*
X155922876Y-117824638D02*
X155970495Y-117872257D01*
X155970495Y-117872257D02*
X156018114Y-117967495D01*
X156018114Y-117967495D02*
X156018114Y-118062733D01*
X156018114Y-118062733D02*
X155970495Y-118205590D01*
X155970495Y-118205590D02*
X155399067Y-118777019D01*
X155399067Y-118777019D02*
X156018114Y-118777019D01*
X168104819Y-81166666D02*
X167628628Y-81499999D01*
X168104819Y-81738094D02*
X167104819Y-81738094D01*
X167104819Y-81738094D02*
X167104819Y-81357142D01*
X167104819Y-81357142D02*
X167152438Y-81261904D01*
X167152438Y-81261904D02*
X167200057Y-81214285D01*
X167200057Y-81214285D02*
X167295295Y-81166666D01*
X167295295Y-81166666D02*
X167438152Y-81166666D01*
X167438152Y-81166666D02*
X167533390Y-81214285D01*
X167533390Y-81214285D02*
X167581009Y-81261904D01*
X167581009Y-81261904D02*
X167628628Y-81357142D01*
X167628628Y-81357142D02*
X167628628Y-81738094D01*
X168104819Y-80214285D02*
X168104819Y-80785713D01*
X168104819Y-80499999D02*
X167104819Y-80499999D01*
X167104819Y-80499999D02*
X167247676Y-80595237D01*
X167247676Y-80595237D02*
X167342914Y-80690475D01*
X167342914Y-80690475D02*
X167390533Y-80785713D01*
X150861733Y-118869619D02*
X150528400Y-118393428D01*
X150290305Y-118869619D02*
X150290305Y-117869619D01*
X150290305Y-117869619D02*
X150671257Y-117869619D01*
X150671257Y-117869619D02*
X150766495Y-117917238D01*
X150766495Y-117917238D02*
X150814114Y-117964857D01*
X150814114Y-117964857D02*
X150861733Y-118060095D01*
X150861733Y-118060095D02*
X150861733Y-118202952D01*
X150861733Y-118202952D02*
X150814114Y-118298190D01*
X150814114Y-118298190D02*
X150766495Y-118345809D01*
X150766495Y-118345809D02*
X150671257Y-118393428D01*
X150671257Y-118393428D02*
X150290305Y-118393428D01*
X151195067Y-117869619D02*
X151814114Y-117869619D01*
X151814114Y-117869619D02*
X151480781Y-118250571D01*
X151480781Y-118250571D02*
X151623638Y-118250571D01*
X151623638Y-118250571D02*
X151718876Y-118298190D01*
X151718876Y-118298190D02*
X151766495Y-118345809D01*
X151766495Y-118345809D02*
X151814114Y-118441047D01*
X151814114Y-118441047D02*
X151814114Y-118679142D01*
X151814114Y-118679142D02*
X151766495Y-118774380D01*
X151766495Y-118774380D02*
X151718876Y-118822000D01*
X151718876Y-118822000D02*
X151623638Y-118869619D01*
X151623638Y-118869619D02*
X151337924Y-118869619D01*
X151337924Y-118869619D02*
X151242686Y-118822000D01*
X151242686Y-118822000D02*
X151195067Y-118774380D01*
X158527809Y-93385028D02*
X158527809Y-93861219D01*
X158194476Y-92861219D02*
X158527809Y-93385028D01*
X158527809Y-93385028D02*
X158861142Y-92861219D01*
X159718285Y-93861219D02*
X159146857Y-93861219D01*
X159432571Y-93861219D02*
X159432571Y-92861219D01*
X159432571Y-92861219D02*
X159337333Y-93004076D01*
X159337333Y-93004076D02*
X159242095Y-93099314D01*
X159242095Y-93099314D02*
X159146857Y-93146933D01*
X173091066Y-117626419D02*
X173091066Y-118340704D01*
X173091066Y-118340704D02*
X173043447Y-118483561D01*
X173043447Y-118483561D02*
X172948209Y-118578800D01*
X172948209Y-118578800D02*
X172805352Y-118626419D01*
X172805352Y-118626419D02*
X172710114Y-118626419D01*
X174043447Y-117626419D02*
X173567257Y-117626419D01*
X173567257Y-117626419D02*
X173519638Y-118102609D01*
X173519638Y-118102609D02*
X173567257Y-118054990D01*
X173567257Y-118054990D02*
X173662495Y-118007371D01*
X173662495Y-118007371D02*
X173900590Y-118007371D01*
X173900590Y-118007371D02*
X173995828Y-118054990D01*
X173995828Y-118054990D02*
X174043447Y-118102609D01*
X174043447Y-118102609D02*
X174091066Y-118197847D01*
X174091066Y-118197847D02*
X174091066Y-118435942D01*
X174091066Y-118435942D02*
X174043447Y-118531180D01*
X174043447Y-118531180D02*
X173995828Y-118578800D01*
X173995828Y-118578800D02*
X173900590Y-118626419D01*
X173900590Y-118626419D02*
X173662495Y-118626419D01*
X173662495Y-118626419D02*
X173567257Y-118578800D01*
X173567257Y-118578800D02*
X173519638Y-118531180D01*
X164761905Y-104454819D02*
X164761905Y-103454819D01*
X164761905Y-103454819D02*
X165000000Y-103454819D01*
X165000000Y-103454819D02*
X165142857Y-103502438D01*
X165142857Y-103502438D02*
X165238095Y-103597676D01*
X165238095Y-103597676D02*
X165285714Y-103692914D01*
X165285714Y-103692914D02*
X165333333Y-103883390D01*
X165333333Y-103883390D02*
X165333333Y-104026247D01*
X165333333Y-104026247D02*
X165285714Y-104216723D01*
X165285714Y-104216723D02*
X165238095Y-104311961D01*
X165238095Y-104311961D02*
X165142857Y-104407200D01*
X165142857Y-104407200D02*
X165000000Y-104454819D01*
X165000000Y-104454819D02*
X164761905Y-104454819D01*
X165714286Y-103550057D02*
X165761905Y-103502438D01*
X165761905Y-103502438D02*
X165857143Y-103454819D01*
X165857143Y-103454819D02*
X166095238Y-103454819D01*
X166095238Y-103454819D02*
X166190476Y-103502438D01*
X166190476Y-103502438D02*
X166238095Y-103550057D01*
X166238095Y-103550057D02*
X166285714Y-103645295D01*
X166285714Y-103645295D02*
X166285714Y-103740533D01*
X166285714Y-103740533D02*
X166238095Y-103883390D01*
X166238095Y-103883390D02*
X165666667Y-104454819D01*
X165666667Y-104454819D02*
X166285714Y-104454819D01*
X151104819Y-85642857D02*
X150628628Y-85976190D01*
X151104819Y-86214285D02*
X150104819Y-86214285D01*
X150104819Y-86214285D02*
X150104819Y-85833333D01*
X150104819Y-85833333D02*
X150152438Y-85738095D01*
X150152438Y-85738095D02*
X150200057Y-85690476D01*
X150200057Y-85690476D02*
X150295295Y-85642857D01*
X150295295Y-85642857D02*
X150438152Y-85642857D01*
X150438152Y-85642857D02*
X150533390Y-85690476D01*
X150533390Y-85690476D02*
X150581009Y-85738095D01*
X150581009Y-85738095D02*
X150628628Y-85833333D01*
X150628628Y-85833333D02*
X150628628Y-86214285D01*
X151104819Y-84690476D02*
X151104819Y-85261904D01*
X151104819Y-84976190D02*
X150104819Y-84976190D01*
X150104819Y-84976190D02*
X150247676Y-85071428D01*
X150247676Y-85071428D02*
X150342914Y-85166666D01*
X150342914Y-85166666D02*
X150390533Y-85261904D01*
X150104819Y-84071428D02*
X150104819Y-83976190D01*
X150104819Y-83976190D02*
X150152438Y-83880952D01*
X150152438Y-83880952D02*
X150200057Y-83833333D01*
X150200057Y-83833333D02*
X150295295Y-83785714D01*
X150295295Y-83785714D02*
X150485771Y-83738095D01*
X150485771Y-83738095D02*
X150723866Y-83738095D01*
X150723866Y-83738095D02*
X150914342Y-83785714D01*
X150914342Y-83785714D02*
X151009580Y-83833333D01*
X151009580Y-83833333D02*
X151057200Y-83880952D01*
X151057200Y-83880952D02*
X151104819Y-83976190D01*
X151104819Y-83976190D02*
X151104819Y-84071428D01*
X151104819Y-84071428D02*
X151057200Y-84166666D01*
X151057200Y-84166666D02*
X151009580Y-84214285D01*
X151009580Y-84214285D02*
X150914342Y-84261904D01*
X150914342Y-84261904D02*
X150723866Y-84309523D01*
X150723866Y-84309523D02*
X150485771Y-84309523D01*
X150485771Y-84309523D02*
X150295295Y-84261904D01*
X150295295Y-84261904D02*
X150200057Y-84214285D01*
X150200057Y-84214285D02*
X150152438Y-84166666D01*
X150152438Y-84166666D02*
X150104819Y-84071428D01*
X149238095Y-113004819D02*
X149238095Y-113814342D01*
X149238095Y-113814342D02*
X149285714Y-113909580D01*
X149285714Y-113909580D02*
X149333333Y-113957200D01*
X149333333Y-113957200D02*
X149428571Y-114004819D01*
X149428571Y-114004819D02*
X149619047Y-114004819D01*
X149619047Y-114004819D02*
X149714285Y-113957200D01*
X149714285Y-113957200D02*
X149761904Y-113909580D01*
X149761904Y-113909580D02*
X149809523Y-113814342D01*
X149809523Y-113814342D02*
X149809523Y-113004819D01*
X150190476Y-113004819D02*
X150809523Y-113004819D01*
X150809523Y-113004819D02*
X150476190Y-113385771D01*
X150476190Y-113385771D02*
X150619047Y-113385771D01*
X150619047Y-113385771D02*
X150714285Y-113433390D01*
X150714285Y-113433390D02*
X150761904Y-113481009D01*
X150761904Y-113481009D02*
X150809523Y-113576247D01*
X150809523Y-113576247D02*
X150809523Y-113814342D01*
X150809523Y-113814342D02*
X150761904Y-113909580D01*
X150761904Y-113909580D02*
X150714285Y-113957200D01*
X150714285Y-113957200D02*
X150619047Y-114004819D01*
X150619047Y-114004819D02*
X150333333Y-114004819D01*
X150333333Y-114004819D02*
X150238095Y-113957200D01*
X150238095Y-113957200D02*
X150190476Y-113909580D01*
X141804819Y-81738094D02*
X140804819Y-81738094D01*
X140804819Y-81738094D02*
X140804819Y-81499999D01*
X140804819Y-81499999D02*
X140852438Y-81357142D01*
X140852438Y-81357142D02*
X140947676Y-81261904D01*
X140947676Y-81261904D02*
X141042914Y-81214285D01*
X141042914Y-81214285D02*
X141233390Y-81166666D01*
X141233390Y-81166666D02*
X141376247Y-81166666D01*
X141376247Y-81166666D02*
X141566723Y-81214285D01*
X141566723Y-81214285D02*
X141661961Y-81261904D01*
X141661961Y-81261904D02*
X141757200Y-81357142D01*
X141757200Y-81357142D02*
X141804819Y-81499999D01*
X141804819Y-81499999D02*
X141804819Y-81738094D01*
X140804819Y-80833332D02*
X140804819Y-80214285D01*
X140804819Y-80214285D02*
X141185771Y-80547618D01*
X141185771Y-80547618D02*
X141185771Y-80404761D01*
X141185771Y-80404761D02*
X141233390Y-80309523D01*
X141233390Y-80309523D02*
X141281009Y-80261904D01*
X141281009Y-80261904D02*
X141376247Y-80214285D01*
X141376247Y-80214285D02*
X141614342Y-80214285D01*
X141614342Y-80214285D02*
X141709580Y-80261904D01*
X141709580Y-80261904D02*
X141757200Y-80309523D01*
X141757200Y-80309523D02*
X141804819Y-80404761D01*
X141804819Y-80404761D02*
X141804819Y-80690475D01*
X141804819Y-80690475D02*
X141757200Y-80785713D01*
X141757200Y-80785713D02*
X141709580Y-80833332D01*
X148104819Y-85166666D02*
X147628628Y-85499999D01*
X148104819Y-85738094D02*
X147104819Y-85738094D01*
X147104819Y-85738094D02*
X147104819Y-85357142D01*
X147104819Y-85357142D02*
X147152438Y-85261904D01*
X147152438Y-85261904D02*
X147200057Y-85214285D01*
X147200057Y-85214285D02*
X147295295Y-85166666D01*
X147295295Y-85166666D02*
X147438152Y-85166666D01*
X147438152Y-85166666D02*
X147533390Y-85214285D01*
X147533390Y-85214285D02*
X147581009Y-85261904D01*
X147581009Y-85261904D02*
X147628628Y-85357142D01*
X147628628Y-85357142D02*
X147628628Y-85738094D01*
X148104819Y-84690475D02*
X148104819Y-84499999D01*
X148104819Y-84499999D02*
X148057200Y-84404761D01*
X148057200Y-84404761D02*
X148009580Y-84357142D01*
X148009580Y-84357142D02*
X147866723Y-84261904D01*
X147866723Y-84261904D02*
X147676247Y-84214285D01*
X147676247Y-84214285D02*
X147295295Y-84214285D01*
X147295295Y-84214285D02*
X147200057Y-84261904D01*
X147200057Y-84261904D02*
X147152438Y-84309523D01*
X147152438Y-84309523D02*
X147104819Y-84404761D01*
X147104819Y-84404761D02*
X147104819Y-84595237D01*
X147104819Y-84595237D02*
X147152438Y-84690475D01*
X147152438Y-84690475D02*
X147200057Y-84738094D01*
X147200057Y-84738094D02*
X147295295Y-84785713D01*
X147295295Y-84785713D02*
X147533390Y-84785713D01*
X147533390Y-84785713D02*
X147628628Y-84738094D01*
X147628628Y-84738094D02*
X147676247Y-84690475D01*
X147676247Y-84690475D02*
X147723866Y-84595237D01*
X147723866Y-84595237D02*
X147723866Y-84404761D01*
X147723866Y-84404761D02*
X147676247Y-84309523D01*
X147676247Y-84309523D02*
X147628628Y-84261904D01*
X147628628Y-84261904D02*
X147533390Y-84214285D01*
X145934133Y-118794419D02*
X145600800Y-118318228D01*
X145362705Y-118794419D02*
X145362705Y-117794419D01*
X145362705Y-117794419D02*
X145743657Y-117794419D01*
X145743657Y-117794419D02*
X145838895Y-117842038D01*
X145838895Y-117842038D02*
X145886514Y-117889657D01*
X145886514Y-117889657D02*
X145934133Y-117984895D01*
X145934133Y-117984895D02*
X145934133Y-118127752D01*
X145934133Y-118127752D02*
X145886514Y-118222990D01*
X145886514Y-118222990D02*
X145838895Y-118270609D01*
X145838895Y-118270609D02*
X145743657Y-118318228D01*
X145743657Y-118318228D02*
X145362705Y-118318228D01*
X146791276Y-118127752D02*
X146791276Y-118794419D01*
X146553181Y-117746800D02*
X146315086Y-118461085D01*
X146315086Y-118461085D02*
X146934133Y-118461085D01*
X158238095Y-79724819D02*
X158238095Y-80534342D01*
X158238095Y-80534342D02*
X158285714Y-80629580D01*
X158285714Y-80629580D02*
X158333333Y-80677200D01*
X158333333Y-80677200D02*
X158428571Y-80724819D01*
X158428571Y-80724819D02*
X158619047Y-80724819D01*
X158619047Y-80724819D02*
X158714285Y-80677200D01*
X158714285Y-80677200D02*
X158761904Y-80629580D01*
X158761904Y-80629580D02*
X158809523Y-80534342D01*
X158809523Y-80534342D02*
X158809523Y-79724819D01*
X159809523Y-80724819D02*
X159238095Y-80724819D01*
X159523809Y-80724819D02*
X159523809Y-79724819D01*
X159523809Y-79724819D02*
X159428571Y-79867676D01*
X159428571Y-79867676D02*
X159333333Y-79962914D01*
X159333333Y-79962914D02*
X159238095Y-80010533D01*
X152333333Y-104454819D02*
X152000000Y-103978628D01*
X151761905Y-104454819D02*
X151761905Y-103454819D01*
X151761905Y-103454819D02*
X152142857Y-103454819D01*
X152142857Y-103454819D02*
X152238095Y-103502438D01*
X152238095Y-103502438D02*
X152285714Y-103550057D01*
X152285714Y-103550057D02*
X152333333Y-103645295D01*
X152333333Y-103645295D02*
X152333333Y-103788152D01*
X152333333Y-103788152D02*
X152285714Y-103883390D01*
X152285714Y-103883390D02*
X152238095Y-103931009D01*
X152238095Y-103931009D02*
X152142857Y-103978628D01*
X152142857Y-103978628D02*
X151761905Y-103978628D01*
X152666667Y-103454819D02*
X153333333Y-103454819D01*
X153333333Y-103454819D02*
X152904762Y-104454819D01*
X165333333Y-101359580D02*
X165285714Y-101407200D01*
X165285714Y-101407200D02*
X165142857Y-101454819D01*
X165142857Y-101454819D02*
X165047619Y-101454819D01*
X165047619Y-101454819D02*
X164904762Y-101407200D01*
X164904762Y-101407200D02*
X164809524Y-101311961D01*
X164809524Y-101311961D02*
X164761905Y-101216723D01*
X164761905Y-101216723D02*
X164714286Y-101026247D01*
X164714286Y-101026247D02*
X164714286Y-100883390D01*
X164714286Y-100883390D02*
X164761905Y-100692914D01*
X164761905Y-100692914D02*
X164809524Y-100597676D01*
X164809524Y-100597676D02*
X164904762Y-100502438D01*
X164904762Y-100502438D02*
X165047619Y-100454819D01*
X165047619Y-100454819D02*
X165142857Y-100454819D01*
X165142857Y-100454819D02*
X165285714Y-100502438D01*
X165285714Y-100502438D02*
X165333333Y-100550057D01*
X166285714Y-101454819D02*
X165714286Y-101454819D01*
X166000000Y-101454819D02*
X166000000Y-100454819D01*
X166000000Y-100454819D02*
X165904762Y-100597676D01*
X165904762Y-100597676D02*
X165809524Y-100692914D01*
X165809524Y-100692914D02*
X165714286Y-100740533D01*
X144804819Y-81738094D02*
X143804819Y-81738094D01*
X143804819Y-81738094D02*
X143804819Y-81499999D01*
X143804819Y-81499999D02*
X143852438Y-81357142D01*
X143852438Y-81357142D02*
X143947676Y-81261904D01*
X143947676Y-81261904D02*
X144042914Y-81214285D01*
X144042914Y-81214285D02*
X144233390Y-81166666D01*
X144233390Y-81166666D02*
X144376247Y-81166666D01*
X144376247Y-81166666D02*
X144566723Y-81214285D01*
X144566723Y-81214285D02*
X144661961Y-81261904D01*
X144661961Y-81261904D02*
X144757200Y-81357142D01*
X144757200Y-81357142D02*
X144804819Y-81499999D01*
X144804819Y-81499999D02*
X144804819Y-81738094D01*
X144138152Y-80309523D02*
X144804819Y-80309523D01*
X143757200Y-80547618D02*
X144471485Y-80785713D01*
X144471485Y-80785713D02*
X144471485Y-80166666D01*
X160347066Y-126755219D02*
X160347066Y-127469504D01*
X160347066Y-127469504D02*
X160299447Y-127612361D01*
X160299447Y-127612361D02*
X160204209Y-127707600D01*
X160204209Y-127707600D02*
X160061352Y-127755219D01*
X160061352Y-127755219D02*
X159966114Y-127755219D01*
X161251828Y-127088552D02*
X161251828Y-127755219D01*
X161013733Y-126707600D02*
X160775638Y-127421885D01*
X160775638Y-127421885D02*
X161394685Y-127421885D01*
X152333333Y-107454819D02*
X152000000Y-106978628D01*
X151761905Y-107454819D02*
X151761905Y-106454819D01*
X151761905Y-106454819D02*
X152142857Y-106454819D01*
X152142857Y-106454819D02*
X152238095Y-106502438D01*
X152238095Y-106502438D02*
X152285714Y-106550057D01*
X152285714Y-106550057D02*
X152333333Y-106645295D01*
X152333333Y-106645295D02*
X152333333Y-106788152D01*
X152333333Y-106788152D02*
X152285714Y-106883390D01*
X152285714Y-106883390D02*
X152238095Y-106931009D01*
X152238095Y-106931009D02*
X152142857Y-106978628D01*
X152142857Y-106978628D02*
X151761905Y-106978628D01*
X153190476Y-106454819D02*
X153000000Y-106454819D01*
X153000000Y-106454819D02*
X152904762Y-106502438D01*
X152904762Y-106502438D02*
X152857143Y-106550057D01*
X152857143Y-106550057D02*
X152761905Y-106692914D01*
X152761905Y-106692914D02*
X152714286Y-106883390D01*
X152714286Y-106883390D02*
X152714286Y-107264342D01*
X152714286Y-107264342D02*
X152761905Y-107359580D01*
X152761905Y-107359580D02*
X152809524Y-107407200D01*
X152809524Y-107407200D02*
X152904762Y-107454819D01*
X152904762Y-107454819D02*
X153095238Y-107454819D01*
X153095238Y-107454819D02*
X153190476Y-107407200D01*
X153190476Y-107407200D02*
X153238095Y-107359580D01*
X153238095Y-107359580D02*
X153285714Y-107264342D01*
X153285714Y-107264342D02*
X153285714Y-107026247D01*
X153285714Y-107026247D02*
X153238095Y-106931009D01*
X153238095Y-106931009D02*
X153190476Y-106883390D01*
X153190476Y-106883390D02*
X153095238Y-106835771D01*
X153095238Y-106835771D02*
X152904762Y-106835771D01*
X152904762Y-106835771D02*
X152809524Y-106883390D01*
X152809524Y-106883390D02*
X152761905Y-106931009D01*
X152761905Y-106931009D02*
X152714286Y-107026247D01*
X145104819Y-85166666D02*
X144628628Y-85499999D01*
X145104819Y-85738094D02*
X144104819Y-85738094D01*
X144104819Y-85738094D02*
X144104819Y-85357142D01*
X144104819Y-85357142D02*
X144152438Y-85261904D01*
X144152438Y-85261904D02*
X144200057Y-85214285D01*
X144200057Y-85214285D02*
X144295295Y-85166666D01*
X144295295Y-85166666D02*
X144438152Y-85166666D01*
X144438152Y-85166666D02*
X144533390Y-85214285D01*
X144533390Y-85214285D02*
X144581009Y-85261904D01*
X144581009Y-85261904D02*
X144628628Y-85357142D01*
X144628628Y-85357142D02*
X144628628Y-85738094D01*
X144533390Y-84595237D02*
X144485771Y-84690475D01*
X144485771Y-84690475D02*
X144438152Y-84738094D01*
X144438152Y-84738094D02*
X144342914Y-84785713D01*
X144342914Y-84785713D02*
X144295295Y-84785713D01*
X144295295Y-84785713D02*
X144200057Y-84738094D01*
X144200057Y-84738094D02*
X144152438Y-84690475D01*
X144152438Y-84690475D02*
X144104819Y-84595237D01*
X144104819Y-84595237D02*
X144104819Y-84404761D01*
X144104819Y-84404761D02*
X144152438Y-84309523D01*
X144152438Y-84309523D02*
X144200057Y-84261904D01*
X144200057Y-84261904D02*
X144295295Y-84214285D01*
X144295295Y-84214285D02*
X144342914Y-84214285D01*
X144342914Y-84214285D02*
X144438152Y-84261904D01*
X144438152Y-84261904D02*
X144485771Y-84309523D01*
X144485771Y-84309523D02*
X144533390Y-84404761D01*
X144533390Y-84404761D02*
X144533390Y-84595237D01*
X144533390Y-84595237D02*
X144581009Y-84690475D01*
X144581009Y-84690475D02*
X144628628Y-84738094D01*
X144628628Y-84738094D02*
X144723866Y-84785713D01*
X144723866Y-84785713D02*
X144914342Y-84785713D01*
X144914342Y-84785713D02*
X145009580Y-84738094D01*
X145009580Y-84738094D02*
X145057200Y-84690475D01*
X145057200Y-84690475D02*
X145104819Y-84595237D01*
X145104819Y-84595237D02*
X145104819Y-84404761D01*
X145104819Y-84404761D02*
X145057200Y-84309523D01*
X145057200Y-84309523D02*
X145009580Y-84261904D01*
X145009580Y-84261904D02*
X144914342Y-84214285D01*
X144914342Y-84214285D02*
X144723866Y-84214285D01*
X144723866Y-84214285D02*
X144628628Y-84261904D01*
X144628628Y-84261904D02*
X144581009Y-84309523D01*
X144581009Y-84309523D02*
X144533390Y-84404761D01*
D12*
%TO.C,G\u002A\u002A\u002A*%
G36*
X127683033Y-120977143D02*
G01*
X127687712Y-120977669D01*
X127715027Y-120982367D01*
X127734301Y-120990462D01*
X127752532Y-121005458D01*
X127761534Y-121014630D01*
X127769414Y-121023512D01*
X127776963Y-121033812D01*
X127784778Y-121046954D01*
X127793457Y-121064360D01*
X127803596Y-121087451D01*
X127815793Y-121117652D01*
X127830644Y-121156385D01*
X127848748Y-121205071D01*
X127870699Y-121265135D01*
X127896141Y-121335353D01*
X127919867Y-121400887D01*
X127942950Y-121464452D01*
X127964676Y-121524098D01*
X127984332Y-121577874D01*
X128001206Y-121623829D01*
X128014582Y-121660013D01*
X128023749Y-121684476D01*
X128025266Y-121688444D01*
X128058409Y-121774965D01*
X128086268Y-121848604D01*
X128109204Y-121910416D01*
X128127582Y-121961456D01*
X128141765Y-122002780D01*
X128152115Y-122035443D01*
X128158996Y-122060500D01*
X128162771Y-122079007D01*
X128163813Y-122091034D01*
X128157394Y-122112809D01*
X128140694Y-122135202D01*
X128117550Y-122153650D01*
X128106398Y-122159307D01*
X128083898Y-122164809D01*
X128051629Y-122167981D01*
X128014690Y-122168774D01*
X127978175Y-122167140D01*
X127947183Y-122163031D01*
X127938236Y-122160902D01*
X127913749Y-122151419D01*
X127893465Y-122136831D01*
X127875921Y-122115032D01*
X127859652Y-122083915D01*
X127843193Y-122041376D01*
X127832373Y-122008729D01*
X127817453Y-121963859D01*
X127804928Y-121931238D01*
X127793735Y-121908478D01*
X127782810Y-121893192D01*
X127779296Y-121889583D01*
X127757537Y-121868905D01*
X127608285Y-121868905D01*
X127552200Y-121868869D01*
X127509001Y-121869596D01*
X127476544Y-121872338D01*
X127452686Y-121878348D01*
X127435282Y-121888877D01*
X127422188Y-121905179D01*
X127411261Y-121928505D01*
X127400355Y-121960108D01*
X127388611Y-121997216D01*
X127375974Y-122034900D01*
X127363410Y-122068824D01*
X127352245Y-122095630D01*
X127343804Y-122111962D01*
X127342710Y-122113487D01*
X127319111Y-122136286D01*
X127288970Y-122151404D01*
X127249705Y-122159729D01*
X127201408Y-122162156D01*
X127154117Y-122160483D01*
X127119262Y-122154889D01*
X127094554Y-122144513D01*
X127077705Y-122128492D01*
X127068829Y-122112203D01*
X127064631Y-122100813D01*
X127062315Y-122089294D01*
X127062338Y-122075826D01*
X127065161Y-122058588D01*
X127071240Y-122035760D01*
X127081034Y-122005521D01*
X127095002Y-121966051D01*
X127113602Y-121915528D01*
X127128197Y-121876425D01*
X127146111Y-121828447D01*
X127164354Y-121779415D01*
X127181412Y-121733406D01*
X127195772Y-121694499D01*
X127203508Y-121673405D01*
X127214857Y-121642353D01*
X127229934Y-121601159D01*
X127231735Y-121596243D01*
X127518102Y-121596243D01*
X127521478Y-121611064D01*
X127529994Y-121619977D01*
X127530317Y-121620168D01*
X127543848Y-121623683D01*
X127567767Y-121626239D01*
X127597445Y-121627727D01*
X127628258Y-121628040D01*
X127655576Y-121627068D01*
X127674775Y-121624702D01*
X127678416Y-121623645D01*
X127692428Y-121614332D01*
X127698782Y-121598565D01*
X127697843Y-121573929D01*
X127690814Y-121541219D01*
X127680111Y-121503313D01*
X127667320Y-121463193D01*
X127653783Y-121424600D01*
X127640845Y-121391279D01*
X127629846Y-121366973D01*
X127625722Y-121359718D01*
X127615771Y-121348829D01*
X127605663Y-121347669D01*
X127594852Y-121357114D01*
X127582793Y-121378038D01*
X127568940Y-121411317D01*
X127552747Y-121457825D01*
X127540447Y-121496404D01*
X127527424Y-121540905D01*
X127520030Y-121573521D01*
X127518102Y-121596243D01*
X127231735Y-121596243D01*
X127247284Y-121553799D01*
X127265448Y-121504249D01*
X127279250Y-121466626D01*
X127298907Y-121412856D01*
X127321531Y-121350640D01*
X127345047Y-121285702D01*
X127367382Y-121223765D01*
X127380978Y-121185889D01*
X127401190Y-121130554D01*
X127417990Y-121087660D01*
X127432434Y-121055286D01*
X127445581Y-121031513D01*
X127458486Y-121014422D01*
X127472206Y-121002093D01*
X127487235Y-120992899D01*
X127506172Y-120986951D01*
X127536043Y-120981917D01*
X127572757Y-120978109D01*
X127612221Y-120975837D01*
X127650344Y-120975411D01*
X127683033Y-120977143D01*
G37*
G36*
X125910404Y-118058702D02*
G01*
X125924967Y-118062105D01*
X125940890Y-118067438D01*
X125967849Y-118078558D01*
X126000194Y-118094097D01*
X126028349Y-118109254D01*
X126142941Y-118175176D01*
X126244842Y-118233722D01*
X126334364Y-118285070D01*
X126411819Y-118329398D01*
X126477519Y-118366884D01*
X126531776Y-118397705D01*
X126574902Y-118422040D01*
X126607210Y-118440067D01*
X126629012Y-118451964D01*
X126633162Y-118454161D01*
X126685310Y-118481487D01*
X126794825Y-118482225D01*
X126838347Y-118482683D01*
X126870540Y-118483740D01*
X126895116Y-118485939D01*
X126915786Y-118489823D01*
X126936260Y-118495936D01*
X126960249Y-118504822D01*
X126966951Y-118507431D01*
X127038995Y-118542970D01*
X127100184Y-118588743D01*
X127150031Y-118644130D01*
X127188048Y-118708507D01*
X127213750Y-118781251D01*
X127224082Y-118836260D01*
X127228540Y-118865451D01*
X127233659Y-118890125D01*
X127238383Y-118905239D01*
X127238677Y-118905821D01*
X127249098Y-118915253D01*
X127269614Y-118927089D01*
X127296055Y-118938969D01*
X127299850Y-118940447D01*
X127365965Y-118973062D01*
X127425929Y-119018162D01*
X127479919Y-119076020D01*
X127528114Y-119146906D01*
X127570694Y-119231090D01*
X127607837Y-119328846D01*
X127639722Y-119440443D01*
X127645553Y-119464746D01*
X127665837Y-119575960D01*
X127673123Y-119679720D01*
X127667403Y-119776153D01*
X127648669Y-119865384D01*
X127616910Y-119947541D01*
X127611238Y-119958846D01*
X127601419Y-119990289D01*
X127601652Y-120022911D01*
X127608592Y-120044104D01*
X127614481Y-120053672D01*
X127627800Y-120074402D01*
X127647654Y-120104931D01*
X127673151Y-120143894D01*
X127703396Y-120189928D01*
X127737497Y-120241670D01*
X127774559Y-120297757D01*
X127800610Y-120337097D01*
X127839141Y-120395416D01*
X127875246Y-120450410D01*
X127908036Y-120500700D01*
X127936625Y-120544909D01*
X127960123Y-120581659D01*
X127977643Y-120609572D01*
X127988297Y-120627272D01*
X127991147Y-120632717D01*
X127999099Y-120668431D01*
X127993450Y-120697859D01*
X127974222Y-120720891D01*
X127973953Y-120721095D01*
X127948831Y-120735500D01*
X127914386Y-120749484D01*
X127876271Y-120761249D01*
X127840139Y-120768997D01*
X127816763Y-120771096D01*
X127792790Y-120769443D01*
X127772119Y-120763364D01*
X127752874Y-120751181D01*
X127733179Y-120731215D01*
X127711160Y-120701789D01*
X127684940Y-120661222D01*
X127673930Y-120643269D01*
X127616231Y-120548481D01*
X127565842Y-120466059D01*
X127522406Y-120395433D01*
X127485563Y-120336033D01*
X127454955Y-120287288D01*
X127430224Y-120248629D01*
X127411011Y-120219485D01*
X127396958Y-120199287D01*
X127387707Y-120187463D01*
X127386805Y-120186475D01*
X127368081Y-120169948D01*
X127349089Y-120163029D01*
X127332802Y-120162037D01*
X127303558Y-120165032D01*
X127270701Y-120172832D01*
X127240060Y-120183659D01*
X127217468Y-120195738D01*
X127214509Y-120198078D01*
X127207809Y-120205303D01*
X127203577Y-120214531D01*
X127202069Y-120227504D01*
X127203538Y-120245965D01*
X127208239Y-120271656D01*
X127216425Y-120306319D01*
X127228351Y-120351697D01*
X127244271Y-120409533D01*
X127246545Y-120417692D01*
X127271529Y-120507340D01*
X127292670Y-120583684D01*
X127310180Y-120647900D01*
X127324273Y-120701164D01*
X127335160Y-120744652D01*
X127343054Y-120779542D01*
X127348169Y-120807009D01*
X127350716Y-120828230D01*
X127350909Y-120844382D01*
X127348960Y-120856641D01*
X127345081Y-120866184D01*
X127339486Y-120874186D01*
X127332388Y-120881825D01*
X127330745Y-120883474D01*
X127305990Y-120901177D01*
X127273307Y-120914972D01*
X127236807Y-120924152D01*
X127200602Y-120928007D01*
X127168803Y-120925830D01*
X127145523Y-120916911D01*
X127143888Y-120915674D01*
X127123486Y-120891638D01*
X127106412Y-120856701D01*
X127097215Y-120826400D01*
X127092889Y-120809133D01*
X127085462Y-120780655D01*
X127075804Y-120744259D01*
X127064786Y-120703240D01*
X127058724Y-120680865D01*
X127045550Y-120632098D01*
X127031563Y-120579833D01*
X127018234Y-120529597D01*
X127007035Y-120486917D01*
X127004681Y-120477846D01*
X126988798Y-120416567D01*
X126975402Y-120365217D01*
X126963261Y-120319151D01*
X126951144Y-120273727D01*
X126937822Y-120224300D01*
X126922968Y-120169557D01*
X126910431Y-120123124D01*
X126897703Y-120075431D01*
X126886032Y-120031188D01*
X126876664Y-119995101D01*
X126874177Y-119985335D01*
X126863862Y-119945044D01*
X126851833Y-119898836D01*
X126840332Y-119855305D01*
X126837904Y-119846229D01*
X126817745Y-119771118D01*
X126800872Y-119708289D01*
X126786680Y-119655499D01*
X126774566Y-119610504D01*
X126763925Y-119571059D01*
X126754151Y-119534922D01*
X126744642Y-119499848D01*
X126738650Y-119477786D01*
X126727405Y-119435957D01*
X126718610Y-119402605D01*
X126977670Y-119402605D01*
X126978870Y-119412527D01*
X126982310Y-119429617D01*
X126988977Y-119458342D01*
X126998163Y-119495822D01*
X127009163Y-119539177D01*
X127021271Y-119585525D01*
X127021613Y-119586815D01*
X127039368Y-119653482D01*
X127054032Y-119707002D01*
X127066353Y-119748767D01*
X127077078Y-119780170D01*
X127086957Y-119802605D01*
X127096736Y-119817465D01*
X127107164Y-119826141D01*
X127118989Y-119830029D01*
X127132958Y-119830519D01*
X127149819Y-119829005D01*
X127151549Y-119828813D01*
X127175650Y-119824605D01*
X127208666Y-119816829D01*
X127245289Y-119806797D01*
X127265264Y-119800724D01*
X127302952Y-119788007D01*
X127329712Y-119776702D01*
X127349286Y-119764907D01*
X127365415Y-119750724D01*
X127367055Y-119749025D01*
X127392200Y-119713644D01*
X127406795Y-119670850D01*
X127410837Y-119619956D01*
X127404324Y-119560280D01*
X127387252Y-119491137D01*
X127365777Y-119427972D01*
X127345468Y-119387883D01*
X127317440Y-119351964D01*
X127284970Y-119323603D01*
X127251333Y-119306188D01*
X127246639Y-119304795D01*
X127231560Y-119301477D01*
X127216430Y-119300337D01*
X127198117Y-119301731D01*
X127173484Y-119306014D01*
X127139399Y-119313539D01*
X127111921Y-119320043D01*
X127062362Y-119332671D01*
X127025953Y-119344169D01*
X127000988Y-119355724D01*
X126985758Y-119368523D01*
X126978554Y-119383755D01*
X126977670Y-119402605D01*
X126718610Y-119402605D01*
X126716537Y-119394742D01*
X126707206Y-119358591D01*
X126700574Y-119331955D01*
X126700015Y-119329611D01*
X126690481Y-119296911D01*
X126677719Y-119271296D01*
X126658904Y-119249211D01*
X126631209Y-119227104D01*
X126604272Y-119209233D01*
X126575457Y-119190018D01*
X126548215Y-119170275D01*
X126527790Y-119153829D01*
X126525511Y-119151764D01*
X126493288Y-119115395D01*
X126463040Y-119069644D01*
X126438134Y-119020103D01*
X126425506Y-118985588D01*
X126415687Y-118956340D01*
X126405172Y-118930431D01*
X126396229Y-118913443D01*
X126396181Y-118913374D01*
X126385742Y-118903632D01*
X126364550Y-118887806D01*
X126334824Y-118867411D01*
X126320476Y-118858077D01*
X126579067Y-118858077D01*
X126581491Y-118914368D01*
X126597415Y-118965611D01*
X126625764Y-119010460D01*
X126665462Y-119047566D01*
X126715432Y-119075582D01*
X126765234Y-119091254D01*
X126809957Y-119096918D01*
X126854016Y-119092969D01*
X126902939Y-119078890D01*
X126904937Y-119078159D01*
X126952710Y-119053469D01*
X126991872Y-119019045D01*
X127021430Y-118977248D01*
X127040386Y-118930439D01*
X127047745Y-118880976D01*
X127042511Y-118831220D01*
X127026819Y-118789299D01*
X126995504Y-118744062D01*
X126953029Y-118704918D01*
X126905390Y-118676330D01*
X126858534Y-118661750D01*
X126806382Y-118657402D01*
X126754660Y-118663285D01*
X126715310Y-118676330D01*
X126672712Y-118701357D01*
X126634804Y-118733345D01*
X126605879Y-118768435D01*
X126598268Y-118781522D01*
X126588967Y-118806450D01*
X126581705Y-118837884D01*
X126579067Y-118858077D01*
X126320476Y-118858077D01*
X126298786Y-118843967D01*
X126258657Y-118818990D01*
X126253114Y-118815624D01*
X126123491Y-118737141D01*
X126059002Y-118738041D01*
X126019574Y-118740161D01*
X125976881Y-118744883D01*
X125939824Y-118751212D01*
X125938118Y-118751588D01*
X125908432Y-118757858D01*
X125869001Y-118765644D01*
X125824913Y-118773965D01*
X125781251Y-118781842D01*
X125780214Y-118782024D01*
X125732903Y-118790431D01*
X125681433Y-118799767D01*
X125632367Y-118808833D01*
X125595992Y-118815710D01*
X125472162Y-118839397D01*
X125361002Y-118860409D01*
X125260460Y-118879133D01*
X125168483Y-118895952D01*
X125152357Y-118898865D01*
X125086612Y-118910771D01*
X125033904Y-118920502D01*
X124992458Y-118928475D01*
X124960498Y-118935109D01*
X124936248Y-118940820D01*
X124917932Y-118946028D01*
X124903775Y-118951150D01*
X124892001Y-118956604D01*
X124880942Y-118962744D01*
X124860674Y-118976925D01*
X124833645Y-118999001D01*
X124802688Y-119026297D01*
X124770640Y-119056140D01*
X124740336Y-119085856D01*
X124714612Y-119112771D01*
X124696303Y-119134210D01*
X124690816Y-119142040D01*
X124682611Y-119160563D01*
X124673690Y-119188655D01*
X124665678Y-119221029D01*
X124663914Y-119229651D01*
X124644651Y-119301322D01*
X124615820Y-119363943D01*
X124575896Y-119419842D01*
X124523354Y-119471345D01*
X124486812Y-119499892D01*
X124459053Y-119521285D01*
X124441503Y-119538383D01*
X124431313Y-119554344D01*
X124427185Y-119565964D01*
X124425343Y-119579864D01*
X124423520Y-119607092D01*
X124421736Y-119646100D01*
X124420009Y-119695342D01*
X124418358Y-119753271D01*
X124416803Y-119818341D01*
X124415362Y-119889005D01*
X124414054Y-119963717D01*
X124412898Y-120040929D01*
X124411912Y-120119097D01*
X124411116Y-120196672D01*
X124410529Y-120272109D01*
X124410169Y-120343861D01*
X124410055Y-120410381D01*
X124410207Y-120470122D01*
X124410643Y-120521539D01*
X124411382Y-120563084D01*
X124412442Y-120593212D01*
X124413844Y-120610375D01*
X124414398Y-120612973D01*
X124417165Y-120621747D01*
X124419979Y-120629344D01*
X124423871Y-120635839D01*
X124429874Y-120641309D01*
X124439021Y-120645828D01*
X124452344Y-120649472D01*
X124470875Y-120652318D01*
X124495647Y-120654440D01*
X124527693Y-120655915D01*
X124568044Y-120656818D01*
X124617733Y-120657224D01*
X124677793Y-120657209D01*
X124749256Y-120656850D01*
X124833154Y-120656220D01*
X124930520Y-120655397D01*
X124986934Y-120654916D01*
X125090758Y-120654036D01*
X125180610Y-120653314D01*
X125257556Y-120652812D01*
X125322660Y-120652592D01*
X125376990Y-120652718D01*
X125421611Y-120653250D01*
X125457588Y-120654253D01*
X125485987Y-120655789D01*
X125507874Y-120657919D01*
X125524316Y-120660707D01*
X125536377Y-120664215D01*
X125545124Y-120668505D01*
X125551622Y-120673639D01*
X125556937Y-120679682D01*
X125562135Y-120686694D01*
X125563625Y-120688719D01*
X125570125Y-120700222D01*
X125574711Y-120716199D01*
X125577867Y-120739644D01*
X125580075Y-120773552D01*
X125581022Y-120796688D01*
X125582656Y-120832974D01*
X125584690Y-120864707D01*
X125586854Y-120888300D01*
X125588736Y-120899751D01*
X125591613Y-120907373D01*
X125595841Y-120913722D01*
X125602716Y-120918915D01*
X125613533Y-120923067D01*
X125629588Y-120926294D01*
X125652175Y-120928714D01*
X125682592Y-120930440D01*
X125722132Y-120931591D01*
X125772092Y-120932282D01*
X125833767Y-120932629D01*
X125908453Y-120932749D01*
X125956916Y-120932760D01*
X126036918Y-120932804D01*
X126103274Y-120932972D01*
X126157372Y-120933313D01*
X126200605Y-120933879D01*
X126234363Y-120934719D01*
X126260038Y-120935885D01*
X126279019Y-120937426D01*
X126292699Y-120939394D01*
X126302467Y-120941839D01*
X126309714Y-120944812D01*
X126311304Y-120945648D01*
X126346267Y-120973078D01*
X126370826Y-121010549D01*
X126381083Y-121041939D01*
X126383069Y-121058876D01*
X126384786Y-121088606D01*
X126386230Y-121129185D01*
X126387403Y-121178669D01*
X126388302Y-121235114D01*
X126388928Y-121296574D01*
X126389278Y-121361107D01*
X126389353Y-121426768D01*
X126389150Y-121491612D01*
X126388670Y-121553695D01*
X126387911Y-121611073D01*
X126386873Y-121661802D01*
X126385554Y-121703937D01*
X126383953Y-121735534D01*
X126382071Y-121754650D01*
X126381422Y-121757763D01*
X126364881Y-121793582D01*
X126338501Y-121824199D01*
X126306912Y-121844529D01*
X126287366Y-121849823D01*
X126256301Y-121853894D01*
X126212516Y-121856857D01*
X126160362Y-121858695D01*
X126111894Y-121860039D01*
X126076057Y-121862014D01*
X126050453Y-121865694D01*
X126032681Y-121872151D01*
X126020340Y-121882461D01*
X126011032Y-121897697D01*
X126002356Y-121918933D01*
X125997756Y-121931447D01*
X125975779Y-121986201D01*
X125953021Y-122030946D01*
X125926860Y-122070599D01*
X125915896Y-122084835D01*
X125886815Y-122115224D01*
X125848803Y-122146456D01*
X125806587Y-122175266D01*
X125764895Y-122198386D01*
X125732869Y-122211289D01*
X125699574Y-122218554D01*
X125657406Y-122223702D01*
X125611858Y-122226446D01*
X125568423Y-122226499D01*
X125532595Y-122223576D01*
X125524559Y-122222161D01*
X125481329Y-122208800D01*
X125433503Y-122186905D01*
X125386285Y-122159345D01*
X125344880Y-122128993D01*
X125328054Y-122113738D01*
X125288463Y-122066432D01*
X125253534Y-122009064D01*
X125226107Y-121946501D01*
X125220266Y-121929059D01*
X125209737Y-121902754D01*
X125196723Y-121880143D01*
X125188844Y-121870785D01*
X125170316Y-121853867D01*
X124243231Y-121853867D01*
X124085871Y-121853924D01*
X123943358Y-121854096D01*
X123815501Y-121854386D01*
X123702108Y-121854793D01*
X123602989Y-121855321D01*
X123517952Y-121855970D01*
X123446806Y-121856743D01*
X123389361Y-121857641D01*
X123345424Y-121858665D01*
X123314806Y-121859817D01*
X123297314Y-121861099D01*
X123293270Y-121861842D01*
X123284461Y-121865256D01*
X123277039Y-121869925D01*
X123269745Y-121877861D01*
X123261318Y-121891079D01*
X123250499Y-121911593D01*
X123236026Y-121941418D01*
X123216640Y-121982568D01*
X123213361Y-121989562D01*
X123186006Y-122036905D01*
X123150021Y-122083243D01*
X123109333Y-122124156D01*
X123067865Y-122155224D01*
X123064514Y-122157221D01*
X122993084Y-122190830D01*
X122920083Y-122210238D01*
X122847010Y-122215964D01*
X122775360Y-122208530D01*
X122706632Y-122188455D01*
X122642323Y-122156262D01*
X122583929Y-122112469D01*
X122532949Y-122057598D01*
X122490879Y-121992170D01*
X122471776Y-121951129D01*
X122458352Y-121919565D01*
X122446155Y-121897327D01*
X122432266Y-121882783D01*
X122413764Y-121874301D01*
X122387730Y-121870248D01*
X122351243Y-121868994D01*
X122324659Y-121868905D01*
X122284433Y-121868211D01*
X122245657Y-121866326D01*
X122213035Y-121863548D01*
X122193029Y-121860575D01*
X122154652Y-121846175D01*
X122121065Y-121822098D01*
X122113315Y-121812595D01*
X122638546Y-121812595D01*
X122647586Y-121861813D01*
X122655053Y-121880676D01*
X122683900Y-121930459D01*
X122719301Y-121967945D01*
X122763683Y-121995296D01*
X122798834Y-122008772D01*
X122835385Y-122017139D01*
X122870402Y-122017192D01*
X122910467Y-122008848D01*
X122915897Y-122007287D01*
X122967907Y-121985297D01*
X123010815Y-121952103D01*
X123045887Y-121906627D01*
X123056496Y-121887704D01*
X123072879Y-121840629D01*
X123073739Y-121827773D01*
X125382065Y-121827773D01*
X125390044Y-121876598D01*
X125406415Y-121915735D01*
X125432258Y-121951039D01*
X125465718Y-121984543D01*
X125501161Y-122010808D01*
X125510222Y-122015893D01*
X125554686Y-122031376D01*
X125604904Y-122036580D01*
X125655559Y-122031404D01*
X125693742Y-122019325D01*
X125739250Y-121991637D01*
X125778743Y-121952426D01*
X125806765Y-121909204D01*
X125824512Y-121859016D01*
X125828744Y-121808155D01*
X125820763Y-121758515D01*
X125801872Y-121711993D01*
X125773372Y-121670484D01*
X125736567Y-121635884D01*
X125692758Y-121610087D01*
X125643247Y-121594990D01*
X125589338Y-121592488D01*
X125589175Y-121592501D01*
X125532326Y-121604048D01*
X125482538Y-121628736D01*
X125440404Y-121666134D01*
X125406514Y-121715808D01*
X125398437Y-121732174D01*
X125384788Y-121777898D01*
X125382065Y-121827773D01*
X123073739Y-121827773D01*
X123076201Y-121790992D01*
X123067520Y-121741407D01*
X123047894Y-121694489D01*
X123018382Y-121652851D01*
X122980042Y-121619109D01*
X122939118Y-121597749D01*
X122896197Y-121587191D01*
X122848391Y-121584478D01*
X122801714Y-121589470D01*
X122762617Y-121601819D01*
X122718728Y-121630206D01*
X122683329Y-121668194D01*
X122657466Y-121713068D01*
X122642189Y-121762107D01*
X122638546Y-121812595D01*
X122113315Y-121812595D01*
X122096231Y-121791648D01*
X122087456Y-121772539D01*
X122085125Y-121760660D01*
X122083152Y-121739662D01*
X122081516Y-121708691D01*
X122080194Y-121666897D01*
X122079165Y-121613429D01*
X122078409Y-121547434D01*
X122077904Y-121468061D01*
X122077749Y-121416847D01*
X122329461Y-121416847D01*
X122330055Y-121459093D01*
X122331754Y-121495586D01*
X122332278Y-121502442D01*
X122336889Y-121542661D01*
X122343925Y-121570363D01*
X122355018Y-121588048D01*
X122371795Y-121598215D01*
X122395888Y-121603363D01*
X122398261Y-121603642D01*
X122429249Y-121605857D01*
X122454578Y-121603625D01*
X122477567Y-121595437D01*
X122501530Y-121579786D01*
X122529783Y-121555164D01*
X122551857Y-121533795D01*
X122614180Y-121480153D01*
X122678484Y-121441040D01*
X122746061Y-121415966D01*
X122818204Y-121404437D01*
X122889065Y-121405315D01*
X122952969Y-121415071D01*
X123010737Y-121433886D01*
X123065170Y-121463188D01*
X123119071Y-121504404D01*
X123160309Y-121543461D01*
X123184650Y-121568069D01*
X123204938Y-121588353D01*
X123218977Y-121602132D01*
X123224519Y-121607209D01*
X123234898Y-121608651D01*
X123259995Y-121610021D01*
X123299486Y-121611313D01*
X123353052Y-121612525D01*
X123420369Y-121613654D01*
X123501117Y-121614696D01*
X123594974Y-121615648D01*
X123701619Y-121616507D01*
X123820729Y-121617268D01*
X123951984Y-121617929D01*
X124095062Y-121618487D01*
X124249641Y-121618938D01*
X124372477Y-121619203D01*
X124504928Y-121619430D01*
X124623161Y-121619585D01*
X124727995Y-121619660D01*
X124820250Y-121619645D01*
X124900747Y-121619531D01*
X124970305Y-121619309D01*
X125029743Y-121618970D01*
X125079883Y-121618503D01*
X125121544Y-121617901D01*
X125155545Y-121617154D01*
X125182707Y-121616253D01*
X125203850Y-121615188D01*
X125219793Y-121613951D01*
X125231356Y-121612532D01*
X125239360Y-121610922D01*
X125243905Y-121609426D01*
X125261175Y-121599288D01*
X125285117Y-121581441D01*
X125311848Y-121558891D01*
X125326180Y-121545719D01*
X125390065Y-121494008D01*
X125457534Y-121456529D01*
X125527917Y-121433452D01*
X125600544Y-121424949D01*
X125674743Y-121431191D01*
X125725311Y-121443805D01*
X125777634Y-121463477D01*
X125824070Y-121488487D01*
X125869184Y-121521658D01*
X125908575Y-121557103D01*
X125937313Y-121583033D01*
X125962057Y-121599960D01*
X125987309Y-121609456D01*
X126017573Y-121613089D01*
X126057354Y-121612431D01*
X126065969Y-121611973D01*
X126100813Y-121608337D01*
X126123784Y-121600585D01*
X126137943Y-121586367D01*
X126146351Y-121563332D01*
X126149325Y-121547952D01*
X126151786Y-121524780D01*
X126153621Y-121491080D01*
X126154836Y-121449922D01*
X126155438Y-121404373D01*
X126155434Y-121357503D01*
X126154830Y-121312380D01*
X126153634Y-121272074D01*
X126151852Y-121239651D01*
X126149490Y-121218183D01*
X126148591Y-121214048D01*
X126135341Y-121188475D01*
X126120436Y-121177582D01*
X126107937Y-121175280D01*
X126081272Y-121173074D01*
X126041315Y-121170970D01*
X125988938Y-121168973D01*
X125925014Y-121167088D01*
X125850416Y-121165321D01*
X125766018Y-121163678D01*
X125672691Y-121162162D01*
X125571308Y-121160780D01*
X125462744Y-121159538D01*
X125347869Y-121158439D01*
X125227558Y-121157491D01*
X125102683Y-121156697D01*
X124974117Y-121156064D01*
X124842733Y-121155596D01*
X124709403Y-121155299D01*
X124575001Y-121155179D01*
X124440400Y-121155240D01*
X124306471Y-121155488D01*
X124174089Y-121155929D01*
X124044126Y-121156567D01*
X123917454Y-121157408D01*
X123794947Y-121158457D01*
X123677478Y-121159720D01*
X123565919Y-121161201D01*
X123528201Y-121161776D01*
X123433636Y-121163255D01*
X123332186Y-121164814D01*
X123226928Y-121166410D01*
X123120940Y-121167994D01*
X123017297Y-121169523D01*
X122919076Y-121170951D01*
X122829356Y-121172231D01*
X122751211Y-121173318D01*
X122742440Y-121173437D01*
X122666606Y-121174629D01*
X122596444Y-121176044D01*
X122533387Y-121177635D01*
X122478869Y-121179354D01*
X122434324Y-121181152D01*
X122401187Y-121182981D01*
X122380891Y-121184794D01*
X122375819Y-121185735D01*
X122356384Y-121195470D01*
X122343277Y-121208428D01*
X122343040Y-121208856D01*
X122339281Y-121223257D01*
X122335976Y-121249724D01*
X122333232Y-121285286D01*
X122331159Y-121326973D01*
X122329866Y-121371817D01*
X122329461Y-121416847D01*
X122077749Y-121416847D01*
X122077637Y-121379639D01*
X122076987Y-121014440D01*
X122097281Y-120983739D01*
X122124564Y-120954163D01*
X122159566Y-120932495D01*
X122201555Y-120911952D01*
X122710733Y-120920850D01*
X122808491Y-120922579D01*
X122910773Y-120924426D01*
X123015094Y-120926344D01*
X123118971Y-120928286D01*
X123219920Y-120930205D01*
X123315457Y-120932053D01*
X123403098Y-120933784D01*
X123480359Y-120935349D01*
X123537472Y-120936546D01*
X123629982Y-120938325D01*
X123708040Y-120939392D01*
X123771539Y-120939748D01*
X123820371Y-120939393D01*
X123854429Y-120938327D01*
X123873608Y-120936550D01*
X123876639Y-120935813D01*
X123885316Y-120932736D01*
X123892726Y-120929266D01*
X123898963Y-120924273D01*
X123904119Y-120916630D01*
X123908286Y-120905207D01*
X123911558Y-120888877D01*
X123914026Y-120866512D01*
X123915783Y-120836982D01*
X123916921Y-120799160D01*
X123917534Y-120751917D01*
X123917712Y-120694125D01*
X123917550Y-120624655D01*
X123917139Y-120542379D01*
X123916585Y-120448409D01*
X123915961Y-120356059D01*
X123915164Y-120258378D01*
X123914226Y-120158198D01*
X123913179Y-120058351D01*
X123912054Y-119961671D01*
X123910883Y-119870991D01*
X123909697Y-119789142D01*
X123908528Y-119718958D01*
X123908309Y-119707123D01*
X123906792Y-119630122D01*
X123905354Y-119566655D01*
X123903910Y-119515219D01*
X123902376Y-119474310D01*
X123900667Y-119442424D01*
X123898698Y-119418058D01*
X123896384Y-119399709D01*
X123893641Y-119385872D01*
X123890384Y-119375045D01*
X123889434Y-119372517D01*
X123868890Y-119314254D01*
X123856098Y-119262464D01*
X123850012Y-119211426D01*
X123849588Y-119155414D01*
X123849621Y-119154459D01*
X123849631Y-119154253D01*
X124033367Y-119154253D01*
X124033998Y-119205250D01*
X124048971Y-119255369D01*
X124078181Y-119303187D01*
X124094821Y-119322399D01*
X124138455Y-119357852D01*
X124189151Y-119381335D01*
X124244291Y-119392384D01*
X124301255Y-119390538D01*
X124357424Y-119375335D01*
X124368293Y-119370669D01*
X124411629Y-119344809D01*
X124449561Y-119310792D01*
X124477286Y-119272927D01*
X124477373Y-119272768D01*
X124484298Y-119255597D01*
X124488475Y-119232674D01*
X124490394Y-119200434D01*
X124490664Y-119175843D01*
X124490465Y-119142127D01*
X124489097Y-119118985D01*
X124485400Y-119101950D01*
X124478216Y-119086558D01*
X124466384Y-119068343D01*
X124460587Y-119059980D01*
X124423217Y-119018456D01*
X124378303Y-118988286D01*
X124328193Y-118969497D01*
X124275236Y-118962120D01*
X124221782Y-118966181D01*
X124170180Y-118981710D01*
X124122778Y-119008735D01*
X124081926Y-119047284D01*
X124075540Y-119055329D01*
X124047180Y-119103805D01*
X124033367Y-119154253D01*
X123849631Y-119154253D01*
X123851550Y-119115577D01*
X123854888Y-119086195D01*
X123860759Y-119060778D01*
X123870288Y-119033791D01*
X123877862Y-119015407D01*
X123893537Y-118981794D01*
X123910526Y-118954155D01*
X123932576Y-118927099D01*
X123957014Y-118901621D01*
X124017282Y-118850774D01*
X124082797Y-118813746D01*
X124154036Y-118790384D01*
X124231478Y-118780537D01*
X124315604Y-118784053D01*
X124325056Y-118785219D01*
X124360499Y-118789359D01*
X124385145Y-118790707D01*
X124402984Y-118789204D01*
X124418008Y-118784794D01*
X124420335Y-118783850D01*
X124426836Y-118780652D01*
X124434975Y-118775555D01*
X124445564Y-118767837D01*
X124459414Y-118756779D01*
X124477334Y-118741660D01*
X124500137Y-118721761D01*
X124528633Y-118696361D01*
X124544477Y-118682047D01*
X125156117Y-118682047D01*
X125162607Y-118690307D01*
X125178012Y-118697185D01*
X125196233Y-118700450D01*
X125204992Y-118699943D01*
X125217936Y-118697644D01*
X125242287Y-118693365D01*
X125274633Y-118687704D01*
X125311564Y-118681257D01*
X125314021Y-118680829D01*
X125357513Y-118673175D01*
X125409736Y-118663869D01*
X125464632Y-118653998D01*
X125516146Y-118644647D01*
X125524559Y-118643109D01*
X125571268Y-118634562D01*
X125619020Y-118625832D01*
X125663033Y-118617794D01*
X125698528Y-118611320D01*
X125707113Y-118609757D01*
X125760345Y-118598959D01*
X125798742Y-118588081D01*
X125822459Y-118576254D01*
X125831653Y-118562610D01*
X125826482Y-118546277D01*
X125807102Y-118526388D01*
X125773670Y-118502072D01*
X125731339Y-118475470D01*
X125692724Y-118451931D01*
X125649125Y-118425023D01*
X125608220Y-118399494D01*
X125596725Y-118392247D01*
X125559978Y-118370166D01*
X125532147Y-118356713D01*
X125510423Y-118351097D01*
X125491999Y-118352528D01*
X125477070Y-118358570D01*
X125466595Y-118366503D01*
X125447358Y-118383332D01*
X125421193Y-118407283D01*
X125389937Y-118436584D01*
X125355424Y-118469460D01*
X125319490Y-118504138D01*
X125283970Y-118538844D01*
X125250700Y-118571805D01*
X125221514Y-118601247D01*
X125198248Y-118625396D01*
X125182738Y-118642480D01*
X125180554Y-118645108D01*
X125166629Y-118663540D01*
X125157779Y-118677566D01*
X125156117Y-118682047D01*
X124544477Y-118682047D01*
X124563632Y-118664741D01*
X124605946Y-118626180D01*
X124656386Y-118579958D01*
X124715762Y-118525356D01*
X124784885Y-118461653D01*
X124829030Y-118420927D01*
X124872766Y-118380638D01*
X124913901Y-118342879D01*
X124950875Y-118309072D01*
X124982128Y-118280636D01*
X125006103Y-118258993D01*
X125021241Y-118245564D01*
X125024530Y-118242763D01*
X125052214Y-118223043D01*
X125084265Y-118206681D01*
X125123148Y-118192850D01*
X125171329Y-118180723D01*
X125231274Y-118169472D01*
X125253867Y-118165840D01*
X125290896Y-118159851D01*
X125326245Y-118153741D01*
X125354840Y-118148404D01*
X125366655Y-118145943D01*
X125386658Y-118141843D01*
X125417600Y-118135976D01*
X125455591Y-118129060D01*
X125496738Y-118121815D01*
X125505761Y-118120260D01*
X125548911Y-118112662D01*
X125591519Y-118104828D01*
X125629041Y-118097613D01*
X125656932Y-118091875D01*
X125659906Y-118091217D01*
X125686989Y-118085825D01*
X125724002Y-118079386D01*
X125765956Y-118072729D01*
X125805544Y-118067000D01*
X125845565Y-118061661D01*
X125874110Y-118058491D01*
X125894587Y-118057501D01*
X125910404Y-118058702D01*
G37*
D13*
%TO.C,C4*%
X146349652Y-112023600D02*
X145827148Y-112023600D01*
X146349652Y-113493600D02*
X145827148Y-113493600D01*
%TO.C,D5*%
X148040000Y-80000000D02*
X148040000Y-82860000D01*
X148040000Y-82860000D02*
X149960000Y-82860000D01*
X149960000Y-82860000D02*
X149960000Y-80000000D01*
%TO.C,J3*%
X143016800Y-123249200D02*
X143016800Y-125749200D01*
X143016800Y-125749200D02*
X145516800Y-125749200D01*
X143316800Y-121429200D02*
X143316800Y-125449200D01*
X143316800Y-123139200D02*
X143816800Y-123139200D01*
X143316800Y-123949200D02*
X144316800Y-123949200D01*
X143316800Y-125449200D02*
X153536800Y-125449200D01*
X143816800Y-121929200D02*
X153036800Y-121929200D01*
X143816800Y-123139200D02*
X143816800Y-121929200D01*
X144316800Y-123949200D02*
X144316800Y-125449200D01*
X152536800Y-123949200D02*
X152536800Y-125449200D01*
X153036800Y-121929200D02*
X153036800Y-123139200D01*
X153036800Y-123139200D02*
X153536800Y-123139200D01*
X153536800Y-121429200D02*
X143316800Y-121429200D01*
X153536800Y-123949200D02*
X152536800Y-123949200D01*
X153536800Y-125449200D02*
X153536800Y-121429200D01*
%TO.C,D1*%
X160852400Y-106075600D02*
X160852400Y-107995600D01*
X160852400Y-107995600D02*
X163712400Y-107995600D01*
X163712400Y-106075600D02*
X160852400Y-106075600D01*
%TO.C,C2*%
X155135948Y-100357000D02*
X155658452Y-100357000D01*
X155135948Y-101827000D02*
X155658452Y-101827000D01*
%TO.C,J6*%
X128940000Y-81090000D02*
X128940000Y-85810000D01*
X128940000Y-83200000D02*
X129550000Y-83200000D01*
X128940000Y-84500000D02*
X129550000Y-84500000D01*
X128940000Y-85810000D02*
X139060000Y-85810000D01*
X129550000Y-81700000D02*
X129550000Y-85200000D01*
X129550000Y-85200000D02*
X131500000Y-85200000D01*
X131500000Y-85200000D02*
X131500000Y-85810000D01*
X131900000Y-82200000D02*
X131900000Y-81700000D01*
X132000000Y-81700000D02*
X132000000Y-82200000D01*
X132100000Y-81700000D02*
X132100000Y-82200000D01*
X132100000Y-82200000D02*
X131900000Y-82200000D01*
X133900000Y-82200000D02*
X133900000Y-81700000D01*
X134000000Y-81700000D02*
X134000000Y-82200000D01*
X134100000Y-81700000D02*
X134100000Y-82200000D01*
X134100000Y-82200000D02*
X133900000Y-82200000D01*
X135900000Y-82200000D02*
X135900000Y-81700000D01*
X136000000Y-81700000D02*
X136000000Y-82200000D01*
X136100000Y-81700000D02*
X136100000Y-82200000D01*
X136100000Y-82200000D02*
X135900000Y-82200000D01*
X136500000Y-85200000D02*
X138450000Y-85200000D01*
X136500000Y-85810000D02*
X136500000Y-85200000D01*
X137300000Y-85810000D02*
X137300000Y-86010000D01*
X137300000Y-85910000D02*
X137600000Y-85910000D01*
X137300000Y-86010000D02*
X137600000Y-86010000D01*
X137600000Y-86010000D02*
X137600000Y-85810000D01*
X138110000Y-86110000D02*
X139360000Y-86110000D01*
X138450000Y-81700000D02*
X129550000Y-81700000D01*
X138450000Y-85200000D02*
X138450000Y-81700000D01*
X139060000Y-81090000D02*
X128940000Y-81090000D01*
X139060000Y-83200000D02*
X138450000Y-83200000D01*
X139060000Y-84500000D02*
X138450000Y-84500000D01*
X139060000Y-85810000D02*
X139060000Y-81090000D01*
X139360000Y-86110000D02*
X139360000Y-84860000D01*
%TO.C,U2*%
X157206000Y-110752600D02*
X157301000Y-110752600D01*
X157206000Y-114872600D02*
X157206000Y-110752600D01*
X157301000Y-114872600D02*
X157206000Y-114872600D01*
X162231000Y-110752600D02*
X162326000Y-110752600D01*
X162326000Y-110752600D02*
X162326000Y-114872600D01*
X162326000Y-114872600D02*
X162231000Y-114872600D01*
X162566000Y-110452600D02*
X162236000Y-110212600D01*
X162566000Y-109972600D01*
X162566000Y-110452600D01*
G36*
X162566000Y-110452600D02*
G01*
X162236000Y-110212600D01*
X162566000Y-109972600D01*
X162566000Y-110452600D01*
G37*
%TO.C,J1*%
X127550400Y-72991200D02*
X178570400Y-72991200D01*
X127550400Y-75641200D02*
X127550400Y-72991200D01*
X127550400Y-78291200D02*
X127550400Y-76911200D01*
X128930400Y-78291200D02*
X127550400Y-78291200D01*
X130200400Y-75641200D02*
X127550400Y-75641200D01*
X130200400Y-78291200D02*
X130200400Y-75641200D01*
X130200400Y-78291200D02*
X178570400Y-78291200D01*
X178570400Y-78291200D02*
X178570400Y-72991200D01*
%TO.C,J7*%
X128940000Y-113090000D02*
X128940000Y-117810000D01*
X128940000Y-115200000D02*
X129550000Y-115200000D01*
X128940000Y-116500000D02*
X129550000Y-116500000D01*
X128940000Y-117810000D02*
X139060000Y-117810000D01*
X129550000Y-113700000D02*
X129550000Y-117200000D01*
X129550000Y-117200000D02*
X131500000Y-117200000D01*
X131500000Y-117200000D02*
X131500000Y-117810000D01*
X131900000Y-114200000D02*
X131900000Y-113700000D01*
X132000000Y-113700000D02*
X132000000Y-114200000D01*
X132100000Y-113700000D02*
X132100000Y-114200000D01*
X132100000Y-114200000D02*
X131900000Y-114200000D01*
X133900000Y-114200000D02*
X133900000Y-113700000D01*
X134000000Y-113700000D02*
X134000000Y-114200000D01*
X134100000Y-113700000D02*
X134100000Y-114200000D01*
X134100000Y-114200000D02*
X133900000Y-114200000D01*
X135900000Y-114200000D02*
X135900000Y-113700000D01*
X136000000Y-113700000D02*
X136000000Y-114200000D01*
X136100000Y-113700000D02*
X136100000Y-114200000D01*
X136100000Y-114200000D02*
X135900000Y-114200000D01*
X136500000Y-117200000D02*
X138450000Y-117200000D01*
X136500000Y-117810000D02*
X136500000Y-117200000D01*
X137300000Y-117810000D02*
X137300000Y-118010000D01*
X137300000Y-117910000D02*
X137600000Y-117910000D01*
X137300000Y-118010000D02*
X137600000Y-118010000D01*
X137600000Y-118010000D02*
X137600000Y-117810000D01*
X138110000Y-118110000D02*
X139360000Y-118110000D01*
X138450000Y-113700000D02*
X129550000Y-113700000D01*
X138450000Y-117200000D02*
X138450000Y-113700000D01*
X139060000Y-113090000D02*
X128940000Y-113090000D01*
X139060000Y-115200000D02*
X138450000Y-115200000D01*
X139060000Y-116500000D02*
X138450000Y-116500000D01*
X139060000Y-117810000D02*
X139060000Y-113090000D01*
X139360000Y-118110000D02*
X139360000Y-116860000D01*
%TO.C,R5*%
X160771064Y-117832200D02*
X160316936Y-117832200D01*
X160771064Y-119302200D02*
X160316936Y-119302200D01*
%TO.C,J2*%
X131017200Y-121287200D02*
X131017200Y-126007200D01*
X131017200Y-123397200D02*
X131627200Y-123397200D01*
X131017200Y-124697200D02*
X131627200Y-124697200D01*
X131017200Y-126007200D02*
X139137200Y-126007200D01*
X131627200Y-121897200D02*
X131627200Y-125397200D01*
X131627200Y-125397200D02*
X133577200Y-125397200D01*
X133577200Y-125397200D02*
X133577200Y-126007200D01*
X133977200Y-122397200D02*
X133977200Y-121897200D01*
X134077200Y-121897200D02*
X134077200Y-122397200D01*
X134177200Y-121897200D02*
X134177200Y-122397200D01*
X134177200Y-122397200D02*
X133977200Y-122397200D01*
X135977200Y-122397200D02*
X135977200Y-121897200D01*
X136077200Y-121897200D02*
X136077200Y-122397200D01*
X136177200Y-121897200D02*
X136177200Y-122397200D01*
X136177200Y-122397200D02*
X135977200Y-122397200D01*
X136577200Y-125397200D02*
X138527200Y-125397200D01*
X136577200Y-126007200D02*
X136577200Y-125397200D01*
X137377200Y-126007200D02*
X137377200Y-126207200D01*
X137377200Y-126107200D02*
X137677200Y-126107200D01*
X137377200Y-126207200D02*
X137677200Y-126207200D01*
X137677200Y-126207200D02*
X137677200Y-126007200D01*
X138187200Y-126307200D02*
X139437200Y-126307200D01*
X138527200Y-121897200D02*
X131627200Y-121897200D01*
X138527200Y-125397200D02*
X138527200Y-121897200D01*
X139137200Y-121287200D02*
X131017200Y-121287200D01*
X139137200Y-123397200D02*
X138527200Y-123397200D01*
X139137200Y-124697200D02*
X138527200Y-124697200D01*
X139137200Y-126007200D02*
X139137200Y-121287200D01*
X139437200Y-126307200D02*
X139437200Y-125057200D01*
%TO.C,C3*%
X153599548Y-111972800D02*
X154122052Y-111972800D01*
X153599548Y-113442800D02*
X154122052Y-113442800D01*
%TO.C,U4*%
D10*
X167000000Y-115000000D02*
X185000000Y-115000000D01*
X185000000Y-85000000D01*
X167000000Y-85000000D01*
X167000000Y-115000000D01*
D13*
%TO.C,R2*%
X155005336Y-119237200D02*
X155459464Y-119237200D01*
X155005336Y-120707200D02*
X155459464Y-120707200D01*
D12*
%TO.C,G\u002A\u002A\u002A*%
G36*
X174469833Y-82521543D02*
G01*
X174474512Y-82522069D01*
X174501827Y-82526767D01*
X174521101Y-82534862D01*
X174539332Y-82549858D01*
X174548334Y-82559030D01*
X174556214Y-82567912D01*
X174563763Y-82578212D01*
X174571578Y-82591354D01*
X174580257Y-82608760D01*
X174590396Y-82631851D01*
X174602593Y-82662052D01*
X174617444Y-82700785D01*
X174635548Y-82749471D01*
X174657499Y-82809535D01*
X174682941Y-82879753D01*
X174706667Y-82945287D01*
X174729750Y-83008852D01*
X174751476Y-83068498D01*
X174771132Y-83122274D01*
X174788006Y-83168229D01*
X174801382Y-83204413D01*
X174810549Y-83228876D01*
X174812066Y-83232844D01*
X174845209Y-83319365D01*
X174873068Y-83393004D01*
X174896004Y-83454816D01*
X174914382Y-83505856D01*
X174928565Y-83547180D01*
X174938915Y-83579843D01*
X174945796Y-83604900D01*
X174949571Y-83623407D01*
X174950613Y-83635434D01*
X174944194Y-83657209D01*
X174927494Y-83679602D01*
X174904350Y-83698050D01*
X174893198Y-83703707D01*
X174870698Y-83709209D01*
X174838429Y-83712381D01*
X174801490Y-83713174D01*
X174764975Y-83711540D01*
X174733983Y-83707431D01*
X174725036Y-83705302D01*
X174700549Y-83695819D01*
X174680265Y-83681231D01*
X174662721Y-83659432D01*
X174646452Y-83628315D01*
X174629993Y-83585776D01*
X174619173Y-83553129D01*
X174604253Y-83508259D01*
X174591728Y-83475638D01*
X174580535Y-83452878D01*
X174569610Y-83437592D01*
X174566096Y-83433983D01*
X174544337Y-83413305D01*
X174395085Y-83413305D01*
X174339000Y-83413269D01*
X174295801Y-83413996D01*
X174263344Y-83416738D01*
X174239486Y-83422748D01*
X174222082Y-83433277D01*
X174208988Y-83449579D01*
X174198061Y-83472905D01*
X174187155Y-83504508D01*
X174175411Y-83541616D01*
X174162774Y-83579300D01*
X174150210Y-83613224D01*
X174139045Y-83640030D01*
X174130604Y-83656362D01*
X174129510Y-83657887D01*
X174105911Y-83680686D01*
X174075770Y-83695804D01*
X174036505Y-83704129D01*
X173988208Y-83706556D01*
X173940917Y-83704883D01*
X173906062Y-83699289D01*
X173881354Y-83688913D01*
X173864505Y-83672892D01*
X173855629Y-83656603D01*
X173851431Y-83645213D01*
X173849115Y-83633694D01*
X173849138Y-83620226D01*
X173851961Y-83602988D01*
X173858040Y-83580160D01*
X173867834Y-83549921D01*
X173881802Y-83510451D01*
X173900402Y-83459928D01*
X173914997Y-83420825D01*
X173932911Y-83372847D01*
X173951154Y-83323815D01*
X173968212Y-83277806D01*
X173982572Y-83238899D01*
X173990308Y-83217805D01*
X174001657Y-83186753D01*
X174016734Y-83145559D01*
X174018535Y-83140643D01*
X174304902Y-83140643D01*
X174308278Y-83155464D01*
X174316794Y-83164377D01*
X174317117Y-83164568D01*
X174330648Y-83168083D01*
X174354567Y-83170639D01*
X174384245Y-83172127D01*
X174415058Y-83172440D01*
X174442376Y-83171468D01*
X174461575Y-83169102D01*
X174465216Y-83168045D01*
X174479228Y-83158732D01*
X174485582Y-83142965D01*
X174484643Y-83118329D01*
X174477614Y-83085619D01*
X174466911Y-83047713D01*
X174454120Y-83007593D01*
X174440583Y-82969000D01*
X174427645Y-82935679D01*
X174416646Y-82911373D01*
X174412522Y-82904118D01*
X174402571Y-82893229D01*
X174392463Y-82892069D01*
X174381652Y-82901514D01*
X174369593Y-82922438D01*
X174355740Y-82955717D01*
X174339547Y-83002225D01*
X174327247Y-83040804D01*
X174314224Y-83085305D01*
X174306830Y-83117921D01*
X174304902Y-83140643D01*
X174018535Y-83140643D01*
X174034084Y-83098199D01*
X174052248Y-83048649D01*
X174066050Y-83011026D01*
X174085707Y-82957256D01*
X174108331Y-82895040D01*
X174131847Y-82830102D01*
X174154182Y-82768165D01*
X174167778Y-82730289D01*
X174187990Y-82674954D01*
X174204790Y-82632060D01*
X174219234Y-82599686D01*
X174232381Y-82575913D01*
X174245286Y-82558822D01*
X174259006Y-82546493D01*
X174274035Y-82537299D01*
X174292972Y-82531351D01*
X174322843Y-82526317D01*
X174359557Y-82522509D01*
X174399021Y-82520237D01*
X174437144Y-82519811D01*
X174469833Y-82521543D01*
G37*
G36*
X172697204Y-79603102D02*
G01*
X172711767Y-79606505D01*
X172727690Y-79611838D01*
X172754649Y-79622958D01*
X172786994Y-79638497D01*
X172815149Y-79653654D01*
X172929741Y-79719576D01*
X173031642Y-79778122D01*
X173121164Y-79829470D01*
X173198619Y-79873798D01*
X173264319Y-79911284D01*
X173318576Y-79942105D01*
X173361702Y-79966440D01*
X173394010Y-79984467D01*
X173415812Y-79996364D01*
X173419962Y-79998561D01*
X173472110Y-80025887D01*
X173581625Y-80026625D01*
X173625147Y-80027083D01*
X173657340Y-80028140D01*
X173681916Y-80030339D01*
X173702586Y-80034223D01*
X173723060Y-80040336D01*
X173747049Y-80049222D01*
X173753751Y-80051831D01*
X173825795Y-80087370D01*
X173886984Y-80133143D01*
X173936831Y-80188530D01*
X173974848Y-80252907D01*
X174000550Y-80325651D01*
X174010882Y-80380660D01*
X174015340Y-80409851D01*
X174020459Y-80434525D01*
X174025183Y-80449639D01*
X174025477Y-80450221D01*
X174035898Y-80459653D01*
X174056414Y-80471489D01*
X174082855Y-80483369D01*
X174086650Y-80484847D01*
X174152765Y-80517462D01*
X174212729Y-80562562D01*
X174266719Y-80620420D01*
X174314914Y-80691306D01*
X174357494Y-80775490D01*
X174394637Y-80873246D01*
X174426522Y-80984843D01*
X174432353Y-81009146D01*
X174452637Y-81120360D01*
X174459923Y-81224120D01*
X174454203Y-81320553D01*
X174435469Y-81409784D01*
X174403710Y-81491941D01*
X174398038Y-81503246D01*
X174388219Y-81534689D01*
X174388452Y-81567311D01*
X174395392Y-81588504D01*
X174401281Y-81598072D01*
X174414600Y-81618802D01*
X174434454Y-81649331D01*
X174459951Y-81688294D01*
X174490196Y-81734328D01*
X174524297Y-81786070D01*
X174561359Y-81842157D01*
X174587410Y-81881497D01*
X174625941Y-81939816D01*
X174662046Y-81994810D01*
X174694836Y-82045100D01*
X174723425Y-82089309D01*
X174746923Y-82126059D01*
X174764443Y-82153972D01*
X174775097Y-82171672D01*
X174777947Y-82177117D01*
X174785899Y-82212831D01*
X174780250Y-82242259D01*
X174761022Y-82265291D01*
X174760753Y-82265495D01*
X174735631Y-82279900D01*
X174701186Y-82293884D01*
X174663071Y-82305649D01*
X174626939Y-82313397D01*
X174603563Y-82315496D01*
X174579590Y-82313843D01*
X174558919Y-82307764D01*
X174539674Y-82295581D01*
X174519979Y-82275615D01*
X174497960Y-82246189D01*
X174471740Y-82205622D01*
X174460730Y-82187669D01*
X174403031Y-82092881D01*
X174352642Y-82010459D01*
X174309206Y-81939833D01*
X174272363Y-81880433D01*
X174241755Y-81831688D01*
X174217024Y-81793029D01*
X174197811Y-81763885D01*
X174183758Y-81743687D01*
X174174507Y-81731863D01*
X174173605Y-81730875D01*
X174154881Y-81714348D01*
X174135889Y-81707429D01*
X174119602Y-81706437D01*
X174090358Y-81709432D01*
X174057501Y-81717232D01*
X174026860Y-81728059D01*
X174004268Y-81740138D01*
X174001309Y-81742478D01*
X173994609Y-81749703D01*
X173990377Y-81758931D01*
X173988869Y-81771904D01*
X173990338Y-81790365D01*
X173995039Y-81816056D01*
X174003225Y-81850719D01*
X174015151Y-81896097D01*
X174031071Y-81953933D01*
X174033345Y-81962092D01*
X174058329Y-82051740D01*
X174079470Y-82128084D01*
X174096980Y-82192300D01*
X174111073Y-82245564D01*
X174121960Y-82289052D01*
X174129854Y-82323942D01*
X174134969Y-82351409D01*
X174137516Y-82372630D01*
X174137709Y-82388782D01*
X174135760Y-82401041D01*
X174131881Y-82410584D01*
X174126286Y-82418586D01*
X174119188Y-82426225D01*
X174117545Y-82427874D01*
X174092790Y-82445577D01*
X174060107Y-82459372D01*
X174023607Y-82468552D01*
X173987402Y-82472407D01*
X173955603Y-82470230D01*
X173932323Y-82461311D01*
X173930688Y-82460074D01*
X173910286Y-82436038D01*
X173893212Y-82401101D01*
X173884015Y-82370800D01*
X173879689Y-82353533D01*
X173872262Y-82325055D01*
X173862604Y-82288659D01*
X173851586Y-82247640D01*
X173845524Y-82225265D01*
X173832350Y-82176498D01*
X173818363Y-82124233D01*
X173805034Y-82073997D01*
X173793835Y-82031317D01*
X173791481Y-82022246D01*
X173775598Y-81960967D01*
X173762202Y-81909617D01*
X173750061Y-81863551D01*
X173737944Y-81818127D01*
X173724622Y-81768700D01*
X173709768Y-81713957D01*
X173697231Y-81667524D01*
X173684503Y-81619831D01*
X173672832Y-81575588D01*
X173663464Y-81539501D01*
X173660977Y-81529735D01*
X173650662Y-81489444D01*
X173638633Y-81443236D01*
X173627132Y-81399705D01*
X173624704Y-81390629D01*
X173604545Y-81315518D01*
X173587672Y-81252689D01*
X173573480Y-81199899D01*
X173561366Y-81154904D01*
X173550725Y-81115459D01*
X173540951Y-81079322D01*
X173531442Y-81044248D01*
X173525450Y-81022186D01*
X173514205Y-80980357D01*
X173505410Y-80947005D01*
X173764470Y-80947005D01*
X173765670Y-80956927D01*
X173769110Y-80974017D01*
X173775777Y-81002742D01*
X173784963Y-81040222D01*
X173795963Y-81083577D01*
X173808071Y-81129925D01*
X173808413Y-81131215D01*
X173826168Y-81197882D01*
X173840832Y-81251402D01*
X173853153Y-81293167D01*
X173863878Y-81324570D01*
X173873757Y-81347005D01*
X173883536Y-81361865D01*
X173893964Y-81370541D01*
X173905789Y-81374429D01*
X173919758Y-81374919D01*
X173936619Y-81373405D01*
X173938349Y-81373213D01*
X173962450Y-81369005D01*
X173995466Y-81361229D01*
X174032089Y-81351197D01*
X174052064Y-81345124D01*
X174089752Y-81332407D01*
X174116512Y-81321102D01*
X174136086Y-81309307D01*
X174152215Y-81295124D01*
X174153855Y-81293425D01*
X174179000Y-81258044D01*
X174193595Y-81215250D01*
X174197637Y-81164356D01*
X174191124Y-81104680D01*
X174174052Y-81035537D01*
X174152577Y-80972372D01*
X174132268Y-80932283D01*
X174104240Y-80896364D01*
X174071770Y-80868003D01*
X174038133Y-80850588D01*
X174033439Y-80849195D01*
X174018360Y-80845877D01*
X174003230Y-80844737D01*
X173984917Y-80846131D01*
X173960284Y-80850414D01*
X173926199Y-80857939D01*
X173898721Y-80864443D01*
X173849162Y-80877071D01*
X173812753Y-80888569D01*
X173787788Y-80900124D01*
X173772558Y-80912923D01*
X173765354Y-80928155D01*
X173764470Y-80947005D01*
X173505410Y-80947005D01*
X173503337Y-80939142D01*
X173494006Y-80902991D01*
X173487374Y-80876355D01*
X173486815Y-80874011D01*
X173477281Y-80841311D01*
X173464519Y-80815696D01*
X173445704Y-80793611D01*
X173418009Y-80771504D01*
X173391072Y-80753633D01*
X173362257Y-80734418D01*
X173335015Y-80714675D01*
X173314590Y-80698229D01*
X173312311Y-80696164D01*
X173280088Y-80659795D01*
X173249840Y-80614044D01*
X173224934Y-80564503D01*
X173212306Y-80529988D01*
X173202487Y-80500740D01*
X173191972Y-80474831D01*
X173183029Y-80457843D01*
X173182981Y-80457774D01*
X173172542Y-80448032D01*
X173151350Y-80432206D01*
X173121624Y-80411811D01*
X173107276Y-80402477D01*
X173365867Y-80402477D01*
X173368291Y-80458768D01*
X173384215Y-80510011D01*
X173412564Y-80554860D01*
X173452262Y-80591966D01*
X173502232Y-80619982D01*
X173552034Y-80635654D01*
X173596757Y-80641318D01*
X173640816Y-80637369D01*
X173689739Y-80623290D01*
X173691737Y-80622559D01*
X173739510Y-80597869D01*
X173778672Y-80563445D01*
X173808230Y-80521648D01*
X173827186Y-80474839D01*
X173834545Y-80425376D01*
X173829311Y-80375620D01*
X173813619Y-80333699D01*
X173782304Y-80288462D01*
X173739829Y-80249318D01*
X173692190Y-80220730D01*
X173645334Y-80206150D01*
X173593182Y-80201802D01*
X173541460Y-80207685D01*
X173502110Y-80220730D01*
X173459512Y-80245757D01*
X173421604Y-80277745D01*
X173392679Y-80312835D01*
X173385068Y-80325922D01*
X173375767Y-80350850D01*
X173368505Y-80382284D01*
X173365867Y-80402477D01*
X173107276Y-80402477D01*
X173085586Y-80388367D01*
X173045457Y-80363390D01*
X173039914Y-80360024D01*
X172910291Y-80281541D01*
X172845802Y-80282441D01*
X172806374Y-80284561D01*
X172763681Y-80289283D01*
X172726624Y-80295612D01*
X172724918Y-80295988D01*
X172695232Y-80302258D01*
X172655801Y-80310044D01*
X172611713Y-80318365D01*
X172568051Y-80326242D01*
X172567014Y-80326424D01*
X172519703Y-80334831D01*
X172468233Y-80344167D01*
X172419167Y-80353233D01*
X172382792Y-80360110D01*
X172258962Y-80383797D01*
X172147802Y-80404809D01*
X172047260Y-80423533D01*
X171955283Y-80440352D01*
X171939157Y-80443265D01*
X171873412Y-80455171D01*
X171820704Y-80464902D01*
X171779258Y-80472875D01*
X171747298Y-80479509D01*
X171723048Y-80485220D01*
X171704732Y-80490428D01*
X171690575Y-80495550D01*
X171678801Y-80501004D01*
X171667742Y-80507144D01*
X171647474Y-80521325D01*
X171620445Y-80543401D01*
X171589488Y-80570697D01*
X171557440Y-80600540D01*
X171527136Y-80630256D01*
X171501412Y-80657171D01*
X171483103Y-80678610D01*
X171477616Y-80686440D01*
X171469411Y-80704963D01*
X171460490Y-80733055D01*
X171452478Y-80765429D01*
X171450714Y-80774051D01*
X171431451Y-80845722D01*
X171402620Y-80908343D01*
X171362696Y-80964242D01*
X171310154Y-81015745D01*
X171273612Y-81044292D01*
X171245853Y-81065685D01*
X171228303Y-81082783D01*
X171218113Y-81098744D01*
X171213985Y-81110364D01*
X171212143Y-81124264D01*
X171210320Y-81151492D01*
X171208536Y-81190500D01*
X171206809Y-81239742D01*
X171205158Y-81297671D01*
X171203603Y-81362741D01*
X171202162Y-81433405D01*
X171200854Y-81508117D01*
X171199698Y-81585329D01*
X171198712Y-81663497D01*
X171197916Y-81741072D01*
X171197329Y-81816509D01*
X171196969Y-81888261D01*
X171196855Y-81954781D01*
X171197007Y-82014522D01*
X171197443Y-82065939D01*
X171198182Y-82107484D01*
X171199242Y-82137612D01*
X171200644Y-82154775D01*
X171201198Y-82157373D01*
X171203965Y-82166147D01*
X171206779Y-82173744D01*
X171210671Y-82180239D01*
X171216674Y-82185709D01*
X171225821Y-82190228D01*
X171239144Y-82193872D01*
X171257675Y-82196718D01*
X171282447Y-82198840D01*
X171314493Y-82200315D01*
X171354844Y-82201218D01*
X171404533Y-82201624D01*
X171464593Y-82201609D01*
X171536056Y-82201250D01*
X171619954Y-82200620D01*
X171717320Y-82199797D01*
X171773734Y-82199316D01*
X171877558Y-82198436D01*
X171967410Y-82197714D01*
X172044356Y-82197212D01*
X172109460Y-82196992D01*
X172163790Y-82197118D01*
X172208411Y-82197650D01*
X172244388Y-82198653D01*
X172272787Y-82200189D01*
X172294674Y-82202319D01*
X172311116Y-82205107D01*
X172323177Y-82208615D01*
X172331924Y-82212905D01*
X172338422Y-82218039D01*
X172343737Y-82224082D01*
X172348935Y-82231094D01*
X172350425Y-82233119D01*
X172356925Y-82244622D01*
X172361511Y-82260599D01*
X172364667Y-82284044D01*
X172366875Y-82317952D01*
X172367822Y-82341088D01*
X172369456Y-82377374D01*
X172371490Y-82409107D01*
X172373654Y-82432700D01*
X172375536Y-82444151D01*
X172378413Y-82451773D01*
X172382641Y-82458122D01*
X172389516Y-82463315D01*
X172400333Y-82467467D01*
X172416388Y-82470694D01*
X172438975Y-82473114D01*
X172469392Y-82474840D01*
X172508932Y-82475991D01*
X172558892Y-82476682D01*
X172620567Y-82477029D01*
X172695253Y-82477149D01*
X172743716Y-82477160D01*
X172823718Y-82477204D01*
X172890074Y-82477372D01*
X172944172Y-82477713D01*
X172987405Y-82478279D01*
X173021163Y-82479119D01*
X173046838Y-82480285D01*
X173065819Y-82481826D01*
X173079499Y-82483794D01*
X173089267Y-82486239D01*
X173096514Y-82489212D01*
X173098104Y-82490048D01*
X173133067Y-82517478D01*
X173157626Y-82554949D01*
X173167883Y-82586339D01*
X173169869Y-82603276D01*
X173171586Y-82633006D01*
X173173030Y-82673585D01*
X173174203Y-82723069D01*
X173175102Y-82779514D01*
X173175728Y-82840974D01*
X173176078Y-82905507D01*
X173176153Y-82971168D01*
X173175950Y-83036012D01*
X173175470Y-83098095D01*
X173174711Y-83155473D01*
X173173673Y-83206202D01*
X173172354Y-83248337D01*
X173170753Y-83279934D01*
X173168871Y-83299050D01*
X173168222Y-83302163D01*
X173151681Y-83337982D01*
X173125301Y-83368599D01*
X173093712Y-83388929D01*
X173074166Y-83394223D01*
X173043101Y-83398294D01*
X172999316Y-83401257D01*
X172947162Y-83403095D01*
X172898694Y-83404439D01*
X172862857Y-83406414D01*
X172837253Y-83410094D01*
X172819481Y-83416551D01*
X172807140Y-83426861D01*
X172797832Y-83442097D01*
X172789156Y-83463333D01*
X172784556Y-83475847D01*
X172762579Y-83530601D01*
X172739821Y-83575346D01*
X172713660Y-83614999D01*
X172702696Y-83629235D01*
X172673615Y-83659624D01*
X172635603Y-83690856D01*
X172593387Y-83719666D01*
X172551695Y-83742786D01*
X172519669Y-83755689D01*
X172486374Y-83762954D01*
X172444206Y-83768102D01*
X172398658Y-83770846D01*
X172355223Y-83770899D01*
X172319395Y-83767976D01*
X172311359Y-83766561D01*
X172268129Y-83753200D01*
X172220303Y-83731305D01*
X172173085Y-83703745D01*
X172131680Y-83673393D01*
X172114854Y-83658138D01*
X172075263Y-83610832D01*
X172040334Y-83553464D01*
X172012907Y-83490901D01*
X172007066Y-83473459D01*
X171996537Y-83447154D01*
X171983523Y-83424543D01*
X171975644Y-83415185D01*
X171957116Y-83398267D01*
X171030031Y-83398267D01*
X170872671Y-83398324D01*
X170730158Y-83398496D01*
X170602301Y-83398786D01*
X170488908Y-83399193D01*
X170389789Y-83399721D01*
X170304752Y-83400370D01*
X170233606Y-83401143D01*
X170176161Y-83402041D01*
X170132224Y-83403065D01*
X170101606Y-83404217D01*
X170084114Y-83405499D01*
X170080070Y-83406242D01*
X170071261Y-83409656D01*
X170063839Y-83414325D01*
X170056545Y-83422261D01*
X170048118Y-83435479D01*
X170037299Y-83455993D01*
X170022826Y-83485818D01*
X170003440Y-83526968D01*
X170000161Y-83533962D01*
X169972806Y-83581305D01*
X169936821Y-83627643D01*
X169896133Y-83668556D01*
X169854665Y-83699624D01*
X169851314Y-83701621D01*
X169779884Y-83735230D01*
X169706883Y-83754638D01*
X169633810Y-83760364D01*
X169562160Y-83752930D01*
X169493432Y-83732855D01*
X169429123Y-83700662D01*
X169370729Y-83656869D01*
X169319749Y-83601998D01*
X169277679Y-83536570D01*
X169258576Y-83495529D01*
X169245152Y-83463965D01*
X169232955Y-83441727D01*
X169219066Y-83427183D01*
X169200564Y-83418701D01*
X169174530Y-83414648D01*
X169138043Y-83413394D01*
X169111459Y-83413305D01*
X169071233Y-83412611D01*
X169032457Y-83410726D01*
X168999835Y-83407948D01*
X168979829Y-83404975D01*
X168941452Y-83390575D01*
X168907865Y-83366498D01*
X168900115Y-83356995D01*
X169425346Y-83356995D01*
X169434386Y-83406213D01*
X169441853Y-83425076D01*
X169470700Y-83474859D01*
X169506101Y-83512345D01*
X169550483Y-83539696D01*
X169585634Y-83553172D01*
X169622185Y-83561539D01*
X169657202Y-83561592D01*
X169697267Y-83553248D01*
X169702697Y-83551687D01*
X169754707Y-83529697D01*
X169797615Y-83496503D01*
X169832687Y-83451027D01*
X169843296Y-83432104D01*
X169859679Y-83385029D01*
X169860539Y-83372173D01*
X172168865Y-83372173D01*
X172176844Y-83420998D01*
X172193215Y-83460135D01*
X172219058Y-83495439D01*
X172252518Y-83528943D01*
X172287961Y-83555208D01*
X172297022Y-83560293D01*
X172341486Y-83575776D01*
X172391704Y-83580980D01*
X172442359Y-83575804D01*
X172480542Y-83563725D01*
X172526050Y-83536037D01*
X172565543Y-83496826D01*
X172593565Y-83453604D01*
X172611312Y-83403416D01*
X172615544Y-83352555D01*
X172607563Y-83302915D01*
X172588672Y-83256393D01*
X172560172Y-83214884D01*
X172523367Y-83180284D01*
X172479558Y-83154487D01*
X172430047Y-83139390D01*
X172376138Y-83136888D01*
X172375975Y-83136901D01*
X172319126Y-83148448D01*
X172269338Y-83173136D01*
X172227204Y-83210534D01*
X172193314Y-83260208D01*
X172185237Y-83276574D01*
X172171588Y-83322298D01*
X172168865Y-83372173D01*
X169860539Y-83372173D01*
X169863001Y-83335392D01*
X169854320Y-83285807D01*
X169834694Y-83238889D01*
X169805182Y-83197251D01*
X169766842Y-83163509D01*
X169725918Y-83142149D01*
X169682997Y-83131591D01*
X169635191Y-83128878D01*
X169588514Y-83133870D01*
X169549417Y-83146219D01*
X169505528Y-83174606D01*
X169470129Y-83212594D01*
X169444266Y-83257468D01*
X169428989Y-83306507D01*
X169425346Y-83356995D01*
X168900115Y-83356995D01*
X168883031Y-83336048D01*
X168874256Y-83316939D01*
X168871925Y-83305060D01*
X168869952Y-83284062D01*
X168868316Y-83253091D01*
X168866994Y-83211297D01*
X168865965Y-83157829D01*
X168865209Y-83091834D01*
X168864704Y-83012461D01*
X168864549Y-82961247D01*
X169116261Y-82961247D01*
X169116855Y-83003493D01*
X169118554Y-83039986D01*
X169119078Y-83046842D01*
X169123689Y-83087061D01*
X169130725Y-83114763D01*
X169141818Y-83132448D01*
X169158595Y-83142615D01*
X169182688Y-83147763D01*
X169185061Y-83148042D01*
X169216049Y-83150257D01*
X169241378Y-83148025D01*
X169264367Y-83139837D01*
X169288330Y-83124186D01*
X169316583Y-83099564D01*
X169338657Y-83078195D01*
X169400980Y-83024553D01*
X169465284Y-82985440D01*
X169532861Y-82960366D01*
X169605004Y-82948837D01*
X169675865Y-82949715D01*
X169739769Y-82959471D01*
X169797537Y-82978286D01*
X169851970Y-83007588D01*
X169905871Y-83048804D01*
X169947109Y-83087861D01*
X169971450Y-83112469D01*
X169991738Y-83132753D01*
X170005777Y-83146532D01*
X170011319Y-83151609D01*
X170021698Y-83153051D01*
X170046795Y-83154421D01*
X170086286Y-83155713D01*
X170139852Y-83156925D01*
X170207169Y-83158054D01*
X170287917Y-83159096D01*
X170381774Y-83160048D01*
X170488419Y-83160907D01*
X170607529Y-83161668D01*
X170738784Y-83162329D01*
X170881862Y-83162887D01*
X171036441Y-83163338D01*
X171159277Y-83163603D01*
X171291728Y-83163830D01*
X171409961Y-83163985D01*
X171514795Y-83164060D01*
X171607050Y-83164045D01*
X171687547Y-83163931D01*
X171757105Y-83163709D01*
X171816543Y-83163370D01*
X171866683Y-83162903D01*
X171908344Y-83162301D01*
X171942345Y-83161554D01*
X171969507Y-83160653D01*
X171990650Y-83159588D01*
X172006593Y-83158351D01*
X172018156Y-83156932D01*
X172026160Y-83155322D01*
X172030705Y-83153826D01*
X172047975Y-83143688D01*
X172071917Y-83125841D01*
X172098648Y-83103291D01*
X172112980Y-83090119D01*
X172176865Y-83038408D01*
X172244334Y-83000929D01*
X172314717Y-82977852D01*
X172387344Y-82969349D01*
X172461543Y-82975591D01*
X172512111Y-82988205D01*
X172564434Y-83007877D01*
X172610870Y-83032887D01*
X172655984Y-83066058D01*
X172695375Y-83101503D01*
X172724113Y-83127433D01*
X172748857Y-83144360D01*
X172774109Y-83153856D01*
X172804373Y-83157489D01*
X172844154Y-83156831D01*
X172852769Y-83156373D01*
X172887613Y-83152737D01*
X172910584Y-83144985D01*
X172924743Y-83130767D01*
X172933151Y-83107732D01*
X172936125Y-83092352D01*
X172938586Y-83069180D01*
X172940421Y-83035480D01*
X172941636Y-82994322D01*
X172942238Y-82948773D01*
X172942234Y-82901903D01*
X172941630Y-82856780D01*
X172940434Y-82816474D01*
X172938652Y-82784051D01*
X172936290Y-82762583D01*
X172935391Y-82758448D01*
X172922141Y-82732875D01*
X172907236Y-82721982D01*
X172894737Y-82719680D01*
X172868072Y-82717474D01*
X172828115Y-82715370D01*
X172775738Y-82713373D01*
X172711814Y-82711488D01*
X172637216Y-82709721D01*
X172552818Y-82708078D01*
X172459491Y-82706562D01*
X172358108Y-82705180D01*
X172249544Y-82703938D01*
X172134669Y-82702839D01*
X172014358Y-82701891D01*
X171889483Y-82701097D01*
X171760917Y-82700464D01*
X171629533Y-82699996D01*
X171496203Y-82699699D01*
X171361801Y-82699579D01*
X171227200Y-82699640D01*
X171093271Y-82699888D01*
X170960889Y-82700329D01*
X170830926Y-82700967D01*
X170704254Y-82701808D01*
X170581747Y-82702857D01*
X170464278Y-82704120D01*
X170352719Y-82705601D01*
X170315001Y-82706176D01*
X170220436Y-82707655D01*
X170118986Y-82709214D01*
X170013728Y-82710810D01*
X169907740Y-82712394D01*
X169804097Y-82713923D01*
X169705876Y-82715351D01*
X169616156Y-82716631D01*
X169538011Y-82717718D01*
X169529240Y-82717837D01*
X169453406Y-82719029D01*
X169383244Y-82720444D01*
X169320187Y-82722035D01*
X169265669Y-82723754D01*
X169221124Y-82725552D01*
X169187987Y-82727381D01*
X169167691Y-82729194D01*
X169162619Y-82730135D01*
X169143184Y-82739870D01*
X169130077Y-82752828D01*
X169129840Y-82753256D01*
X169126081Y-82767657D01*
X169122776Y-82794124D01*
X169120032Y-82829686D01*
X169117959Y-82871373D01*
X169116666Y-82916217D01*
X169116261Y-82961247D01*
X168864549Y-82961247D01*
X168864437Y-82924039D01*
X168863787Y-82558840D01*
X168884081Y-82528139D01*
X168911364Y-82498563D01*
X168946366Y-82476895D01*
X168988355Y-82456352D01*
X169497533Y-82465250D01*
X169595291Y-82466979D01*
X169697573Y-82468826D01*
X169801894Y-82470744D01*
X169905771Y-82472686D01*
X170006720Y-82474605D01*
X170102257Y-82476453D01*
X170189898Y-82478184D01*
X170267159Y-82479749D01*
X170324272Y-82480946D01*
X170416782Y-82482725D01*
X170494840Y-82483792D01*
X170558339Y-82484148D01*
X170607171Y-82483793D01*
X170641229Y-82482727D01*
X170660408Y-82480950D01*
X170663439Y-82480213D01*
X170672116Y-82477136D01*
X170679526Y-82473666D01*
X170685763Y-82468673D01*
X170690919Y-82461030D01*
X170695086Y-82449607D01*
X170698358Y-82433277D01*
X170700826Y-82410912D01*
X170702583Y-82381382D01*
X170703721Y-82343560D01*
X170704334Y-82296317D01*
X170704512Y-82238525D01*
X170704350Y-82169055D01*
X170703939Y-82086779D01*
X170703385Y-81992809D01*
X170702761Y-81900459D01*
X170701964Y-81802778D01*
X170701026Y-81702598D01*
X170699979Y-81602751D01*
X170698854Y-81506071D01*
X170697683Y-81415391D01*
X170696497Y-81333542D01*
X170695328Y-81263358D01*
X170695109Y-81251523D01*
X170693592Y-81174522D01*
X170692154Y-81111055D01*
X170690710Y-81059619D01*
X170689176Y-81018710D01*
X170687467Y-80986824D01*
X170685498Y-80962458D01*
X170683184Y-80944109D01*
X170680441Y-80930272D01*
X170677184Y-80919445D01*
X170676234Y-80916917D01*
X170655690Y-80858654D01*
X170642898Y-80806864D01*
X170636812Y-80755826D01*
X170636388Y-80699814D01*
X170636421Y-80698859D01*
X170636431Y-80698653D01*
X170820167Y-80698653D01*
X170820798Y-80749650D01*
X170835771Y-80799769D01*
X170864981Y-80847587D01*
X170881621Y-80866799D01*
X170925255Y-80902252D01*
X170975951Y-80925735D01*
X171031091Y-80936784D01*
X171088055Y-80934938D01*
X171144224Y-80919735D01*
X171155093Y-80915069D01*
X171198429Y-80889209D01*
X171236361Y-80855192D01*
X171264086Y-80817327D01*
X171264173Y-80817168D01*
X171271098Y-80799997D01*
X171275275Y-80777074D01*
X171277194Y-80744834D01*
X171277464Y-80720243D01*
X171277265Y-80686527D01*
X171275897Y-80663385D01*
X171272200Y-80646350D01*
X171265016Y-80630958D01*
X171253184Y-80612743D01*
X171247387Y-80604380D01*
X171210017Y-80562856D01*
X171165103Y-80532686D01*
X171114993Y-80513897D01*
X171062036Y-80506520D01*
X171008582Y-80510581D01*
X170956980Y-80526110D01*
X170909578Y-80553135D01*
X170868726Y-80591684D01*
X170862340Y-80599729D01*
X170833980Y-80648205D01*
X170820167Y-80698653D01*
X170636431Y-80698653D01*
X170638350Y-80659977D01*
X170641688Y-80630595D01*
X170647559Y-80605178D01*
X170657088Y-80578191D01*
X170664662Y-80559807D01*
X170680337Y-80526194D01*
X170697326Y-80498555D01*
X170719376Y-80471499D01*
X170743814Y-80446021D01*
X170804082Y-80395174D01*
X170869597Y-80358146D01*
X170940836Y-80334784D01*
X171018278Y-80324937D01*
X171102404Y-80328453D01*
X171111856Y-80329619D01*
X171147299Y-80333759D01*
X171171945Y-80335107D01*
X171189784Y-80333604D01*
X171204808Y-80329194D01*
X171207135Y-80328250D01*
X171213636Y-80325052D01*
X171221775Y-80319955D01*
X171232364Y-80312237D01*
X171246214Y-80301179D01*
X171264134Y-80286060D01*
X171286937Y-80266161D01*
X171315433Y-80240761D01*
X171331277Y-80226447D01*
X171942917Y-80226447D01*
X171949407Y-80234707D01*
X171964812Y-80241585D01*
X171983033Y-80244850D01*
X171991792Y-80244343D01*
X172004736Y-80242044D01*
X172029087Y-80237765D01*
X172061433Y-80232104D01*
X172098364Y-80225657D01*
X172100821Y-80225229D01*
X172144313Y-80217575D01*
X172196536Y-80208269D01*
X172251432Y-80198398D01*
X172302946Y-80189047D01*
X172311359Y-80187509D01*
X172358068Y-80178962D01*
X172405820Y-80170232D01*
X172449833Y-80162194D01*
X172485328Y-80155720D01*
X172493913Y-80154157D01*
X172547145Y-80143359D01*
X172585542Y-80132481D01*
X172609259Y-80120654D01*
X172618453Y-80107010D01*
X172613282Y-80090677D01*
X172593902Y-80070788D01*
X172560470Y-80046472D01*
X172518139Y-80019870D01*
X172479524Y-79996331D01*
X172435925Y-79969423D01*
X172395020Y-79943894D01*
X172383525Y-79936647D01*
X172346778Y-79914566D01*
X172318947Y-79901113D01*
X172297223Y-79895497D01*
X172278799Y-79896928D01*
X172263870Y-79902970D01*
X172253395Y-79910903D01*
X172234158Y-79927732D01*
X172207993Y-79951683D01*
X172176737Y-79980984D01*
X172142224Y-80013860D01*
X172106290Y-80048538D01*
X172070770Y-80083244D01*
X172037500Y-80116205D01*
X172008314Y-80145647D01*
X171985048Y-80169796D01*
X171969538Y-80186880D01*
X171967354Y-80189508D01*
X171953429Y-80207940D01*
X171944579Y-80221966D01*
X171942917Y-80226447D01*
X171331277Y-80226447D01*
X171350432Y-80209141D01*
X171392746Y-80170580D01*
X171443186Y-80124358D01*
X171502562Y-80069756D01*
X171571685Y-80006053D01*
X171615830Y-79965327D01*
X171659566Y-79925038D01*
X171700701Y-79887279D01*
X171737675Y-79853472D01*
X171768928Y-79825036D01*
X171792903Y-79803393D01*
X171808041Y-79789964D01*
X171811330Y-79787163D01*
X171839014Y-79767443D01*
X171871065Y-79751081D01*
X171909948Y-79737250D01*
X171958129Y-79725123D01*
X172018074Y-79713872D01*
X172040667Y-79710240D01*
X172077696Y-79704251D01*
X172113045Y-79698141D01*
X172141640Y-79692804D01*
X172153455Y-79690343D01*
X172173458Y-79686243D01*
X172204400Y-79680376D01*
X172242391Y-79673460D01*
X172283538Y-79666215D01*
X172292561Y-79664660D01*
X172335711Y-79657062D01*
X172378319Y-79649228D01*
X172415841Y-79642013D01*
X172443732Y-79636275D01*
X172446706Y-79635617D01*
X172473789Y-79630225D01*
X172510802Y-79623786D01*
X172552756Y-79617129D01*
X172592344Y-79611400D01*
X172632365Y-79606061D01*
X172660910Y-79602891D01*
X172681387Y-79601901D01*
X172697204Y-79603102D01*
G37*
D13*
%TO.C,R1*%
X165265000Y-80772936D02*
X165265000Y-81227064D01*
X166735000Y-80772936D02*
X166735000Y-81227064D01*
%TO.C,R3*%
X151153864Y-119237200D02*
X150699736Y-119237200D01*
X151153864Y-120707200D02*
X150699736Y-120707200D01*
%TO.C,Y1*%
X155804000Y-94491400D02*
X162204000Y-94491400D01*
X162204000Y-99361400D02*
X155804000Y-99361400D01*
X155804000Y-99361400D02*
G75*
G02*
X155804000Y-94491400I0J2435000D01*
G01*
X162204000Y-94491400D02*
G75*
G02*
X162204000Y-99361400I0J-2435000D01*
G01*
%TO.C,J5*%
X168054400Y-119171600D02*
X178794400Y-119171600D01*
X168054400Y-122791600D02*
X169294400Y-122791600D01*
X168054400Y-123791600D02*
X169294400Y-123791600D01*
X168054400Y-125091600D02*
X169294400Y-125091600D01*
X168054400Y-127211600D02*
X168054400Y-119171600D01*
X170874400Y-127211600D02*
X168054400Y-127211600D01*
X173054400Y-122791600D02*
X174362400Y-122791600D01*
X173054400Y-123791600D02*
X174362400Y-123791600D01*
X173054400Y-125091600D02*
X175631400Y-125091600D01*
X176717400Y-125091600D02*
X178794400Y-125091600D01*
X177986400Y-122791600D02*
X178794400Y-122791600D01*
X177986400Y-123791600D02*
X178794400Y-123791600D01*
X178794400Y-119171600D02*
X178794400Y-127211600D01*
X178794400Y-127211600D02*
X171474400Y-127211600D01*
X171614400Y-127821600D02*
X170734400Y-127821600D01*
X171174400Y-127211600D01*
X171614400Y-127821600D01*
G36*
X171614400Y-127821600D02*
G01*
X170734400Y-127821600D01*
X171174400Y-127211600D01*
X171614400Y-127821600D01*
G37*
%TO.C,D2*%
X160709000Y-103078400D02*
X160709000Y-104998400D01*
X160709000Y-104998400D02*
X163569000Y-104998400D01*
X163569000Y-103078400D02*
X160709000Y-103078400D01*
%TO.C,R10*%
X148265000Y-84772936D02*
X148265000Y-85227064D01*
X149735000Y-84772936D02*
X149735000Y-85227064D01*
%TO.C,U3*%
X148390000Y-114390000D02*
X151610000Y-114390000D01*
X148390000Y-114515000D02*
X148390000Y-114390000D01*
X148390000Y-117610000D02*
X148390000Y-117485000D01*
X151610000Y-114390000D02*
X151610000Y-114515000D01*
X151610000Y-117485000D02*
X151610000Y-117610000D01*
X151610000Y-117610000D02*
X148390000Y-117610000D01*
X147840000Y-114510000D02*
X147600000Y-114180000D01*
X148080000Y-114180000D01*
X147840000Y-114510000D01*
G36*
X147840000Y-114510000D02*
G01*
X147600000Y-114180000D01*
X148080000Y-114180000D01*
X147840000Y-114510000D01*
G37*
%TO.C,D3*%
X142040000Y-80000000D02*
X142040000Y-82860000D01*
X142040000Y-82860000D02*
X143960000Y-82860000D01*
X143960000Y-82860000D02*
X143960000Y-80000000D01*
%TO.C,R9*%
X145265000Y-84772936D02*
X145265000Y-85227064D01*
X146735000Y-84772936D02*
X146735000Y-85227064D01*
%TO.C,R4*%
X145873736Y-119254600D02*
X146327864Y-119254600D01*
X145873736Y-120724600D02*
X146327864Y-120724600D01*
%TO.C,U1*%
X155140000Y-81115000D02*
X162860000Y-81115000D01*
X155140000Y-81360000D02*
X155140000Y-81115000D01*
X155140000Y-92885000D02*
X155140000Y-92640000D01*
X162860000Y-81115000D02*
X162860000Y-81360000D01*
X162860000Y-92640000D02*
X162860000Y-92885000D01*
X162860000Y-92885000D02*
X155140000Y-92885000D01*
X154350000Y-81360000D02*
X154010000Y-80890000D01*
X154690000Y-80890000D01*
X154350000Y-81360000D01*
G36*
X154350000Y-81360000D02*
G01*
X154010000Y-80890000D01*
X154690000Y-80890000D01*
X154350000Y-81360000D01*
G37*
%TO.C,R7*%
X155573464Y-103252600D02*
X155119336Y-103252600D01*
X155573464Y-104722600D02*
X155119336Y-104722600D01*
%TO.C,C1*%
X162973652Y-100407800D02*
X162451148Y-100407800D01*
X162973652Y-101877800D02*
X162451148Y-101877800D01*
%TO.C,D4*%
X145040000Y-80000000D02*
X145040000Y-82860000D01*
X145040000Y-82860000D02*
X146960000Y-82860000D01*
X146960000Y-82860000D02*
X146960000Y-80000000D01*
%TO.C,J4*%
X157620400Y-121490400D02*
X157620400Y-126210400D01*
X157620400Y-123600400D02*
X158230400Y-123600400D01*
X157620400Y-124900400D02*
X158230400Y-124900400D01*
X157620400Y-126210400D02*
X163740400Y-126210400D01*
X158230400Y-122100400D02*
X158230400Y-125600400D01*
X158230400Y-125600400D02*
X160180400Y-125600400D01*
X160180400Y-125600400D02*
X160180400Y-126210400D01*
X160580400Y-122600400D02*
X160580400Y-122100400D01*
X160680400Y-122100400D02*
X160680400Y-122600400D01*
X160780400Y-122100400D02*
X160780400Y-122600400D01*
X160780400Y-122600400D02*
X160580400Y-122600400D01*
X161180400Y-125600400D02*
X163130400Y-125600400D01*
X161180400Y-126210400D02*
X161180400Y-125600400D01*
X161980400Y-126210400D02*
X161980400Y-126410400D01*
X161980400Y-126310400D02*
X162280400Y-126310400D01*
X161980400Y-126410400D02*
X162280400Y-126410400D01*
X162280400Y-126410400D02*
X162280400Y-126210400D01*
X162790400Y-126510400D02*
X164040400Y-126510400D01*
X163130400Y-122100400D02*
X158230400Y-122100400D01*
X163130400Y-125600400D02*
X163130400Y-122100400D01*
X163740400Y-121490400D02*
X157620400Y-121490400D01*
X163740400Y-123600400D02*
X163130400Y-123600400D01*
X163740400Y-124900400D02*
X163130400Y-124900400D01*
X163740400Y-126210400D02*
X163740400Y-121490400D01*
X164040400Y-126510400D02*
X164040400Y-125260400D01*
%TO.C,R6*%
X155573464Y-106199000D02*
X155119336Y-106199000D01*
X155573464Y-107669000D02*
X155119336Y-107669000D01*
%TO.C,R8*%
X142265000Y-84772936D02*
X142265000Y-85227064D01*
X143735000Y-84772936D02*
X143735000Y-85227064D01*
%TD*%
M02*
