%TF.GenerationSoftware,KiCad,Pcbnew,9.0.8*%
%TF.CreationDate,2026-04-17T16:11:34+02:00*%
%TF.ProjectId,LARA_hat,4c415241-5f68-4617-942e-6b696361645f,rev?*%
%TF.SameCoordinates,Original*%
%TF.FileFunction,Paste,Top*%
%TF.FilePolarity,Positive*%
%FSLAX46Y46*%
G04 Gerber Fmt 4.6, Leading zero omitted, Abs format (unit mm)*
G04 Created by KiCad (PCBNEW 9.0.8) date 2026-04-17 16:11:34*
%MOMM*%
%LPD*%
G01*
G04 APERTURE LIST*
G04 Aperture macros list*
%AMRoundRect*
0 Rectangle with rounded corners*
0 $1 Rounding radius*
0 $2 $3 $4 $5 $6 $7 $8 $9 X,Y pos of 4 corners*
0 Add a 4 corners polygon primitive as box body*
4,1,4,$2,$3,$4,$5,$6,$7,$8,$9,$2,$3,0*
0 Add four circle primitives for the rounded corners*
1,1,$1+$1,$2,$3*
1,1,$1+$1,$4,$5*
1,1,$1+$1,$6,$7*
1,1,$1+$1,$8,$9*
0 Add four rect primitives between the rounded corners*
20,1,$1+$1,$2,$3,$4,$5,0*
20,1,$1+$1,$4,$5,$6,$7,0*
20,1,$1+$1,$6,$7,$8,$9,0*
20,1,$1+$1,$8,$9,$2,$3,0*%
G04 Aperture macros list end*
%ADD10RoundRect,0.250000X0.337500X0.475000X-0.337500X0.475000X-0.337500X-0.475000X0.337500X-0.475000X0*%
%ADD11RoundRect,0.250000X0.450000X-0.325000X0.450000X0.325000X-0.450000X0.325000X-0.450000X-0.325000X0*%
%ADD12RoundRect,0.250000X-0.325000X-0.450000X0.325000X-0.450000X0.325000X0.450000X-0.325000X0.450000X0*%
%ADD13RoundRect,0.250000X-0.337500X-0.475000X0.337500X-0.475000X0.337500X0.475000X-0.337500X0.475000X0*%
%ADD14RoundRect,0.150000X-0.150000X0.825000X-0.150000X-0.825000X0.150000X-0.825000X0.150000X0.825000X0*%
%ADD15RoundRect,0.250000X0.350000X0.450000X-0.350000X0.450000X-0.350000X-0.450000X0.350000X-0.450000X0*%
%ADD16RoundRect,0.250000X-0.350000X-0.450000X0.350000X-0.450000X0.350000X0.450000X-0.350000X0.450000X0*%
%ADD17RoundRect,0.250000X-0.450000X0.350000X-0.450000X-0.350000X0.450000X-0.350000X0.450000X0.350000X0*%
%ADD18RoundRect,0.125000X-0.687500X-0.125000X0.687500X-0.125000X0.687500X0.125000X-0.687500X0.125000X0*%
%ADD19RoundRect,0.150000X-0.875000X-0.150000X0.875000X-0.150000X0.875000X0.150000X-0.875000X0.150000X0*%
G04 APERTURE END LIST*
D10*
%TO.C,C4*%
X147125900Y-112758600D03*
X145050900Y-112758600D03*
%TD*%
D11*
%TO.C,D5*%
X149000000Y-82025000D03*
X149000000Y-79975000D03*
%TD*%
D12*
%TO.C,D1*%
X161687400Y-107035600D03*
X163737400Y-107035600D03*
%TD*%
D13*
%TO.C,C2*%
X154359700Y-101092000D03*
X156434700Y-101092000D03*
%TD*%
D14*
%TO.C,U2*%
X161671000Y-110337600D03*
X160401000Y-110337600D03*
X159131000Y-110337600D03*
X157861000Y-110337600D03*
X157861000Y-115287600D03*
X159131000Y-115287600D03*
X160401000Y-115287600D03*
X161671000Y-115287600D03*
%TD*%
D15*
%TO.C,R5*%
X161544000Y-118567200D03*
X159544000Y-118567200D03*
%TD*%
D13*
%TO.C,C3*%
X152823300Y-112707800D03*
X154898300Y-112707800D03*
%TD*%
D16*
%TO.C,R2*%
X154232400Y-119972200D03*
X156232400Y-119972200D03*
%TD*%
D17*
%TO.C,R1*%
X166000000Y-80000000D03*
X166000000Y-82000000D03*
%TD*%
D15*
%TO.C,R3*%
X151926800Y-119972200D03*
X149926800Y-119972200D03*
%TD*%
D12*
%TO.C,D2*%
X161544000Y-104038400D03*
X163594000Y-104038400D03*
%TD*%
D17*
%TO.C,R10*%
X149000000Y-84000000D03*
X149000000Y-86000000D03*
%TD*%
D18*
%TO.C,U3*%
X147887500Y-115025000D03*
X147887500Y-115675000D03*
X147887500Y-116325000D03*
X147887500Y-116975000D03*
X152112500Y-116975000D03*
X152112500Y-116325000D03*
X152112500Y-115675000D03*
X152112500Y-115025000D03*
%TD*%
D11*
%TO.C,D3*%
X143000000Y-82025000D03*
X143000000Y-79975000D03*
%TD*%
D17*
%TO.C,R9*%
X146000000Y-84000000D03*
X146000000Y-86000000D03*
%TD*%
D16*
%TO.C,R4*%
X145100800Y-119989600D03*
X147100800Y-119989600D03*
%TD*%
D19*
%TO.C,U1*%
X154350000Y-81920000D03*
X154350000Y-83190000D03*
X154350000Y-84460000D03*
X154350000Y-85730000D03*
X154350000Y-87000000D03*
X154350000Y-88270000D03*
X154350000Y-89540000D03*
X154350000Y-90810000D03*
X154350000Y-92080000D03*
X163650000Y-92080000D03*
X163650000Y-90810000D03*
X163650000Y-89540000D03*
X163650000Y-88270000D03*
X163650000Y-87000000D03*
X163650000Y-85730000D03*
X163650000Y-84460000D03*
X163650000Y-83190000D03*
X163650000Y-81920000D03*
%TD*%
D15*
%TO.C,R7*%
X156346400Y-103987600D03*
X154346400Y-103987600D03*
%TD*%
D10*
%TO.C,C1*%
X163749900Y-101142800D03*
X161674900Y-101142800D03*
%TD*%
D11*
%TO.C,D4*%
X146000000Y-82025000D03*
X146000000Y-79975000D03*
%TD*%
D15*
%TO.C,R6*%
X156346400Y-106934000D03*
X154346400Y-106934000D03*
%TD*%
D17*
%TO.C,R8*%
X143000000Y-84000000D03*
X143000000Y-86000000D03*
%TD*%
M02*
