M48
; DRILL file {KiCad 9.0.5-9.0.5~ubuntu24.04.1} date 2026-09-22T11:05:22+0200
; FORMAT={-:-/ absolute / metric / decimal}
; #@! TF.CreationDate,2026-09-22T11:05:22+02:00
; #@! TF.GenerationSoftware,Kicad,Pcbnew,9.0.5-9.0.5~ubuntu24.04.1
; #@! TF.FileFunction,Plated,1,2,PTH
FMAT,2
METRIC
; #@! TA.AperFunction,Plated,PTH,ViaDrill
T1C0.300
; #@! TA.AperFunction,Plated,PTH,ComponentDrill
T2C0.750
; #@! TA.AperFunction,Plated,PTH,ComponentDrill
T3C0.800
; #@! TA.AperFunction,Plated,PTH,ComponentDrill
T4C0.950
; #@! TA.AperFunction,Plated,PTH,ComponentDrill
T5C1.000
; #@! TA.AperFunction,Plated,PTH,ComponentDrill
T6C1.020
; #@! TA.AperFunction,Plated,PTH,ComponentDrill
T7C1.300
%
G90
G05
T1
X145.898Y-117.246
X146.201Y-78.27
X148.615Y-119.126
X148.869Y-115.265
X151.379Y-119.456
X151.384Y-112.928
X152.552Y-115.494
X153.0Y-80.0
X154.457Y-93.878
X155.194Y-111.252
X155.245Y-94.183
X159.007Y-79.993
X166.98Y-117.45
X173.126Y-97.638
T2
X131.0Y-84.0
X133.0Y-84.0
X133.077Y-124.197
X135.0Y-84.0
X135.077Y-124.197
X137.0Y-84.0
X137.077Y-124.197
X159.68Y-124.4
X161.68Y-124.4
X190.774Y-124.181
X192.774Y-124.181
X194.774Y-124.181
X196.774Y-124.181
T3
X156.513Y-99.771
X161.393Y-99.771
T4
X145.927Y-123.139
X148.427Y-123.139
X150.927Y-123.139
T5
X128.93Y-74.371
X128.93Y-76.911
X131.47Y-74.371
X131.47Y-76.911
X134.01Y-74.371
X134.01Y-76.911
X136.55Y-74.371
X136.55Y-76.911
X139.09Y-74.371
X139.09Y-76.911
X141.63Y-74.371
X141.63Y-76.911
X144.17Y-74.371
X144.17Y-76.911
X146.71Y-74.371
X146.71Y-76.911
X149.25Y-74.371
X149.25Y-76.911
X151.79Y-74.371
X151.79Y-76.911
X154.33Y-74.371
X154.33Y-76.911
X156.87Y-74.371
X156.87Y-76.911
X159.41Y-74.371
X159.41Y-76.911
X161.95Y-74.371
X161.95Y-76.911
X164.49Y-74.371
X164.49Y-76.911
X167.03Y-74.371
X167.03Y-76.911
X169.57Y-74.371
X169.57Y-76.911
X172.11Y-74.371
X172.11Y-76.911
X174.65Y-74.371
X174.65Y-76.911
X177.19Y-74.371
X177.19Y-76.911
T6
X176.022Y-92.659
X176.022Y-95.199
X176.022Y-97.739
X176.022Y-100.279
X176.022Y-102.819
X176.022Y-105.359
X178.562Y-92.659
X178.562Y-95.199
X178.562Y-97.739
X178.562Y-100.279
X178.562Y-102.819
X178.562Y-105.359
T7
X171.174Y-123.292
X176.174Y-123.292
M30
