%TF.GenerationSoftware,KiCad,Pcbnew,9.0.5-9.0.5~ubuntu24.04.1*%
%TF.CreationDate,2026-09-22T11:03:42+02:00*%
%TF.ProjectId,lara_hat_v2,6c617261-5f68-4617-945f-76322e6b6963,rev?*%
%TF.SameCoordinates,Original*%
%TF.FileFunction,Paste,Top*%
%TF.FilePolarity,Positive*%
%FSLAX46Y46*%
G04 Gerber Fmt 4.6, Leading zero omitted, Abs format (unit mm)*
G04 Created by KiCad (PCBNEW 9.0.5-9.0.5~ubuntu24.04.1) date 2026-09-22 11:03:42*
%MOMM*%
%LPD*%
G01*
G04 APERTURE LIST*
G04 Aperture macros list*
%AMRoundRect*
0 Rectangle with rounded corners*
0 $1 Rounding radius*
0 $2 $3 $4 $5 $6 $7 $8 $9 X,Y pos of 4 corners*
0 Add a 4 corners polygon primitive as box body*
4,1,4,$2,$3,$4,$5,$6,$7,$8,$9,$2,$3,0*
0 Add four circle primitives for the rounded corners*
1,1,$1+$1,$2,$3*
1,1,$1+$1,$4,$5*
1,1,$1+$1,$6,$7*
1,1,$1+$1,$8,$9*
0 Add four rect primitives between the rounded corners*
20,1,$1+$1,$2,$3,$4,$5,0*
20,1,$1+$1,$4,$5,$6,$7,0*
20,1,$1+$1,$6,$7,$8,$9,0*
20,1,$1+$1,$8,$9,$2,$3,0*%
G04 Aperture macros list end*
%ADD10RoundRect,0.250000X-0.475000X0.337500X-0.475000X-0.337500X0.475000X-0.337500X0.475000X0.337500X0*%
%ADD11RoundRect,0.250000X0.450000X-0.325000X0.450000X0.325000X-0.450000X0.325000X-0.450000X-0.325000X0*%
%ADD12RoundRect,0.250000X-0.337500X-0.475000X0.337500X-0.475000X0.337500X0.475000X-0.337500X0.475000X0*%
%ADD13RoundRect,0.150000X-0.150000X0.825000X-0.150000X-0.825000X0.150000X-0.825000X0.150000X0.825000X0*%
%ADD14RoundRect,0.250000X0.350000X0.450000X-0.350000X0.450000X-0.350000X-0.450000X0.350000X-0.450000X0*%
%ADD15RoundRect,0.250000X0.475000X-0.337500X0.475000X0.337500X-0.475000X0.337500X-0.475000X-0.337500X0*%
%ADD16RoundRect,0.250000X-0.350000X-0.450000X0.350000X-0.450000X0.350000X0.450000X-0.350000X0.450000X0*%
%ADD17RoundRect,0.250000X-0.450000X0.350000X-0.450000X-0.350000X0.450000X-0.350000X0.450000X0.350000X0*%
%ADD18RoundRect,0.125000X-0.687500X-0.125000X0.687500X-0.125000X0.687500X0.125000X-0.687500X0.125000X0*%
%ADD19RoundRect,0.150000X-0.875000X-0.150000X0.875000X-0.150000X0.875000X0.150000X-0.875000X0.150000X0*%
%ADD20RoundRect,0.250000X0.337500X0.475000X-0.337500X0.475000X-0.337500X-0.475000X0.337500X-0.475000X0*%
G04 APERTURE END LIST*
D10*
%TO.C,C4*%
X140411200Y-113770500D03*
X140411200Y-115845500D03*
%TD*%
D11*
%TO.C,D5*%
X149000000Y-82025000D03*
X149000000Y-79975000D03*
%TD*%
D12*
%TO.C,C2*%
X154435900Y-105511600D03*
X156510900Y-105511600D03*
%TD*%
D13*
%TO.C,U2*%
X161671000Y-110337600D03*
X160401000Y-110337600D03*
X159131000Y-110337600D03*
X157861000Y-110337600D03*
X157861000Y-115287600D03*
X159131000Y-115287600D03*
X160401000Y-115287600D03*
X161671000Y-115287600D03*
%TD*%
D14*
%TO.C,R5*%
X161544000Y-118567200D03*
X159544000Y-118567200D03*
%TD*%
D15*
%TO.C,C3*%
X154406600Y-115570000D03*
X154406600Y-113495000D03*
%TD*%
D16*
%TO.C,R2*%
X152898600Y-119456200D03*
X154898600Y-119456200D03*
%TD*%
D17*
%TO.C,R1*%
X166000000Y-80000000D03*
X166000000Y-82000000D03*
%TD*%
D14*
%TO.C,R3*%
X149793200Y-119456200D03*
X147793200Y-119456200D03*
%TD*%
D17*
%TO.C,R10*%
X149000000Y-84000000D03*
X149000000Y-86000000D03*
%TD*%
D18*
%TO.C,U3*%
X145994900Y-113731400D03*
X145994900Y-114381400D03*
X145994900Y-115031400D03*
X145994900Y-115681400D03*
X150219900Y-115681400D03*
X150219900Y-115031400D03*
X150219900Y-114381400D03*
X150219900Y-113731400D03*
%TD*%
D11*
%TO.C,D3*%
X143000000Y-82025000D03*
X143000000Y-79975000D03*
%TD*%
D17*
%TO.C,R9*%
X146000000Y-84000000D03*
X146000000Y-86000000D03*
%TD*%
D16*
%TO.C,R4*%
X142976600Y-119456200D03*
X144976600Y-119456200D03*
%TD*%
D19*
%TO.C,U1*%
X154350000Y-81920000D03*
X154350000Y-83190000D03*
X154350000Y-84460000D03*
X154350000Y-85730000D03*
X154350000Y-87000000D03*
X154350000Y-88270000D03*
X154350000Y-89540000D03*
X154350000Y-90810000D03*
X154350000Y-92080000D03*
X163650000Y-92080000D03*
X163650000Y-90810000D03*
X163650000Y-89540000D03*
X163650000Y-88270000D03*
X163650000Y-87000000D03*
X163650000Y-85730000D03*
X163650000Y-84460000D03*
X163650000Y-83190000D03*
X163650000Y-81920000D03*
%TD*%
D20*
%TO.C,C1*%
X163492000Y-105638600D03*
X161417000Y-105638600D03*
%TD*%
D11*
%TO.C,D4*%
X146000000Y-82025000D03*
X146000000Y-79975000D03*
%TD*%
D17*
%TO.C,R8*%
X143000000Y-84000000D03*
X143000000Y-86000000D03*
%TD*%
M02*
