%TF.GenerationSoftware,KiCad,Pcbnew,9.0.5-9.0.5~ubuntu24.04.1*%
%TF.CreationDate,2026-09-22T11:03:42+02:00*%
%TF.ProjectId,lara_hat_v2,6c617261-5f68-4617-945f-76322e6b6963,rev?*%
%TF.SameCoordinates,Original*%
%TF.FileFunction,Soldermask,Top*%
%TF.FilePolarity,Negative*%
%FSLAX46Y46*%
G04 Gerber Fmt 4.6, Leading zero omitted, Abs format (unit mm)*
G04 Created by KiCad (PCBNEW 9.0.5-9.0.5~ubuntu24.04.1) date 2026-09-22 11:03:42*
%MOMM*%
%LPD*%
G01*
G04 APERTURE LIST*
G04 Aperture macros list*
%AMRoundRect*
0 Rectangle with rounded corners*
0 $1 Rounding radius*
0 $2 $3 $4 $5 $6 $7 $8 $9 X,Y pos of 4 corners*
0 Add a 4 corners polygon primitive as box body*
4,1,4,$2,$3,$4,$5,$6,$7,$8,$9,$2,$3,0*
0 Add four circle primitives for the rounded corners*
1,1,$1+$1,$2,$3*
1,1,$1+$1,$4,$5*
1,1,$1+$1,$6,$7*
1,1,$1+$1,$8,$9*
0 Add four rect primitives between the rounded corners*
20,1,$1+$1,$2,$3,$4,$5,0*
20,1,$1+$1,$4,$5,$6,$7,0*
20,1,$1+$1,$6,$7,$8,$9,0*
20,1,$1+$1,$8,$9,$2,$3,0*%
G04 Aperture macros list end*
%ADD10RoundRect,0.250000X-0.475000X0.337500X-0.475000X-0.337500X0.475000X-0.337500X0.475000X0.337500X0*%
%ADD11RoundRect,0.250000X0.450000X-0.325000X0.450000X0.325000X-0.450000X0.325000X-0.450000X-0.325000X0*%
%ADD12RoundRect,0.250000X-0.600000X-0.725000X0.600000X-0.725000X0.600000X0.725000X-0.600000X0.725000X0*%
%ADD13O,1.700000X1.950000*%
%ADD14RoundRect,0.250000X-0.337500X-0.475000X0.337500X-0.475000X0.337500X0.475000X-0.337500X0.475000X0*%
%ADD15RoundRect,0.250000X0.350000X0.625000X-0.350000X0.625000X-0.350000X-0.625000X0.350000X-0.625000X0*%
%ADD16O,1.200000X1.750000*%
%ADD17RoundRect,0.150000X-0.150000X0.825000X-0.150000X-0.825000X0.150000X-0.825000X0.150000X0.825000X0*%
%ADD18C,1.905000*%
%ADD19R,1.700000X1.700000*%
%ADD20C,1.700000*%
%ADD21RoundRect,0.250000X0.350000X0.450000X-0.350000X0.450000X-0.350000X-0.450000X0.350000X-0.450000X0*%
%ADD22RoundRect,0.250000X0.475000X-0.337500X0.475000X0.337500X-0.475000X0.337500X-0.475000X-0.337500X0*%
%ADD23RoundRect,0.250000X-0.350000X-0.450000X0.350000X-0.450000X0.350000X0.450000X-0.350000X0.450000X0*%
%ADD24RoundRect,0.250000X-0.450000X0.350000X-0.450000X-0.350000X0.450000X-0.350000X0.450000X0.350000X0*%
%ADD25C,1.500000*%
%ADD26RoundRect,0.250001X-1.149999X-1.149999X1.149999X-1.149999X1.149999X1.149999X-1.149999X1.149999X0*%
%ADD27C,2.800000*%
%ADD28RoundRect,0.125000X-0.687500X-0.125000X0.687500X-0.125000X0.687500X0.125000X-0.687500X0.125000X0*%
%ADD29RoundRect,0.150000X-0.875000X-0.150000X0.875000X-0.150000X0.875000X0.150000X-0.875000X0.150000X0*%
%ADD30RoundRect,0.250000X0.337500X0.475000X-0.337500X0.475000X-0.337500X-0.475000X0.337500X-0.475000X0*%
G04 APERTURE END LIST*
D10*
%TO.C,C4*%
X140411200Y-113770500D03*
X140411200Y-115845500D03*
%TD*%
D11*
%TO.C,D5*%
X149000000Y-82025000D03*
X149000000Y-79975000D03*
%TD*%
D12*
%TO.C,J3*%
X145926800Y-123139200D03*
D13*
X148426800Y-123139200D03*
X150926800Y-123139200D03*
%TD*%
D14*
%TO.C,C2*%
X154435900Y-105511600D03*
X156510900Y-105511600D03*
%TD*%
D15*
%TO.C,J6*%
X137000000Y-84000000D03*
D16*
X135000000Y-84000000D03*
X133000000Y-84000000D03*
X131000000Y-84000000D03*
%TD*%
D17*
%TO.C,U2*%
X161671000Y-110337600D03*
X160401000Y-110337600D03*
X159131000Y-110337600D03*
X157861000Y-110337600D03*
X157861000Y-115287600D03*
X159131000Y-115287600D03*
X160401000Y-115287600D03*
X161671000Y-115287600D03*
%TD*%
D18*
%TO.C,U5*%
X178562000Y-105359200D03*
X176022000Y-105359200D03*
X178562000Y-102819200D03*
X176022000Y-102819200D03*
X178562000Y-100279200D03*
X176022000Y-100279200D03*
X178562000Y-95199200D03*
X176022000Y-95199200D03*
X178562000Y-97739200D03*
X176022000Y-97739200D03*
X178562000Y-92659200D03*
X176022000Y-92659200D03*
%TD*%
D19*
%TO.C,J1*%
X128930400Y-76911200D03*
D20*
X128930400Y-74371200D03*
X131470400Y-76911200D03*
X131470400Y-74371200D03*
X134010400Y-76911200D03*
X134010400Y-74371200D03*
X136550400Y-76911200D03*
X136550400Y-74371200D03*
X139090400Y-76911200D03*
X139090400Y-74371200D03*
X141630400Y-76911200D03*
X141630400Y-74371200D03*
X144170400Y-76911200D03*
X144170400Y-74371200D03*
X146710400Y-76911200D03*
X146710400Y-74371200D03*
X149250400Y-76911200D03*
X149250400Y-74371200D03*
X151790400Y-76911200D03*
X151790400Y-74371200D03*
X154330400Y-76911200D03*
X154330400Y-74371200D03*
X156870400Y-76911200D03*
X156870400Y-74371200D03*
X159410400Y-76911200D03*
X159410400Y-74371200D03*
X161950400Y-76911200D03*
X161950400Y-74371200D03*
X164490400Y-76911200D03*
X164490400Y-74371200D03*
X167030400Y-76911200D03*
X167030400Y-74371200D03*
X169570400Y-76911200D03*
X169570400Y-74371200D03*
X172110400Y-76911200D03*
X172110400Y-74371200D03*
X174650400Y-76911200D03*
X174650400Y-74371200D03*
X177190400Y-76911200D03*
X177190400Y-74371200D03*
%TD*%
D15*
%TO.C,J7*%
X196773800Y-124180600D03*
D16*
X194773800Y-124180600D03*
X192773800Y-124180600D03*
X190773800Y-124180600D03*
%TD*%
D21*
%TO.C,R5*%
X161544000Y-118567200D03*
X159544000Y-118567200D03*
%TD*%
D15*
%TO.C,J2*%
X137077200Y-124197200D03*
D16*
X135077200Y-124197200D03*
X133077200Y-124197200D03*
%TD*%
D22*
%TO.C,C3*%
X154406600Y-115570000D03*
X154406600Y-113495000D03*
%TD*%
D23*
%TO.C,R2*%
X152898600Y-119456200D03*
X154898600Y-119456200D03*
%TD*%
D24*
%TO.C,R1*%
X166000000Y-80000000D03*
X166000000Y-82000000D03*
%TD*%
D21*
%TO.C,R3*%
X149793200Y-119456200D03*
X147793200Y-119456200D03*
%TD*%
D25*
%TO.C,Y1*%
X156513200Y-99771200D03*
X161393200Y-99771200D03*
%TD*%
D26*
%TO.C,J5*%
X171174400Y-123291600D03*
D27*
X176174400Y-123291600D03*
%TD*%
D24*
%TO.C,R10*%
X149000000Y-84000000D03*
X149000000Y-86000000D03*
%TD*%
D28*
%TO.C,U3*%
X145994900Y-113731400D03*
X145994900Y-114381400D03*
X145994900Y-115031400D03*
X145994900Y-115681400D03*
X150219900Y-115681400D03*
X150219900Y-115031400D03*
X150219900Y-114381400D03*
X150219900Y-113731400D03*
%TD*%
D11*
%TO.C,D3*%
X143000000Y-82025000D03*
X143000000Y-79975000D03*
%TD*%
D24*
%TO.C,R9*%
X146000000Y-84000000D03*
X146000000Y-86000000D03*
%TD*%
D23*
%TO.C,R4*%
X142976600Y-119456200D03*
X144976600Y-119456200D03*
%TD*%
D29*
%TO.C,U1*%
X154350000Y-81920000D03*
X154350000Y-83190000D03*
X154350000Y-84460000D03*
X154350000Y-85730000D03*
X154350000Y-87000000D03*
X154350000Y-88270000D03*
X154350000Y-89540000D03*
X154350000Y-90810000D03*
X154350000Y-92080000D03*
X163650000Y-92080000D03*
X163650000Y-90810000D03*
X163650000Y-89540000D03*
X163650000Y-88270000D03*
X163650000Y-87000000D03*
X163650000Y-85730000D03*
X163650000Y-84460000D03*
X163650000Y-83190000D03*
X163650000Y-81920000D03*
%TD*%
D30*
%TO.C,C1*%
X163492000Y-105638600D03*
X161417000Y-105638600D03*
%TD*%
D11*
%TO.C,D4*%
X146000000Y-82025000D03*
X146000000Y-79975000D03*
%TD*%
D15*
%TO.C,J4*%
X161680400Y-124400400D03*
D16*
X159680400Y-124400400D03*
%TD*%
D24*
%TO.C,R8*%
X143000000Y-84000000D03*
X143000000Y-86000000D03*
%TD*%
M02*
