M48
; DRILL file {KiCad 9.0.5-9.0.5~ubuntu24.04.1} date 2026-10-01T11:49:11+0200
; FORMAT={-:-/ absolute / metric / decimal}
; #@! TF.CreationDate,2026-10-01T11:49:11+02:00
; #@! TF.GenerationSoftware,Kicad,Pcbnew,9.0.5-9.0.5~ubuntu24.04.1
; #@! TF.FileFunction,Plated,1,2,PTH
FMAT,2
METRIC
; #@! TA.AperFunction,Plated,PTH,ViaDrill
T1C0.300
; #@! TA.AperFunction,Plated,PTH,ComponentDrill
T2C0.750
; #@! TA.AperFunction,Plated,PTH,ComponentDrill
T3C0.800
; #@! TA.AperFunction,Plated,PTH,ComponentDrill
T4C0.950
; #@! TA.AperFunction,Plated,PTH,ComponentDrill
T5C1.000
; #@! TA.AperFunction,Plated,PTH,ComponentDrill
T6C1.020
; #@! TA.AperFunction,Plated,PTH,ComponentDrill
T7C1.067
; #@! TA.AperFunction,Plated,PTH,ComponentDrill
T8C1.753
%
G90
G05
T1
X129.972Y-120.244
X145.898Y-117.246
X146.201Y-78.27
X148.336Y-111.023
X148.611Y-115.217
X148.615Y-119.126
X151.379Y-119.456
X151.384Y-112.928
X152.552Y-115.494
X153.0Y-80.0
X154.457Y-93.878
X155.194Y-111.252
X155.245Y-94.183
X155.956Y-122.758
X159.007Y-79.993
X164.033Y-103.937
X164.719Y-112.928
X165.608Y-122.86
X166.98Y-117.45
X168.529Y-110.515
X173.126Y-97.638
T2
X131.0Y-84.0
X133.0Y-84.0
X133.096Y-122.504
X135.0Y-84.0
X135.096Y-122.504
X137.0Y-84.0
X137.096Y-122.504
X159.68Y-124.4
X161.68Y-124.4
X169.596Y-124.206
X171.596Y-124.206
X173.596Y-124.206
X175.596Y-124.206
T3
X156.513Y-99.771
X161.393Y-99.771
T4
X145.927Y-123.139
X148.427Y-123.139
X150.927Y-123.139
T5
X128.93Y-74.371
X128.93Y-76.911
X131.47Y-74.371
X131.47Y-76.911
X134.01Y-74.371
X134.01Y-76.911
X136.55Y-74.371
X136.55Y-76.911
X139.09Y-74.371
X139.09Y-76.911
X141.63Y-74.371
X141.63Y-76.911
X144.17Y-74.371
X144.17Y-76.911
X146.71Y-74.371
X146.71Y-76.911
X149.25Y-74.371
X149.25Y-76.911
X151.79Y-74.371
X151.79Y-76.911
X154.33Y-74.371
X154.33Y-76.911
X156.87Y-74.371
X156.87Y-76.911
X159.41Y-74.371
X159.41Y-76.911
X161.95Y-74.371
X161.95Y-76.911
X164.49Y-74.371
X164.49Y-76.911
X167.03Y-74.371
X167.03Y-76.911
X169.57Y-74.371
X169.57Y-76.911
X172.11Y-74.371
X172.11Y-76.911
X174.65Y-74.371
X174.65Y-76.911
X177.19Y-74.371
X177.19Y-76.911
T6
X176.047Y-89.433
X176.047Y-91.973
X176.047Y-94.513
X176.047Y-97.053
X176.047Y-99.593
X176.047Y-102.133
X178.587Y-89.433
X178.587Y-91.973
X178.587Y-94.513
X178.587Y-97.053
X178.587Y-99.593
X178.587Y-102.133
T7
X191.338Y-112.319
X194.838Y-112.319
T8
X188.838Y-120.229
X197.338Y-120.229
M30
