%TF.GenerationSoftware,KiCad,Pcbnew,9.0.5-9.0.5~ubuntu24.04.1*%
%TF.CreationDate,2026-09-22T11:03:42+02:00*%
%TF.ProjectId,lara_hat_v2,6c617261-5f68-4617-945f-76322e6b6963,rev?*%
%TF.SameCoordinates,Original*%
%TF.FileFunction,Copper,L2,Bot*%
%TF.FilePolarity,Positive*%
%FSLAX46Y46*%
G04 Gerber Fmt 4.6, Leading zero omitted, Abs format (unit mm)*
G04 Created by KiCad (PCBNEW 9.0.5-9.0.5~ubuntu24.04.1) date 2026-09-22 11:03:42*
%MOMM*%
%LPD*%
G01*
G04 APERTURE LIST*
G04 Aperture macros list*
%AMRoundRect*
0 Rectangle with rounded corners*
0 $1 Rounding radius*
0 $2 $3 $4 $5 $6 $7 $8 $9 X,Y pos of 4 corners*
0 Add a 4 corners polygon primitive as box body*
4,1,4,$2,$3,$4,$5,$6,$7,$8,$9,$2,$3,0*
0 Add four circle primitives for the rounded corners*
1,1,$1+$1,$2,$3*
1,1,$1+$1,$4,$5*
1,1,$1+$1,$6,$7*
1,1,$1+$1,$8,$9*
0 Add four rect primitives between the rounded corners*
20,1,$1+$1,$2,$3,$4,$5,0*
20,1,$1+$1,$4,$5,$6,$7,0*
20,1,$1+$1,$6,$7,$8,$9,0*
20,1,$1+$1,$8,$9,$2,$3,0*%
G04 Aperture macros list end*
%TA.AperFunction,ComponentPad*%
%ADD10RoundRect,0.250000X-0.600000X-0.725000X0.600000X-0.725000X0.600000X0.725000X-0.600000X0.725000X0*%
%TD*%
%TA.AperFunction,ComponentPad*%
%ADD11O,1.700000X1.950000*%
%TD*%
%TA.AperFunction,ComponentPad*%
%ADD12RoundRect,0.250000X0.350000X0.625000X-0.350000X0.625000X-0.350000X-0.625000X0.350000X-0.625000X0*%
%TD*%
%TA.AperFunction,ComponentPad*%
%ADD13O,1.200000X1.750000*%
%TD*%
%TA.AperFunction,ComponentPad*%
%ADD14C,1.905000*%
%TD*%
%TA.AperFunction,ComponentPad*%
%ADD15R,1.700000X1.700000*%
%TD*%
%TA.AperFunction,ComponentPad*%
%ADD16C,1.700000*%
%TD*%
%TA.AperFunction,ComponentPad*%
%ADD17C,1.500000*%
%TD*%
%TA.AperFunction,ComponentPad*%
%ADD18RoundRect,0.250001X-1.149999X-1.149999X1.149999X-1.149999X1.149999X1.149999X-1.149999X1.149999X0*%
%TD*%
%TA.AperFunction,ComponentPad*%
%ADD19C,2.800000*%
%TD*%
%TA.AperFunction,ViaPad*%
%ADD20C,0.600000*%
%TD*%
%TA.AperFunction,Conductor*%
%ADD21C,0.200000*%
%TD*%
%TA.AperFunction,Conductor*%
%ADD22C,1.000000*%
%TD*%
G04 APERTURE END LIST*
D10*
%TO.P,J3,1,Pin_1*%
%TO.N,GND*%
X145926800Y-123139200D03*
D11*
%TO.P,J3,2,Pin_2*%
%TO.N,+12V*%
X148426800Y-123139200D03*
%TO.P,J3,3,Pin_3*%
%TO.N,Net-(J3-Pin_3)*%
X150926800Y-123139200D03*
%TD*%
D12*
%TO.P,J6,1,Pin_1*%
%TO.N,Net-(D3-A)*%
X137000000Y-84000000D03*
D13*
%TO.P,J6,2,Pin_2*%
%TO.N,Net-(D4-A)*%
X135000000Y-84000000D03*
%TO.P,J6,3,Pin_3*%
%TO.N,Net-(D5-A)*%
X133000000Y-84000000D03*
%TO.P,J6,4,Pin_4*%
%TO.N,GND*%
X131000000Y-84000000D03*
%TD*%
D14*
%TO.P,U5,1,PG*%
%TO.N,unconnected-(U5-PG-Pad1)*%
X178562000Y-105359200D03*
%TO.P,U5,2,EN*%
%TO.N,unconnected-(U5-EN-Pad2)*%
X176022000Y-105359200D03*
%TO.P,U5,3,VRP*%
%TO.N,unconnected-(U5-VRP-Pad3)*%
X178562000Y-102819200D03*
X176022000Y-102819200D03*
%TO.P,U5,4,VIN*%
%TO.N,+12V*%
X178562000Y-100279200D03*
X176022000Y-100279200D03*
%TO.P,U5,5,GND*%
%TO.N,GND*%
X178562000Y-95199200D03*
X176022000Y-95199200D03*
X178562000Y-97739200D03*
X176022000Y-97739200D03*
%TO.P,U5,6,VOUT*%
%TO.N,+5V*%
X178562000Y-92659200D03*
X176022000Y-92659200D03*
%TD*%
D15*
%TO.P,J1,1,3V3*%
%TO.N,+3V3*%
X128930400Y-76911200D03*
D16*
%TO.P,J1,2,5V*%
%TO.N,+5V*%
X128930400Y-74371200D03*
%TO.P,J1,3,SDA_I2C1/GPIO02*%
%TO.N,unconnected-(J1-SDA_I2C1{slash}GPIO02-Pad3)*%
X131470400Y-76911200D03*
%TO.P,J1,4,5V*%
%TO.N,+5V*%
X131470400Y-74371200D03*
%TO.P,J1,5,SCL_I2C1/GPIO03*%
%TO.N,Net-(J1-SCL_I2C1{slash}GPIO03)*%
X134010400Y-76911200D03*
%TO.P,J1,6,GND*%
%TO.N,GND*%
X134010400Y-74371200D03*
%TO.P,J1,7,GPCLK0/GPIO04*%
%TO.N,unconnected-(J1-GPCLK0{slash}GPIO04-Pad7)*%
X136550400Y-76911200D03*
%TO.P,J1,8,GPIO14/UART_TXD*%
%TO.N,Net-(J1-GPIO14{slash}UART_TXD)*%
X136550400Y-74371200D03*
%TO.P,J1,9,GND*%
%TO.N,GND*%
X139090400Y-76911200D03*
%TO.P,J1,10,GPIO15/UART_RXD*%
%TO.N,Net-(J1-GPIO15{slash}UART_RXD)*%
X139090400Y-74371200D03*
%TO.P,J1,11,GPIO17/SPI1_~{CE1}*%
%TO.N,unconnected-(J1-GPIO17{slash}SPI1_~{CE1}-Pad11)*%
X141630400Y-76911200D03*
%TO.P,J1,12,GPIO18/SPI1_~{CE0}/PCM_CLK/PWM0*%
%TO.N,unconnected-(J1-GPIO18{slash}SPI1_~{CE0}{slash}PCM_CLK{slash}PWM0-Pad12)*%
X141630400Y-74371200D03*
%TO.P,J1,13,GPIO27/SDIO_DAT3*%
%TO.N,unconnected-(J1-GPIO27{slash}SDIO_DAT3-Pad13)*%
X144170400Y-76911200D03*
%TO.P,J1,14,GND*%
%TO.N,GND*%
X144170400Y-74371200D03*
%TO.P,J1,15,GPIO22/SDIO_CLK*%
%TO.N,Net-(D3-A)*%
X146710400Y-76911200D03*
%TO.P,J1,16,GPIO23/SDIO_CMD*%
%TO.N,Net-(D4-A)*%
X146710400Y-74371200D03*
%TO.P,J1,17,3V3*%
%TO.N,+3V3*%
X149250400Y-76911200D03*
%TO.P,J1,18,GPIO24/SDIO_DAT0*%
%TO.N,Net-(D5-A)*%
X149250400Y-74371200D03*
%TO.P,J1,19,MOSI_SPI0/GPIO10*%
%TO.N,Net-(J1-MOSI_SPI0{slash}GPIO10)*%
X151790400Y-76911200D03*
%TO.P,J1,20,GND*%
%TO.N,GND*%
X151790400Y-74371200D03*
%TO.P,J1,21,MISO_SPI0/GPIO09*%
%TO.N,Net-(J1-MISO_SPI0{slash}GPIO09)*%
X154330400Y-76911200D03*
%TO.P,J1,22,GPIO25/SDIO_DAT1*%
%TO.N,Net-(J1-GPIO25{slash}SDIO_DAT1)*%
X154330400Y-74371200D03*
%TO.P,J1,23,SCLK_SPI0/GPIO11*%
%TO.N,Net-(J1-SCLK_SPI0{slash}GPIO11)*%
X156870400Y-76911200D03*
%TO.P,J1,24,~{CE0}_SPI0/GPIO08*%
%TO.N,Net-(J1-~{CE0}_SPI0{slash}GPIO08)*%
X156870400Y-74371200D03*
%TO.P,J1,25,GND*%
%TO.N,GND*%
X159410400Y-76911200D03*
%TO.P,J1,26,~{CE1}_SPI0/GPIO07*%
%TO.N,unconnected-(J1-~{CE1}_SPI0{slash}GPIO07-Pad26)*%
X159410400Y-74371200D03*
%TO.P,J1,27,ID_SD_I2C0/GPIO00*%
%TO.N,Net-(J1-ID_SD_I2C0{slash}GPIO00)*%
X161950400Y-76911200D03*
%TO.P,J1,28,ID_SC_I2C0/GPIO01*%
%TO.N,Net-(J1-ID_SC_I2C0{slash}GPIO01)*%
X161950400Y-74371200D03*
%TO.P,J1,29,GPCLK1/GPIO05*%
%TO.N,unconnected-(J1-GPCLK1{slash}GPIO05-Pad29)*%
X164490400Y-76911200D03*
%TO.P,J1,30,GND*%
%TO.N,GND*%
X164490400Y-74371200D03*
%TO.P,J1,31,GPCLK2/GPIO06*%
%TO.N,unconnected-(J1-GPCLK2{slash}GPIO06-Pad31)*%
X167030400Y-76911200D03*
%TO.P,J1,32,GPIO12/PWM0*%
%TO.N,Net-(J1-GPIO12{slash}PWM0)*%
X167030400Y-74371200D03*
%TO.P,J1,33,GPIO13/PWM1*%
%TO.N,Net-(J1-GPIO13{slash}PWM1)*%
X169570400Y-76911200D03*
%TO.P,J1,34,GND*%
%TO.N,GND*%
X169570400Y-74371200D03*
%TO.P,J1,35,GPIO19/SPI1_MISO/PCM_FS*%
%TO.N,unconnected-(J1-GPIO19{slash}SPI1_MISO{slash}PCM_FS-Pad35)*%
X172110400Y-76911200D03*
%TO.P,J1,36,GPIO16/SPI1_~{CE2}*%
%TO.N,unconnected-(J1-GPIO16{slash}SPI1_~{CE2}-Pad36)*%
X172110400Y-74371200D03*
%TO.P,J1,37,GPIO26/SDIO_DAT2*%
%TO.N,unconnected-(J1-GPIO26{slash}SDIO_DAT2-Pad37)*%
X174650400Y-76911200D03*
%TO.P,J1,38,GPIO20/SPI1_MOSI/PCM_DIN/PWM1*%
%TO.N,unconnected-(J1-GPIO20{slash}SPI1_MOSI{slash}PCM_DIN{slash}PWM1-Pad38)*%
X174650400Y-74371200D03*
%TO.P,J1,39,GND*%
%TO.N,GND*%
X177190400Y-76911200D03*
%TO.P,J1,40,GPIO21/SPI1_SCLK/PCM_DOUT*%
%TO.N,unconnected-(J1-GPIO21{slash}SPI1_SCLK{slash}PCM_DOUT-Pad40)*%
X177190400Y-74371200D03*
%TD*%
D12*
%TO.P,J7,1,Pin_1*%
%TO.N,+3V3*%
X196773800Y-124180600D03*
D13*
%TO.P,J7,2,Pin_2*%
%TO.N,GND*%
X194773800Y-124180600D03*
%TO.P,J7,3,Pin_3*%
%TO.N,Net-(J1-GPIO12{slash}PWM0)*%
X192773800Y-124180600D03*
%TO.P,J7,4,Pin_4*%
%TO.N,Net-(J1-GPIO13{slash}PWM1)*%
X190773800Y-124180600D03*
%TD*%
D12*
%TO.P,J2,1,Pin_1*%
%TO.N,Net-(J1-GPIO14{slash}UART_TXD)*%
X137077200Y-124197200D03*
D13*
%TO.P,J2,2,Pin_2*%
%TO.N,Net-(J1-GPIO15{slash}UART_RXD)*%
X135077200Y-124197200D03*
%TO.P,J2,3,Pin_3*%
%TO.N,GND*%
X133077200Y-124197200D03*
%TD*%
D17*
%TO.P,Y1,1,1*%
%TO.N,Net-(U1-OSC1)*%
X156513200Y-99771200D03*
%TO.P,Y1,2,2*%
%TO.N,Net-(U1-OSC2)*%
X161393200Y-99771200D03*
%TD*%
D18*
%TO.P,J5,1,Pin_1*%
%TO.N,+12V*%
X171174400Y-123291600D03*
D19*
%TO.P,J5,2,Pin_2*%
%TO.N,GND*%
X176174400Y-123291600D03*
%TD*%
D12*
%TO.P,J4,1,Pin_1*%
%TO.N,Net-(J4-Pin_1)*%
X161680400Y-124400400D03*
D13*
%TO.P,J4,2,Pin_2*%
%TO.N,Net-(J4-Pin_2)*%
X159680400Y-124400400D03*
%TD*%
D20*
%TO.N,+3V3*%
X166979600Y-117449600D03*
%TO.N,GND*%
X155194000Y-111252000D03*
X173126400Y-97637600D03*
X145897600Y-117246400D03*
%TO.N,+3V3*%
X152552400Y-115493800D03*
X151384000Y-112928400D03*
X153000000Y-80000000D03*
X159006765Y-79993235D03*
%TO.N,Net-(J1-ID_SD_I2C0{slash}GPIO00)*%
X155244800Y-94183200D03*
%TO.N,Net-(J1-ID_SC_I2C0{slash}GPIO01)*%
X148614935Y-119126465D03*
X154457400Y-93878400D03*
X148869400Y-115265200D03*
%TO.N,Net-(D4-A)*%
X146200506Y-78269624D03*
%TO.N,Net-(J3-Pin_3)*%
X151379360Y-119456200D03*
%TD*%
D21*
%TO.N,+3V3*%
X190042800Y-117449600D02*
X166979600Y-117449600D01*
D22*
%TO.N,+5V*%
X176022000Y-92659200D02*
X173050200Y-95631000D01*
X151993600Y-87995172D02*
X143729028Y-79730600D01*
X128092200Y-79730600D02*
X126415800Y-78054200D01*
X127660400Y-74371200D02*
X128930400Y-74371200D01*
X173050200Y-95631000D02*
X151993600Y-95631000D01*
X126415800Y-78054200D02*
X126415800Y-75615800D01*
X151993600Y-95631000D02*
X151993600Y-87995172D01*
X143729028Y-79730600D02*
X128092200Y-79730600D01*
X126415800Y-75615800D02*
X127660400Y-74371200D01*
D21*
%TO.N,+3V3*%
X153212800Y-117449600D02*
X153212800Y-116154200D01*
X196773800Y-124180600D02*
X190042800Y-117449600D01*
X153000000Y-80000000D02*
X159000000Y-80000000D01*
X159000000Y-80000000D02*
X159006765Y-79993235D01*
X152552400Y-114096800D02*
X151384000Y-112928400D01*
X166979600Y-117449600D02*
X153212800Y-117449600D01*
X152552400Y-115493800D02*
X152552400Y-114096800D01*
X153212800Y-116154200D02*
X152552400Y-115493800D01*
%TO.N,Net-(J1-ID_SD_I2C0{slash}GPIO00)*%
X161950400Y-87477600D02*
X155244800Y-94183200D01*
X161950400Y-76911200D02*
X161950400Y-87477600D01*
%TO.N,Net-(J1-ID_SC_I2C0{slash}GPIO01)*%
X148614935Y-119126465D02*
X148614935Y-115519665D01*
X148614935Y-115519665D02*
X148869400Y-115265200D01*
X160561400Y-87774400D02*
X154457400Y-93878400D01*
X161950400Y-74371200D02*
X160561400Y-75760200D01*
X160561400Y-75760200D02*
X160561400Y-87774400D01*
%TO.N,Net-(D4-A)*%
X145559400Y-75522200D02*
X146710400Y-74371200D01*
X145559400Y-77628518D02*
X145559400Y-75522200D01*
X146200506Y-78269624D02*
X145559400Y-77628518D01*
D22*
%TO.N,+5V*%
X128930400Y-74371200D02*
X131470400Y-74371200D01*
D21*
%TO.N,Net-(J3-Pin_3)*%
X150926800Y-123139200D02*
X150926800Y-119908760D01*
X150926800Y-119908760D02*
X151379360Y-119456200D01*
%TD*%
%TA.AperFunction,Conductor*%
%TO.N,GND*%
G36*
X158211844Y-75025199D02*
G01*
X158250886Y-75070256D01*
X158255351Y-75079020D01*
X158380290Y-75250986D01*
X158530613Y-75401309D01*
X158702579Y-75526248D01*
X158702581Y-75526249D01*
X158702584Y-75526251D01*
X158891988Y-75622757D01*
X159094157Y-75688446D01*
X159304113Y-75721700D01*
X159304114Y-75721700D01*
X159516686Y-75721700D01*
X159516687Y-75721700D01*
X159726643Y-75688446D01*
X159798583Y-75665070D01*
X159826698Y-75664267D01*
X159854544Y-75660264D01*
X159861156Y-75663283D01*
X159868421Y-75663076D01*
X159892509Y-75677601D01*
X159918100Y-75689288D01*
X159922030Y-75695402D01*
X159928254Y-75699156D01*
X159940665Y-75724398D01*
X159955876Y-75748065D01*
X159957352Y-75758337D01*
X159959083Y-75761856D01*
X159960899Y-75783000D01*
X159960899Y-75839257D01*
X159960899Y-75839259D01*
X159960900Y-75849253D01*
X159960900Y-79581522D01*
X159941215Y-79648561D01*
X159888411Y-79694316D01*
X159819253Y-79704260D01*
X159755697Y-79675235D01*
X159722339Y-79628975D01*
X159716160Y-79614059D01*
X159716159Y-79614056D01*
X159716157Y-79614053D01*
X159716155Y-79614049D01*
X159628554Y-79482946D01*
X159628551Y-79482942D01*
X159517057Y-79371448D01*
X159517053Y-79371445D01*
X159385950Y-79283844D01*
X159385937Y-79283837D01*
X159240266Y-79223499D01*
X159240254Y-79223496D01*
X159085610Y-79192735D01*
X159085607Y-79192735D01*
X158927923Y-79192735D01*
X158927920Y-79192735D01*
X158773275Y-79223496D01*
X158773263Y-79223499D01*
X158627592Y-79283837D01*
X158627579Y-79283844D01*
X158491411Y-79374830D01*
X158490745Y-79373834D01*
X158432281Y-79398666D01*
X158417924Y-79399500D01*
X153579766Y-79399500D01*
X153512727Y-79379815D01*
X153510875Y-79378602D01*
X153379185Y-79290609D01*
X153379172Y-79290602D01*
X153233501Y-79230264D01*
X153233489Y-79230261D01*
X153078845Y-79199500D01*
X153078842Y-79199500D01*
X152921158Y-79199500D01*
X152921155Y-79199500D01*
X152766510Y-79230261D01*
X152766498Y-79230264D01*
X152620827Y-79290602D01*
X152620814Y-79290609D01*
X152489711Y-79378210D01*
X152489707Y-79378213D01*
X152378213Y-79489707D01*
X152378210Y-79489711D01*
X152290609Y-79620814D01*
X152290602Y-79620827D01*
X152230264Y-79766498D01*
X152230261Y-79766510D01*
X152199500Y-79921153D01*
X152199500Y-80078846D01*
X152230261Y-80233489D01*
X152230264Y-80233501D01*
X152290602Y-80379172D01*
X152290609Y-80379185D01*
X152378210Y-80510288D01*
X152378213Y-80510292D01*
X152489707Y-80621786D01*
X152489711Y-80621789D01*
X152620814Y-80709390D01*
X152620827Y-80709397D01*
X152750173Y-80762973D01*
X152766503Y-80769737D01*
X152921153Y-80800499D01*
X152921156Y-80800500D01*
X152921158Y-80800500D01*
X153078844Y-80800500D01*
X153078845Y-80800499D01*
X153233497Y-80769737D01*
X153379179Y-80709394D01*
X153404237Y-80692651D01*
X153510875Y-80621398D01*
X153577553Y-80600520D01*
X153579766Y-80600500D01*
X158437124Y-80600500D01*
X158504163Y-80620185D01*
X158506015Y-80621398D01*
X158627579Y-80702625D01*
X158627592Y-80702632D01*
X158773263Y-80762970D01*
X158773268Y-80762972D01*
X158927918Y-80793734D01*
X158927921Y-80793735D01*
X158927923Y-80793735D01*
X159085609Y-80793735D01*
X159085610Y-80793734D01*
X159240262Y-80762972D01*
X159352931Y-80716302D01*
X159385937Y-80702632D01*
X159385937Y-80702631D01*
X159385944Y-80702629D01*
X159517054Y-80615024D01*
X159628554Y-80503524D01*
X159716159Y-80372414D01*
X159722339Y-80357493D01*
X159766179Y-80303092D01*
X159832473Y-80281026D01*
X159900172Y-80298305D01*
X159947783Y-80349441D01*
X159960900Y-80404947D01*
X159960900Y-87474302D01*
X159941215Y-87541341D01*
X159924581Y-87561983D01*
X154442739Y-93043825D01*
X154381416Y-93077310D01*
X154379250Y-93077761D01*
X154223908Y-93108661D01*
X154223898Y-93108664D01*
X154078227Y-93169002D01*
X154078214Y-93169009D01*
X153947111Y-93256610D01*
X153947107Y-93256613D01*
X153835613Y-93368107D01*
X153835610Y-93368111D01*
X153748009Y-93499214D01*
X153748002Y-93499227D01*
X153687664Y-93644898D01*
X153687661Y-93644910D01*
X153656900Y-93799553D01*
X153656900Y-93957246D01*
X153687661Y-94111889D01*
X153687664Y-94111901D01*
X153748002Y-94257572D01*
X153748009Y-94257585D01*
X153835610Y-94388688D01*
X153835613Y-94388692D01*
X153865740Y-94418819D01*
X153899225Y-94480142D01*
X153894241Y-94549834D01*
X153852369Y-94605767D01*
X153786905Y-94630184D01*
X153778059Y-94630500D01*
X153118100Y-94630500D01*
X153051061Y-94610815D01*
X153005306Y-94558011D01*
X152994100Y-94506500D01*
X152994100Y-87896629D01*
X152986986Y-87860872D01*
X152974875Y-87799984D01*
X152955651Y-87703336D01*
X152916167Y-87608014D01*
X152880232Y-87521258D01*
X152810479Y-87416865D01*
X152770739Y-87357389D01*
X152628286Y-87214936D01*
X152628255Y-87214907D01*
X144510507Y-79097159D01*
X144510487Y-79097137D01*
X144366813Y-78953463D01*
X144366809Y-78953460D01*
X144202948Y-78843971D01*
X144202939Y-78843966D01*
X144130343Y-78813896D01*
X144074193Y-78790638D01*
X144020864Y-78768549D01*
X144020860Y-78768548D01*
X144020856Y-78768546D01*
X143924216Y-78749324D01*
X143827572Y-78730100D01*
X143827569Y-78730100D01*
X128557983Y-78730100D01*
X128490944Y-78710415D01*
X128470302Y-78693781D01*
X128249901Y-78473380D01*
X128216416Y-78412057D01*
X128221400Y-78342365D01*
X128263272Y-78286432D01*
X128328736Y-78262015D01*
X128337582Y-78261699D01*
X129828271Y-78261699D01*
X129828272Y-78261699D01*
X129887883Y-78255291D01*
X130022731Y-78204996D01*
X130137946Y-78118746D01*
X130224196Y-78003531D01*
X130273210Y-77872116D01*
X130315081Y-77816184D01*
X130380545Y-77791766D01*
X130448818Y-77806617D01*
X130477073Y-77827769D01*
X130590613Y-77941309D01*
X130762579Y-78066248D01*
X130762581Y-78066249D01*
X130762584Y-78066251D01*
X130951988Y-78162757D01*
X131154157Y-78228446D01*
X131364113Y-78261700D01*
X131364114Y-78261700D01*
X131576686Y-78261700D01*
X131576687Y-78261700D01*
X131786643Y-78228446D01*
X131988812Y-78162757D01*
X132178216Y-78066251D01*
X132258900Y-78007631D01*
X132350186Y-77941309D01*
X132350188Y-77941306D01*
X132350192Y-77941304D01*
X132500504Y-77790992D01*
X132500506Y-77790988D01*
X132500509Y-77790986D01*
X132625448Y-77619020D01*
X132625447Y-77619020D01*
X132625451Y-77619016D01*
X132629914Y-77610254D01*
X132677888Y-77559459D01*
X132745708Y-77542663D01*
X132811844Y-77565199D01*
X132850886Y-77610256D01*
X132855351Y-77619020D01*
X132980290Y-77790986D01*
X133130613Y-77941309D01*
X133302579Y-78066248D01*
X133302581Y-78066249D01*
X133302584Y-78066251D01*
X133491988Y-78162757D01*
X133694157Y-78228446D01*
X133904113Y-78261700D01*
X133904114Y-78261700D01*
X134116686Y-78261700D01*
X134116687Y-78261700D01*
X134326643Y-78228446D01*
X134528812Y-78162757D01*
X134718216Y-78066251D01*
X134798900Y-78007631D01*
X134890186Y-77941309D01*
X134890188Y-77941306D01*
X134890192Y-77941304D01*
X135040504Y-77790992D01*
X135040506Y-77790988D01*
X135040509Y-77790986D01*
X135165448Y-77619020D01*
X135165447Y-77619020D01*
X135165451Y-77619016D01*
X135169914Y-77610254D01*
X135217888Y-77559459D01*
X135285708Y-77542663D01*
X135351844Y-77565199D01*
X135390886Y-77610256D01*
X135395351Y-77619020D01*
X135520290Y-77790986D01*
X135670613Y-77941309D01*
X135842579Y-78066248D01*
X135842581Y-78066249D01*
X135842584Y-78066251D01*
X136031988Y-78162757D01*
X136234157Y-78228446D01*
X136444113Y-78261700D01*
X136444114Y-78261700D01*
X136656686Y-78261700D01*
X136656687Y-78261700D01*
X136866643Y-78228446D01*
X137068812Y-78162757D01*
X137258216Y-78066251D01*
X137338900Y-78007631D01*
X137430186Y-77941309D01*
X137430188Y-77941306D01*
X137430192Y-77941304D01*
X137580504Y-77790992D01*
X137580506Y-77790988D01*
X137580509Y-77790986D01*
X137705448Y-77619020D01*
X137705447Y-77619020D01*
X137705451Y-77619016D01*
X137801957Y-77429612D01*
X137867646Y-77227443D01*
X137900900Y-77017487D01*
X137900900Y-76804913D01*
X137867646Y-76594957D01*
X137801957Y-76392788D01*
X137705451Y-76203384D01*
X137705449Y-76203381D01*
X137705448Y-76203379D01*
X137580509Y-76031413D01*
X137430186Y-75881090D01*
X137258220Y-75756151D01*
X137257515Y-75755791D01*
X137249454Y-75751685D01*
X137198659Y-75703712D01*
X137181863Y-75635892D01*
X137204399Y-75569756D01*
X137249454Y-75530715D01*
X137258216Y-75526251D01*
X137288414Y-75504311D01*
X137430186Y-75401309D01*
X137430188Y-75401306D01*
X137430192Y-75401304D01*
X137580504Y-75250992D01*
X137580506Y-75250988D01*
X137580509Y-75250986D01*
X137705448Y-75079020D01*
X137705447Y-75079020D01*
X137705451Y-75079016D01*
X137709914Y-75070254D01*
X137757888Y-75019459D01*
X137825708Y-75002663D01*
X137891844Y-75025199D01*
X137930886Y-75070256D01*
X137935351Y-75079020D01*
X138060290Y-75250986D01*
X138210613Y-75401309D01*
X138382579Y-75526248D01*
X138382581Y-75526249D01*
X138382584Y-75526251D01*
X138571988Y-75622757D01*
X138774157Y-75688446D01*
X138984113Y-75721700D01*
X138984114Y-75721700D01*
X139196686Y-75721700D01*
X139196687Y-75721700D01*
X139406643Y-75688446D01*
X139608812Y-75622757D01*
X139798216Y-75526251D01*
X139828414Y-75504311D01*
X139970186Y-75401309D01*
X139970188Y-75401306D01*
X139970192Y-75401304D01*
X140120504Y-75250992D01*
X140120506Y-75250988D01*
X140120509Y-75250986D01*
X140245448Y-75079020D01*
X140245447Y-75079020D01*
X140245451Y-75079016D01*
X140249914Y-75070254D01*
X140297888Y-75019459D01*
X140365708Y-75002663D01*
X140431844Y-75025199D01*
X140470886Y-75070256D01*
X140475351Y-75079020D01*
X140600290Y-75250986D01*
X140750613Y-75401309D01*
X140922582Y-75526250D01*
X140931346Y-75530716D01*
X140982142Y-75578691D01*
X140998936Y-75646512D01*
X140976398Y-75712647D01*
X140931346Y-75751684D01*
X140922582Y-75756149D01*
X140750613Y-75881090D01*
X140600290Y-76031413D01*
X140475351Y-76203379D01*
X140378844Y-76392785D01*
X140313153Y-76594960D01*
X140279900Y-76804913D01*
X140279900Y-77017486D01*
X140303665Y-77167536D01*
X140313154Y-77227443D01*
X140363260Y-77381654D01*
X140378844Y-77429614D01*
X140475351Y-77619020D01*
X140600290Y-77790986D01*
X140750613Y-77941309D01*
X140922579Y-78066248D01*
X140922581Y-78066249D01*
X140922584Y-78066251D01*
X141111988Y-78162757D01*
X141314157Y-78228446D01*
X141524113Y-78261700D01*
X141524114Y-78261700D01*
X141736686Y-78261700D01*
X141736687Y-78261700D01*
X141946643Y-78228446D01*
X142148812Y-78162757D01*
X142338216Y-78066251D01*
X142418900Y-78007631D01*
X142510186Y-77941309D01*
X142510188Y-77941306D01*
X142510192Y-77941304D01*
X142660504Y-77790992D01*
X142660506Y-77790988D01*
X142660509Y-77790986D01*
X142785448Y-77619020D01*
X142785447Y-77619020D01*
X142785451Y-77619016D01*
X142789914Y-77610254D01*
X142837888Y-77559459D01*
X142905708Y-77542663D01*
X142971844Y-77565199D01*
X143010886Y-77610256D01*
X143015351Y-77619020D01*
X143140290Y-77790986D01*
X143290613Y-77941309D01*
X143462579Y-78066248D01*
X143462581Y-78066249D01*
X143462584Y-78066251D01*
X143651988Y-78162757D01*
X143854157Y-78228446D01*
X144064113Y-78261700D01*
X144064114Y-78261700D01*
X144276686Y-78261700D01*
X144276687Y-78261700D01*
X144486643Y-78228446D01*
X144688812Y-78162757D01*
X144878216Y-78066251D01*
X144948734Y-78015016D01*
X144980835Y-78003562D01*
X145012772Y-77991651D01*
X145013671Y-77991846D01*
X145014540Y-77991537D01*
X145047751Y-77999259D01*
X145081045Y-78006502D01*
X145082013Y-78007227D01*
X145082594Y-78007362D01*
X145109295Y-78027649D01*
X145190684Y-78109038D01*
X145190686Y-78109039D01*
X145197756Y-78116109D01*
X145365931Y-78284284D01*
X145399416Y-78345607D01*
X145399867Y-78347773D01*
X145430767Y-78503115D01*
X145430770Y-78503125D01*
X145491108Y-78648796D01*
X145491115Y-78648809D01*
X145578716Y-78779912D01*
X145578719Y-78779916D01*
X145690213Y-78891410D01*
X145690217Y-78891413D01*
X145821320Y-78979014D01*
X145821333Y-78979021D01*
X145967004Y-79039359D01*
X145967009Y-79039361D01*
X146121659Y-79070123D01*
X146121662Y-79070124D01*
X146121664Y-79070124D01*
X146279350Y-79070124D01*
X146279351Y-79070123D01*
X146434003Y-79039361D01*
X146579685Y-78979018D01*
X146710795Y-78891413D01*
X146822295Y-78779913D01*
X146909900Y-78648803D01*
X146970243Y-78503121D01*
X147001006Y-78348466D01*
X147001006Y-78326867D01*
X147020691Y-78259828D01*
X147073495Y-78214073D01*
X147086688Y-78208936D01*
X147098814Y-78204996D01*
X147228812Y-78162757D01*
X147418216Y-78066251D01*
X147498900Y-78007631D01*
X147590186Y-77941309D01*
X147590188Y-77941306D01*
X147590192Y-77941304D01*
X147740504Y-77790992D01*
X147740506Y-77790988D01*
X147740509Y-77790986D01*
X147865448Y-77619020D01*
X147865447Y-77619020D01*
X147865451Y-77619016D01*
X147869914Y-77610254D01*
X147917888Y-77559459D01*
X147985708Y-77542663D01*
X148051844Y-77565199D01*
X148090886Y-77610256D01*
X148095351Y-77619020D01*
X148220290Y-77790986D01*
X148370613Y-77941309D01*
X148542579Y-78066248D01*
X148542581Y-78066249D01*
X148542584Y-78066251D01*
X148731988Y-78162757D01*
X148934157Y-78228446D01*
X149144113Y-78261700D01*
X149144114Y-78261700D01*
X149356686Y-78261700D01*
X149356687Y-78261700D01*
X149566643Y-78228446D01*
X149768812Y-78162757D01*
X149958216Y-78066251D01*
X150038900Y-78007631D01*
X150130186Y-77941309D01*
X150130188Y-77941306D01*
X150130192Y-77941304D01*
X150280504Y-77790992D01*
X150280506Y-77790988D01*
X150280509Y-77790986D01*
X150405448Y-77619020D01*
X150405447Y-77619020D01*
X150405451Y-77619016D01*
X150409914Y-77610254D01*
X150457888Y-77559459D01*
X150525708Y-77542663D01*
X150591844Y-77565199D01*
X150630886Y-77610256D01*
X150635351Y-77619020D01*
X150760290Y-77790986D01*
X150910613Y-77941309D01*
X151082579Y-78066248D01*
X151082581Y-78066249D01*
X151082584Y-78066251D01*
X151271988Y-78162757D01*
X151474157Y-78228446D01*
X151684113Y-78261700D01*
X151684114Y-78261700D01*
X151896686Y-78261700D01*
X151896687Y-78261700D01*
X152106643Y-78228446D01*
X152308812Y-78162757D01*
X152498216Y-78066251D01*
X152578900Y-78007631D01*
X152670186Y-77941309D01*
X152670188Y-77941306D01*
X152670192Y-77941304D01*
X152820504Y-77790992D01*
X152820506Y-77790988D01*
X152820509Y-77790986D01*
X152945448Y-77619020D01*
X152945447Y-77619020D01*
X152945451Y-77619016D01*
X152949914Y-77610254D01*
X152997888Y-77559459D01*
X153065708Y-77542663D01*
X153131844Y-77565199D01*
X153170886Y-77610256D01*
X153175351Y-77619020D01*
X153300290Y-77790986D01*
X153450613Y-77941309D01*
X153622579Y-78066248D01*
X153622581Y-78066249D01*
X153622584Y-78066251D01*
X153811988Y-78162757D01*
X154014157Y-78228446D01*
X154224113Y-78261700D01*
X154224114Y-78261700D01*
X154436686Y-78261700D01*
X154436687Y-78261700D01*
X154646643Y-78228446D01*
X154848812Y-78162757D01*
X155038216Y-78066251D01*
X155118900Y-78007631D01*
X155210186Y-77941309D01*
X155210188Y-77941306D01*
X155210192Y-77941304D01*
X155360504Y-77790992D01*
X155360506Y-77790988D01*
X155360509Y-77790986D01*
X155485448Y-77619020D01*
X155485447Y-77619020D01*
X155485451Y-77619016D01*
X155489914Y-77610254D01*
X155537888Y-77559459D01*
X155605708Y-77542663D01*
X155671844Y-77565199D01*
X155710886Y-77610256D01*
X155715351Y-77619020D01*
X155840290Y-77790986D01*
X155990613Y-77941309D01*
X156162579Y-78066248D01*
X156162581Y-78066249D01*
X156162584Y-78066251D01*
X156351988Y-78162757D01*
X156554157Y-78228446D01*
X156764113Y-78261700D01*
X156764114Y-78261700D01*
X156976686Y-78261700D01*
X156976687Y-78261700D01*
X157186643Y-78228446D01*
X157388812Y-78162757D01*
X157578216Y-78066251D01*
X157658900Y-78007631D01*
X157750186Y-77941309D01*
X157750188Y-77941306D01*
X157750192Y-77941304D01*
X157900504Y-77790992D01*
X157900506Y-77790988D01*
X157900509Y-77790986D01*
X158025448Y-77619020D01*
X158025447Y-77619020D01*
X158025451Y-77619016D01*
X158121957Y-77429612D01*
X158187646Y-77227443D01*
X158220900Y-77017487D01*
X158220900Y-76804913D01*
X158187646Y-76594957D01*
X158121957Y-76392788D01*
X158025451Y-76203384D01*
X158025449Y-76203381D01*
X158025448Y-76203379D01*
X157900509Y-76031413D01*
X157750186Y-75881090D01*
X157578220Y-75756151D01*
X157577515Y-75755791D01*
X157569454Y-75751685D01*
X157518659Y-75703712D01*
X157501863Y-75635892D01*
X157524399Y-75569756D01*
X157569454Y-75530715D01*
X157578216Y-75526251D01*
X157608414Y-75504311D01*
X157750186Y-75401309D01*
X157750188Y-75401306D01*
X157750192Y-75401304D01*
X157900504Y-75250992D01*
X157900506Y-75250988D01*
X157900509Y-75250986D01*
X158025448Y-75079020D01*
X158025447Y-75079020D01*
X158025451Y-75079016D01*
X158029914Y-75070254D01*
X158077888Y-75019459D01*
X158145708Y-75002663D01*
X158211844Y-75025199D01*
G37*
%TD.AperFunction*%
%TA.AperFunction,Conductor*%
G36*
X203552818Y-72382816D02*
G01*
X203752961Y-72397130D01*
X203770463Y-72399647D01*
X203962197Y-72441355D01*
X203979155Y-72446334D01*
X204163009Y-72514909D01*
X204179101Y-72522259D01*
X204351304Y-72616288D01*
X204366184Y-72625849D01*
X204523267Y-72743441D01*
X204536637Y-72755027D01*
X204675372Y-72893762D01*
X204686957Y-72907131D01*
X204724666Y-72957504D01*
X204749084Y-73022967D01*
X204749400Y-73031815D01*
X204749400Y-126732184D01*
X204729715Y-126799223D01*
X204724667Y-126806495D01*
X204686960Y-126856865D01*
X204675374Y-126870235D01*
X204536637Y-127008972D01*
X204523267Y-127020558D01*
X204366189Y-127138146D01*
X204351304Y-127147711D01*
X204179101Y-127241740D01*
X204163009Y-127249090D01*
X203979163Y-127317662D01*
X203962187Y-127322646D01*
X203770468Y-127364351D01*
X203752957Y-127366869D01*
X203572179Y-127379799D01*
X203552817Y-127381184D01*
X203543972Y-127381500D01*
X122552828Y-127381500D01*
X122543982Y-127381184D01*
X122522022Y-127379613D01*
X122343842Y-127366869D01*
X122326331Y-127364351D01*
X122134612Y-127322646D01*
X122117636Y-127317662D01*
X121933790Y-127249090D01*
X121917698Y-127241740D01*
X121745495Y-127147711D01*
X121730610Y-127138146D01*
X121573532Y-127020558D01*
X121560162Y-127008972D01*
X121421427Y-126870237D01*
X121409841Y-126856867D01*
X121358906Y-126788826D01*
X121292249Y-126699784D01*
X121282688Y-126684904D01*
X121188659Y-126512701D01*
X121181309Y-126496609D01*
X121126006Y-126348338D01*
X121112734Y-126312755D01*
X121107755Y-126295797D01*
X121066047Y-126104063D01*
X121063530Y-126086556D01*
X121053463Y-125945805D01*
X121049216Y-125886418D01*
X121048900Y-125877572D01*
X121048900Y-125004311D01*
X122209900Y-125004311D01*
X122209900Y-125246888D01*
X122240786Y-125481500D01*
X122241562Y-125487389D01*
X122243349Y-125494057D01*
X122304347Y-125721704D01*
X122368910Y-125877572D01*
X122397176Y-125945812D01*
X122518464Y-126155889D01*
X122518466Y-126155892D01*
X122518467Y-126155893D01*
X122666133Y-126348336D01*
X122666139Y-126348343D01*
X122837656Y-126519860D01*
X122837662Y-126519865D01*
X123030111Y-126667536D01*
X123240188Y-126788824D01*
X123464300Y-126881654D01*
X123698611Y-126944438D01*
X123878986Y-126968184D01*
X123939111Y-126976100D01*
X123939112Y-126976100D01*
X124181689Y-126976100D01*
X124229788Y-126969767D01*
X124422189Y-126944438D01*
X124656500Y-126881654D01*
X124880612Y-126788824D01*
X125090689Y-126667536D01*
X125283138Y-126519865D01*
X125454665Y-126348338D01*
X125602336Y-126155889D01*
X125723624Y-125945812D01*
X125816454Y-125721700D01*
X125879238Y-125487389D01*
X125910900Y-125246888D01*
X125910900Y-125004312D01*
X125879238Y-124763811D01*
X125816454Y-124529500D01*
X125810761Y-124515757D01*
X125723626Y-124305394D01*
X125723624Y-124305388D01*
X125602336Y-124095311D01*
X125494165Y-123954339D01*
X125457229Y-123906203D01*
X125457228Y-123906202D01*
X125454664Y-123902860D01*
X125387393Y-123835589D01*
X133976700Y-123835589D01*
X133976700Y-124558811D01*
X134003798Y-124729901D01*
X134057327Y-124894645D01*
X134135968Y-125048988D01*
X134237786Y-125189128D01*
X134360272Y-125311614D01*
X134500412Y-125413432D01*
X134654755Y-125492073D01*
X134819499Y-125545602D01*
X134990589Y-125572700D01*
X134990590Y-125572700D01*
X135163810Y-125572700D01*
X135163811Y-125572700D01*
X135334901Y-125545602D01*
X135499645Y-125492073D01*
X135653988Y-125413432D01*
X135794128Y-125311614D01*
X135901672Y-125204069D01*
X135962991Y-125170587D01*
X136032683Y-125175571D01*
X136088617Y-125217442D01*
X136094888Y-125226656D01*
X136134485Y-125290852D01*
X136134488Y-125290856D01*
X136258544Y-125414912D01*
X136407866Y-125507014D01*
X136574403Y-125562199D01*
X136677191Y-125572700D01*
X137477208Y-125572699D01*
X137477216Y-125572698D01*
X137477219Y-125572698D01*
X137533502Y-125566948D01*
X137579997Y-125562199D01*
X137746534Y-125507014D01*
X137895856Y-125414912D01*
X138019912Y-125290856D01*
X138112014Y-125141534D01*
X138167199Y-124974997D01*
X138177700Y-124872209D01*
X138177699Y-123522192D01*
X138167199Y-123419403D01*
X138112014Y-123252866D01*
X138019912Y-123103544D01*
X137895856Y-122979488D01*
X137779814Y-122907913D01*
X147076300Y-122907913D01*
X147076300Y-123370487D01*
X147079949Y-123393527D01*
X147097699Y-123505598D01*
X147109554Y-123580443D01*
X147158583Y-123731339D01*
X147175244Y-123782614D01*
X147271751Y-123972020D01*
X147396690Y-124143986D01*
X147547013Y-124294309D01*
X147718979Y-124419248D01*
X147718981Y-124419249D01*
X147718984Y-124419251D01*
X147908388Y-124515757D01*
X148110557Y-124581446D01*
X148320513Y-124614700D01*
X148320514Y-124614700D01*
X148533086Y-124614700D01*
X148533087Y-124614700D01*
X148743043Y-124581446D01*
X148945212Y-124515757D01*
X149134616Y-124419251D01*
X149193585Y-124376408D01*
X149306586Y-124294309D01*
X149306588Y-124294306D01*
X149306592Y-124294304D01*
X149456904Y-124143992D01*
X149576483Y-123979404D01*
X149631811Y-123936740D01*
X149701424Y-123930761D01*
X149763220Y-123963366D01*
X149777113Y-123979399D01*
X149896692Y-124143986D01*
X149896696Y-124143992D01*
X150047013Y-124294309D01*
X150218979Y-124419248D01*
X150218981Y-124419249D01*
X150218984Y-124419251D01*
X150408388Y-124515757D01*
X150610557Y-124581446D01*
X150820513Y-124614700D01*
X150820514Y-124614700D01*
X151033086Y-124614700D01*
X151033087Y-124614700D01*
X151243043Y-124581446D01*
X151445212Y-124515757D01*
X151634616Y-124419251D01*
X151693585Y-124376408D01*
X151806586Y-124294309D01*
X151806588Y-124294306D01*
X151806592Y-124294304D01*
X151956904Y-124143992D01*
X151956906Y-124143988D01*
X151956909Y-124143986D01*
X152033338Y-124038789D01*
X158579900Y-124038789D01*
X158579900Y-124762010D01*
X158603746Y-124912572D01*
X158606998Y-124933101D01*
X158657840Y-125089576D01*
X158660528Y-125097847D01*
X158682786Y-125141531D01*
X158739168Y-125252188D01*
X158840986Y-125392328D01*
X158963472Y-125514814D01*
X159103612Y-125616632D01*
X159257955Y-125695273D01*
X159422699Y-125748802D01*
X159593789Y-125775900D01*
X159593790Y-125775900D01*
X159767010Y-125775900D01*
X159767011Y-125775900D01*
X159938101Y-125748802D01*
X160102845Y-125695273D01*
X160257188Y-125616632D01*
X160397328Y-125514814D01*
X160504872Y-125407269D01*
X160566191Y-125373787D01*
X160635883Y-125378771D01*
X160691817Y-125420642D01*
X160698088Y-125429856D01*
X160737685Y-125494052D01*
X160737688Y-125494056D01*
X160861744Y-125618112D01*
X161011066Y-125710214D01*
X161177603Y-125765399D01*
X161280391Y-125775900D01*
X162080408Y-125775899D01*
X162080416Y-125775898D01*
X162080419Y-125775898D01*
X162136702Y-125770148D01*
X162183197Y-125765399D01*
X162349734Y-125710214D01*
X162499056Y-125618112D01*
X162623112Y-125494056D01*
X162715214Y-125344734D01*
X162770399Y-125178197D01*
X162780900Y-125075409D01*
X162780899Y-123725392D01*
X162770399Y-123622603D01*
X162715214Y-123456066D01*
X162623112Y-123306744D01*
X162499056Y-123182688D01*
X162373959Y-123105528D01*
X162349736Y-123090587D01*
X162349731Y-123090585D01*
X162326195Y-123082786D01*
X162183197Y-123035401D01*
X162183195Y-123035400D01*
X162080410Y-123024900D01*
X161280398Y-123024900D01*
X161280380Y-123024901D01*
X161177603Y-123035400D01*
X161177600Y-123035401D01*
X161011068Y-123090585D01*
X161011063Y-123090587D01*
X160861742Y-123182689D01*
X160737687Y-123306744D01*
X160698088Y-123370944D01*
X160646139Y-123417668D01*
X160577177Y-123428889D01*
X160513095Y-123401045D01*
X160504869Y-123393527D01*
X160397330Y-123285988D01*
X160397328Y-123285986D01*
X160257188Y-123184168D01*
X160102845Y-123105527D01*
X159938101Y-123051998D01*
X159938099Y-123051997D01*
X159938098Y-123051997D01*
X159806671Y-123031181D01*
X159767011Y-123024900D01*
X159593789Y-123024900D01*
X159554128Y-123031181D01*
X159422702Y-123051997D01*
X159257952Y-123105528D01*
X159103611Y-123184168D01*
X159046463Y-123225689D01*
X158963472Y-123285986D01*
X158963470Y-123285988D01*
X158963469Y-123285988D01*
X158840988Y-123408469D01*
X158840988Y-123408470D01*
X158840986Y-123408472D01*
X158826152Y-123428889D01*
X158739168Y-123548611D01*
X158660528Y-123702952D01*
X158606997Y-123867702D01*
X158579900Y-124038789D01*
X152033338Y-124038789D01*
X152081848Y-123972020D01*
X152081847Y-123972020D01*
X152081851Y-123972016D01*
X152178357Y-123782612D01*
X152244046Y-123580443D01*
X152277300Y-123370487D01*
X152277300Y-122907913D01*
X152244046Y-122697957D01*
X152178357Y-122495788D01*
X152081851Y-122306384D01*
X151976456Y-122161319D01*
X151956905Y-122134409D01*
X151914080Y-122091584D01*
X169273900Y-122091584D01*
X169273900Y-124491615D01*
X169284400Y-124594395D01*
X169284401Y-124594396D01*
X169339586Y-124760935D01*
X169339587Y-124760937D01*
X169431686Y-124910251D01*
X169431689Y-124910255D01*
X169555744Y-125034310D01*
X169555748Y-125034313D01*
X169705062Y-125126412D01*
X169705064Y-125126413D01*
X169705066Y-125126414D01*
X169871603Y-125181599D01*
X169974392Y-125192100D01*
X169974397Y-125192100D01*
X172374403Y-125192100D01*
X172374408Y-125192100D01*
X172477197Y-125181599D01*
X172643734Y-125126414D01*
X172793055Y-125034311D01*
X172823055Y-125004311D01*
X180209900Y-125004311D01*
X180209900Y-125246888D01*
X180240786Y-125481500D01*
X180241562Y-125487389D01*
X180243349Y-125494057D01*
X180304347Y-125721704D01*
X180368910Y-125877572D01*
X180397176Y-125945812D01*
X180518464Y-126155889D01*
X180518466Y-126155892D01*
X180518467Y-126155893D01*
X180666133Y-126348336D01*
X180666139Y-126348343D01*
X180837656Y-126519860D01*
X180837662Y-126519865D01*
X181030111Y-126667536D01*
X181240188Y-126788824D01*
X181464300Y-126881654D01*
X181698611Y-126944438D01*
X181878986Y-126968184D01*
X181939111Y-126976100D01*
X181939112Y-126976100D01*
X182181689Y-126976100D01*
X182229788Y-126969767D01*
X182422189Y-126944438D01*
X182656500Y-126881654D01*
X182880612Y-126788824D01*
X183090689Y-126667536D01*
X183283138Y-126519865D01*
X183454665Y-126348338D01*
X183602336Y-126155889D01*
X183723624Y-125945812D01*
X183816454Y-125721700D01*
X183879238Y-125487389D01*
X183910900Y-125246888D01*
X183910900Y-125004312D01*
X183879238Y-124763811D01*
X183816454Y-124529500D01*
X183810761Y-124515757D01*
X183723626Y-124305394D01*
X183723624Y-124305388D01*
X183602336Y-124095311D01*
X183494165Y-123954339D01*
X183454666Y-123902863D01*
X183454660Y-123902856D01*
X183370793Y-123818989D01*
X189673300Y-123818989D01*
X189673300Y-124542211D01*
X189700398Y-124713301D01*
X189753927Y-124878045D01*
X189832568Y-125032388D01*
X189934386Y-125172528D01*
X190056872Y-125295014D01*
X190197012Y-125396832D01*
X190351355Y-125475473D01*
X190516099Y-125529002D01*
X190687189Y-125556100D01*
X190687190Y-125556100D01*
X190860410Y-125556100D01*
X190860411Y-125556100D01*
X191031501Y-125529002D01*
X191196245Y-125475473D01*
X191350588Y-125396832D01*
X191490728Y-125295014D01*
X191613214Y-125172528D01*
X191673482Y-125089575D01*
X191728812Y-125046911D01*
X191798426Y-125040932D01*
X191860221Y-125073538D01*
X191874115Y-125089573D01*
X191934386Y-125172528D01*
X192056872Y-125295014D01*
X192197012Y-125396832D01*
X192351355Y-125475473D01*
X192516099Y-125529002D01*
X192687189Y-125556100D01*
X192687190Y-125556100D01*
X192860410Y-125556100D01*
X192860411Y-125556100D01*
X193031501Y-125529002D01*
X193196245Y-125475473D01*
X193350588Y-125396832D01*
X193490728Y-125295014D01*
X193613214Y-125172528D01*
X193715032Y-125032388D01*
X193793673Y-124878045D01*
X193847202Y-124713301D01*
X193874300Y-124542211D01*
X193874300Y-123818989D01*
X193847202Y-123647899D01*
X193793673Y-123483155D01*
X193715032Y-123328812D01*
X193613214Y-123188672D01*
X193490728Y-123066186D01*
X193350588Y-122964368D01*
X193196245Y-122885727D01*
X193031501Y-122832198D01*
X193031499Y-122832197D01*
X193031498Y-122832197D01*
X192896488Y-122810814D01*
X192860411Y-122805100D01*
X192687189Y-122805100D01*
X192651112Y-122810814D01*
X192516102Y-122832197D01*
X192351352Y-122885728D01*
X192197011Y-122964368D01*
X192117056Y-123022459D01*
X192056872Y-123066186D01*
X192056870Y-123066188D01*
X192056869Y-123066188D01*
X191934388Y-123188669D01*
X191934381Y-123188678D01*
X191874117Y-123271623D01*
X191818787Y-123314289D01*
X191749174Y-123320267D01*
X191687379Y-123287661D01*
X191673483Y-123271623D01*
X191625272Y-123205269D01*
X191613214Y-123188672D01*
X191490728Y-123066186D01*
X191350588Y-122964368D01*
X191196245Y-122885727D01*
X191031501Y-122832198D01*
X191031499Y-122832197D01*
X191031498Y-122832197D01*
X190896488Y-122810814D01*
X190860411Y-122805100D01*
X190687189Y-122805100D01*
X190651112Y-122810814D01*
X190516102Y-122832197D01*
X190351352Y-122885728D01*
X190197011Y-122964368D01*
X190117056Y-123022459D01*
X190056872Y-123066186D01*
X190056870Y-123066188D01*
X190056869Y-123066188D01*
X189934388Y-123188669D01*
X189934388Y-123188670D01*
X189934386Y-123188672D01*
X189899809Y-123236263D01*
X189832568Y-123328811D01*
X189753928Y-123483152D01*
X189700397Y-123647902D01*
X189679061Y-123782614D01*
X189673300Y-123818989D01*
X183370793Y-123818989D01*
X183283143Y-123731339D01*
X183283136Y-123731333D01*
X183090693Y-123583667D01*
X183090692Y-123583666D01*
X183090689Y-123583664D01*
X182880612Y-123462376D01*
X182865383Y-123456068D01*
X182656504Y-123369547D01*
X182422185Y-123306761D01*
X182181689Y-123275100D01*
X182181688Y-123275100D01*
X181939112Y-123275100D01*
X181939111Y-123275100D01*
X181698614Y-123306761D01*
X181464295Y-123369547D01*
X181240194Y-123462373D01*
X181240185Y-123462377D01*
X181030106Y-123583667D01*
X180837663Y-123731333D01*
X180837656Y-123731339D01*
X180666139Y-123902856D01*
X180666133Y-123902863D01*
X180518467Y-124095306D01*
X180397177Y-124305385D01*
X180397173Y-124305394D01*
X180304347Y-124529495D01*
X180241561Y-124763814D01*
X180209900Y-125004311D01*
X172823055Y-125004311D01*
X172917111Y-124910255D01*
X173009214Y-124760934D01*
X173064399Y-124594397D01*
X173074900Y-124491608D01*
X173074900Y-122091592D01*
X173064399Y-121988803D01*
X173009214Y-121822266D01*
X172989923Y-121790991D01*
X172917113Y-121672948D01*
X172917110Y-121672944D01*
X172793055Y-121548889D01*
X172793051Y-121548886D01*
X172643737Y-121456787D01*
X172643735Y-121456786D01*
X172560465Y-121429193D01*
X172477197Y-121401601D01*
X172477195Y-121401600D01*
X172374415Y-121391100D01*
X172374408Y-121391100D01*
X169974392Y-121391100D01*
X169974384Y-121391100D01*
X169871604Y-121401600D01*
X169871603Y-121401601D01*
X169705064Y-121456786D01*
X169705062Y-121456787D01*
X169555748Y-121548886D01*
X169555744Y-121548889D01*
X169431689Y-121672944D01*
X169431686Y-121672948D01*
X169339587Y-121822262D01*
X169339586Y-121822264D01*
X169284401Y-121988803D01*
X169284400Y-121988804D01*
X169273900Y-122091584D01*
X151914080Y-122091584D01*
X151806586Y-121984090D01*
X151634615Y-121859148D01*
X151634614Y-121859147D01*
X151595005Y-121838965D01*
X151544209Y-121790991D01*
X151527300Y-121728481D01*
X151527300Y-120343854D01*
X151546985Y-120276815D01*
X151599789Y-120231060D01*
X151607801Y-120228030D01*
X151612851Y-120225938D01*
X151612857Y-120225937D01*
X151758539Y-120165594D01*
X151889649Y-120077989D01*
X152001149Y-119966489D01*
X152088754Y-119835379D01*
X152149097Y-119689697D01*
X152179860Y-119535042D01*
X152179860Y-119377358D01*
X152179860Y-119377355D01*
X152179859Y-119377353D01*
X152149098Y-119222710D01*
X152149098Y-119222708D01*
X152149097Y-119222703D01*
X152141892Y-119205309D01*
X152088757Y-119077027D01*
X152088750Y-119077014D01*
X152001149Y-118945911D01*
X152001146Y-118945907D01*
X151889652Y-118834413D01*
X151889648Y-118834410D01*
X151758545Y-118746809D01*
X151758532Y-118746802D01*
X151612861Y-118686464D01*
X151612849Y-118686461D01*
X151458205Y-118655700D01*
X151458202Y-118655700D01*
X151300518Y-118655700D01*
X151300515Y-118655700D01*
X151145870Y-118686461D01*
X151145858Y-118686464D01*
X151000187Y-118746802D01*
X151000174Y-118746809D01*
X150869071Y-118834410D01*
X150869067Y-118834413D01*
X150757573Y-118945907D01*
X150757570Y-118945911D01*
X150669969Y-119077014D01*
X150669962Y-119077027D01*
X150609624Y-119222698D01*
X150609621Y-119222708D01*
X150578722Y-119378048D01*
X150572545Y-119391106D01*
X150571237Y-119402331D01*
X150557854Y-119422167D01*
X150552957Y-119432522D01*
X150549088Y-119437235D01*
X150446280Y-119540044D01*
X150407632Y-119606985D01*
X150402550Y-119615785D01*
X150402549Y-119615788D01*
X150390443Y-119636757D01*
X150367223Y-119676975D01*
X150326299Y-119829703D01*
X150326299Y-119829705D01*
X150326299Y-119997806D01*
X150326300Y-119997819D01*
X150326300Y-121728481D01*
X150306615Y-121795520D01*
X150258595Y-121838965D01*
X150218985Y-121859147D01*
X150218984Y-121859148D01*
X150047013Y-121984090D01*
X149896694Y-122134409D01*
X149896690Y-122134414D01*
X149777118Y-122298993D01*
X149721789Y-122341659D01*
X149652175Y-122347638D01*
X149590380Y-122315033D01*
X149576482Y-122298993D01*
X149456909Y-122134414D01*
X149456905Y-122134409D01*
X149306586Y-121984090D01*
X149134620Y-121859151D01*
X148945214Y-121762644D01*
X148945213Y-121762643D01*
X148945212Y-121762643D01*
X148743043Y-121696954D01*
X148743041Y-121696953D01*
X148743040Y-121696953D01*
X148581757Y-121671408D01*
X148533087Y-121663700D01*
X148320513Y-121663700D01*
X148271842Y-121671408D01*
X148110560Y-121696953D01*
X147908385Y-121762644D01*
X147718979Y-121859151D01*
X147547013Y-121984090D01*
X147396690Y-122134413D01*
X147271751Y-122306379D01*
X147175244Y-122495785D01*
X147109553Y-122697960D01*
X147082180Y-122870786D01*
X147076300Y-122907913D01*
X137779814Y-122907913D01*
X137770759Y-122902328D01*
X137746536Y-122887387D01*
X137746531Y-122887385D01*
X137741527Y-122885727D01*
X137579997Y-122832201D01*
X137579995Y-122832200D01*
X137477210Y-122821700D01*
X136677198Y-122821700D01*
X136677180Y-122821701D01*
X136574403Y-122832200D01*
X136574400Y-122832201D01*
X136407868Y-122887385D01*
X136407863Y-122887387D01*
X136258542Y-122979489D01*
X136134487Y-123103544D01*
X136094888Y-123167744D01*
X136042939Y-123214468D01*
X135973977Y-123225689D01*
X135909895Y-123197845D01*
X135901669Y-123190327D01*
X135794130Y-123082788D01*
X135794128Y-123082786D01*
X135653988Y-122980968D01*
X135499645Y-122902327D01*
X135334901Y-122848798D01*
X135334899Y-122848797D01*
X135334898Y-122848797D01*
X135203471Y-122827981D01*
X135163811Y-122821700D01*
X134990589Y-122821700D01*
X134950928Y-122827981D01*
X134819502Y-122848797D01*
X134654752Y-122902328D01*
X134500411Y-122980968D01*
X134425493Y-123035400D01*
X134360272Y-123082786D01*
X134360270Y-123082788D01*
X134360269Y-123082788D01*
X134237788Y-123205269D01*
X134237788Y-123205270D01*
X134237786Y-123205272D01*
X134215266Y-123236268D01*
X134135968Y-123345411D01*
X134057328Y-123499752D01*
X134057327Y-123499754D01*
X134057327Y-123499755D01*
X134050040Y-123522181D01*
X134003797Y-123664502D01*
X133985091Y-123782612D01*
X133976700Y-123835589D01*
X125387393Y-123835589D01*
X125283143Y-123731339D01*
X125283136Y-123731333D01*
X125090693Y-123583667D01*
X125090692Y-123583666D01*
X125090689Y-123583664D01*
X124880612Y-123462376D01*
X124865383Y-123456068D01*
X124656504Y-123369547D01*
X124422185Y-123306761D01*
X124181689Y-123275100D01*
X124181688Y-123275100D01*
X123939112Y-123275100D01*
X123939111Y-123275100D01*
X123698614Y-123306761D01*
X123464295Y-123369547D01*
X123240194Y-123462373D01*
X123240185Y-123462377D01*
X123030106Y-123583667D01*
X122837663Y-123731333D01*
X122837656Y-123731339D01*
X122666139Y-123902856D01*
X122666133Y-123902863D01*
X122518467Y-124095306D01*
X122397177Y-124305385D01*
X122397173Y-124305394D01*
X122304347Y-124529495D01*
X122241561Y-124763814D01*
X122209900Y-125004311D01*
X121048900Y-125004311D01*
X121048900Y-119047618D01*
X147814435Y-119047618D01*
X147814435Y-119205311D01*
X147845196Y-119359954D01*
X147845199Y-119359966D01*
X147905537Y-119505637D01*
X147905544Y-119505650D01*
X147993145Y-119636753D01*
X147993148Y-119636757D01*
X148104642Y-119748251D01*
X148104646Y-119748254D01*
X148235749Y-119835855D01*
X148235762Y-119835862D01*
X148381433Y-119896200D01*
X148381438Y-119896202D01*
X148536088Y-119926964D01*
X148536091Y-119926965D01*
X148536093Y-119926965D01*
X148693779Y-119926965D01*
X148693780Y-119926964D01*
X148848432Y-119896202D01*
X148994114Y-119835859D01*
X149125224Y-119748254D01*
X149236724Y-119636754D01*
X149324329Y-119505644D01*
X149384672Y-119359962D01*
X149415435Y-119205307D01*
X149415435Y-119047623D01*
X149415435Y-119047620D01*
X149415434Y-119047618D01*
X149384673Y-118892975D01*
X149384672Y-118892968D01*
X149360417Y-118834410D01*
X149324332Y-118747292D01*
X149324325Y-118747279D01*
X149236333Y-118615590D01*
X149215455Y-118548912D01*
X149215435Y-118546699D01*
X149215435Y-116063019D01*
X149235120Y-115995980D01*
X149270542Y-115959918D01*
X149379689Y-115886989D01*
X149491189Y-115775489D01*
X149578794Y-115644379D01*
X149639137Y-115498697D01*
X149669900Y-115344042D01*
X149669900Y-115186358D01*
X149669900Y-115186355D01*
X149669899Y-115186353D01*
X149655632Y-115114627D01*
X149639137Y-115031703D01*
X149639135Y-115031698D01*
X149578797Y-114886027D01*
X149578790Y-114886014D01*
X149491189Y-114754911D01*
X149491186Y-114754907D01*
X149379692Y-114643413D01*
X149379688Y-114643410D01*
X149248585Y-114555809D01*
X149248572Y-114555802D01*
X149102901Y-114495464D01*
X149102889Y-114495461D01*
X148948245Y-114464700D01*
X148948242Y-114464700D01*
X148790558Y-114464700D01*
X148790555Y-114464700D01*
X148635910Y-114495461D01*
X148635898Y-114495464D01*
X148490227Y-114555802D01*
X148490214Y-114555809D01*
X148359111Y-114643410D01*
X148359107Y-114643413D01*
X148247613Y-114754907D01*
X148247610Y-114754911D01*
X148160009Y-114886014D01*
X148160002Y-114886027D01*
X148099664Y-115031698D01*
X148099661Y-115031710D01*
X148068900Y-115186353D01*
X148068900Y-115231199D01*
X148055999Y-115279346D01*
X148058469Y-115280370D01*
X148055358Y-115287878D01*
X148040309Y-115344042D01*
X148014434Y-115440608D01*
X148014434Y-115440610D01*
X148014434Y-115608711D01*
X148014435Y-115608724D01*
X148014435Y-118546699D01*
X147994750Y-118613738D01*
X147993537Y-118615590D01*
X147905544Y-118747279D01*
X147905537Y-118747292D01*
X147845199Y-118892963D01*
X147845196Y-118892975D01*
X147814435Y-119047618D01*
X121048900Y-119047618D01*
X121048900Y-112849553D01*
X150583500Y-112849553D01*
X150583500Y-113007246D01*
X150614261Y-113161889D01*
X150614264Y-113161901D01*
X150674602Y-113307572D01*
X150674609Y-113307585D01*
X150762210Y-113438688D01*
X150762213Y-113438692D01*
X150873707Y-113550186D01*
X150873711Y-113550189D01*
X151004814Y-113637790D01*
X151004827Y-113637797D01*
X151150498Y-113698135D01*
X151150503Y-113698137D01*
X151215147Y-113710995D01*
X151305849Y-113729038D01*
X151367760Y-113761423D01*
X151369339Y-113762974D01*
X151915581Y-114309216D01*
X151949066Y-114370539D01*
X151951900Y-114396897D01*
X151951900Y-114914034D01*
X151932215Y-114981073D01*
X151931002Y-114982925D01*
X151843009Y-115114614D01*
X151843002Y-115114627D01*
X151782664Y-115260298D01*
X151782661Y-115260310D01*
X151751900Y-115414953D01*
X151751900Y-115572646D01*
X151782661Y-115727289D01*
X151782664Y-115727301D01*
X151843002Y-115872972D01*
X151843009Y-115872985D01*
X151930610Y-116004088D01*
X151930613Y-116004092D01*
X152042107Y-116115586D01*
X152042111Y-116115589D01*
X152173214Y-116203190D01*
X152173227Y-116203197D01*
X152318898Y-116263535D01*
X152318903Y-116263537D01*
X152473558Y-116294300D01*
X152474247Y-116294437D01*
X152491003Y-116303201D01*
X152509483Y-116307222D01*
X152534521Y-116325966D01*
X152536158Y-116326822D01*
X152537737Y-116328373D01*
X152575981Y-116366617D01*
X152609466Y-116427940D01*
X152612300Y-116454298D01*
X152612300Y-117528656D01*
X152653223Y-117681383D01*
X152653226Y-117681390D01*
X152732275Y-117818309D01*
X152732279Y-117818314D01*
X152732280Y-117818316D01*
X152844084Y-117930120D01*
X152844086Y-117930121D01*
X152844090Y-117930124D01*
X152981009Y-118009173D01*
X152981016Y-118009177D01*
X153133743Y-118050100D01*
X166399834Y-118050100D01*
X166466873Y-118069785D01*
X166468725Y-118070998D01*
X166600414Y-118158990D01*
X166600427Y-118158997D01*
X166746098Y-118219335D01*
X166746103Y-118219337D01*
X166900753Y-118250099D01*
X166900756Y-118250100D01*
X166900758Y-118250100D01*
X167058444Y-118250100D01*
X167058445Y-118250099D01*
X167213097Y-118219337D01*
X167358779Y-118158994D01*
X167358785Y-118158990D01*
X167490475Y-118070998D01*
X167557153Y-118050120D01*
X167559366Y-118050100D01*
X189742703Y-118050100D01*
X189809742Y-118069785D01*
X189830384Y-118086419D01*
X195636981Y-123893016D01*
X195670466Y-123954339D01*
X195673300Y-123980697D01*
X195673300Y-124855601D01*
X195673301Y-124855619D01*
X195683800Y-124958396D01*
X195683801Y-124958399D01*
X195738985Y-125124931D01*
X195738987Y-125124936D01*
X195739898Y-125126413D01*
X195831088Y-125274256D01*
X195955144Y-125398312D01*
X196104466Y-125490414D01*
X196271003Y-125545599D01*
X196373791Y-125556100D01*
X197173808Y-125556099D01*
X197173816Y-125556098D01*
X197173819Y-125556098D01*
X197230102Y-125550348D01*
X197276597Y-125545599D01*
X197443134Y-125490414D01*
X197592456Y-125398312D01*
X197716512Y-125274256D01*
X197808614Y-125124934D01*
X197863799Y-124958397D01*
X197874300Y-124855609D01*
X197874299Y-123505592D01*
X197873702Y-123499752D01*
X197863799Y-123402803D01*
X197863798Y-123402800D01*
X197853242Y-123370944D01*
X197808614Y-123236266D01*
X197716512Y-123086944D01*
X197592456Y-122962888D01*
X197470047Y-122887386D01*
X197443136Y-122870787D01*
X197443131Y-122870785D01*
X197441662Y-122870298D01*
X197276597Y-122815601D01*
X197276595Y-122815600D01*
X197173810Y-122805100D01*
X196373798Y-122805100D01*
X196373775Y-122805102D01*
X196317852Y-122810814D01*
X196249160Y-122798043D01*
X196217572Y-122775137D01*
X190530390Y-117087955D01*
X190530388Y-117087952D01*
X190411517Y-116969081D01*
X190411516Y-116969080D01*
X190324704Y-116918960D01*
X190324704Y-116918959D01*
X190324700Y-116918958D01*
X190274585Y-116890023D01*
X190121857Y-116849099D01*
X189963743Y-116849099D01*
X189956147Y-116849099D01*
X189956131Y-116849100D01*
X167559366Y-116849100D01*
X167492327Y-116829415D01*
X167490475Y-116828202D01*
X167358785Y-116740209D01*
X167358772Y-116740202D01*
X167213101Y-116679864D01*
X167213089Y-116679861D01*
X167058445Y-116649100D01*
X167058442Y-116649100D01*
X166900758Y-116649100D01*
X166900755Y-116649100D01*
X166746110Y-116679861D01*
X166746098Y-116679864D01*
X166600427Y-116740202D01*
X166600414Y-116740209D01*
X166468725Y-116828202D01*
X166402047Y-116849080D01*
X166399834Y-116849100D01*
X153937300Y-116849100D01*
X153870261Y-116829415D01*
X153824506Y-116776611D01*
X153813300Y-116725100D01*
X153813300Y-116243260D01*
X153813301Y-116243247D01*
X153813301Y-116075144D01*
X153810052Y-116063019D01*
X153772377Y-115922416D01*
X153772373Y-115922409D01*
X153693324Y-115785490D01*
X153693318Y-115785482D01*
X153386973Y-115479137D01*
X153353488Y-115417814D01*
X153353037Y-115415647D01*
X153352899Y-115414953D01*
X153322137Y-115260303D01*
X153310082Y-115231199D01*
X153261797Y-115114627D01*
X153261790Y-115114614D01*
X153173798Y-114982925D01*
X153152920Y-114916247D01*
X153152900Y-114914034D01*
X153152900Y-114017745D01*
X153152900Y-114017743D01*
X153111977Y-113865016D01*
X153111977Y-113865015D01*
X153111977Y-113865014D01*
X153083039Y-113814895D01*
X153083037Y-113814892D01*
X153053063Y-113762974D01*
X153032920Y-113728084D01*
X152921116Y-113616280D01*
X152921115Y-113616279D01*
X152916785Y-113611949D01*
X152916774Y-113611939D01*
X152218574Y-112913739D01*
X152185089Y-112852416D01*
X152184638Y-112850249D01*
X152153738Y-112694910D01*
X152153737Y-112694903D01*
X152153735Y-112694898D01*
X152093397Y-112549227D01*
X152093390Y-112549214D01*
X152005789Y-112418111D01*
X152005786Y-112418107D01*
X151894292Y-112306613D01*
X151894288Y-112306610D01*
X151763185Y-112219009D01*
X151763172Y-112219002D01*
X151617501Y-112158664D01*
X151617489Y-112158661D01*
X151462845Y-112127900D01*
X151462842Y-112127900D01*
X151305158Y-112127900D01*
X151305155Y-112127900D01*
X151150510Y-112158661D01*
X151150498Y-112158664D01*
X151004827Y-112219002D01*
X151004814Y-112219009D01*
X150873711Y-112306610D01*
X150873707Y-112306613D01*
X150762213Y-112418107D01*
X150762210Y-112418111D01*
X150674609Y-112549214D01*
X150674602Y-112549227D01*
X150614264Y-112694898D01*
X150614261Y-112694910D01*
X150583500Y-112849553D01*
X121048900Y-112849553D01*
X121048900Y-83638389D01*
X131899500Y-83638389D01*
X131899500Y-84361611D01*
X131926598Y-84532701D01*
X131980127Y-84697445D01*
X132058768Y-84851788D01*
X132160586Y-84991928D01*
X132283072Y-85114414D01*
X132423212Y-85216232D01*
X132577555Y-85294873D01*
X132742299Y-85348402D01*
X132913389Y-85375500D01*
X132913390Y-85375500D01*
X133086610Y-85375500D01*
X133086611Y-85375500D01*
X133257701Y-85348402D01*
X133422445Y-85294873D01*
X133576788Y-85216232D01*
X133716928Y-85114414D01*
X133839414Y-84991928D01*
X133899682Y-84908975D01*
X133955012Y-84866311D01*
X134024626Y-84860332D01*
X134086421Y-84892938D01*
X134100315Y-84908973D01*
X134160586Y-84991928D01*
X134283072Y-85114414D01*
X134423212Y-85216232D01*
X134577555Y-85294873D01*
X134742299Y-85348402D01*
X134913389Y-85375500D01*
X134913390Y-85375500D01*
X135086610Y-85375500D01*
X135086611Y-85375500D01*
X135257701Y-85348402D01*
X135422445Y-85294873D01*
X135576788Y-85216232D01*
X135716928Y-85114414D01*
X135824472Y-85006869D01*
X135885791Y-84973387D01*
X135955483Y-84978371D01*
X136011417Y-85020242D01*
X136017688Y-85029456D01*
X136057285Y-85093652D01*
X136057288Y-85093656D01*
X136181344Y-85217712D01*
X136330666Y-85309814D01*
X136497203Y-85364999D01*
X136599991Y-85375500D01*
X137400008Y-85375499D01*
X137400016Y-85375498D01*
X137400019Y-85375498D01*
X137456302Y-85369748D01*
X137502797Y-85364999D01*
X137669334Y-85309814D01*
X137818656Y-85217712D01*
X137942712Y-85093656D01*
X138034814Y-84944334D01*
X138089999Y-84777797D01*
X138100500Y-84675009D01*
X138100499Y-83324992D01*
X138089999Y-83222203D01*
X138034814Y-83055666D01*
X137942712Y-82906344D01*
X137818656Y-82782288D01*
X137693559Y-82705128D01*
X137669336Y-82690187D01*
X137669331Y-82690185D01*
X137667862Y-82689698D01*
X137502797Y-82635001D01*
X137502795Y-82635000D01*
X137400010Y-82624500D01*
X136599998Y-82624500D01*
X136599980Y-82624501D01*
X136497203Y-82635000D01*
X136497200Y-82635001D01*
X136330668Y-82690185D01*
X136330663Y-82690187D01*
X136181342Y-82782289D01*
X136057287Y-82906344D01*
X136017688Y-82970544D01*
X135965739Y-83017268D01*
X135896777Y-83028489D01*
X135832695Y-83000645D01*
X135824469Y-82993127D01*
X135716930Y-82885588D01*
X135716928Y-82885586D01*
X135576788Y-82783768D01*
X135422445Y-82705127D01*
X135257701Y-82651598D01*
X135257699Y-82651597D01*
X135257698Y-82651597D01*
X135126271Y-82630781D01*
X135086611Y-82624500D01*
X134913389Y-82624500D01*
X134873728Y-82630781D01*
X134742302Y-82651597D01*
X134577552Y-82705128D01*
X134423211Y-82783768D01*
X134343256Y-82841859D01*
X134283072Y-82885586D01*
X134283070Y-82885588D01*
X134283069Y-82885588D01*
X134160588Y-83008069D01*
X134160581Y-83008078D01*
X134100317Y-83091023D01*
X134044987Y-83133689D01*
X133975374Y-83139667D01*
X133913579Y-83107061D01*
X133899683Y-83091023D01*
X133839418Y-83008078D01*
X133839414Y-83008072D01*
X133716928Y-82885586D01*
X133576788Y-82783768D01*
X133422445Y-82705127D01*
X133257701Y-82651598D01*
X133257699Y-82651597D01*
X133257698Y-82651597D01*
X133126271Y-82630781D01*
X133086611Y-82624500D01*
X132913389Y-82624500D01*
X132873728Y-82630781D01*
X132742302Y-82651597D01*
X132577552Y-82705128D01*
X132423211Y-82783768D01*
X132343256Y-82841859D01*
X132283072Y-82885586D01*
X132283070Y-82885588D01*
X132283069Y-82885588D01*
X132160588Y-83008069D01*
X132160588Y-83008070D01*
X132160586Y-83008072D01*
X132160582Y-83008078D01*
X132058768Y-83148211D01*
X131980128Y-83302552D01*
X131926597Y-83467302D01*
X131899500Y-83638389D01*
X121048900Y-83638389D01*
X121048900Y-75504311D01*
X122209900Y-75504311D01*
X122209900Y-75746888D01*
X122241561Y-75987385D01*
X122304347Y-76221704D01*
X122397173Y-76445805D01*
X122397177Y-76445814D01*
X122411723Y-76471009D01*
X122518464Y-76655889D01*
X122518466Y-76655892D01*
X122518467Y-76655893D01*
X122666133Y-76848336D01*
X122666139Y-76848343D01*
X122837656Y-77019860D01*
X122837663Y-77019866D01*
X122904985Y-77071524D01*
X123030111Y-77167536D01*
X123240188Y-77288824D01*
X123464300Y-77381654D01*
X123698611Y-77444438D01*
X123878986Y-77468184D01*
X123939111Y-77476100D01*
X123939112Y-77476100D01*
X124181689Y-77476100D01*
X124229788Y-77469767D01*
X124422189Y-77444438D01*
X124656500Y-77381654D01*
X124880612Y-77288824D01*
X125090689Y-77167536D01*
X125215816Y-77071522D01*
X125280983Y-77046330D01*
X125349427Y-77060368D01*
X125399417Y-77109182D01*
X125415300Y-77169900D01*
X125415300Y-78152741D01*
X125415300Y-78152743D01*
X125415299Y-78152743D01*
X125453747Y-78346029D01*
X125453750Y-78346039D01*
X125529164Y-78528107D01*
X125529171Y-78528120D01*
X125638659Y-78691980D01*
X125638660Y-78691981D01*
X125638661Y-78691982D01*
X125778018Y-78831339D01*
X125778019Y-78831339D01*
X125785086Y-78838406D01*
X125785085Y-78838406D01*
X125785089Y-78838409D01*
X127454415Y-80507737D01*
X127454419Y-80507740D01*
X127618279Y-80617228D01*
X127618288Y-80617233D01*
X127659534Y-80634317D01*
X127800365Y-80692652D01*
X127993655Y-80731100D01*
X127993658Y-80731101D01*
X127993660Y-80731101D01*
X128196855Y-80731101D01*
X128196875Y-80731100D01*
X143263246Y-80731100D01*
X143330285Y-80750785D01*
X143350927Y-80767419D01*
X149672527Y-87089019D01*
X149706012Y-87150342D01*
X149701028Y-87220034D01*
X149659156Y-87275967D01*
X149593692Y-87300384D01*
X149584846Y-87300700D01*
X125994508Y-87300700D01*
X125867212Y-87334808D01*
X125753086Y-87400700D01*
X125753083Y-87400702D01*
X125659902Y-87493883D01*
X125659900Y-87493886D01*
X125594008Y-87608012D01*
X125559900Y-87735308D01*
X125559900Y-109632691D01*
X125594008Y-109759987D01*
X125626954Y-109817050D01*
X125659900Y-109874114D01*
X125753086Y-109967300D01*
X125867214Y-110033192D01*
X125994508Y-110067300D01*
X125994510Y-110067300D01*
X150449890Y-110067300D01*
X150449892Y-110067300D01*
X150577186Y-110033192D01*
X150691314Y-109967300D01*
X150784500Y-109874114D01*
X150850392Y-109759986D01*
X150884500Y-109632692D01*
X150884500Y-99672777D01*
X155262700Y-99672777D01*
X155262700Y-99869622D01*
X155293490Y-100064026D01*
X155354317Y-100251229D01*
X155426835Y-100393553D01*
X155443676Y-100426605D01*
X155559372Y-100585846D01*
X155698554Y-100725028D01*
X155857795Y-100840724D01*
X155940655Y-100882943D01*
X156033170Y-100930082D01*
X156033172Y-100930082D01*
X156033175Y-100930084D01*
X156133517Y-100962687D01*
X156220373Y-100990909D01*
X156414778Y-101021700D01*
X156414783Y-101021700D01*
X156611622Y-101021700D01*
X156806026Y-100990909D01*
X156817466Y-100987192D01*
X156993225Y-100930084D01*
X157168605Y-100840724D01*
X157327846Y-100725028D01*
X157467028Y-100585846D01*
X157582724Y-100426605D01*
X157672084Y-100251225D01*
X157732909Y-100064026D01*
X157763700Y-99869622D01*
X157763700Y-99672777D01*
X160142700Y-99672777D01*
X160142700Y-99869622D01*
X160173490Y-100064026D01*
X160234317Y-100251229D01*
X160306835Y-100393553D01*
X160323676Y-100426605D01*
X160439372Y-100585846D01*
X160578554Y-100725028D01*
X160737795Y-100840724D01*
X160820655Y-100882943D01*
X160913170Y-100930082D01*
X160913172Y-100930082D01*
X160913175Y-100930084D01*
X161013517Y-100962687D01*
X161100373Y-100990909D01*
X161294778Y-101021700D01*
X161294783Y-101021700D01*
X161491622Y-101021700D01*
X161686026Y-100990909D01*
X161697466Y-100987192D01*
X161873225Y-100930084D01*
X162048605Y-100840724D01*
X162207846Y-100725028D01*
X162347028Y-100585846D01*
X162462724Y-100426605D01*
X162552084Y-100251225D01*
X162580150Y-100164846D01*
X174569000Y-100164846D01*
X174569000Y-100393553D01*
X174604778Y-100619446D01*
X174604778Y-100619449D01*
X174675450Y-100836955D01*
X174722901Y-100930082D01*
X174779283Y-101040738D01*
X174913714Y-101225766D01*
X175075434Y-101387486D01*
X175144923Y-101437973D01*
X175159938Y-101448882D01*
X175202603Y-101504213D01*
X175208582Y-101573826D01*
X175175976Y-101635621D01*
X175159938Y-101649518D01*
X175075432Y-101710915D01*
X174913716Y-101872631D01*
X174913716Y-101872632D01*
X174913714Y-101872634D01*
X174855980Y-101952096D01*
X174779283Y-102057661D01*
X174675450Y-102261444D01*
X174604778Y-102478950D01*
X174604778Y-102478953D01*
X174569000Y-102704846D01*
X174569000Y-102933553D01*
X174604778Y-103159446D01*
X174604778Y-103159449D01*
X174675450Y-103376955D01*
X174675452Y-103376958D01*
X174779283Y-103580738D01*
X174913714Y-103765766D01*
X175075434Y-103927486D01*
X175144923Y-103977973D01*
X175159938Y-103988882D01*
X175202603Y-104044213D01*
X175208582Y-104113826D01*
X175175976Y-104175621D01*
X175159938Y-104189518D01*
X175075432Y-104250915D01*
X174913716Y-104412631D01*
X174913716Y-104412632D01*
X174913714Y-104412634D01*
X174855980Y-104492096D01*
X174779283Y-104597661D01*
X174675450Y-104801444D01*
X174604778Y-105018950D01*
X174604778Y-105018953D01*
X174569000Y-105244846D01*
X174569000Y-105473553D01*
X174604778Y-105699446D01*
X174604778Y-105699449D01*
X174675450Y-105916955D01*
X174675452Y-105916958D01*
X174779283Y-106120738D01*
X174913714Y-106305766D01*
X175075434Y-106467486D01*
X175260462Y-106601917D01*
X175464242Y-106705748D01*
X175464244Y-106705749D01*
X175681751Y-106776421D01*
X175681752Y-106776421D01*
X175681755Y-106776422D01*
X175907646Y-106812200D01*
X175907647Y-106812200D01*
X176136353Y-106812200D01*
X176136354Y-106812200D01*
X176362245Y-106776422D01*
X176362248Y-106776421D01*
X176362249Y-106776421D01*
X176579755Y-106705749D01*
X176579755Y-106705748D01*
X176579758Y-106705748D01*
X176783538Y-106601917D01*
X176968566Y-106467486D01*
X177130286Y-106305766D01*
X177191683Y-106221259D01*
X177247012Y-106178596D01*
X177316625Y-106172617D01*
X177378420Y-106205223D01*
X177392314Y-106221256D01*
X177453714Y-106305766D01*
X177615434Y-106467486D01*
X177800462Y-106601917D01*
X178004242Y-106705748D01*
X178004244Y-106705749D01*
X178221751Y-106776421D01*
X178221752Y-106776421D01*
X178221755Y-106776422D01*
X178447646Y-106812200D01*
X178447647Y-106812200D01*
X178676353Y-106812200D01*
X178676354Y-106812200D01*
X178902245Y-106776422D01*
X178902248Y-106776421D01*
X178902249Y-106776421D01*
X179119755Y-106705749D01*
X179119755Y-106705748D01*
X179119758Y-106705748D01*
X179323538Y-106601917D01*
X179508566Y-106467486D01*
X179670286Y-106305766D01*
X179804717Y-106120738D01*
X179908548Y-105916958D01*
X179979222Y-105699445D01*
X180015000Y-105473554D01*
X180015000Y-105244846D01*
X179979222Y-105018955D01*
X179979221Y-105018951D01*
X179979221Y-105018950D01*
X179908549Y-104801444D01*
X179908548Y-104801442D01*
X179804717Y-104597662D01*
X179670286Y-104412634D01*
X179508566Y-104250914D01*
X179424059Y-104189516D01*
X179381396Y-104134188D01*
X179375417Y-104064575D01*
X179408023Y-104002780D01*
X179424056Y-103988885D01*
X179508566Y-103927486D01*
X179670286Y-103765766D01*
X179804717Y-103580738D01*
X179908548Y-103376958D01*
X179979222Y-103159445D01*
X180015000Y-102933554D01*
X180015000Y-102704846D01*
X179979222Y-102478955D01*
X179979221Y-102478951D01*
X179979221Y-102478950D01*
X179908549Y-102261444D01*
X179908548Y-102261442D01*
X179804717Y-102057662D01*
X179670286Y-101872634D01*
X179508566Y-101710914D01*
X179424059Y-101649516D01*
X179381396Y-101594188D01*
X179375417Y-101524575D01*
X179408023Y-101462780D01*
X179424056Y-101448885D01*
X179508566Y-101387486D01*
X179670286Y-101225766D01*
X179804717Y-101040738D01*
X179908548Y-100836958D01*
X179979222Y-100619445D01*
X180015000Y-100393554D01*
X180015000Y-100164846D01*
X179979222Y-99938955D01*
X179979221Y-99938951D01*
X179979221Y-99938950D01*
X179908549Y-99721444D01*
X179883752Y-99672777D01*
X179804717Y-99517662D01*
X179670286Y-99332634D01*
X179508566Y-99170914D01*
X179323538Y-99036483D01*
X179119755Y-98932650D01*
X178902248Y-98861978D01*
X178732826Y-98835144D01*
X178676354Y-98826200D01*
X178447646Y-98826200D01*
X178372349Y-98838126D01*
X178221753Y-98861978D01*
X178221750Y-98861978D01*
X178004244Y-98932650D01*
X177800461Y-99036483D01*
X177694896Y-99113180D01*
X177615434Y-99170914D01*
X177615432Y-99170916D01*
X177615431Y-99170916D01*
X177453715Y-99332632D01*
X177392318Y-99417138D01*
X177336987Y-99459803D01*
X177267374Y-99465782D01*
X177205579Y-99433176D01*
X177191682Y-99417138D01*
X177180773Y-99402123D01*
X177130286Y-99332634D01*
X176968566Y-99170914D01*
X176783538Y-99036483D01*
X176579755Y-98932650D01*
X176362248Y-98861978D01*
X176192826Y-98835144D01*
X176136354Y-98826200D01*
X175907646Y-98826200D01*
X175832349Y-98838126D01*
X175681753Y-98861978D01*
X175681750Y-98861978D01*
X175464244Y-98932650D01*
X175260461Y-99036483D01*
X175154896Y-99113180D01*
X175075434Y-99170914D01*
X175075432Y-99170916D01*
X175075431Y-99170916D01*
X174913716Y-99332631D01*
X174913716Y-99332632D01*
X174913714Y-99332634D01*
X174855980Y-99412096D01*
X174779283Y-99517661D01*
X174675450Y-99721444D01*
X174604778Y-99938950D01*
X174604778Y-99938953D01*
X174569000Y-100164846D01*
X162580150Y-100164846D01*
X162612909Y-100064026D01*
X162643700Y-99869622D01*
X162643700Y-99672777D01*
X162612909Y-99478373D01*
X162552082Y-99291170D01*
X162462723Y-99115794D01*
X162347028Y-98956554D01*
X162207846Y-98817372D01*
X162048605Y-98701676D01*
X161873229Y-98612317D01*
X161686026Y-98551490D01*
X161491622Y-98520700D01*
X161491617Y-98520700D01*
X161294783Y-98520700D01*
X161294778Y-98520700D01*
X161100373Y-98551490D01*
X160913170Y-98612317D01*
X160737794Y-98701676D01*
X160646941Y-98767685D01*
X160578554Y-98817372D01*
X160578552Y-98817374D01*
X160578551Y-98817374D01*
X160439374Y-98956551D01*
X160439374Y-98956552D01*
X160439372Y-98956554D01*
X160389685Y-99024941D01*
X160323676Y-99115794D01*
X160234317Y-99291170D01*
X160173490Y-99478373D01*
X160142700Y-99672777D01*
X157763700Y-99672777D01*
X157732909Y-99478373D01*
X157672082Y-99291170D01*
X157582723Y-99115794D01*
X157467028Y-98956554D01*
X157327846Y-98817372D01*
X157168605Y-98701676D01*
X156993229Y-98612317D01*
X156806026Y-98551490D01*
X156611622Y-98520700D01*
X156611617Y-98520700D01*
X156414783Y-98520700D01*
X156414778Y-98520700D01*
X156220373Y-98551490D01*
X156033170Y-98612317D01*
X155857794Y-98701676D01*
X155766941Y-98767685D01*
X155698554Y-98817372D01*
X155698552Y-98817374D01*
X155698551Y-98817374D01*
X155559374Y-98956551D01*
X155559374Y-98956552D01*
X155559372Y-98956554D01*
X155509685Y-99024941D01*
X155443676Y-99115794D01*
X155354317Y-99291170D01*
X155293490Y-99478373D01*
X155262700Y-99672777D01*
X150884500Y-99672777D01*
X150884500Y-96180741D01*
X150904185Y-96113702D01*
X150956989Y-96067947D01*
X151026147Y-96058003D01*
X151089703Y-96087028D01*
X151111602Y-96111850D01*
X151216460Y-96268781D01*
X151216463Y-96268785D01*
X151355814Y-96408136D01*
X151355818Y-96408139D01*
X151519679Y-96517628D01*
X151519692Y-96517635D01*
X151701760Y-96593049D01*
X151701765Y-96593051D01*
X151701769Y-96593051D01*
X151701770Y-96593052D01*
X151895056Y-96631500D01*
X151895059Y-96631500D01*
X173148742Y-96631500D01*
X173179766Y-96625328D01*
X173245388Y-96612275D01*
X173342036Y-96593051D01*
X173395365Y-96570961D01*
X173524114Y-96517632D01*
X173687982Y-96408139D01*
X173827339Y-96268782D01*
X173827340Y-96268779D01*
X173834406Y-96261714D01*
X173834408Y-96261710D01*
X175947601Y-94148519D01*
X176008924Y-94115034D01*
X176035282Y-94112200D01*
X176136353Y-94112200D01*
X176136354Y-94112200D01*
X176362245Y-94076422D01*
X176362248Y-94076421D01*
X176362249Y-94076421D01*
X176579755Y-94005749D01*
X176579755Y-94005748D01*
X176579758Y-94005748D01*
X176783538Y-93901917D01*
X176968566Y-93767486D01*
X177130286Y-93605766D01*
X177191683Y-93521259D01*
X177247012Y-93478596D01*
X177316625Y-93472617D01*
X177378420Y-93505223D01*
X177392314Y-93521256D01*
X177453714Y-93605766D01*
X177615434Y-93767486D01*
X177800462Y-93901917D01*
X178004242Y-94005748D01*
X178004244Y-94005749D01*
X178221751Y-94076421D01*
X178221752Y-94076421D01*
X178221755Y-94076422D01*
X178447646Y-94112200D01*
X178447647Y-94112200D01*
X178676353Y-94112200D01*
X178676354Y-94112200D01*
X178902245Y-94076422D01*
X178902248Y-94076421D01*
X178902249Y-94076421D01*
X179119755Y-94005749D01*
X179119755Y-94005748D01*
X179119758Y-94005748D01*
X179323538Y-93901917D01*
X179508566Y-93767486D01*
X179670286Y-93605766D01*
X179804717Y-93420738D01*
X179908548Y-93216958D01*
X179924128Y-93169009D01*
X179979221Y-92999449D01*
X179979221Y-92999448D01*
X179979222Y-92999445D01*
X180015000Y-92773554D01*
X180015000Y-92544846D01*
X179979222Y-92318955D01*
X179979221Y-92318951D01*
X179979221Y-92318950D01*
X179908549Y-92101444D01*
X179908548Y-92101442D01*
X179804717Y-91897662D01*
X179670286Y-91712634D01*
X179508566Y-91550914D01*
X179323538Y-91416483D01*
X179119755Y-91312650D01*
X178902248Y-91241978D01*
X178732826Y-91215144D01*
X178676354Y-91206200D01*
X178447646Y-91206200D01*
X178372349Y-91218126D01*
X178221753Y-91241978D01*
X178221750Y-91241978D01*
X178004244Y-91312650D01*
X177800461Y-91416483D01*
X177694896Y-91493180D01*
X177615434Y-91550914D01*
X177615432Y-91550916D01*
X177615431Y-91550916D01*
X177453715Y-91712632D01*
X177392318Y-91797138D01*
X177336987Y-91839803D01*
X177267374Y-91845782D01*
X177205579Y-91813176D01*
X177191682Y-91797138D01*
X177180773Y-91782123D01*
X177130286Y-91712634D01*
X176968566Y-91550914D01*
X176783538Y-91416483D01*
X176579755Y-91312650D01*
X176362248Y-91241978D01*
X176192826Y-91215144D01*
X176136354Y-91206200D01*
X175907646Y-91206200D01*
X175832349Y-91218126D01*
X175681753Y-91241978D01*
X175681750Y-91241978D01*
X175464244Y-91312650D01*
X175260461Y-91416483D01*
X175154896Y-91493180D01*
X175075434Y-91550914D01*
X175075432Y-91550916D01*
X175075431Y-91550916D01*
X174913716Y-91712631D01*
X174913716Y-91712632D01*
X174913714Y-91712634D01*
X174855980Y-91792096D01*
X174779283Y-91897661D01*
X174675450Y-92101444D01*
X174604778Y-92318950D01*
X174604778Y-92318953D01*
X174569000Y-92544846D01*
X174569000Y-92645918D01*
X174549315Y-92712957D01*
X174532681Y-92733599D01*
X172672099Y-94594181D01*
X172610776Y-94627666D01*
X172584418Y-94630500D01*
X156111556Y-94630500D01*
X156044517Y-94610815D01*
X155998762Y-94558011D01*
X155988818Y-94488853D01*
X155991292Y-94476293D01*
X155993510Y-94467458D01*
X156014537Y-94416697D01*
X156045300Y-94262042D01*
X156045300Y-94261270D01*
X156046791Y-94255334D01*
X156063005Y-94227765D01*
X156077823Y-94199439D01*
X156079318Y-94197916D01*
X162308906Y-87968327D01*
X162308911Y-87968324D01*
X162319114Y-87958120D01*
X162319116Y-87958120D01*
X162430920Y-87846316D01*
X162509977Y-87709384D01*
X162550900Y-87556657D01*
X162550900Y-78196918D01*
X162570585Y-78129879D01*
X162618607Y-78086433D01*
X162658215Y-78066252D01*
X162658215Y-78066251D01*
X162658216Y-78066251D01*
X162753210Y-77997234D01*
X162830186Y-77941309D01*
X162830188Y-77941306D01*
X162830192Y-77941304D01*
X162980504Y-77790992D01*
X162980506Y-77790988D01*
X162980509Y-77790986D01*
X163105448Y-77619020D01*
X163105447Y-77619020D01*
X163105451Y-77619016D01*
X163109914Y-77610254D01*
X163157888Y-77559459D01*
X163225708Y-77542663D01*
X163291844Y-77565199D01*
X163330886Y-77610256D01*
X163335351Y-77619020D01*
X163460290Y-77790986D01*
X163610613Y-77941309D01*
X163782579Y-78066248D01*
X163782581Y-78066249D01*
X163782584Y-78066251D01*
X163971988Y-78162757D01*
X164174157Y-78228446D01*
X164384113Y-78261700D01*
X164384114Y-78261700D01*
X164596686Y-78261700D01*
X164596687Y-78261700D01*
X164806643Y-78228446D01*
X165008812Y-78162757D01*
X165198216Y-78066251D01*
X165278900Y-78007631D01*
X165370186Y-77941309D01*
X165370188Y-77941306D01*
X165370192Y-77941304D01*
X165520504Y-77790992D01*
X165520506Y-77790988D01*
X165520509Y-77790986D01*
X165645448Y-77619020D01*
X165645447Y-77619020D01*
X165645451Y-77619016D01*
X165649914Y-77610254D01*
X165697888Y-77559459D01*
X165765708Y-77542663D01*
X165831844Y-77565199D01*
X165870886Y-77610256D01*
X165875351Y-77619020D01*
X166000290Y-77790986D01*
X166150613Y-77941309D01*
X166322579Y-78066248D01*
X166322581Y-78066249D01*
X166322584Y-78066251D01*
X166511988Y-78162757D01*
X166714157Y-78228446D01*
X166924113Y-78261700D01*
X166924114Y-78261700D01*
X167136686Y-78261700D01*
X167136687Y-78261700D01*
X167346643Y-78228446D01*
X167548812Y-78162757D01*
X167738216Y-78066251D01*
X167818900Y-78007631D01*
X167910186Y-77941309D01*
X167910188Y-77941306D01*
X167910192Y-77941304D01*
X168060504Y-77790992D01*
X168060506Y-77790988D01*
X168060509Y-77790986D01*
X168185448Y-77619020D01*
X168185447Y-77619020D01*
X168185451Y-77619016D01*
X168189914Y-77610254D01*
X168237888Y-77559459D01*
X168305708Y-77542663D01*
X168371844Y-77565199D01*
X168410886Y-77610256D01*
X168415351Y-77619020D01*
X168540290Y-77790986D01*
X168690613Y-77941309D01*
X168862579Y-78066248D01*
X168862581Y-78066249D01*
X168862584Y-78066251D01*
X169051988Y-78162757D01*
X169254157Y-78228446D01*
X169464113Y-78261700D01*
X169464114Y-78261700D01*
X169676686Y-78261700D01*
X169676687Y-78261700D01*
X169886643Y-78228446D01*
X170088812Y-78162757D01*
X170278216Y-78066251D01*
X170358900Y-78007631D01*
X170450186Y-77941309D01*
X170450188Y-77941306D01*
X170450192Y-77941304D01*
X170600504Y-77790992D01*
X170600506Y-77790988D01*
X170600509Y-77790986D01*
X170725448Y-77619020D01*
X170725447Y-77619020D01*
X170725451Y-77619016D01*
X170729914Y-77610254D01*
X170777888Y-77559459D01*
X170845708Y-77542663D01*
X170911844Y-77565199D01*
X170950886Y-77610256D01*
X170955351Y-77619020D01*
X171080290Y-77790986D01*
X171230613Y-77941309D01*
X171402579Y-78066248D01*
X171402581Y-78066249D01*
X171402584Y-78066251D01*
X171591988Y-78162757D01*
X171794157Y-78228446D01*
X172004113Y-78261700D01*
X172004114Y-78261700D01*
X172216686Y-78261700D01*
X172216687Y-78261700D01*
X172426643Y-78228446D01*
X172628812Y-78162757D01*
X172818216Y-78066251D01*
X172898900Y-78007631D01*
X172990186Y-77941309D01*
X172990188Y-77941306D01*
X172990192Y-77941304D01*
X173140504Y-77790992D01*
X173140506Y-77790988D01*
X173140509Y-77790986D01*
X173265448Y-77619020D01*
X173265447Y-77619020D01*
X173265451Y-77619016D01*
X173269914Y-77610254D01*
X173317888Y-77559459D01*
X173385708Y-77542663D01*
X173451844Y-77565199D01*
X173490886Y-77610256D01*
X173495351Y-77619020D01*
X173620290Y-77790986D01*
X173770613Y-77941309D01*
X173942579Y-78066248D01*
X173942581Y-78066249D01*
X173942584Y-78066251D01*
X174131988Y-78162757D01*
X174334157Y-78228446D01*
X174544113Y-78261700D01*
X174544114Y-78261700D01*
X174756686Y-78261700D01*
X174756687Y-78261700D01*
X174966643Y-78228446D01*
X175168812Y-78162757D01*
X175358216Y-78066251D01*
X175438900Y-78007631D01*
X175530186Y-77941309D01*
X175530188Y-77941306D01*
X175530192Y-77941304D01*
X175680504Y-77790992D01*
X175680506Y-77790988D01*
X175680509Y-77790986D01*
X175805448Y-77619020D01*
X175805447Y-77619020D01*
X175805451Y-77619016D01*
X175901957Y-77429612D01*
X175967646Y-77227443D01*
X176000900Y-77017487D01*
X176000900Y-76804913D01*
X175967646Y-76594957D01*
X175901957Y-76392788D01*
X175805451Y-76203384D01*
X175805449Y-76203381D01*
X175805448Y-76203379D01*
X175680509Y-76031413D01*
X175530186Y-75881090D01*
X175358220Y-75756151D01*
X175357515Y-75755791D01*
X175349454Y-75751685D01*
X175298659Y-75703712D01*
X175281863Y-75635892D01*
X175304399Y-75569756D01*
X175349454Y-75530715D01*
X175358216Y-75526251D01*
X175388414Y-75504311D01*
X175530186Y-75401309D01*
X175530188Y-75401306D01*
X175530192Y-75401304D01*
X175680504Y-75250992D01*
X175680506Y-75250988D01*
X175680509Y-75250986D01*
X175805448Y-75079020D01*
X175805447Y-75079020D01*
X175805451Y-75079016D01*
X175809914Y-75070254D01*
X175857888Y-75019459D01*
X175925708Y-75002663D01*
X175991844Y-75025199D01*
X176030886Y-75070256D01*
X176035351Y-75079020D01*
X176160290Y-75250986D01*
X176310613Y-75401309D01*
X176482579Y-75526248D01*
X176482581Y-75526249D01*
X176482584Y-75526251D01*
X176671988Y-75622757D01*
X176874157Y-75688446D01*
X177084113Y-75721700D01*
X177084114Y-75721700D01*
X177296686Y-75721700D01*
X177296687Y-75721700D01*
X177506643Y-75688446D01*
X177708812Y-75622757D01*
X177898216Y-75526251D01*
X177928414Y-75504311D01*
X180209900Y-75504311D01*
X180209900Y-75746888D01*
X180241561Y-75987385D01*
X180304347Y-76221704D01*
X180397173Y-76445805D01*
X180397177Y-76445814D01*
X180411723Y-76471009D01*
X180518464Y-76655889D01*
X180518466Y-76655892D01*
X180518467Y-76655893D01*
X180666133Y-76848336D01*
X180666139Y-76848343D01*
X180837656Y-77019860D01*
X180837663Y-77019866D01*
X180904985Y-77071524D01*
X181030111Y-77167536D01*
X181240188Y-77288824D01*
X181464300Y-77381654D01*
X181698611Y-77444438D01*
X181878986Y-77468184D01*
X181939111Y-77476100D01*
X181939112Y-77476100D01*
X182181689Y-77476100D01*
X182229788Y-77469767D01*
X182422189Y-77444438D01*
X182656500Y-77381654D01*
X182880612Y-77288824D01*
X183090689Y-77167536D01*
X183283138Y-77019865D01*
X183454665Y-76848338D01*
X183602336Y-76655889D01*
X183723624Y-76445812D01*
X183816454Y-76221700D01*
X183879238Y-75987389D01*
X183910900Y-75746888D01*
X183910900Y-75504312D01*
X183879238Y-75263811D01*
X183816454Y-75029500D01*
X183814672Y-75025199D01*
X183758511Y-74889614D01*
X183723624Y-74805388D01*
X183602336Y-74595311D01*
X183454665Y-74402862D01*
X183454660Y-74402856D01*
X183283143Y-74231339D01*
X183283136Y-74231333D01*
X183090693Y-74083667D01*
X183090692Y-74083666D01*
X183090689Y-74083664D01*
X182880612Y-73962376D01*
X182880605Y-73962373D01*
X182656504Y-73869547D01*
X182422185Y-73806761D01*
X182181689Y-73775100D01*
X182181688Y-73775100D01*
X181939112Y-73775100D01*
X181939111Y-73775100D01*
X181698614Y-73806761D01*
X181464295Y-73869547D01*
X181240194Y-73962373D01*
X181240185Y-73962377D01*
X181030106Y-74083667D01*
X180837663Y-74231333D01*
X180837656Y-74231339D01*
X180666139Y-74402856D01*
X180666133Y-74402863D01*
X180518467Y-74595306D01*
X180397177Y-74805385D01*
X180397173Y-74805394D01*
X180304347Y-75029495D01*
X180241561Y-75263814D01*
X180209900Y-75504311D01*
X177928414Y-75504311D01*
X177955541Y-75484602D01*
X178070184Y-75401310D01*
X178070185Y-75401308D01*
X178070192Y-75401304D01*
X178220504Y-75250992D01*
X178220506Y-75250988D01*
X178220509Y-75250986D01*
X178345448Y-75079020D01*
X178345447Y-75079020D01*
X178345451Y-75079016D01*
X178441957Y-74889612D01*
X178507646Y-74687443D01*
X178540900Y-74477487D01*
X178540900Y-74264913D01*
X178507646Y-74054957D01*
X178441957Y-73852788D01*
X178345451Y-73663384D01*
X178345449Y-73663381D01*
X178345448Y-73663379D01*
X178220509Y-73491413D01*
X178070186Y-73341090D01*
X177898220Y-73216151D01*
X177708814Y-73119644D01*
X177708813Y-73119643D01*
X177708812Y-73119643D01*
X177506643Y-73053954D01*
X177506641Y-73053953D01*
X177506640Y-73053953D01*
X177345357Y-73028408D01*
X177296687Y-73020700D01*
X177084113Y-73020700D01*
X177035442Y-73028408D01*
X176874160Y-73053953D01*
X176671985Y-73119644D01*
X176482579Y-73216151D01*
X176310613Y-73341090D01*
X176160290Y-73491413D01*
X176035349Y-73663382D01*
X176030884Y-73672146D01*
X175982909Y-73722942D01*
X175915088Y-73739736D01*
X175848953Y-73717198D01*
X175809916Y-73672146D01*
X175805450Y-73663382D01*
X175680509Y-73491413D01*
X175530186Y-73341090D01*
X175358220Y-73216151D01*
X175168814Y-73119644D01*
X175168813Y-73119643D01*
X175168812Y-73119643D01*
X174966643Y-73053954D01*
X174966641Y-73053953D01*
X174966640Y-73053953D01*
X174805357Y-73028408D01*
X174756687Y-73020700D01*
X174544113Y-73020700D01*
X174495442Y-73028408D01*
X174334160Y-73053953D01*
X174131985Y-73119644D01*
X173942579Y-73216151D01*
X173770613Y-73341090D01*
X173620290Y-73491413D01*
X173495349Y-73663382D01*
X173490884Y-73672146D01*
X173442909Y-73722942D01*
X173375088Y-73739736D01*
X173308953Y-73717198D01*
X173269916Y-73672146D01*
X173265450Y-73663382D01*
X173140509Y-73491413D01*
X172990186Y-73341090D01*
X172818220Y-73216151D01*
X172628814Y-73119644D01*
X172628813Y-73119643D01*
X172628812Y-73119643D01*
X172426643Y-73053954D01*
X172426641Y-73053953D01*
X172426640Y-73053953D01*
X172265357Y-73028408D01*
X172216687Y-73020700D01*
X172004113Y-73020700D01*
X171955442Y-73028408D01*
X171794160Y-73053953D01*
X171591985Y-73119644D01*
X171402579Y-73216151D01*
X171230613Y-73341090D01*
X171080290Y-73491413D01*
X170955351Y-73663379D01*
X170858844Y-73852785D01*
X170793153Y-74054960D01*
X170759900Y-74264913D01*
X170759900Y-74477486D01*
X170778561Y-74595311D01*
X170793154Y-74687443D01*
X170851618Y-74867377D01*
X170858844Y-74889614D01*
X170955351Y-75079020D01*
X171080290Y-75250986D01*
X171230613Y-75401309D01*
X171402582Y-75526250D01*
X171411346Y-75530716D01*
X171462142Y-75578691D01*
X171478936Y-75646512D01*
X171456398Y-75712647D01*
X171411346Y-75751684D01*
X171402582Y-75756149D01*
X171230613Y-75881090D01*
X171080290Y-76031413D01*
X170955349Y-76203382D01*
X170950884Y-76212146D01*
X170902909Y-76262942D01*
X170835088Y-76279736D01*
X170768953Y-76257198D01*
X170729916Y-76212146D01*
X170725450Y-76203382D01*
X170600509Y-76031413D01*
X170450186Y-75881090D01*
X170278220Y-75756151D01*
X170088814Y-75659644D01*
X170088813Y-75659643D01*
X170088812Y-75659643D01*
X169886643Y-75593954D01*
X169886641Y-75593953D01*
X169886640Y-75593953D01*
X169725357Y-75568408D01*
X169676687Y-75560700D01*
X169464113Y-75560700D01*
X169415442Y-75568408D01*
X169254160Y-75593953D01*
X169051985Y-75659644D01*
X168862579Y-75756151D01*
X168690613Y-75881090D01*
X168540290Y-76031413D01*
X168415349Y-76203382D01*
X168410884Y-76212146D01*
X168362909Y-76262942D01*
X168295088Y-76279736D01*
X168228953Y-76257198D01*
X168189916Y-76212146D01*
X168185450Y-76203382D01*
X168060509Y-76031413D01*
X167910186Y-75881090D01*
X167738220Y-75756151D01*
X167737515Y-75755791D01*
X167729454Y-75751685D01*
X167678659Y-75703712D01*
X167661863Y-75635892D01*
X167684399Y-75569756D01*
X167729454Y-75530715D01*
X167738216Y-75526251D01*
X167768414Y-75504311D01*
X167910186Y-75401309D01*
X167910188Y-75401306D01*
X167910192Y-75401304D01*
X168060504Y-75250992D01*
X168060506Y-75250988D01*
X168060509Y-75250986D01*
X168185448Y-75079020D01*
X168185447Y-75079020D01*
X168185451Y-75079016D01*
X168281957Y-74889612D01*
X168347646Y-74687443D01*
X168380900Y-74477487D01*
X168380900Y-74264913D01*
X168347646Y-74054957D01*
X168281957Y-73852788D01*
X168185451Y-73663384D01*
X168185449Y-73663381D01*
X168185448Y-73663379D01*
X168060509Y-73491413D01*
X167910186Y-73341090D01*
X167738220Y-73216151D01*
X167548814Y-73119644D01*
X167548813Y-73119643D01*
X167548812Y-73119643D01*
X167346643Y-73053954D01*
X167346641Y-73053953D01*
X167346640Y-73053953D01*
X167185357Y-73028408D01*
X167136687Y-73020700D01*
X166924113Y-73020700D01*
X166875442Y-73028408D01*
X166714160Y-73053953D01*
X166511985Y-73119644D01*
X166322579Y-73216151D01*
X166150613Y-73341090D01*
X166000290Y-73491413D01*
X165875351Y-73663379D01*
X165778844Y-73852785D01*
X165713153Y-74054960D01*
X165679900Y-74264913D01*
X165679900Y-74477486D01*
X165698561Y-74595311D01*
X165713154Y-74687443D01*
X165771618Y-74867377D01*
X165778844Y-74889614D01*
X165875351Y-75079020D01*
X166000290Y-75250986D01*
X166150613Y-75401309D01*
X166322582Y-75526250D01*
X166331346Y-75530716D01*
X166382142Y-75578691D01*
X166398936Y-75646512D01*
X166376398Y-75712647D01*
X166331346Y-75751684D01*
X166322582Y-75756149D01*
X166150613Y-75881090D01*
X166000290Y-76031413D01*
X165875349Y-76203382D01*
X165870884Y-76212146D01*
X165822909Y-76262942D01*
X165755088Y-76279736D01*
X165688953Y-76257198D01*
X165649916Y-76212146D01*
X165645450Y-76203382D01*
X165520509Y-76031413D01*
X165370186Y-75881090D01*
X165198220Y-75756151D01*
X165008814Y-75659644D01*
X165008813Y-75659643D01*
X165008812Y-75659643D01*
X164806643Y-75593954D01*
X164806641Y-75593953D01*
X164806640Y-75593953D01*
X164645357Y-75568408D01*
X164596687Y-75560700D01*
X164384113Y-75560700D01*
X164335442Y-75568408D01*
X164174160Y-75593953D01*
X163971985Y-75659644D01*
X163782579Y-75756151D01*
X163610613Y-75881090D01*
X163460290Y-76031413D01*
X163335349Y-76203382D01*
X163330884Y-76212146D01*
X163282909Y-76262942D01*
X163215088Y-76279736D01*
X163148953Y-76257198D01*
X163109916Y-76212146D01*
X163105450Y-76203382D01*
X162980509Y-76031413D01*
X162830186Y-75881090D01*
X162658220Y-75756151D01*
X162657515Y-75755791D01*
X162649454Y-75751685D01*
X162598659Y-75703712D01*
X162581863Y-75635892D01*
X162604399Y-75569756D01*
X162649454Y-75530715D01*
X162658216Y-75526251D01*
X162688414Y-75504311D01*
X162830186Y-75401309D01*
X162830188Y-75401306D01*
X162830192Y-75401304D01*
X162980504Y-75250992D01*
X162980506Y-75250988D01*
X162980509Y-75250986D01*
X163105448Y-75079020D01*
X163105447Y-75079020D01*
X163105451Y-75079016D01*
X163201957Y-74889612D01*
X163267646Y-74687443D01*
X163300900Y-74477487D01*
X163300900Y-74264913D01*
X163267646Y-74054957D01*
X163201957Y-73852788D01*
X163105451Y-73663384D01*
X163105449Y-73663381D01*
X163105448Y-73663379D01*
X162980509Y-73491413D01*
X162830186Y-73341090D01*
X162658220Y-73216151D01*
X162468814Y-73119644D01*
X162468813Y-73119643D01*
X162468812Y-73119643D01*
X162266643Y-73053954D01*
X162266641Y-73053953D01*
X162266640Y-73053953D01*
X162105357Y-73028408D01*
X162056687Y-73020700D01*
X161844113Y-73020700D01*
X161795442Y-73028408D01*
X161634160Y-73053953D01*
X161431985Y-73119644D01*
X161242579Y-73216151D01*
X161070613Y-73341090D01*
X160920290Y-73491413D01*
X160795349Y-73663382D01*
X160790884Y-73672146D01*
X160742909Y-73722942D01*
X160675088Y-73739736D01*
X160608953Y-73717198D01*
X160569916Y-73672146D01*
X160565450Y-73663382D01*
X160440509Y-73491413D01*
X160290186Y-73341090D01*
X160118220Y-73216151D01*
X159928814Y-73119644D01*
X159928813Y-73119643D01*
X159928812Y-73119643D01*
X159726643Y-73053954D01*
X159726641Y-73053953D01*
X159726640Y-73053953D01*
X159565357Y-73028408D01*
X159516687Y-73020700D01*
X159304113Y-73020700D01*
X159255442Y-73028408D01*
X159094160Y-73053953D01*
X158891985Y-73119644D01*
X158702579Y-73216151D01*
X158530613Y-73341090D01*
X158380290Y-73491413D01*
X158255349Y-73663382D01*
X158250884Y-73672146D01*
X158202909Y-73722942D01*
X158135088Y-73739736D01*
X158068953Y-73717198D01*
X158029916Y-73672146D01*
X158025450Y-73663382D01*
X157900509Y-73491413D01*
X157750186Y-73341090D01*
X157578220Y-73216151D01*
X157388814Y-73119644D01*
X157388813Y-73119643D01*
X157388812Y-73119643D01*
X157186643Y-73053954D01*
X157186641Y-73053953D01*
X157186640Y-73053953D01*
X157025357Y-73028408D01*
X156976687Y-73020700D01*
X156764113Y-73020700D01*
X156715442Y-73028408D01*
X156554160Y-73053953D01*
X156351985Y-73119644D01*
X156162579Y-73216151D01*
X155990613Y-73341090D01*
X155840290Y-73491413D01*
X155715349Y-73663382D01*
X155710884Y-73672146D01*
X155662909Y-73722942D01*
X155595088Y-73739736D01*
X155528953Y-73717198D01*
X155489916Y-73672146D01*
X155485450Y-73663382D01*
X155360509Y-73491413D01*
X155210186Y-73341090D01*
X155038220Y-73216151D01*
X154848814Y-73119644D01*
X154848813Y-73119643D01*
X154848812Y-73119643D01*
X154646643Y-73053954D01*
X154646641Y-73053953D01*
X154646640Y-73053953D01*
X154485357Y-73028408D01*
X154436687Y-73020700D01*
X154224113Y-73020700D01*
X154175442Y-73028408D01*
X154014160Y-73053953D01*
X153811985Y-73119644D01*
X153622579Y-73216151D01*
X153450613Y-73341090D01*
X153300290Y-73491413D01*
X153175351Y-73663379D01*
X153078844Y-73852785D01*
X153013153Y-74054960D01*
X152979900Y-74264913D01*
X152979900Y-74477486D01*
X152998561Y-74595311D01*
X153013154Y-74687443D01*
X153071618Y-74867377D01*
X153078844Y-74889614D01*
X153175351Y-75079020D01*
X153300290Y-75250986D01*
X153450613Y-75401309D01*
X153622582Y-75526250D01*
X153631346Y-75530716D01*
X153682142Y-75578691D01*
X153698936Y-75646512D01*
X153676398Y-75712647D01*
X153631346Y-75751684D01*
X153622582Y-75756149D01*
X153450613Y-75881090D01*
X153300290Y-76031413D01*
X153175349Y-76203382D01*
X153170884Y-76212146D01*
X153122909Y-76262942D01*
X153055088Y-76279736D01*
X152988953Y-76257198D01*
X152949916Y-76212146D01*
X152945450Y-76203382D01*
X152820509Y-76031413D01*
X152670186Y-75881090D01*
X152498220Y-75756151D01*
X152308814Y-75659644D01*
X152308813Y-75659643D01*
X152308812Y-75659643D01*
X152106643Y-75593954D01*
X152106641Y-75593953D01*
X152106640Y-75593953D01*
X151945357Y-75568408D01*
X151896687Y-75560700D01*
X151684113Y-75560700D01*
X151635442Y-75568408D01*
X151474160Y-75593953D01*
X151271985Y-75659644D01*
X151082579Y-75756151D01*
X150910613Y-75881090D01*
X150760290Y-76031413D01*
X150635349Y-76203382D01*
X150630884Y-76212146D01*
X150582909Y-76262942D01*
X150515088Y-76279736D01*
X150448953Y-76257198D01*
X150409916Y-76212146D01*
X150405450Y-76203382D01*
X150280509Y-76031413D01*
X150130186Y-75881090D01*
X149958220Y-75756151D01*
X149957515Y-75755791D01*
X149949454Y-75751685D01*
X149898659Y-75703712D01*
X149881863Y-75635892D01*
X149904399Y-75569756D01*
X149949454Y-75530715D01*
X149958216Y-75526251D01*
X149988414Y-75504311D01*
X150130186Y-75401309D01*
X150130188Y-75401306D01*
X150130192Y-75401304D01*
X150280504Y-75250992D01*
X150280506Y-75250988D01*
X150280509Y-75250986D01*
X150405448Y-75079020D01*
X150405447Y-75079020D01*
X150405451Y-75079016D01*
X150501957Y-74889612D01*
X150567646Y-74687443D01*
X150600900Y-74477487D01*
X150600900Y-74264913D01*
X150567646Y-74054957D01*
X150501957Y-73852788D01*
X150405451Y-73663384D01*
X150405449Y-73663381D01*
X150405448Y-73663379D01*
X150280509Y-73491413D01*
X150130186Y-73341090D01*
X149958220Y-73216151D01*
X149768814Y-73119644D01*
X149768813Y-73119643D01*
X149768812Y-73119643D01*
X149566643Y-73053954D01*
X149566641Y-73053953D01*
X149566640Y-73053953D01*
X149405357Y-73028408D01*
X149356687Y-73020700D01*
X149144113Y-73020700D01*
X149095442Y-73028408D01*
X148934160Y-73053953D01*
X148731985Y-73119644D01*
X148542579Y-73216151D01*
X148370613Y-73341090D01*
X148220290Y-73491413D01*
X148095349Y-73663382D01*
X148090884Y-73672146D01*
X148042909Y-73722942D01*
X147975088Y-73739736D01*
X147908953Y-73717198D01*
X147869916Y-73672146D01*
X147865450Y-73663382D01*
X147740509Y-73491413D01*
X147590186Y-73341090D01*
X147418220Y-73216151D01*
X147228814Y-73119644D01*
X147228813Y-73119643D01*
X147228812Y-73119643D01*
X147026643Y-73053954D01*
X147026641Y-73053953D01*
X147026640Y-73053953D01*
X146865357Y-73028408D01*
X146816687Y-73020700D01*
X146604113Y-73020700D01*
X146555442Y-73028408D01*
X146394160Y-73053953D01*
X146191985Y-73119644D01*
X146002579Y-73216151D01*
X145830613Y-73341090D01*
X145680290Y-73491413D01*
X145555351Y-73663379D01*
X145458844Y-73852785D01*
X145393153Y-74054960D01*
X145359900Y-74264913D01*
X145359900Y-74477486D01*
X145393154Y-74687444D01*
X145393154Y-74687447D01*
X145406891Y-74729723D01*
X145408886Y-74799564D01*
X145376641Y-74855722D01*
X145193993Y-75038370D01*
X145193986Y-75038377D01*
X145190686Y-75041678D01*
X145190684Y-75041680D01*
X145078880Y-75153484D01*
X145051665Y-75200623D01*
X145045868Y-75210663D01*
X145045865Y-75210667D01*
X144999824Y-75290411D01*
X144999823Y-75290412D01*
X144978042Y-75371700D01*
X144958899Y-75443143D01*
X144958899Y-75443145D01*
X144958899Y-75594909D01*
X144939214Y-75661948D01*
X144886410Y-75707703D01*
X144817252Y-75717647D01*
X144778604Y-75705394D01*
X144688814Y-75659644D01*
X144688813Y-75659643D01*
X144688812Y-75659643D01*
X144486643Y-75593954D01*
X144486641Y-75593953D01*
X144486640Y-75593953D01*
X144325357Y-75568408D01*
X144276687Y-75560700D01*
X144064113Y-75560700D01*
X144015442Y-75568408D01*
X143854160Y-75593953D01*
X143651985Y-75659644D01*
X143462579Y-75756151D01*
X143290613Y-75881090D01*
X143140290Y-76031413D01*
X143015349Y-76203382D01*
X143010884Y-76212146D01*
X142962909Y-76262942D01*
X142895088Y-76279736D01*
X142828953Y-76257198D01*
X142789916Y-76212146D01*
X142785450Y-76203382D01*
X142660509Y-76031413D01*
X142510186Y-75881090D01*
X142338220Y-75756151D01*
X142337515Y-75755791D01*
X142329454Y-75751685D01*
X142278659Y-75703712D01*
X142261863Y-75635892D01*
X142284399Y-75569756D01*
X142329454Y-75530715D01*
X142338216Y-75526251D01*
X142368414Y-75504311D01*
X142510186Y-75401309D01*
X142510188Y-75401306D01*
X142510192Y-75401304D01*
X142660504Y-75250992D01*
X142660506Y-75250988D01*
X142660509Y-75250986D01*
X142785448Y-75079020D01*
X142785447Y-75079020D01*
X142785451Y-75079016D01*
X142881957Y-74889612D01*
X142947646Y-74687443D01*
X142980900Y-74477487D01*
X142980900Y-74264913D01*
X142947646Y-74054957D01*
X142881957Y-73852788D01*
X142785451Y-73663384D01*
X142785449Y-73663381D01*
X142785448Y-73663379D01*
X142660509Y-73491413D01*
X142510186Y-73341090D01*
X142338220Y-73216151D01*
X142148814Y-73119644D01*
X142148813Y-73119643D01*
X142148812Y-73119643D01*
X141946643Y-73053954D01*
X141946641Y-73053953D01*
X141946640Y-73053953D01*
X141785357Y-73028408D01*
X141736687Y-73020700D01*
X141524113Y-73020700D01*
X141475442Y-73028408D01*
X141314160Y-73053953D01*
X141111985Y-73119644D01*
X140922579Y-73216151D01*
X140750613Y-73341090D01*
X140600290Y-73491413D01*
X140475349Y-73663382D01*
X140470884Y-73672146D01*
X140422909Y-73722942D01*
X140355088Y-73739736D01*
X140288953Y-73717198D01*
X140249916Y-73672146D01*
X140245450Y-73663382D01*
X140120509Y-73491413D01*
X139970186Y-73341090D01*
X139798220Y-73216151D01*
X139608814Y-73119644D01*
X139608813Y-73119643D01*
X139608812Y-73119643D01*
X139406643Y-73053954D01*
X139406641Y-73053953D01*
X139406640Y-73053953D01*
X139245357Y-73028408D01*
X139196687Y-73020700D01*
X138984113Y-73020700D01*
X138935442Y-73028408D01*
X138774160Y-73053953D01*
X138571985Y-73119644D01*
X138382579Y-73216151D01*
X138210613Y-73341090D01*
X138060290Y-73491413D01*
X137935349Y-73663382D01*
X137930884Y-73672146D01*
X137882909Y-73722942D01*
X137815088Y-73739736D01*
X137748953Y-73717198D01*
X137709916Y-73672146D01*
X137705450Y-73663382D01*
X137580509Y-73491413D01*
X137430186Y-73341090D01*
X137258220Y-73216151D01*
X137068814Y-73119644D01*
X137068813Y-73119643D01*
X137068812Y-73119643D01*
X136866643Y-73053954D01*
X136866641Y-73053953D01*
X136866640Y-73053953D01*
X136705357Y-73028408D01*
X136656687Y-73020700D01*
X136444113Y-73020700D01*
X136395442Y-73028408D01*
X136234160Y-73053953D01*
X136031985Y-73119644D01*
X135842579Y-73216151D01*
X135670613Y-73341090D01*
X135520290Y-73491413D01*
X135395351Y-73663379D01*
X135298844Y-73852785D01*
X135233153Y-74054960D01*
X135199900Y-74264913D01*
X135199900Y-74477486D01*
X135218561Y-74595311D01*
X135233154Y-74687443D01*
X135291618Y-74867377D01*
X135298844Y-74889614D01*
X135395351Y-75079020D01*
X135520290Y-75250986D01*
X135670613Y-75401309D01*
X135842582Y-75526250D01*
X135851346Y-75530716D01*
X135902142Y-75578691D01*
X135918936Y-75646512D01*
X135896398Y-75712647D01*
X135851346Y-75751684D01*
X135842582Y-75756149D01*
X135670613Y-75881090D01*
X135520290Y-76031413D01*
X135395349Y-76203382D01*
X135390884Y-76212146D01*
X135342909Y-76262942D01*
X135275088Y-76279736D01*
X135208953Y-76257198D01*
X135169916Y-76212146D01*
X135165450Y-76203382D01*
X135040509Y-76031413D01*
X134890186Y-75881090D01*
X134718220Y-75756151D01*
X134528814Y-75659644D01*
X134528813Y-75659643D01*
X134528812Y-75659643D01*
X134326643Y-75593954D01*
X134326641Y-75593953D01*
X134326640Y-75593953D01*
X134165357Y-75568408D01*
X134116687Y-75560700D01*
X133904113Y-75560700D01*
X133855442Y-75568408D01*
X133694160Y-75593953D01*
X133491985Y-75659644D01*
X133302579Y-75756151D01*
X133130613Y-75881090D01*
X132980290Y-76031413D01*
X132855349Y-76203382D01*
X132850884Y-76212146D01*
X132802909Y-76262942D01*
X132735088Y-76279736D01*
X132668953Y-76257198D01*
X132629916Y-76212146D01*
X132625450Y-76203382D01*
X132500509Y-76031413D01*
X132350186Y-75881090D01*
X132178220Y-75756151D01*
X132177515Y-75755791D01*
X132169454Y-75751685D01*
X132118659Y-75703712D01*
X132101863Y-75635892D01*
X132124399Y-75569756D01*
X132169454Y-75530715D01*
X132178216Y-75526251D01*
X132208414Y-75504311D01*
X132350186Y-75401309D01*
X132350188Y-75401306D01*
X132350192Y-75401304D01*
X132500504Y-75250992D01*
X132500506Y-75250988D01*
X132500509Y-75250986D01*
X132625448Y-75079020D01*
X132625447Y-75079020D01*
X132625451Y-75079016D01*
X132721957Y-74889612D01*
X132787646Y-74687443D01*
X132820900Y-74477487D01*
X132820900Y-74264913D01*
X132787646Y-74054957D01*
X132721957Y-73852788D01*
X132625451Y-73663384D01*
X132625449Y-73663381D01*
X132625448Y-73663379D01*
X132500509Y-73491413D01*
X132350186Y-73341090D01*
X132178220Y-73216151D01*
X131988814Y-73119644D01*
X131988813Y-73119643D01*
X131988812Y-73119643D01*
X131786643Y-73053954D01*
X131786641Y-73053953D01*
X131786640Y-73053953D01*
X131625357Y-73028408D01*
X131576687Y-73020700D01*
X131364113Y-73020700D01*
X131315442Y-73028408D01*
X131154160Y-73053953D01*
X130951985Y-73119644D01*
X130762579Y-73216151D01*
X130586666Y-73343959D01*
X130586035Y-73343091D01*
X130526981Y-73369559D01*
X130510200Y-73370700D01*
X129890600Y-73370700D01*
X129823561Y-73351015D01*
X129811034Y-73341706D01*
X129638220Y-73216151D01*
X129448814Y-73119644D01*
X129448813Y-73119643D01*
X129448812Y-73119643D01*
X129246643Y-73053954D01*
X129246641Y-73053953D01*
X129246640Y-73053953D01*
X129085357Y-73028408D01*
X129036687Y-73020700D01*
X128824113Y-73020700D01*
X128775442Y-73028408D01*
X128614160Y-73053953D01*
X128411985Y-73119644D01*
X128222579Y-73216151D01*
X128046666Y-73343959D01*
X128046035Y-73343091D01*
X127986981Y-73369559D01*
X127970200Y-73370700D01*
X127561855Y-73370700D01*
X127465212Y-73389924D01*
X127368570Y-73409147D01*
X127368562Y-73409149D01*
X127352970Y-73415608D01*
X127186488Y-73484566D01*
X127186479Y-73484571D01*
X127022619Y-73594059D01*
X126956748Y-73659931D01*
X126883261Y-73733418D01*
X126883258Y-73733421D01*
X125869980Y-74746698D01*
X125808657Y-74780183D01*
X125738965Y-74775199D01*
X125683032Y-74733327D01*
X125674912Y-74721017D01*
X125602336Y-74595311D01*
X125454665Y-74402862D01*
X125454660Y-74402856D01*
X125283143Y-74231339D01*
X125283136Y-74231333D01*
X125090693Y-74083667D01*
X125090692Y-74083666D01*
X125090689Y-74083664D01*
X124880612Y-73962376D01*
X124880605Y-73962373D01*
X124656504Y-73869547D01*
X124422185Y-73806761D01*
X124181689Y-73775100D01*
X124181688Y-73775100D01*
X123939112Y-73775100D01*
X123939111Y-73775100D01*
X123698614Y-73806761D01*
X123464295Y-73869547D01*
X123240194Y-73962373D01*
X123240185Y-73962377D01*
X123030106Y-74083667D01*
X122837663Y-74231333D01*
X122837656Y-74231339D01*
X122666139Y-74402856D01*
X122666133Y-74402863D01*
X122518467Y-74595306D01*
X122397177Y-74805385D01*
X122397173Y-74805394D01*
X122304347Y-75029495D01*
X122241561Y-75263814D01*
X122209900Y-75504311D01*
X121048900Y-75504311D01*
X121048900Y-73886427D01*
X121049216Y-73877581D01*
X121050989Y-73852788D01*
X121063530Y-73677436D01*
X121066046Y-73659938D01*
X121107756Y-73468199D01*
X121112733Y-73451248D01*
X121181311Y-73267385D01*
X121188659Y-73251298D01*
X121260547Y-73119644D01*
X121282691Y-73079089D01*
X121292245Y-73064221D01*
X121409848Y-72907123D01*
X121421420Y-72893769D01*
X121560169Y-72755020D01*
X121573523Y-72743448D01*
X121730621Y-72625845D01*
X121745489Y-72616291D01*
X121917698Y-72522258D01*
X121933785Y-72514911D01*
X122117648Y-72446333D01*
X122134599Y-72441356D01*
X122326338Y-72399646D01*
X122343836Y-72397130D01*
X122543982Y-72382816D01*
X122552828Y-72382500D01*
X122614292Y-72382500D01*
X203482508Y-72382500D01*
X203543972Y-72382500D01*
X203552818Y-72382816D01*
G37*
%TD.AperFunction*%
%TD*%
M02*
