M48
; DRILL file {KiCad 9.0.8} date 2026-04-17T16:11:40+0200
; FORMAT={-:-/ absolute / metric / decimal}
; #@! TF.CreationDate,2026-04-17T16:11:40+02:00
; #@! TF.GenerationSoftware,Kicad,Pcbnew,9.0.8
; #@! TF.FileFunction,Plated,1,2,PTH
FMAT,2
METRIC
; #@! TA.AperFunction,Plated,PTH,ViaDrill
T1C0.300
; #@! TA.AperFunction,Plated,PTH,ComponentDrill
T2C0.750
; #@! TA.AperFunction,Plated,PTH,ComponentDrill
T3C0.800
; #@! TA.AperFunction,Plated,PTH,ComponentDrill
T4C0.950
; #@! TA.AperFunction,Plated,PTH,ComponentDrill
T5C1.000
; #@! TA.AperFunction,Plated,PTH,ComponentDrill
T6C1.300
; #@! TA.AperFunction,Plated,PTH,ComponentDrill
T7C1.500
%
G90
G05
T1
X144.0Y-113.0
X144.857Y-115.025
X145.0Y-114.0
X145.0Y-119.0
X146.0Y-116.926
X146.201Y-78.27
X147.0Y-118.126
X149.0Y-116.0
X151.0Y-110.168
X153.0Y-80.0
X153.268Y-115.133
X154.0Y-100.0
X154.0Y-117.0
X154.0Y-119.0
X155.19Y-111.19
X159.006Y-112.708
X159.007Y-79.993
X162.0Y-113.0
X164.0Y-100.0
T2
X131.0Y-84.0
X131.0Y-116.0
X133.0Y-84.0
X133.0Y-116.0
X133.077Y-124.197
X135.0Y-84.0
X135.0Y-116.0
X135.077Y-124.197
X137.0Y-84.0
X137.0Y-116.0
X137.077Y-124.197
X159.68Y-124.4
X161.68Y-124.4
T3
X156.564Y-96.926
X161.444Y-96.926
T4
X145.927Y-123.139
X148.427Y-123.139
X150.927Y-123.139
T5
X128.93Y-74.371
X128.93Y-76.911
X131.47Y-74.371
X131.47Y-76.911
X134.01Y-74.371
X134.01Y-76.911
X136.55Y-74.371
X136.55Y-76.911
X139.09Y-74.371
X139.09Y-76.911
X141.63Y-74.371
X141.63Y-76.911
X144.17Y-74.371
X144.17Y-76.911
X146.71Y-74.371
X146.71Y-76.911
X149.25Y-74.371
X149.25Y-76.911
X151.79Y-74.371
X151.79Y-76.911
X154.33Y-74.371
X154.33Y-76.911
X156.87Y-74.371
X156.87Y-76.911
X159.41Y-74.371
X159.41Y-76.911
X161.95Y-74.371
X161.95Y-76.911
X164.49Y-74.371
X164.49Y-76.911
X167.03Y-74.371
X167.03Y-76.911
X169.57Y-74.371
X169.57Y-76.911
X172.11Y-74.371
X172.11Y-76.911
X174.65Y-74.371
X174.65Y-76.911
X177.19Y-74.371
X177.19Y-76.911
T6
X171.174Y-123.292
X176.174Y-123.292
T7
X169.0Y-87.0
X169.0Y-113.0
X171.54Y-87.0
X171.54Y-113.0
X180.46Y-87.0
X180.46Y-113.0
X183.0Y-87.0
X183.0Y-113.0
M30
