%TF.GenerationSoftware,KiCad,Pcbnew,9.0.8*%
%TF.CreationDate,2026-04-17T16:11:34+02:00*%
%TF.ProjectId,LARA_hat,4c415241-5f68-4617-942e-6b696361645f,rev?*%
%TF.SameCoordinates,Original*%
%TF.FileFunction,Soldermask,Bot*%
%TF.FilePolarity,Negative*%
%FSLAX46Y46*%
G04 Gerber Fmt 4.6, Leading zero omitted, Abs format (unit mm)*
G04 Created by KiCad (PCBNEW 9.0.8) date 2026-04-17 16:11:34*
%MOMM*%
%LPD*%
G01*
G04 APERTURE LIST*
G04 Aperture macros list*
%AMRoundRect*
0 Rectangle with rounded corners*
0 $1 Rounding radius*
0 $2 $3 $4 $5 $6 $7 $8 $9 X,Y pos of 4 corners*
0 Add a 4 corners polygon primitive as box body*
4,1,4,$2,$3,$4,$5,$6,$7,$8,$9,$2,$3,0*
0 Add four circle primitives for the rounded corners*
1,1,$1+$1,$2,$3*
1,1,$1+$1,$4,$5*
1,1,$1+$1,$6,$7*
1,1,$1+$1,$8,$9*
0 Add four rect primitives between the rounded corners*
20,1,$1+$1,$2,$3,$4,$5,0*
20,1,$1+$1,$4,$5,$6,$7,0*
20,1,$1+$1,$6,$7,$8,$9,0*
20,1,$1+$1,$8,$9,$2,$3,0*%
G04 Aperture macros list end*
%ADD10RoundRect,0.250000X-0.600000X-0.725000X0.600000X-0.725000X0.600000X0.725000X-0.600000X0.725000X0*%
%ADD11O,1.700000X1.950000*%
%ADD12RoundRect,0.250000X0.350000X0.625000X-0.350000X0.625000X-0.350000X-0.625000X0.350000X-0.625000X0*%
%ADD13O,1.200000X1.750000*%
%ADD14R,1.700000X1.700000*%
%ADD15C,1.700000*%
%ADD16C,3.000000*%
%ADD17C,1.500000*%
%ADD18RoundRect,0.250001X-1.149999X-1.149999X1.149999X-1.149999X1.149999X1.149999X-1.149999X1.149999X0*%
%ADD19C,2.800000*%
G04 APERTURE END LIST*
D10*
%TO.C,J3*%
X145926800Y-123139200D03*
D11*
X148426800Y-123139200D03*
X150926800Y-123139200D03*
%TD*%
D12*
%TO.C,J6*%
X137000000Y-84000000D03*
D13*
X135000000Y-84000000D03*
X133000000Y-84000000D03*
X131000000Y-84000000D03*
%TD*%
D14*
%TO.C,J1*%
X128930400Y-76911200D03*
D15*
X128930400Y-74371200D03*
X131470400Y-76911200D03*
X131470400Y-74371200D03*
X134010400Y-76911200D03*
X134010400Y-74371200D03*
X136550400Y-76911200D03*
X136550400Y-74371200D03*
X139090400Y-76911200D03*
X139090400Y-74371200D03*
X141630400Y-76911200D03*
X141630400Y-74371200D03*
X144170400Y-76911200D03*
X144170400Y-74371200D03*
X146710400Y-76911200D03*
X146710400Y-74371200D03*
X149250400Y-76911200D03*
X149250400Y-74371200D03*
X151790400Y-76911200D03*
X151790400Y-74371200D03*
X154330400Y-76911200D03*
X154330400Y-74371200D03*
X156870400Y-76911200D03*
X156870400Y-74371200D03*
X159410400Y-76911200D03*
X159410400Y-74371200D03*
X161950400Y-76911200D03*
X161950400Y-74371200D03*
X164490400Y-76911200D03*
X164490400Y-74371200D03*
X167030400Y-76911200D03*
X167030400Y-74371200D03*
X169570400Y-76911200D03*
X169570400Y-74371200D03*
X172110400Y-76911200D03*
X172110400Y-74371200D03*
X174650400Y-76911200D03*
X174650400Y-74371200D03*
X177190400Y-76911200D03*
X177190400Y-74371200D03*
%TD*%
D12*
%TO.C,J7*%
X137000000Y-116000000D03*
D13*
X135000000Y-116000000D03*
X133000000Y-116000000D03*
X131000000Y-116000000D03*
%TD*%
D12*
%TO.C,J2*%
X137077200Y-124197200D03*
D13*
X135077200Y-124197200D03*
X133077200Y-124197200D03*
%TD*%
D16*
%TO.C,U4*%
X169000000Y-113000000D03*
X171540000Y-113000000D03*
X180460000Y-113000000D03*
X183000000Y-113000000D03*
X180460000Y-87000000D03*
X183000000Y-87000000D03*
X169000000Y-87000000D03*
X171540000Y-87000000D03*
%TD*%
D17*
%TO.C,Y1*%
X156564000Y-96926400D03*
X161444000Y-96926400D03*
%TD*%
D18*
%TO.C,J5*%
X171174400Y-123291600D03*
D19*
X176174400Y-123291600D03*
%TD*%
D12*
%TO.C,J4*%
X161680400Y-124400400D03*
D13*
X159680400Y-124400400D03*
%TD*%
M02*
