%TF.GenerationSoftware,KiCad,Pcbnew,9.0.8*%
%TF.CreationDate,2026-04-17T16:11:34+02:00*%
%TF.ProjectId,LARA_hat,4c415241-5f68-4617-942e-6b696361645f,rev?*%
%TF.SameCoordinates,Original*%
%TF.FileFunction,Copper,L1,Top*%
%TF.FilePolarity,Positive*%
%FSLAX46Y46*%
G04 Gerber Fmt 4.6, Leading zero omitted, Abs format (unit mm)*
G04 Created by KiCad (PCBNEW 9.0.8) date 2026-04-17 16:11:34*
%MOMM*%
%LPD*%
G01*
G04 APERTURE LIST*
G04 Aperture macros list*
%AMRoundRect*
0 Rectangle with rounded corners*
0 $1 Rounding radius*
0 $2 $3 $4 $5 $6 $7 $8 $9 X,Y pos of 4 corners*
0 Add a 4 corners polygon primitive as box body*
4,1,4,$2,$3,$4,$5,$6,$7,$8,$9,$2,$3,0*
0 Add four circle primitives for the rounded corners*
1,1,$1+$1,$2,$3*
1,1,$1+$1,$4,$5*
1,1,$1+$1,$6,$7*
1,1,$1+$1,$8,$9*
0 Add four rect primitives between the rounded corners*
20,1,$1+$1,$2,$3,$4,$5,0*
20,1,$1+$1,$4,$5,$6,$7,0*
20,1,$1+$1,$6,$7,$8,$9,0*
20,1,$1+$1,$8,$9,$2,$3,0*%
G04 Aperture macros list end*
%TA.AperFunction,SMDPad,CuDef*%
%ADD10RoundRect,0.250000X0.337500X0.475000X-0.337500X0.475000X-0.337500X-0.475000X0.337500X-0.475000X0*%
%TD*%
%TA.AperFunction,SMDPad,CuDef*%
%ADD11RoundRect,0.250000X0.450000X-0.325000X0.450000X0.325000X-0.450000X0.325000X-0.450000X-0.325000X0*%
%TD*%
%TA.AperFunction,ComponentPad*%
%ADD12RoundRect,0.250000X-0.600000X-0.725000X0.600000X-0.725000X0.600000X0.725000X-0.600000X0.725000X0*%
%TD*%
%TA.AperFunction,ComponentPad*%
%ADD13O,1.700000X1.950000*%
%TD*%
%TA.AperFunction,SMDPad,CuDef*%
%ADD14RoundRect,0.250000X-0.325000X-0.450000X0.325000X-0.450000X0.325000X0.450000X-0.325000X0.450000X0*%
%TD*%
%TA.AperFunction,SMDPad,CuDef*%
%ADD15RoundRect,0.250000X-0.337500X-0.475000X0.337500X-0.475000X0.337500X0.475000X-0.337500X0.475000X0*%
%TD*%
%TA.AperFunction,ComponentPad*%
%ADD16RoundRect,0.250000X0.350000X0.625000X-0.350000X0.625000X-0.350000X-0.625000X0.350000X-0.625000X0*%
%TD*%
%TA.AperFunction,ComponentPad*%
%ADD17O,1.200000X1.750000*%
%TD*%
%TA.AperFunction,SMDPad,CuDef*%
%ADD18RoundRect,0.150000X-0.150000X0.825000X-0.150000X-0.825000X0.150000X-0.825000X0.150000X0.825000X0*%
%TD*%
%TA.AperFunction,ComponentPad*%
%ADD19R,1.700000X1.700000*%
%TD*%
%TA.AperFunction,ComponentPad*%
%ADD20C,1.700000*%
%TD*%
%TA.AperFunction,SMDPad,CuDef*%
%ADD21RoundRect,0.250000X0.350000X0.450000X-0.350000X0.450000X-0.350000X-0.450000X0.350000X-0.450000X0*%
%TD*%
%TA.AperFunction,ComponentPad*%
%ADD22C,3.000000*%
%TD*%
%TA.AperFunction,SMDPad,CuDef*%
%ADD23RoundRect,0.250000X-0.350000X-0.450000X0.350000X-0.450000X0.350000X0.450000X-0.350000X0.450000X0*%
%TD*%
%TA.AperFunction,SMDPad,CuDef*%
%ADD24RoundRect,0.250000X-0.450000X0.350000X-0.450000X-0.350000X0.450000X-0.350000X0.450000X0.350000X0*%
%TD*%
%TA.AperFunction,ComponentPad*%
%ADD25C,1.500000*%
%TD*%
%TA.AperFunction,ComponentPad*%
%ADD26RoundRect,0.250001X-1.149999X-1.149999X1.149999X-1.149999X1.149999X1.149999X-1.149999X1.149999X0*%
%TD*%
%TA.AperFunction,ComponentPad*%
%ADD27C,2.800000*%
%TD*%
%TA.AperFunction,SMDPad,CuDef*%
%ADD28RoundRect,0.125000X-0.687500X-0.125000X0.687500X-0.125000X0.687500X0.125000X-0.687500X0.125000X0*%
%TD*%
%TA.AperFunction,SMDPad,CuDef*%
%ADD29RoundRect,0.150000X-0.875000X-0.150000X0.875000X-0.150000X0.875000X0.150000X-0.875000X0.150000X0*%
%TD*%
%TA.AperFunction,ViaPad*%
%ADD30C,0.600000*%
%TD*%
%TA.AperFunction,Conductor*%
%ADD31C,0.200000*%
%TD*%
%TA.AperFunction,Conductor*%
%ADD32C,1.000000*%
%TD*%
G04 APERTURE END LIST*
D10*
%TO.P,C4,1*%
%TO.N,+3V3*%
X147125900Y-112758600D03*
%TO.P,C4,2*%
%TO.N,GND*%
X145050900Y-112758600D03*
%TD*%
D11*
%TO.P,D5,1,K*%
%TO.N,Net-(D5-K)*%
X149000000Y-82025000D03*
%TO.P,D5,2,A*%
%TO.N,Net-(D5-A)*%
X149000000Y-79975000D03*
%TD*%
D12*
%TO.P,J3,1,Pin_1*%
%TO.N,GND*%
X145926800Y-123139200D03*
D13*
%TO.P,J3,2,Pin_2*%
%TO.N,+12V*%
X148426800Y-123139200D03*
%TO.P,J3,3,Pin_3*%
%TO.N,Net-(J3-Pin_3)*%
X150926800Y-123139200D03*
%TD*%
D14*
%TO.P,D1,1,K*%
%TO.N,Net-(D1-K)*%
X161687400Y-107035600D03*
%TO.P,D1,2,A*%
%TO.N,Net-(D1-A)*%
X163737400Y-107035600D03*
%TD*%
D15*
%TO.P,C2,1*%
%TO.N,GND*%
X154359700Y-101092000D03*
%TO.P,C2,2*%
%TO.N,Net-(U1-OSC1)*%
X156434700Y-101092000D03*
%TD*%
D16*
%TO.P,J6,1,Pin_1*%
%TO.N,Net-(D3-A)*%
X137000000Y-84000000D03*
D17*
%TO.P,J6,2,Pin_2*%
%TO.N,Net-(D4-A)*%
X135000000Y-84000000D03*
%TO.P,J6,3,Pin_3*%
%TO.N,Net-(D5-A)*%
X133000000Y-84000000D03*
%TO.P,J6,4,Pin_4*%
%TO.N,GND*%
X131000000Y-84000000D03*
%TD*%
D18*
%TO.P,U2,1,D*%
%TO.N,Net-(D1-A)*%
X161671000Y-110337600D03*
%TO.P,U2,2,GND*%
%TO.N,GND*%
X160401000Y-110337600D03*
%TO.P,U2,3,VCC*%
%TO.N,+3V3*%
X159131000Y-110337600D03*
%TO.P,U2,4,R*%
%TO.N,Net-(D2-A)*%
X157861000Y-110337600D03*
%TO.P,U2,5,Vref*%
%TO.N,unconnected-(U2-Vref-Pad5)*%
X157861000Y-115287600D03*
%TO.P,U2,6,CANL*%
%TO.N,Net-(J4-Pin_2)*%
X159131000Y-115287600D03*
%TO.P,U2,7,CANH*%
%TO.N,Net-(J4-Pin_1)*%
X160401000Y-115287600D03*
%TO.P,U2,8,Rs*%
%TO.N,GND*%
X161671000Y-115287600D03*
%TD*%
D19*
%TO.P,J1,1,3V3*%
%TO.N,+3V3*%
X128930400Y-76911200D03*
D20*
%TO.P,J1,2,5V*%
%TO.N,+5V*%
X128930400Y-74371200D03*
%TO.P,J1,3,SDA_I2C1/GPIO02*%
%TO.N,Net-(J1-SDA_I2C1{slash}GPIO02)*%
X131470400Y-76911200D03*
%TO.P,J1,4,5V*%
%TO.N,+5V*%
X131470400Y-74371200D03*
%TO.P,J1,5,SCL_I2C1/GPIO03*%
%TO.N,Net-(J1-SCL_I2C1{slash}GPIO03)*%
X134010400Y-76911200D03*
%TO.P,J1,6,GND*%
%TO.N,GND*%
X134010400Y-74371200D03*
%TO.P,J1,7,GPCLK0/GPIO04*%
%TO.N,Net-(J1-GPCLK0{slash}GPIO04)*%
X136550400Y-76911200D03*
%TO.P,J1,8,GPIO14/UART_TXD*%
%TO.N,Net-(J1-GPIO14{slash}UART_TXD)*%
X136550400Y-74371200D03*
%TO.P,J1,9,GND*%
%TO.N,GND*%
X139090400Y-76911200D03*
%TO.P,J1,10,GPIO15/UART_RXD*%
%TO.N,Net-(J1-GPIO15{slash}UART_RXD)*%
X139090400Y-74371200D03*
%TO.P,J1,11,GPIO17/SPI1_~{CE1}*%
%TO.N,unconnected-(J1-GPIO17{slash}SPI1_~{CE1}-Pad11)*%
X141630400Y-76911200D03*
%TO.P,J1,12,GPIO18/SPI1_~{CE0}/PCM_CLK/PWM0*%
%TO.N,unconnected-(J1-GPIO18{slash}SPI1_~{CE0}{slash}PCM_CLK{slash}PWM0-Pad12)*%
X141630400Y-74371200D03*
%TO.P,J1,13,GPIO27/SDIO_DAT3*%
%TO.N,Net-(J1-GPIO27{slash}SDIO_DAT3)*%
X144170400Y-76911200D03*
%TO.P,J1,14,GND*%
%TO.N,GND*%
X144170400Y-74371200D03*
%TO.P,J1,15,GPIO22/SDIO_CLK*%
%TO.N,Net-(D3-A)*%
X146710400Y-76911200D03*
%TO.P,J1,16,GPIO23/SDIO_CMD*%
%TO.N,Net-(D4-A)*%
X146710400Y-74371200D03*
%TO.P,J1,17,3V3*%
%TO.N,+3V3*%
X149250400Y-76911200D03*
%TO.P,J1,18,GPIO24/SDIO_DAT0*%
%TO.N,Net-(D5-A)*%
X149250400Y-74371200D03*
%TO.P,J1,19,MOSI_SPI0/GPIO10*%
%TO.N,Net-(J1-MOSI_SPI0{slash}GPIO10)*%
X151790400Y-76911200D03*
%TO.P,J1,20,GND*%
%TO.N,GND*%
X151790400Y-74371200D03*
%TO.P,J1,21,MISO_SPI0/GPIO09*%
%TO.N,Net-(J1-MISO_SPI0{slash}GPIO09)*%
X154330400Y-76911200D03*
%TO.P,J1,22,GPIO25/SDIO_DAT1*%
%TO.N,Net-(J1-GPIO25{slash}SDIO_DAT1)*%
X154330400Y-74371200D03*
%TO.P,J1,23,SCLK_SPI0/GPIO11*%
%TO.N,Net-(J1-SCLK_SPI0{slash}GPIO11)*%
X156870400Y-76911200D03*
%TO.P,J1,24,~{CE0}_SPI0/GPIO08*%
%TO.N,Net-(J1-~{CE0}_SPI0{slash}GPIO08)*%
X156870400Y-74371200D03*
%TO.P,J1,25,GND*%
%TO.N,GND*%
X159410400Y-76911200D03*
%TO.P,J1,26,~{CE1}_SPI0/GPIO07*%
%TO.N,unconnected-(J1-~{CE1}_SPI0{slash}GPIO07-Pad26)*%
X159410400Y-74371200D03*
%TO.P,J1,27,ID_SD_I2C0/GPIO00*%
%TO.N,unconnected-(J1-ID_SD_I2C0{slash}GPIO00-Pad27)*%
X161950400Y-76911200D03*
%TO.P,J1,28,ID_SC_I2C0/GPIO01*%
%TO.N,unconnected-(J1-ID_SC_I2C0{slash}GPIO01-Pad28)*%
X161950400Y-74371200D03*
%TO.P,J1,29,GPCLK1/GPIO05*%
%TO.N,Net-(J1-GPCLK1{slash}GPIO05)*%
X164490400Y-76911200D03*
%TO.P,J1,30,GND*%
%TO.N,GND*%
X164490400Y-74371200D03*
%TO.P,J1,31,GPCLK2/GPIO06*%
%TO.N,unconnected-(J1-GPCLK2{slash}GPIO06-Pad31)*%
X167030400Y-76911200D03*
%TO.P,J1,32,GPIO12/PWM0*%
%TO.N,unconnected-(J1-GPIO12{slash}PWM0-Pad32)*%
X167030400Y-74371200D03*
%TO.P,J1,33,GPIO13/PWM1*%
%TO.N,unconnected-(J1-GPIO13{slash}PWM1-Pad33)*%
X169570400Y-76911200D03*
%TO.P,J1,34,GND*%
%TO.N,GND*%
X169570400Y-74371200D03*
%TO.P,J1,35,GPIO19/SPI1_MISO/PCM_FS*%
%TO.N,unconnected-(J1-GPIO19{slash}SPI1_MISO{slash}PCM_FS-Pad35)*%
X172110400Y-76911200D03*
%TO.P,J1,36,GPIO16/SPI1_~{CE2}*%
%TO.N,unconnected-(J1-GPIO16{slash}SPI1_~{CE2}-Pad36)*%
X172110400Y-74371200D03*
%TO.P,J1,37,GPIO26/SDIO_DAT2*%
%TO.N,unconnected-(J1-GPIO26{slash}SDIO_DAT2-Pad37)*%
X174650400Y-76911200D03*
%TO.P,J1,38,GPIO20/SPI1_MOSI/PCM_DIN/PWM1*%
%TO.N,unconnected-(J1-GPIO20{slash}SPI1_MOSI{slash}PCM_DIN{slash}PWM1-Pad38)*%
X174650400Y-74371200D03*
%TO.P,J1,39,GND*%
%TO.N,GND*%
X177190400Y-76911200D03*
%TO.P,J1,40,GPIO21/SPI1_SCLK/PCM_DOUT*%
%TO.N,unconnected-(J1-GPIO21{slash}SPI1_SCLK{slash}PCM_DOUT-Pad40)*%
X177190400Y-74371200D03*
%TD*%
D16*
%TO.P,J7,1,Pin_1*%
%TO.N,+3V3*%
X137000000Y-116000000D03*
D17*
%TO.P,J7,2,Pin_2*%
%TO.N,GND*%
X135000000Y-116000000D03*
%TO.P,J7,3,Pin_3*%
%TO.N,Net-(J1-SDA_I2C1{slash}GPIO02)*%
X133000000Y-116000000D03*
%TO.P,J7,4,Pin_4*%
%TO.N,Net-(J1-SCL_I2C1{slash}GPIO03)*%
X131000000Y-116000000D03*
%TD*%
D21*
%TO.P,R5,1*%
%TO.N,Net-(J4-Pin_1)*%
X161544000Y-118567200D03*
%TO.P,R5,2*%
%TO.N,Net-(J4-Pin_2)*%
X159544000Y-118567200D03*
%TD*%
D16*
%TO.P,J2,1,Pin_1*%
%TO.N,Net-(J1-GPIO14{slash}UART_TXD)*%
X137077200Y-124197200D03*
D17*
%TO.P,J2,2,Pin_2*%
%TO.N,Net-(J1-GPIO15{slash}UART_RXD)*%
X135077200Y-124197200D03*
%TO.P,J2,3,Pin_3*%
%TO.N,GND*%
X133077200Y-124197200D03*
%TD*%
D15*
%TO.P,C3,1*%
%TO.N,+3V3*%
X152823300Y-112707800D03*
%TO.P,C3,2*%
%TO.N,GND*%
X154898300Y-112707800D03*
%TD*%
D22*
%TO.P,U4,1,12V_in*%
%TO.N,+12V*%
X169000000Y-113000000D03*
X171540000Y-113000000D03*
%TO.P,U4,2,GND_in*%
%TO.N,GND*%
X180460000Y-113000000D03*
X183000000Y-113000000D03*
%TO.P,U4,3,GND_out*%
X180460000Y-87000000D03*
X183000000Y-87000000D03*
%TO.P,U4,4,5V_out*%
%TO.N,+5V*%
X169000000Y-87000000D03*
X171540000Y-87000000D03*
%TD*%
D23*
%TO.P,R2,1*%
%TO.N,Net-(J3-Pin_3)*%
X154232400Y-119972200D03*
%TO.P,R2,2*%
%TO.N,+3V3*%
X156232400Y-119972200D03*
%TD*%
D24*
%TO.P,R1,1*%
%TO.N,+3V3*%
X166000000Y-80000000D03*
%TO.P,R1,2*%
%TO.N,Net-(U1-~{RESET})*%
X166000000Y-82000000D03*
%TD*%
D21*
%TO.P,R3,1*%
%TO.N,+3V3*%
X151926800Y-119972200D03*
%TO.P,R3,2*%
%TO.N,Net-(J1-GPCLK1{slash}GPIO05)*%
X149926800Y-119972200D03*
%TD*%
D25*
%TO.P,Y1,1,1*%
%TO.N,Net-(U1-OSC1)*%
X156564000Y-96926400D03*
%TO.P,Y1,2,2*%
%TO.N,Net-(U1-OSC2)*%
X161444000Y-96926400D03*
%TD*%
D26*
%TO.P,J5,1,Pin_1*%
%TO.N,+12V*%
X171174400Y-123291600D03*
D27*
%TO.P,J5,2,Pin_2*%
%TO.N,GND*%
X176174400Y-123291600D03*
%TD*%
D14*
%TO.P,D2,1,K*%
%TO.N,Net-(D2-K)*%
X161544000Y-104038400D03*
%TO.P,D2,2,A*%
%TO.N,Net-(D2-A)*%
X163594000Y-104038400D03*
%TD*%
D24*
%TO.P,R10,1*%
%TO.N,Net-(D5-K)*%
X149000000Y-84000000D03*
%TO.P,R10,2*%
%TO.N,GND*%
X149000000Y-86000000D03*
%TD*%
D28*
%TO.P,U3,1*%
%TO.N,Net-(J1-GPIO27{slash}SDIO_DAT3)*%
X147887500Y-115025000D03*
%TO.P,U3,2*%
%TO.N,Net-(J3-Pin_3)*%
X147887500Y-115675000D03*
%TO.P,U3,3*%
X147887500Y-116325000D03*
%TO.P,U3,4,GND*%
%TO.N,GND*%
X147887500Y-116975000D03*
%TO.P,U3,5*%
%TO.N,Net-(J1-GPCLK0{slash}GPIO04)*%
X152112500Y-116975000D03*
%TO.P,U3,6*%
%TO.N,Net-(J1-GPCLK1{slash}GPIO05)*%
X152112500Y-116325000D03*
%TO.P,U3,7*%
%TO.N,Net-(J1-GPIO27{slash}SDIO_DAT3)*%
X152112500Y-115675000D03*
%TO.P,U3,8,VCC*%
%TO.N,+3V3*%
X152112500Y-115025000D03*
%TD*%
D11*
%TO.P,D3,1,K*%
%TO.N,Net-(D3-K)*%
X143000000Y-82025000D03*
%TO.P,D3,2,A*%
%TO.N,Net-(D3-A)*%
X143000000Y-79975000D03*
%TD*%
D24*
%TO.P,R9,1*%
%TO.N,Net-(D4-K)*%
X146000000Y-84000000D03*
%TO.P,R9,2*%
%TO.N,GND*%
X146000000Y-86000000D03*
%TD*%
D23*
%TO.P,R4,1*%
%TO.N,Net-(J1-GPIO27{slash}SDIO_DAT3)*%
X145100800Y-119989600D03*
%TO.P,R4,2*%
%TO.N,GND*%
X147100800Y-119989600D03*
%TD*%
D29*
%TO.P,U1,1,TXCAN*%
%TO.N,Net-(D1-A)*%
X154350000Y-81920000D03*
%TO.P,U1,2,RXCAN*%
%TO.N,Net-(D2-A)*%
X154350000Y-83190000D03*
%TO.P,U1,3,CLKOUT/SOF*%
%TO.N,unconnected-(U1-CLKOUT{slash}SOF-Pad3)*%
X154350000Y-84460000D03*
%TO.P,U1,4,~{TX0RTS}*%
%TO.N,unconnected-(U1-~{TX0RTS}-Pad4)*%
X154350000Y-85730000D03*
%TO.P,U1,5,~{TX1RTS}*%
%TO.N,unconnected-(U1-~{TX1RTS}-Pad5)*%
X154350000Y-87000000D03*
%TO.P,U1,6,~{TX2RTS}*%
%TO.N,unconnected-(U1-~{TX2RTS}-Pad6)*%
X154350000Y-88270000D03*
%TO.P,U1,7,OSC2*%
%TO.N,Net-(U1-OSC2)*%
X154350000Y-89540000D03*
%TO.P,U1,8,OSC1*%
%TO.N,Net-(U1-OSC1)*%
X154350000Y-90810000D03*
%TO.P,U1,9,VSS*%
%TO.N,GND*%
X154350000Y-92080000D03*
%TO.P,U1,10,~{RX1BF}*%
%TO.N,unconnected-(U1-~{RX1BF}-Pad10)*%
X163650000Y-92080000D03*
%TO.P,U1,11,~{RX0BF}*%
%TO.N,unconnected-(U1-~{RX0BF}-Pad11)*%
X163650000Y-90810000D03*
%TO.P,U1,12,~{INT}*%
%TO.N,Net-(J1-GPIO25{slash}SDIO_DAT1)*%
X163650000Y-89540000D03*
%TO.P,U1,13,SCK*%
%TO.N,Net-(J1-SCLK_SPI0{slash}GPIO11)*%
X163650000Y-88270000D03*
%TO.P,U1,14,SI*%
%TO.N,Net-(J1-MOSI_SPI0{slash}GPIO10)*%
X163650000Y-87000000D03*
%TO.P,U1,15,SO*%
%TO.N,Net-(J1-MISO_SPI0{slash}GPIO09)*%
X163650000Y-85730000D03*
%TO.P,U1,16,~{CS}*%
%TO.N,Net-(J1-~{CE0}_SPI0{slash}GPIO08)*%
X163650000Y-84460000D03*
%TO.P,U1,17,~{RESET}*%
%TO.N,Net-(U1-~{RESET})*%
X163650000Y-83190000D03*
%TO.P,U1,18,VDD*%
%TO.N,+3V3*%
X163650000Y-81920000D03*
%TD*%
D21*
%TO.P,R7,1*%
%TO.N,Net-(D2-K)*%
X156346400Y-103987600D03*
%TO.P,R7,2*%
%TO.N,GND*%
X154346400Y-103987600D03*
%TD*%
D10*
%TO.P,C1,1*%
%TO.N,GND*%
X163749900Y-101142800D03*
%TO.P,C1,2*%
%TO.N,Net-(U1-OSC2)*%
X161674900Y-101142800D03*
%TD*%
D11*
%TO.P,D4,1,K*%
%TO.N,Net-(D4-K)*%
X146000000Y-82025000D03*
%TO.P,D4,2,A*%
%TO.N,Net-(D4-A)*%
X146000000Y-79975000D03*
%TD*%
D16*
%TO.P,J4,1,Pin_1*%
%TO.N,Net-(J4-Pin_1)*%
X161680400Y-124400400D03*
D17*
%TO.P,J4,2,Pin_2*%
%TO.N,Net-(J4-Pin_2)*%
X159680400Y-124400400D03*
%TD*%
D21*
%TO.P,R6,1*%
%TO.N,Net-(D1-K)*%
X156346400Y-106934000D03*
%TO.P,R6,2*%
%TO.N,GND*%
X154346400Y-106934000D03*
%TD*%
D24*
%TO.P,R8,1*%
%TO.N,Net-(D3-K)*%
X143000000Y-84000000D03*
%TO.P,R8,2*%
%TO.N,GND*%
X143000000Y-86000000D03*
%TD*%
D30*
%TO.N,GND*%
X144000000Y-113000000D03*
X147000000Y-118126000D03*
X164000000Y-100000000D03*
X155189815Y-111189815D03*
X159005799Y-112707800D03*
X151000000Y-110167800D03*
X146000000Y-116926000D03*
X162000000Y-113000000D03*
X154000000Y-100000000D03*
%TO.N,+3V3*%
X153268471Y-115132999D03*
X154000000Y-117000000D03*
X145000000Y-114000000D03*
X153000000Y-80000000D03*
X159006765Y-79993235D03*
%TO.N,Net-(D4-A)*%
X146200506Y-78269624D03*
%TO.N,Net-(J1-GPIO27{slash}SDIO_DAT3)*%
X145000000Y-119000000D03*
X144857200Y-115025000D03*
%TO.N,Net-(J3-Pin_3)*%
X149000000Y-116000000D03*
X154000000Y-119000000D03*
%TD*%
D31*
%TO.N,Net-(U1-OSC2)*%
X155540000Y-89540000D02*
X154350000Y-89540000D01*
X161444000Y-100911900D02*
X161674900Y-101142800D01*
X161444000Y-96926400D02*
X161444000Y-100911900D01*
X161444000Y-95444000D02*
X155540000Y-89540000D01*
X161444000Y-96926400D02*
X161444000Y-95444000D01*
%TO.N,GND*%
X150985000Y-87285000D02*
X149700000Y-86000000D01*
X154350000Y-92080000D02*
X153325001Y-92080000D01*
X147000000Y-118126000D02*
X147000000Y-119629800D01*
X144000000Y-113000000D02*
X144809500Y-113000000D01*
X154346400Y-106934000D02*
X151112600Y-110167800D01*
X154359700Y-92089700D02*
X154350000Y-92080000D01*
X163749900Y-101142800D02*
X163749900Y-100250100D01*
X154898300Y-112707800D02*
X154898300Y-111481330D01*
X149000000Y-86000000D02*
X146000000Y-86000000D01*
X154000000Y-100000000D02*
X154000000Y-100732300D01*
X159005799Y-112707800D02*
X154898300Y-112707800D01*
X163749900Y-100250100D02*
X164000000Y-100000000D01*
X149700000Y-86000000D02*
X149000000Y-86000000D01*
X153325001Y-92080000D02*
X150985000Y-89739999D01*
X147000000Y-119629800D02*
X147342400Y-119972200D01*
X154000000Y-100732300D02*
X154359700Y-101092000D01*
X154359700Y-103974300D02*
X154346400Y-103987600D01*
X144809500Y-113000000D02*
X145050900Y-112758600D01*
X146049000Y-116975000D02*
X146000000Y-116926000D01*
X161671000Y-115287600D02*
X161671000Y-113329000D01*
X150985000Y-89739999D02*
X150985000Y-87285000D01*
X143000000Y-86000000D02*
X133000000Y-86000000D01*
X154898300Y-111481330D02*
X155189815Y-111189815D01*
X154359700Y-101092000D02*
X154359700Y-92089700D01*
X147887500Y-116975000D02*
X146049000Y-116975000D01*
X154346400Y-103987600D02*
X154346400Y-106934000D01*
X154359700Y-101092000D02*
X154359700Y-103974300D01*
X160401000Y-110337600D02*
X160401000Y-111312599D01*
X147641700Y-110167800D02*
X145050900Y-112758600D01*
X133000000Y-86000000D02*
X131000000Y-84000000D01*
X160401000Y-111312599D02*
X159005799Y-112707800D01*
X161671000Y-113329000D02*
X162000000Y-113000000D01*
X146000000Y-86000000D02*
X143000000Y-86000000D01*
X151112600Y-110167800D02*
X147641700Y-110167800D01*
%TO.N,Net-(U1-OSC1)*%
X156564000Y-91999001D02*
X155374999Y-90810000D01*
X156564000Y-96926400D02*
X156564000Y-91999001D01*
X155374999Y-90810000D02*
X154350000Y-90810000D01*
X156564000Y-100962700D02*
X156434700Y-101092000D01*
X156564000Y-96926400D02*
X156564000Y-100962700D01*
%TO.N,+3V3*%
X158632600Y-107935000D02*
X155761240Y-107935000D01*
X153284032Y-90141000D02*
X153024000Y-89880968D01*
X145884500Y-114000000D02*
X145000000Y-114000000D01*
X153024000Y-89880968D02*
X153024000Y-80684800D01*
X155415968Y-90141000D02*
X153284032Y-90141000D01*
X163650000Y-81920000D02*
X165570000Y-80000000D01*
X159131000Y-110337600D02*
X159131000Y-108433400D01*
X165570000Y-80000000D02*
X166000000Y-80000000D01*
X155445400Y-103302440D02*
X155761240Y-102986600D01*
X154000000Y-117581800D02*
X151609600Y-119972200D01*
X156232400Y-119232400D02*
X156232400Y-119972200D01*
X147176700Y-112707800D02*
X147125900Y-112758600D01*
X154000000Y-117000000D02*
X154000000Y-117581800D01*
X159131000Y-108433400D02*
X158632600Y-107935000D01*
X160933530Y-81920000D02*
X163650000Y-81920000D01*
X158480200Y-93205232D02*
X155415968Y-90141000D01*
X155761240Y-102986600D02*
X158480200Y-102986600D01*
X155761240Y-107935000D02*
X155445400Y-107619160D01*
X152823300Y-114314200D02*
X152823300Y-112707800D01*
X158480200Y-102986600D02*
X158480200Y-93205232D01*
X147125900Y-112758600D02*
X145884500Y-114000000D01*
X153160472Y-115025000D02*
X153268471Y-115132999D01*
X152823300Y-112707800D02*
X157596100Y-107935000D01*
X155445400Y-107619160D02*
X155445400Y-103302440D01*
X154000000Y-117000000D02*
X156232400Y-119232400D01*
X159006765Y-79993235D02*
X160933530Y-81920000D01*
X152339200Y-80000000D02*
X153000000Y-80000000D01*
X153024000Y-80684800D02*
X149250400Y-76911200D01*
X157596100Y-107935000D02*
X158632600Y-107935000D01*
X152112500Y-115025000D02*
X153160472Y-115025000D01*
X149250400Y-76911200D02*
X152339200Y-80000000D01*
X152823300Y-112707800D02*
X147176700Y-112707800D01*
X152112500Y-115025000D02*
X152823300Y-114314200D01*
%TO.N,Net-(D1-A)*%
X162584032Y-91479000D02*
X162324000Y-91218968D01*
X164976000Y-91739032D02*
X164715968Y-91479000D01*
X155676000Y-82221001D02*
X155374999Y-81920000D01*
X163737400Y-107035600D02*
X164976000Y-105797000D01*
X162324000Y-91218968D02*
X162324000Y-90178968D01*
X164715968Y-91479000D02*
X162584032Y-91479000D01*
X162324000Y-90178968D02*
X155676000Y-83530968D01*
X155374999Y-81920000D02*
X154350000Y-81920000D01*
X155676000Y-83530968D02*
X155676000Y-82221001D01*
X163737400Y-108271200D02*
X163737400Y-107035600D01*
X164976000Y-105797000D02*
X164976000Y-91739032D01*
X161671000Y-110337600D02*
X163737400Y-108271200D01*
%TO.N,Net-(D1-K)*%
X161687400Y-107035600D02*
X156448000Y-107035600D01*
X156448000Y-107035600D02*
X156346400Y-106934000D01*
%TO.N,Net-(D2-A)*%
X155676000Y-84119032D02*
X154746968Y-83190000D01*
X162247560Y-108036600D02*
X162563400Y-107720760D01*
X159732000Y-109268000D02*
X160963400Y-108036600D01*
X154746968Y-83190000D02*
X154350000Y-83190000D01*
X157861000Y-111312599D02*
X158162001Y-111613600D01*
X163594000Y-104038400D02*
X162563400Y-103007800D01*
X157861000Y-110337600D02*
X157861000Y-111312599D01*
X155676000Y-85772968D02*
X155676000Y-84119032D01*
X162563400Y-105069000D02*
X163594000Y-104038400D01*
X162563400Y-103007800D02*
X162563400Y-92660368D01*
X162563400Y-92660368D02*
X155676000Y-85772968D01*
X162563400Y-107720760D02*
X162563400Y-105069000D01*
X158162001Y-111613600D02*
X159471968Y-111613600D01*
X160963400Y-108036600D02*
X162247560Y-108036600D01*
X159732000Y-111353568D02*
X159732000Y-109268000D01*
X159471968Y-111613600D02*
X159732000Y-111353568D01*
%TO.N,Net-(D2-K)*%
X161544000Y-104038400D02*
X156397200Y-104038400D01*
X156397200Y-104038400D02*
X156346400Y-103987600D01*
%TO.N,Net-(J1-GPIO15{slash}UART_RXD)*%
X123401000Y-80138600D02*
X127779400Y-75760200D01*
X127779400Y-75760200D02*
X137701400Y-75760200D01*
X135000000Y-125000000D02*
X123401000Y-113401000D01*
X123401000Y-113401000D02*
X123401000Y-80138600D01*
X137701400Y-75760200D02*
X139090400Y-74371200D01*
%TO.N,Net-(J1-SDA_I2C1{slash}GPIO02)*%
X127062200Y-80000000D02*
X129000000Y-80000000D01*
X123802000Y-83260200D02*
X127062200Y-80000000D01*
X123802000Y-112802000D02*
X123802000Y-83260200D01*
X133000000Y-116000000D02*
X131824000Y-117176000D01*
X131470400Y-77529600D02*
X131470400Y-76911200D01*
X128176000Y-117176000D02*
X123802000Y-112802000D01*
X131824000Y-117176000D02*
X128176000Y-117176000D01*
X129000000Y-80000000D02*
X131470400Y-77529600D01*
%TO.N,Net-(D3-A)*%
X143646600Y-79975000D02*
X146710400Y-76911200D01*
X141025000Y-79975000D02*
X137000000Y-84000000D01*
X143000000Y-79975000D02*
X141025000Y-79975000D01*
X143000000Y-79975000D02*
X143646600Y-79975000D01*
%TO.N,Net-(J1-GPCLK1{slash}GPIO05)*%
X152924999Y-116325000D02*
X153331400Y-116731401D01*
X155238399Y-114011600D02*
X159613968Y-114011600D01*
X153331400Y-116731401D02*
X153331400Y-117668600D01*
X167001000Y-79001000D02*
X164911200Y-76911200D01*
X152924999Y-116325000D02*
X155238399Y-114011600D01*
X167001000Y-106624568D02*
X167001000Y-79001000D01*
X153331400Y-117668600D02*
X152028800Y-118971200D01*
X150610600Y-118971200D02*
X149609600Y-119972200D01*
X152028800Y-118971200D02*
X150610600Y-118971200D01*
X159613968Y-114011600D02*
X167001000Y-106624568D01*
X164911200Y-76911200D02*
X164490400Y-76911200D01*
X152112500Y-116325000D02*
X152924999Y-116325000D01*
%TO.N,Net-(D3-K)*%
X143000000Y-82025000D02*
X143000000Y-84000000D01*
%TO.N,Net-(J1-GPIO14{slash}UART_TXD)*%
X135824000Y-126176000D02*
X132626794Y-126176000D01*
X132626794Y-126176000D02*
X123000000Y-116549206D01*
X123000000Y-116549206D02*
X123000000Y-79627360D01*
X127779400Y-74847960D02*
X127779400Y-73894440D01*
X135179200Y-73000000D02*
X136550400Y-74371200D01*
X127779400Y-73894440D02*
X128673840Y-73000000D01*
X123000000Y-79627360D02*
X127779400Y-74847960D01*
X137000000Y-125000000D02*
X135824000Y-126176000D01*
X128673840Y-73000000D02*
X135179200Y-73000000D01*
%TO.N,Net-(D4-A)*%
X141612160Y-81149000D02*
X137563160Y-85198000D01*
X146000000Y-79975000D02*
X146000000Y-78470130D01*
X136198000Y-85198000D02*
X135000000Y-84000000D01*
X146000000Y-79975000D02*
X144826000Y-81149000D01*
X144826000Y-81149000D02*
X141612160Y-81149000D01*
X137563160Y-85198000D02*
X136198000Y-85198000D01*
X146000000Y-78470130D02*
X146200506Y-78269624D01*
%TO.N,Net-(J1-~{CE0}_SPI0{slash}GPIO08)*%
X158021400Y-75522200D02*
X156870400Y-74371200D01*
X163650000Y-84460000D02*
X162625001Y-84460000D01*
X158021400Y-79856399D02*
X158021400Y-75522200D01*
X162625001Y-84460000D02*
X158021400Y-79856399D01*
%TO.N,Net-(J1-SCL_I2C1{slash}GPIO03)*%
X127889740Y-80599000D02*
X131401000Y-80599000D01*
X124203000Y-112203000D02*
X124203000Y-84285740D01*
X131401000Y-80599000D02*
X134010400Y-77989600D01*
X131000000Y-116000000D02*
X128000000Y-116000000D01*
X134010400Y-77989600D02*
X134010400Y-76911200D01*
X128000000Y-116000000D02*
X124203000Y-112203000D01*
X124203000Y-84285740D02*
X127889740Y-80599000D01*
%TO.N,Net-(J1-MISO_SPI0{slash}GPIO09)*%
X163149200Y-85730000D02*
X154330400Y-76911200D01*
X163650000Y-85730000D02*
X163149200Y-85730000D01*
%TO.N,Net-(J1-MOSI_SPI0{slash}GPIO10)*%
X163650000Y-87000000D02*
X161879200Y-87000000D01*
X161879200Y-87000000D02*
X151790400Y-76911200D01*
%TO.N,Net-(J1-SCLK_SPI0{slash}GPIO11)*%
X164715968Y-86331000D02*
X162122440Y-86331000D01*
X164976000Y-86591032D02*
X164715968Y-86331000D01*
X164976000Y-87968999D02*
X164976000Y-86591032D01*
X153853640Y-75760200D02*
X155719400Y-75760200D01*
X164674999Y-88270000D02*
X164976000Y-87968999D01*
X155719400Y-75760200D02*
X156870400Y-76911200D01*
X153179400Y-77387960D02*
X153179400Y-76434440D01*
X162122440Y-86331000D02*
X153179400Y-77387960D01*
X153179400Y-76434440D02*
X153853640Y-75760200D01*
X163650000Y-88270000D02*
X164674999Y-88270000D01*
%TO.N,Net-(J1-GPIO25{slash}SDIO_DAT1)*%
X162000000Y-87795040D02*
X152267160Y-78062200D01*
X163650000Y-89540000D02*
X162625001Y-89540000D01*
X151313640Y-78062200D02*
X150639400Y-77387960D01*
X150639400Y-77387960D02*
X150639400Y-76360600D01*
X162625001Y-89540000D02*
X162000000Y-88914999D01*
X151477800Y-75522200D02*
X153179400Y-75522200D01*
X153179400Y-75522200D02*
X154330400Y-74371200D01*
X150639400Y-76360600D02*
X151477800Y-75522200D01*
X152267160Y-78062200D02*
X151313640Y-78062200D01*
X162000000Y-88914999D02*
X162000000Y-87795040D01*
%TO.N,Net-(J1-GPIO27{slash}SDIO_DAT3)*%
X150694082Y-115025000D02*
X151344082Y-115675000D01*
X125005000Y-111005000D02*
X125005000Y-87995000D01*
X126000000Y-112000000D02*
X125005000Y-111005000D01*
X145342400Y-119972200D02*
X145342400Y-119342400D01*
X125005000Y-87995000D02*
X131000000Y-82000000D01*
X145342400Y-119342400D02*
X145000000Y-119000000D01*
X141832200Y-112000000D02*
X126000000Y-112000000D01*
X131000000Y-82000000D02*
X138432900Y-82000000D01*
X141507600Y-79574000D02*
X144170400Y-76911200D01*
X151344082Y-115675000D02*
X152112500Y-115675000D01*
X144857200Y-115025000D02*
X141832200Y-112000000D01*
X138432900Y-82000000D02*
X140858900Y-79574000D01*
X147887500Y-115025000D02*
X144857200Y-115025000D01*
X147887500Y-115025000D02*
X150694082Y-115025000D01*
X140858900Y-79574000D02*
X141507600Y-79574000D01*
%TO.N,Net-(J1-GPCLK0{slash}GPIO04)*%
X135000000Y-81000000D02*
X136550400Y-79449600D01*
X124604000Y-84451840D02*
X128055840Y-81000000D01*
X136550400Y-79449600D02*
X136550400Y-76911200D01*
X126000000Y-113000000D02*
X124604000Y-111604000D01*
X138000000Y-113000000D02*
X126000000Y-113000000D01*
X124604000Y-111604000D02*
X124604000Y-84451840D01*
X142526000Y-117526000D02*
X138000000Y-113000000D01*
X152112500Y-116975000D02*
X151561500Y-117526000D01*
X151561500Y-117526000D02*
X142526000Y-117526000D01*
X128055840Y-81000000D02*
X135000000Y-81000000D01*
D32*
%TO.N,+12V*%
X150484000Y-125984000D02*
X148500000Y-124000000D01*
X169113200Y-125984000D02*
X150484000Y-125984000D01*
X171540000Y-113000000D02*
X171043600Y-113496400D01*
X171540000Y-113000000D02*
X169000000Y-113000000D01*
X171043600Y-113496400D02*
X171043600Y-124053600D01*
X171043600Y-124053600D02*
X169113200Y-125984000D01*
D31*
%TO.N,Net-(J3-Pin_3)*%
X154232400Y-120767600D02*
X151000000Y-124000000D01*
X154232400Y-119972200D02*
X154232400Y-120767600D01*
X149000000Y-116000000D02*
X148212500Y-116000000D01*
X148212500Y-116000000D02*
X147887500Y-115675000D01*
X154232400Y-119232400D02*
X154000000Y-119000000D01*
X153691282Y-119972200D02*
X154232400Y-119972200D01*
X154232400Y-119972200D02*
X154232400Y-119232400D01*
X147887500Y-115675000D02*
X147887500Y-116325000D01*
%TO.N,Net-(J4-Pin_2)*%
X159131000Y-115287600D02*
X159131000Y-118154200D01*
X159544000Y-118567200D02*
X159544000Y-124866400D01*
X159544000Y-124866400D02*
X159747200Y-125069600D01*
X159131000Y-118154200D02*
X159544000Y-118567200D01*
%TO.N,Net-(J4-Pin_1)*%
X160401000Y-117424200D02*
X161544000Y-118567200D01*
X161544000Y-124866400D02*
X161747200Y-125069600D01*
X160401000Y-115287600D02*
X160401000Y-117424200D01*
X161544000Y-118567200D02*
X161544000Y-124866400D01*
%TO.N,Net-(U1-~{RESET})*%
X163650000Y-83190000D02*
X164810000Y-83190000D01*
X164810000Y-83190000D02*
X166000000Y-82000000D01*
%TO.N,Net-(D4-K)*%
X146000000Y-82025000D02*
X146000000Y-84000000D01*
%TO.N,Net-(D5-A)*%
X141999000Y-85599000D02*
X134599000Y-85599000D01*
X149000000Y-79975000D02*
X147001000Y-81974000D01*
X146586160Y-85000000D02*
X142413840Y-85000000D01*
X149000000Y-79975000D02*
X148000000Y-78975000D01*
X141999000Y-85414840D02*
X141999000Y-85599000D01*
X147001000Y-81974000D02*
X147001000Y-84585160D01*
X142413840Y-85000000D02*
X141999000Y-85414840D01*
X148000000Y-75621600D02*
X149250400Y-74371200D01*
X134599000Y-85599000D02*
X133000000Y-84000000D01*
X147001000Y-84585160D02*
X146586160Y-85000000D01*
X148000000Y-78975000D02*
X148000000Y-75621600D01*
%TO.N,Net-(D5-K)*%
X149000000Y-82025000D02*
X149000000Y-84000000D01*
%TD*%
%TA.AperFunction,Conductor*%
%TO.N,GND*%
G36*
X128209781Y-72402185D02*
G01*
X128255536Y-72454989D01*
X128265480Y-72524147D01*
X128236455Y-72587703D01*
X128230423Y-72594181D01*
X127298881Y-73525722D01*
X127298880Y-73525724D01*
X127255709Y-73600500D01*
X127248761Y-73612534D01*
X127248759Y-73612536D01*
X127219825Y-73662649D01*
X127219824Y-73662650D01*
X127217280Y-73672146D01*
X127178899Y-73815383D01*
X127178899Y-73815385D01*
X127178899Y-73983486D01*
X127178900Y-73983499D01*
X127178900Y-74547862D01*
X127159215Y-74614901D01*
X127142581Y-74635543D01*
X126122581Y-75655543D01*
X126061258Y-75689028D01*
X125991566Y-75684044D01*
X125935633Y-75642172D01*
X125911216Y-75576708D01*
X125910900Y-75567862D01*
X125910900Y-75504311D01*
X125879238Y-75263814D01*
X125879238Y-75263811D01*
X125816454Y-75029500D01*
X125814672Y-75025199D01*
X125758511Y-74889614D01*
X125723624Y-74805388D01*
X125602336Y-74595311D01*
X125454665Y-74402862D01*
X125454660Y-74402856D01*
X125283143Y-74231339D01*
X125283136Y-74231333D01*
X125090693Y-74083667D01*
X125090692Y-74083666D01*
X125090689Y-74083664D01*
X124880612Y-73962376D01*
X124845903Y-73947999D01*
X124656504Y-73869547D01*
X124422185Y-73806761D01*
X124181689Y-73775100D01*
X124181688Y-73775100D01*
X123939112Y-73775100D01*
X123939111Y-73775100D01*
X123698614Y-73806761D01*
X123464295Y-73869547D01*
X123240194Y-73962373D01*
X123240185Y-73962377D01*
X123030106Y-74083667D01*
X122837663Y-74231333D01*
X122837656Y-74231339D01*
X122666139Y-74402856D01*
X122666133Y-74402863D01*
X122518467Y-74595306D01*
X122397177Y-74805385D01*
X122397173Y-74805394D01*
X122304347Y-75029495D01*
X122241561Y-75263814D01*
X122209900Y-75504311D01*
X122209900Y-75746888D01*
X122241561Y-75987385D01*
X122304347Y-76221704D01*
X122397173Y-76445805D01*
X122397177Y-76445814D01*
X122411723Y-76471009D01*
X122518464Y-76655889D01*
X122518466Y-76655892D01*
X122518467Y-76655893D01*
X122666133Y-76848336D01*
X122666139Y-76848343D01*
X122837656Y-77019860D01*
X122837662Y-77019865D01*
X123030111Y-77167536D01*
X123240188Y-77288824D01*
X123464300Y-77381654D01*
X123698611Y-77444438D01*
X123878986Y-77468184D01*
X123939111Y-77476100D01*
X124002662Y-77476100D01*
X124069701Y-77495785D01*
X124115456Y-77548589D01*
X124125400Y-77617747D01*
X124096375Y-77681303D01*
X124090343Y-77687781D01*
X122519481Y-79258642D01*
X122519479Y-79258645D01*
X122504931Y-79283844D01*
X122470364Y-79343716D01*
X122440423Y-79395575D01*
X122399499Y-79548303D01*
X122399499Y-79548305D01*
X122399499Y-79716406D01*
X122399500Y-79716419D01*
X122399500Y-116462536D01*
X122399499Y-116462554D01*
X122399499Y-116628260D01*
X122399498Y-116628260D01*
X122406554Y-116654591D01*
X122440423Y-116780991D01*
X122440424Y-116780993D01*
X122440423Y-116780993D01*
X122457434Y-116810455D01*
X122457436Y-116810457D01*
X122457437Y-116810459D01*
X122481298Y-116851788D01*
X122519479Y-116917921D01*
X122638349Y-117036791D01*
X122638354Y-117036795D01*
X132258078Y-126656520D01*
X132258080Y-126656521D01*
X132258084Y-126656524D01*
X132379439Y-126726587D01*
X132395010Y-126735577D01*
X132547737Y-126776501D01*
X132547739Y-126776501D01*
X132713448Y-126776501D01*
X132713464Y-126776500D01*
X135737331Y-126776500D01*
X135737347Y-126776501D01*
X135744943Y-126776501D01*
X135903054Y-126776501D01*
X135903057Y-126776501D01*
X136055785Y-126735577D01*
X136105904Y-126706639D01*
X136192716Y-126656520D01*
X136304520Y-126544716D01*
X136304520Y-126544714D01*
X136314728Y-126534507D01*
X136314730Y-126534504D01*
X137240216Y-125609018D01*
X137301539Y-125575533D01*
X137327897Y-125572699D01*
X137477202Y-125572699D01*
X137477208Y-125572699D01*
X137481330Y-125572278D01*
X137495095Y-125570871D01*
X137579997Y-125562199D01*
X137746534Y-125507014D01*
X137895856Y-125414912D01*
X138019912Y-125290856D01*
X138112014Y-125141534D01*
X138167199Y-124974997D01*
X138177700Y-124872209D01*
X138177699Y-123522192D01*
X138167199Y-123419403D01*
X138112014Y-123252866D01*
X138019912Y-123103544D01*
X137895856Y-122979488D01*
X137770759Y-122902328D01*
X137746536Y-122887387D01*
X137746531Y-122887385D01*
X137745062Y-122886898D01*
X137579997Y-122832201D01*
X137579995Y-122832200D01*
X137477210Y-122821700D01*
X136677198Y-122821700D01*
X136677180Y-122821701D01*
X136574403Y-122832200D01*
X136574400Y-122832201D01*
X136407868Y-122887385D01*
X136407863Y-122887387D01*
X136258542Y-122979489D01*
X136134487Y-123103544D01*
X136094888Y-123167744D01*
X136042939Y-123214468D01*
X135973977Y-123225689D01*
X135909895Y-123197845D01*
X135901669Y-123190327D01*
X135794130Y-123082788D01*
X135794128Y-123082786D01*
X135653988Y-122980968D01*
X135499645Y-122902327D01*
X135334901Y-122848798D01*
X135334899Y-122848797D01*
X135334898Y-122848797D01*
X135203471Y-122827981D01*
X135163811Y-122821700D01*
X134990589Y-122821700D01*
X134950928Y-122827981D01*
X134819502Y-122848797D01*
X134654752Y-122902328D01*
X134500411Y-122980968D01*
X134430934Y-123031447D01*
X134360272Y-123082786D01*
X134360270Y-123082788D01*
X134360269Y-123082788D01*
X134234341Y-123208717D01*
X134232806Y-123207182D01*
X134181759Y-123240377D01*
X134111891Y-123240752D01*
X134058505Y-123209270D01*
X128837416Y-117988181D01*
X128803931Y-117926858D01*
X128808915Y-117857166D01*
X128850787Y-117801233D01*
X128916251Y-117776816D01*
X128925097Y-117776500D01*
X131737331Y-117776500D01*
X131737347Y-117776501D01*
X131744943Y-117776501D01*
X131903054Y-117776501D01*
X131903057Y-117776501D01*
X132055785Y-117735577D01*
X132105904Y-117706639D01*
X132192716Y-117656520D01*
X132304520Y-117544716D01*
X132304520Y-117544714D01*
X132314728Y-117534507D01*
X132314730Y-117534504D01*
X132506319Y-117342914D01*
X132567640Y-117309431D01*
X132632315Y-117312665D01*
X132742299Y-117348402D01*
X132913389Y-117375500D01*
X132913390Y-117375500D01*
X133086610Y-117375500D01*
X133086611Y-117375500D01*
X133257701Y-117348402D01*
X133422445Y-117294873D01*
X133576788Y-117216232D01*
X133716928Y-117114414D01*
X133839414Y-116991928D01*
X133941232Y-116851788D01*
X134019873Y-116697445D01*
X134073402Y-116532701D01*
X134100500Y-116361611D01*
X134100500Y-115638389D01*
X134073402Y-115467299D01*
X134027160Y-115324983D01*
X135899500Y-115324983D01*
X135899500Y-116675001D01*
X135899501Y-116675018D01*
X135910000Y-116777796D01*
X135910001Y-116777799D01*
X135956434Y-116917922D01*
X135965186Y-116944334D01*
X136057288Y-117093656D01*
X136181344Y-117217712D01*
X136330666Y-117309814D01*
X136497203Y-117364999D01*
X136599991Y-117375500D01*
X137400008Y-117375499D01*
X137400016Y-117375498D01*
X137400019Y-117375498D01*
X137486145Y-117366700D01*
X137502797Y-117364999D01*
X137669334Y-117309814D01*
X137818656Y-117217712D01*
X137942712Y-117093656D01*
X138034814Y-116944334D01*
X138089999Y-116777797D01*
X138100500Y-116675009D01*
X138100499Y-115324992D01*
X138093706Y-115258497D01*
X138089999Y-115222203D01*
X138089998Y-115222200D01*
X138034814Y-115055666D01*
X137942712Y-114906344D01*
X137818656Y-114782288D01*
X137693559Y-114705128D01*
X137669336Y-114690187D01*
X137669331Y-114690185D01*
X137644805Y-114682058D01*
X137502797Y-114635001D01*
X137502795Y-114635000D01*
X137400010Y-114624500D01*
X136599998Y-114624500D01*
X136599980Y-114624501D01*
X136497203Y-114635000D01*
X136497200Y-114635001D01*
X136330668Y-114690185D01*
X136330663Y-114690187D01*
X136181342Y-114782289D01*
X136057289Y-114906342D01*
X135965187Y-115055663D01*
X135965185Y-115055668D01*
X135953470Y-115091023D01*
X135910001Y-115222203D01*
X135910001Y-115222204D01*
X135910000Y-115222204D01*
X135899500Y-115324983D01*
X134027160Y-115324983D01*
X134019873Y-115302555D01*
X133941232Y-115148212D01*
X133839414Y-115008072D01*
X133716928Y-114885586D01*
X133576788Y-114783768D01*
X133422445Y-114705127D01*
X133257701Y-114651598D01*
X133257699Y-114651597D01*
X133257698Y-114651597D01*
X133098348Y-114626359D01*
X133086611Y-114624500D01*
X132913389Y-114624500D01*
X132901652Y-114626359D01*
X132742302Y-114651597D01*
X132577552Y-114705128D01*
X132423211Y-114783768D01*
X132362218Y-114828083D01*
X132283072Y-114885586D01*
X132283070Y-114885588D01*
X132283069Y-114885588D01*
X132160588Y-115008069D01*
X132160581Y-115008078D01*
X132100317Y-115091023D01*
X132044987Y-115133689D01*
X131975374Y-115139667D01*
X131913579Y-115107061D01*
X131899683Y-115091023D01*
X131839418Y-115008078D01*
X131839414Y-115008072D01*
X131716928Y-114885586D01*
X131576788Y-114783768D01*
X131422445Y-114705127D01*
X131257701Y-114651598D01*
X131257699Y-114651597D01*
X131257698Y-114651597D01*
X131098348Y-114626359D01*
X131086611Y-114624500D01*
X130913389Y-114624500D01*
X130901652Y-114626359D01*
X130742302Y-114651597D01*
X130577552Y-114705128D01*
X130423211Y-114783768D01*
X130362218Y-114828083D01*
X130283072Y-114885586D01*
X130283070Y-114885588D01*
X130283069Y-114885588D01*
X130160588Y-115008069D01*
X130160588Y-115008070D01*
X130160586Y-115008072D01*
X130160582Y-115008078D01*
X130058768Y-115148211D01*
X129980129Y-115302550D01*
X129980128Y-115302552D01*
X129980127Y-115302555D01*
X129976467Y-115313818D01*
X129937032Y-115371492D01*
X129872674Y-115398692D01*
X129858537Y-115399500D01*
X128300097Y-115399500D01*
X128233058Y-115379815D01*
X128212416Y-115363181D01*
X126661416Y-113812181D01*
X126627931Y-113750858D01*
X126632915Y-113681166D01*
X126674787Y-113625233D01*
X126740251Y-113600816D01*
X126749097Y-113600500D01*
X137699903Y-113600500D01*
X137766942Y-113620185D01*
X137787583Y-113636818D01*
X142157284Y-118006520D01*
X142157286Y-118006521D01*
X142157290Y-118006524D01*
X142262351Y-118067180D01*
X142294216Y-118085577D01*
X142446943Y-118126501D01*
X142446945Y-118126501D01*
X142612654Y-118126501D01*
X142612670Y-118126500D01*
X144457649Y-118126500D01*
X144524688Y-118146185D01*
X144570443Y-118198989D01*
X144580387Y-118268147D01*
X144551362Y-118331703D01*
X144526540Y-118353602D01*
X144489711Y-118378210D01*
X144489707Y-118378213D01*
X144378213Y-118489707D01*
X144378210Y-118489711D01*
X144290609Y-118620814D01*
X144290602Y-118620827D01*
X144230264Y-118766498D01*
X144230261Y-118766510D01*
X144199500Y-118921153D01*
X144199500Y-118978170D01*
X144179815Y-119045209D01*
X144163181Y-119065851D01*
X144158089Y-119070942D01*
X144065987Y-119220263D01*
X144065986Y-119220266D01*
X144010801Y-119386803D01*
X144010801Y-119386804D01*
X144010800Y-119386804D01*
X144000300Y-119489583D01*
X144000300Y-120489601D01*
X144000301Y-120489619D01*
X144010800Y-120592396D01*
X144010801Y-120592399D01*
X144060219Y-120741531D01*
X144065986Y-120758934D01*
X144158088Y-120908256D01*
X144282144Y-121032312D01*
X144431466Y-121124414D01*
X144598003Y-121179599D01*
X144700791Y-121190100D01*
X145500808Y-121190099D01*
X145500816Y-121190098D01*
X145500819Y-121190098D01*
X145557102Y-121184348D01*
X145603597Y-121179599D01*
X145770134Y-121124414D01*
X145919456Y-121032312D01*
X146043512Y-120908256D01*
X146135614Y-120758934D01*
X146190799Y-120592397D01*
X146201300Y-120489609D01*
X146201299Y-119489592D01*
X146200917Y-119485857D01*
X146190799Y-119386803D01*
X146190798Y-119386800D01*
X146135614Y-119220266D01*
X146043512Y-119070944D01*
X145919456Y-118946888D01*
X145919452Y-118946885D01*
X145835678Y-118895212D01*
X145788953Y-118843264D01*
X145779158Y-118813869D01*
X145769737Y-118766503D01*
X145756846Y-118735381D01*
X145709397Y-118620827D01*
X145709390Y-118620814D01*
X145621789Y-118489711D01*
X145621786Y-118489707D01*
X145510292Y-118378213D01*
X145510288Y-118378210D01*
X145473460Y-118353602D01*
X145428655Y-118299989D01*
X145419948Y-118230664D01*
X145450103Y-118167637D01*
X145509546Y-118130918D01*
X145542351Y-118126500D01*
X150501033Y-118126500D01*
X150568072Y-118146185D01*
X150613827Y-118198989D01*
X150623771Y-118268147D01*
X150594746Y-118331703D01*
X150535968Y-118369477D01*
X150533127Y-118370275D01*
X150531545Y-118370699D01*
X150531543Y-118370699D01*
X150463457Y-118388942D01*
X150378814Y-118411623D01*
X150378809Y-118411626D01*
X150241890Y-118490675D01*
X150241882Y-118490681D01*
X149997182Y-118735381D01*
X149935859Y-118768866D01*
X149909501Y-118771700D01*
X149526798Y-118771700D01*
X149526780Y-118771701D01*
X149424003Y-118782200D01*
X149424000Y-118782201D01*
X149257468Y-118837385D01*
X149257463Y-118837387D01*
X149108142Y-118929489D01*
X148984089Y-119053542D01*
X148891987Y-119202863D01*
X148891985Y-119202868D01*
X148864149Y-119286870D01*
X148836801Y-119369403D01*
X148836801Y-119369404D01*
X148836800Y-119369404D01*
X148826300Y-119472183D01*
X148826300Y-120472201D01*
X148826301Y-120472219D01*
X148836800Y-120574996D01*
X148836801Y-120574999D01*
X148891985Y-120741531D01*
X148891987Y-120741536D01*
X148921255Y-120788987D01*
X148984088Y-120890856D01*
X149108144Y-121014912D01*
X149257466Y-121107014D01*
X149424003Y-121162199D01*
X149526791Y-121172700D01*
X150326808Y-121172699D01*
X150326816Y-121172698D01*
X150326819Y-121172698D01*
X150398398Y-121165386D01*
X150429597Y-121162199D01*
X150596134Y-121107014D01*
X150745456Y-121014912D01*
X150839119Y-120921249D01*
X150900442Y-120887764D01*
X150970134Y-120892748D01*
X151014481Y-120921249D01*
X151108144Y-121014912D01*
X151257466Y-121107014D01*
X151424003Y-121162199D01*
X151526791Y-121172700D01*
X152326808Y-121172699D01*
X152326816Y-121172698D01*
X152326819Y-121172698D01*
X152398398Y-121165386D01*
X152429597Y-121162199D01*
X152596134Y-121107014D01*
X152745456Y-121014912D01*
X152869512Y-120890856D01*
X152961614Y-120741534D01*
X152961890Y-120740699D01*
X152962233Y-120740204D01*
X152964664Y-120734991D01*
X152965554Y-120735406D01*
X153001652Y-120683253D01*
X153066164Y-120656421D01*
X153134942Y-120668726D01*
X153186148Y-120716262D01*
X153197301Y-120740676D01*
X153197581Y-120741523D01*
X153197590Y-120741542D01*
X153226855Y-120788987D01*
X153245296Y-120856379D01*
X153224374Y-120923043D01*
X153208998Y-120941765D01*
X152074311Y-122076453D01*
X152012988Y-122109938D01*
X151943296Y-122104954D01*
X151898949Y-122076453D01*
X151806586Y-121984090D01*
X151634620Y-121859151D01*
X151445214Y-121762644D01*
X151445213Y-121762643D01*
X151445212Y-121762643D01*
X151243043Y-121696954D01*
X151243041Y-121696953D01*
X151243040Y-121696953D01*
X151081757Y-121671408D01*
X151033087Y-121663700D01*
X150820513Y-121663700D01*
X150771842Y-121671408D01*
X150610560Y-121696953D01*
X150408385Y-121762644D01*
X150218979Y-121859151D01*
X150047013Y-121984090D01*
X149896694Y-122134409D01*
X149896690Y-122134414D01*
X149777118Y-122298993D01*
X149721789Y-122341659D01*
X149652175Y-122347638D01*
X149590380Y-122315033D01*
X149576482Y-122298993D01*
X149456909Y-122134414D01*
X149456905Y-122134409D01*
X149306586Y-121984090D01*
X149134620Y-121859151D01*
X148945214Y-121762644D01*
X148945213Y-121762643D01*
X148945212Y-121762643D01*
X148743043Y-121696954D01*
X148743041Y-121696953D01*
X148743040Y-121696953D01*
X148581757Y-121671408D01*
X148533087Y-121663700D01*
X148320513Y-121663700D01*
X148271842Y-121671408D01*
X148110560Y-121696953D01*
X147908385Y-121762644D01*
X147718979Y-121859151D01*
X147547013Y-121984090D01*
X147396690Y-122134413D01*
X147271751Y-122306379D01*
X147175244Y-122495785D01*
X147109553Y-122697960D01*
X147085663Y-122848797D01*
X147076300Y-122907913D01*
X147076300Y-123370487D01*
X147109554Y-123580443D01*
X147158583Y-123731339D01*
X147175244Y-123782614D01*
X147271751Y-123972020D01*
X147396690Y-124143986D01*
X147515846Y-124263142D01*
X147542726Y-124303370D01*
X147613367Y-124473910D01*
X147613372Y-124473920D01*
X147722860Y-124637780D01*
X147722863Y-124637784D01*
X149846215Y-126761137D01*
X149846219Y-126761140D01*
X150010079Y-126870628D01*
X150010085Y-126870631D01*
X150010086Y-126870632D01*
X150192165Y-126946052D01*
X150343230Y-126976100D01*
X150371382Y-126981700D01*
X150385458Y-126984500D01*
X150385459Y-126984500D01*
X169211742Y-126984500D01*
X169242766Y-126978328D01*
X169308388Y-126965275D01*
X169405036Y-126946051D01*
X169458365Y-126923961D01*
X169587114Y-126870632D01*
X169750982Y-126761139D01*
X169890339Y-126621782D01*
X169890340Y-126621779D01*
X169897406Y-126614714D01*
X169897408Y-126614710D01*
X171283701Y-125228419D01*
X171345024Y-125194934D01*
X171371382Y-125192100D01*
X172374403Y-125192100D01*
X172374408Y-125192100D01*
X172477197Y-125181599D01*
X172643734Y-125126414D01*
X172793055Y-125034311D01*
X172823055Y-125004311D01*
X180209900Y-125004311D01*
X180209900Y-125246888D01*
X180241561Y-125487385D01*
X180304347Y-125721704D01*
X180394156Y-125938521D01*
X180397176Y-125945812D01*
X180518464Y-126155889D01*
X180518466Y-126155892D01*
X180518467Y-126155893D01*
X180666133Y-126348336D01*
X180666139Y-126348343D01*
X180837656Y-126519860D01*
X180837663Y-126519866D01*
X180911305Y-126576373D01*
X181030111Y-126667536D01*
X181240188Y-126788824D01*
X181464300Y-126881654D01*
X181698611Y-126944438D01*
X181856887Y-126965275D01*
X181939111Y-126976100D01*
X181939112Y-126976100D01*
X182181689Y-126976100D01*
X182263913Y-126965275D01*
X182422189Y-126944438D01*
X182656500Y-126881654D01*
X182880612Y-126788824D01*
X183090689Y-126667536D01*
X183283138Y-126519865D01*
X183454665Y-126348338D01*
X183602336Y-126155889D01*
X183723624Y-125945812D01*
X183816454Y-125721700D01*
X183879238Y-125487389D01*
X183910900Y-125246888D01*
X183910900Y-125004312D01*
X183879238Y-124763811D01*
X183816454Y-124529500D01*
X183810761Y-124515757D01*
X183770786Y-124419248D01*
X183723624Y-124305388D01*
X183602336Y-124095311D01*
X183454665Y-123902862D01*
X183454660Y-123902856D01*
X183283143Y-123731339D01*
X183283136Y-123731333D01*
X183090693Y-123583667D01*
X183090692Y-123583666D01*
X183090689Y-123583664D01*
X182880612Y-123462376D01*
X182865383Y-123456068D01*
X182656504Y-123369547D01*
X182422185Y-123306761D01*
X182181689Y-123275100D01*
X182181688Y-123275100D01*
X181939112Y-123275100D01*
X181939111Y-123275100D01*
X181698614Y-123306761D01*
X181464295Y-123369547D01*
X181240194Y-123462373D01*
X181240185Y-123462377D01*
X181030106Y-123583667D01*
X180837663Y-123731333D01*
X180837656Y-123731339D01*
X180666139Y-123902856D01*
X180666133Y-123902863D01*
X180518467Y-124095306D01*
X180397177Y-124305385D01*
X180397173Y-124305394D01*
X180304347Y-124529495D01*
X180241561Y-124763814D01*
X180209900Y-125004311D01*
X172823055Y-125004311D01*
X172917111Y-124910255D01*
X173009214Y-124760934D01*
X173064399Y-124594397D01*
X173074900Y-124491608D01*
X173074900Y-122091592D01*
X173064399Y-121988803D01*
X173009214Y-121822266D01*
X172972438Y-121762644D01*
X172917113Y-121672948D01*
X172917110Y-121672944D01*
X172793055Y-121548889D01*
X172793051Y-121548886D01*
X172643737Y-121456787D01*
X172643735Y-121456786D01*
X172560465Y-121429193D01*
X172477197Y-121401601D01*
X172477195Y-121401600D01*
X172374415Y-121391100D01*
X172374408Y-121391100D01*
X172168100Y-121391100D01*
X172101061Y-121371415D01*
X172055306Y-121318611D01*
X172044100Y-121267100D01*
X172044100Y-115031144D01*
X172063785Y-114964105D01*
X172116589Y-114918350D01*
X172136001Y-114911371D01*
X172184419Y-114898398D01*
X172426697Y-114798043D01*
X172653803Y-114666924D01*
X172861851Y-114507282D01*
X172861855Y-114507277D01*
X172861860Y-114507274D01*
X173047274Y-114321860D01*
X173047277Y-114321855D01*
X173047282Y-114321851D01*
X173206924Y-114113803D01*
X173338043Y-113886697D01*
X173345948Y-113867614D01*
X173395062Y-113749042D01*
X173438398Y-113644419D01*
X173506270Y-113391116D01*
X173540500Y-113131120D01*
X173540500Y-112868880D01*
X173506270Y-112608884D01*
X173438398Y-112355581D01*
X173362844Y-112173177D01*
X173338046Y-112113309D01*
X173338041Y-112113299D01*
X173206924Y-111886196D01*
X173047281Y-111678148D01*
X173047274Y-111678140D01*
X172861860Y-111492726D01*
X172861851Y-111492718D01*
X172653803Y-111333075D01*
X172426700Y-111201958D01*
X172426690Y-111201953D01*
X172184428Y-111101605D01*
X172184421Y-111101603D01*
X172184419Y-111101602D01*
X171931116Y-111033730D01*
X171873339Y-111026123D01*
X171671127Y-110999500D01*
X171671120Y-110999500D01*
X171408880Y-110999500D01*
X171408872Y-110999500D01*
X171177772Y-111029926D01*
X171148884Y-111033730D01*
X170895581Y-111101602D01*
X170895571Y-111101605D01*
X170653309Y-111201953D01*
X170653299Y-111201958D01*
X170426197Y-111333075D01*
X170345486Y-111395007D01*
X170280317Y-111420201D01*
X170211872Y-111406162D01*
X170194514Y-111395007D01*
X170113802Y-111333075D01*
X169886700Y-111201958D01*
X169886690Y-111201953D01*
X169644428Y-111101605D01*
X169644421Y-111101603D01*
X169644419Y-111101602D01*
X169391116Y-111033730D01*
X169333339Y-111026123D01*
X169131127Y-110999500D01*
X169131120Y-110999500D01*
X168868880Y-110999500D01*
X168868872Y-110999500D01*
X168637772Y-111029926D01*
X168608884Y-111033730D01*
X168355581Y-111101602D01*
X168355571Y-111101605D01*
X168113309Y-111201953D01*
X168113299Y-111201958D01*
X167886196Y-111333075D01*
X167678148Y-111492718D01*
X167492718Y-111678148D01*
X167333075Y-111886196D01*
X167201958Y-112113299D01*
X167201953Y-112113309D01*
X167101605Y-112355571D01*
X167101602Y-112355581D01*
X167035977Y-112600500D01*
X167033730Y-112608885D01*
X166999500Y-112868872D01*
X166999500Y-113131127D01*
X167022827Y-113308300D01*
X167033730Y-113391116D01*
X167089834Y-113600500D01*
X167101602Y-113644418D01*
X167101605Y-113644428D01*
X167201953Y-113886690D01*
X167201958Y-113886700D01*
X167333075Y-114113803D01*
X167492718Y-114321851D01*
X167492726Y-114321860D01*
X167678140Y-114507274D01*
X167678148Y-114507281D01*
X167886196Y-114666924D01*
X168113299Y-114798041D01*
X168113309Y-114798046D01*
X168324650Y-114885586D01*
X168355581Y-114898398D01*
X168608884Y-114966270D01*
X168868880Y-115000500D01*
X168868887Y-115000500D01*
X169131113Y-115000500D01*
X169131120Y-115000500D01*
X169391116Y-114966270D01*
X169644419Y-114898398D01*
X169871647Y-114804277D01*
X169941116Y-114796808D01*
X170003596Y-114828083D01*
X170039248Y-114888172D01*
X170043100Y-114918838D01*
X170043100Y-121272103D01*
X170023415Y-121339142D01*
X169970611Y-121384897D01*
X169931703Y-121395461D01*
X169871604Y-121401600D01*
X169871603Y-121401601D01*
X169705064Y-121456786D01*
X169705062Y-121456787D01*
X169555748Y-121548886D01*
X169555744Y-121548889D01*
X169431689Y-121672944D01*
X169431686Y-121672948D01*
X169339587Y-121822262D01*
X169339586Y-121822264D01*
X169284401Y-121988803D01*
X169284400Y-121988804D01*
X169273900Y-122091584D01*
X169273900Y-124357018D01*
X169254215Y-124424057D01*
X169237581Y-124444699D01*
X168735099Y-124947181D01*
X168673776Y-124980666D01*
X168647418Y-124983500D01*
X162904900Y-124983500D01*
X162837861Y-124963815D01*
X162792106Y-124911011D01*
X162780900Y-124859500D01*
X162780899Y-123725398D01*
X162780898Y-123725381D01*
X162770399Y-123622603D01*
X162770398Y-123622600D01*
X162757496Y-123583664D01*
X162715214Y-123456066D01*
X162623112Y-123306744D01*
X162499056Y-123182688D01*
X162386516Y-123113273D01*
X162349736Y-123090587D01*
X162349731Y-123090585D01*
X162229496Y-123050743D01*
X162172051Y-123010970D01*
X162145228Y-122946454D01*
X162144500Y-122933037D01*
X162144500Y-119813108D01*
X162164185Y-119746069D01*
X162208271Y-119707563D01*
X162207187Y-119705805D01*
X162213332Y-119702014D01*
X162213334Y-119702014D01*
X162362656Y-119609912D01*
X162486712Y-119485856D01*
X162578814Y-119336534D01*
X162633999Y-119169997D01*
X162644500Y-119067209D01*
X162644499Y-118067192D01*
X162633999Y-117964403D01*
X162578814Y-117797866D01*
X162486712Y-117648544D01*
X162362656Y-117524488D01*
X162213334Y-117432386D01*
X162046797Y-117377201D01*
X162046795Y-117377200D01*
X161944016Y-117366700D01*
X161944009Y-117366700D01*
X161244097Y-117366700D01*
X161214656Y-117358055D01*
X161184670Y-117351532D01*
X161179654Y-117347777D01*
X161177058Y-117347015D01*
X161156416Y-117330381D01*
X161037819Y-117211784D01*
X161004334Y-117150461D01*
X161001500Y-117124103D01*
X161001500Y-116633408D01*
X161021185Y-116566369D01*
X161037820Y-116545726D01*
X161069076Y-116514470D01*
X161069081Y-116514465D01*
X161152744Y-116372998D01*
X161193273Y-116233497D01*
X161198597Y-116215173D01*
X161198598Y-116215167D01*
X161198608Y-116215041D01*
X161201500Y-116178294D01*
X161201500Y-114396906D01*
X161198598Y-114360031D01*
X161195698Y-114350050D01*
X161157711Y-114219297D01*
X161152744Y-114202202D01*
X161069081Y-114060735D01*
X161069079Y-114060733D01*
X161069076Y-114060729D01*
X160952870Y-113944523D01*
X160952861Y-113944516D01*
X160824921Y-113868853D01*
X160777237Y-113817784D01*
X160764734Y-113749042D01*
X160791379Y-113684453D01*
X160800352Y-113674449D01*
X167369713Y-107105089D01*
X167369716Y-107105088D01*
X167481520Y-106993284D01*
X167531639Y-106906472D01*
X167560577Y-106856353D01*
X167601501Y-106703625D01*
X167601501Y-106545511D01*
X167601501Y-106537916D01*
X167601500Y-106537898D01*
X167601500Y-88699914D01*
X167621185Y-88632875D01*
X167673989Y-88587120D01*
X167743147Y-88577176D01*
X167800985Y-88601538D01*
X167838180Y-88630079D01*
X167886196Y-88666924D01*
X168113299Y-88798041D01*
X168113309Y-88798046D01*
X168289861Y-88871176D01*
X168355581Y-88898398D01*
X168608884Y-88966270D01*
X168868880Y-89000500D01*
X168868887Y-89000500D01*
X169131113Y-89000500D01*
X169131120Y-89000500D01*
X169391116Y-88966270D01*
X169644419Y-88898398D01*
X169886697Y-88798043D01*
X170113803Y-88666924D01*
X170194514Y-88604991D01*
X170259681Y-88579797D01*
X170328126Y-88593835D01*
X170345481Y-88604987D01*
X170426197Y-88666924D01*
X170449535Y-88680398D01*
X170653299Y-88798041D01*
X170653309Y-88798046D01*
X170829861Y-88871176D01*
X170895581Y-88898398D01*
X171148884Y-88966270D01*
X171408880Y-89000500D01*
X171408887Y-89000500D01*
X171671113Y-89000500D01*
X171671120Y-89000500D01*
X171931116Y-88966270D01*
X172184419Y-88898398D01*
X172426697Y-88798043D01*
X172653803Y-88666924D01*
X172861851Y-88507282D01*
X172861855Y-88507277D01*
X172861860Y-88507274D01*
X173047274Y-88321860D01*
X173047277Y-88321855D01*
X173047282Y-88321851D01*
X173206924Y-88113803D01*
X173338043Y-87886697D01*
X173349265Y-87859606D01*
X173411206Y-87710066D01*
X173438398Y-87644419D01*
X173506270Y-87391116D01*
X173540500Y-87131120D01*
X173540500Y-86868880D01*
X173506270Y-86608884D01*
X173438398Y-86355581D01*
X173438394Y-86355571D01*
X173338046Y-86113309D01*
X173338041Y-86113299D01*
X173206924Y-85886196D01*
X173047281Y-85678148D01*
X173047274Y-85678140D01*
X172861860Y-85492726D01*
X172861851Y-85492718D01*
X172653803Y-85333075D01*
X172426700Y-85201958D01*
X172426690Y-85201953D01*
X172184428Y-85101605D01*
X172184421Y-85101603D01*
X172184419Y-85101602D01*
X171931116Y-85033730D01*
X171873339Y-85026123D01*
X171671127Y-84999500D01*
X171671120Y-84999500D01*
X171408880Y-84999500D01*
X171408872Y-84999500D01*
X171177772Y-85029926D01*
X171148884Y-85033730D01*
X170938888Y-85089998D01*
X170895581Y-85101602D01*
X170895571Y-85101605D01*
X170653309Y-85201953D01*
X170653299Y-85201958D01*
X170426197Y-85333075D01*
X170345486Y-85395007D01*
X170280317Y-85420201D01*
X170211872Y-85406162D01*
X170194514Y-85395007D01*
X170113802Y-85333075D01*
X169886700Y-85201958D01*
X169886690Y-85201953D01*
X169644428Y-85101605D01*
X169644421Y-85101603D01*
X169644419Y-85101602D01*
X169391116Y-85033730D01*
X169333339Y-85026123D01*
X169131127Y-84999500D01*
X169131120Y-84999500D01*
X168868880Y-84999500D01*
X168868872Y-84999500D01*
X168637772Y-85029926D01*
X168608884Y-85033730D01*
X168398888Y-85089998D01*
X168355581Y-85101602D01*
X168355571Y-85101605D01*
X168113309Y-85201953D01*
X168113299Y-85201958D01*
X167886201Y-85333072D01*
X167839754Y-85368713D01*
X167800985Y-85398461D01*
X167735818Y-85423655D01*
X167667373Y-85409617D01*
X167617383Y-85360803D01*
X167601500Y-85300085D01*
X167601500Y-79090060D01*
X167601501Y-79090047D01*
X167601501Y-78921944D01*
X167598301Y-78910000D01*
X167560577Y-78769216D01*
X167560573Y-78769209D01*
X167481524Y-78632290D01*
X167481518Y-78632282D01*
X167286318Y-78437082D01*
X167252833Y-78375759D01*
X167257817Y-78306067D01*
X167299689Y-78250134D01*
X167342096Y-78230216D01*
X167342010Y-78229951D01*
X167344127Y-78229263D01*
X167345060Y-78228825D01*
X167346624Y-78228449D01*
X167346643Y-78228446D01*
X167548812Y-78162757D01*
X167738216Y-78066251D01*
X167824538Y-78003535D01*
X167910186Y-77941309D01*
X167910188Y-77941306D01*
X167910192Y-77941304D01*
X168060504Y-77790992D01*
X168060506Y-77790988D01*
X168060509Y-77790986D01*
X168185448Y-77619020D01*
X168185447Y-77619020D01*
X168185451Y-77619016D01*
X168189914Y-77610254D01*
X168237888Y-77559459D01*
X168305708Y-77542663D01*
X168371844Y-77565199D01*
X168410886Y-77610256D01*
X168415351Y-77619020D01*
X168540290Y-77790986D01*
X168690613Y-77941309D01*
X168862579Y-78066248D01*
X168862581Y-78066249D01*
X168862584Y-78066251D01*
X169051988Y-78162757D01*
X169254157Y-78228446D01*
X169464113Y-78261700D01*
X169464114Y-78261700D01*
X169676686Y-78261700D01*
X169676687Y-78261700D01*
X169886643Y-78228446D01*
X170088812Y-78162757D01*
X170278216Y-78066251D01*
X170364538Y-78003535D01*
X170450186Y-77941309D01*
X170450188Y-77941306D01*
X170450192Y-77941304D01*
X170600504Y-77790992D01*
X170600506Y-77790988D01*
X170600509Y-77790986D01*
X170725448Y-77619020D01*
X170725447Y-77619020D01*
X170725451Y-77619016D01*
X170729914Y-77610254D01*
X170777888Y-77559459D01*
X170845708Y-77542663D01*
X170911844Y-77565199D01*
X170950886Y-77610256D01*
X170955351Y-77619020D01*
X171080290Y-77790986D01*
X171230613Y-77941309D01*
X171402579Y-78066248D01*
X171402581Y-78066249D01*
X171402584Y-78066251D01*
X171591988Y-78162757D01*
X171794157Y-78228446D01*
X172004113Y-78261700D01*
X172004114Y-78261700D01*
X172216686Y-78261700D01*
X172216687Y-78261700D01*
X172426643Y-78228446D01*
X172628812Y-78162757D01*
X172818216Y-78066251D01*
X172904538Y-78003535D01*
X172990186Y-77941309D01*
X172990188Y-77941306D01*
X172990192Y-77941304D01*
X173140504Y-77790992D01*
X173140506Y-77790988D01*
X173140509Y-77790986D01*
X173265448Y-77619020D01*
X173265447Y-77619020D01*
X173265451Y-77619016D01*
X173269914Y-77610254D01*
X173317888Y-77559459D01*
X173385708Y-77542663D01*
X173451844Y-77565199D01*
X173490886Y-77610256D01*
X173495351Y-77619020D01*
X173620290Y-77790986D01*
X173770613Y-77941309D01*
X173942579Y-78066248D01*
X173942581Y-78066249D01*
X173942584Y-78066251D01*
X174131988Y-78162757D01*
X174334157Y-78228446D01*
X174544113Y-78261700D01*
X174544114Y-78261700D01*
X174756686Y-78261700D01*
X174756687Y-78261700D01*
X174966643Y-78228446D01*
X175168812Y-78162757D01*
X175358216Y-78066251D01*
X175444538Y-78003535D01*
X175530186Y-77941309D01*
X175530188Y-77941306D01*
X175530192Y-77941304D01*
X175680504Y-77790992D01*
X175680506Y-77790988D01*
X175680509Y-77790986D01*
X175805448Y-77619020D01*
X175805447Y-77619020D01*
X175805451Y-77619016D01*
X175901957Y-77429612D01*
X175967646Y-77227443D01*
X176000900Y-77017487D01*
X176000900Y-76804913D01*
X175967646Y-76594957D01*
X175901957Y-76392788D01*
X175805451Y-76203384D01*
X175805449Y-76203381D01*
X175805448Y-76203379D01*
X175680509Y-76031413D01*
X175530186Y-75881090D01*
X175358220Y-75756151D01*
X175357515Y-75755791D01*
X175349454Y-75751685D01*
X175298659Y-75703712D01*
X175281863Y-75635892D01*
X175304399Y-75569756D01*
X175349454Y-75530715D01*
X175358216Y-75526251D01*
X175438900Y-75467631D01*
X175530186Y-75401309D01*
X175530188Y-75401306D01*
X175530192Y-75401304D01*
X175680504Y-75250992D01*
X175680506Y-75250988D01*
X175680509Y-75250986D01*
X175805448Y-75079020D01*
X175805447Y-75079020D01*
X175805451Y-75079016D01*
X175809914Y-75070254D01*
X175857888Y-75019459D01*
X175925708Y-75002663D01*
X175991844Y-75025199D01*
X176030886Y-75070256D01*
X176035351Y-75079020D01*
X176160290Y-75250986D01*
X176310613Y-75401309D01*
X176482579Y-75526248D01*
X176482581Y-75526249D01*
X176482584Y-75526251D01*
X176671988Y-75622757D01*
X176874157Y-75688446D01*
X177084113Y-75721700D01*
X177084114Y-75721700D01*
X177296686Y-75721700D01*
X177296687Y-75721700D01*
X177506643Y-75688446D01*
X177708812Y-75622757D01*
X177898216Y-75526251D01*
X177928414Y-75504311D01*
X180209900Y-75504311D01*
X180209900Y-75746888D01*
X180241561Y-75987385D01*
X180304347Y-76221704D01*
X180397173Y-76445805D01*
X180397177Y-76445814D01*
X180411723Y-76471009D01*
X180518464Y-76655889D01*
X180518466Y-76655892D01*
X180518467Y-76655893D01*
X180666133Y-76848336D01*
X180666139Y-76848343D01*
X180837656Y-77019860D01*
X180837662Y-77019865D01*
X181030111Y-77167536D01*
X181240188Y-77288824D01*
X181464300Y-77381654D01*
X181698611Y-77444438D01*
X181878986Y-77468184D01*
X181939111Y-77476100D01*
X181939112Y-77476100D01*
X182181689Y-77476100D01*
X182229788Y-77469767D01*
X182422189Y-77444438D01*
X182656500Y-77381654D01*
X182880612Y-77288824D01*
X183090689Y-77167536D01*
X183283138Y-77019865D01*
X183454665Y-76848338D01*
X183602336Y-76655889D01*
X183723624Y-76445812D01*
X183816454Y-76221700D01*
X183879238Y-75987389D01*
X183910900Y-75746888D01*
X183910900Y-75504312D01*
X183879238Y-75263811D01*
X183816454Y-75029500D01*
X183814672Y-75025199D01*
X183758511Y-74889614D01*
X183723624Y-74805388D01*
X183602336Y-74595311D01*
X183454665Y-74402862D01*
X183454660Y-74402856D01*
X183283143Y-74231339D01*
X183283136Y-74231333D01*
X183090693Y-74083667D01*
X183090692Y-74083666D01*
X183090689Y-74083664D01*
X182880612Y-73962376D01*
X182845903Y-73947999D01*
X182656504Y-73869547D01*
X182422185Y-73806761D01*
X182181689Y-73775100D01*
X182181688Y-73775100D01*
X181939112Y-73775100D01*
X181939111Y-73775100D01*
X181698614Y-73806761D01*
X181464295Y-73869547D01*
X181240194Y-73962373D01*
X181240185Y-73962377D01*
X181030106Y-74083667D01*
X180837663Y-74231333D01*
X180837656Y-74231339D01*
X180666139Y-74402856D01*
X180666133Y-74402863D01*
X180518467Y-74595306D01*
X180397177Y-74805385D01*
X180397173Y-74805394D01*
X180304347Y-75029495D01*
X180241561Y-75263814D01*
X180209900Y-75504311D01*
X177928414Y-75504311D01*
X178070192Y-75401304D01*
X178220504Y-75250992D01*
X178220506Y-75250988D01*
X178220509Y-75250986D01*
X178345448Y-75079020D01*
X178345447Y-75079020D01*
X178345451Y-75079016D01*
X178441957Y-74889612D01*
X178507646Y-74687443D01*
X178540900Y-74477487D01*
X178540900Y-74264913D01*
X178507646Y-74054957D01*
X178441957Y-73852788D01*
X178345451Y-73663384D01*
X178345449Y-73663381D01*
X178345448Y-73663379D01*
X178220509Y-73491413D01*
X178070186Y-73341090D01*
X177898220Y-73216151D01*
X177708814Y-73119644D01*
X177708813Y-73119643D01*
X177708812Y-73119643D01*
X177506643Y-73053954D01*
X177506641Y-73053953D01*
X177506640Y-73053953D01*
X177345357Y-73028408D01*
X177296687Y-73020700D01*
X177084113Y-73020700D01*
X177035442Y-73028408D01*
X176874160Y-73053953D01*
X176671985Y-73119644D01*
X176482579Y-73216151D01*
X176310613Y-73341090D01*
X176160290Y-73491413D01*
X176035349Y-73663382D01*
X176030884Y-73672146D01*
X175982909Y-73722942D01*
X175915088Y-73739736D01*
X175848953Y-73717198D01*
X175809916Y-73672146D01*
X175805450Y-73663382D01*
X175680509Y-73491413D01*
X175530186Y-73341090D01*
X175358220Y-73216151D01*
X175168814Y-73119644D01*
X175168813Y-73119643D01*
X175168812Y-73119643D01*
X174966643Y-73053954D01*
X174966641Y-73053953D01*
X174966640Y-73053953D01*
X174805357Y-73028408D01*
X174756687Y-73020700D01*
X174544113Y-73020700D01*
X174495442Y-73028408D01*
X174334160Y-73053953D01*
X174131985Y-73119644D01*
X173942579Y-73216151D01*
X173770613Y-73341090D01*
X173620290Y-73491413D01*
X173495349Y-73663382D01*
X173490884Y-73672146D01*
X173442909Y-73722942D01*
X173375088Y-73739736D01*
X173308953Y-73717198D01*
X173269916Y-73672146D01*
X173265450Y-73663382D01*
X173140509Y-73491413D01*
X172990186Y-73341090D01*
X172818220Y-73216151D01*
X172628814Y-73119644D01*
X172628813Y-73119643D01*
X172628812Y-73119643D01*
X172426643Y-73053954D01*
X172426641Y-73053953D01*
X172426640Y-73053953D01*
X172265357Y-73028408D01*
X172216687Y-73020700D01*
X172004113Y-73020700D01*
X171955442Y-73028408D01*
X171794160Y-73053953D01*
X171591985Y-73119644D01*
X171402579Y-73216151D01*
X171230613Y-73341090D01*
X171080290Y-73491413D01*
X170955351Y-73663379D01*
X170858844Y-73852785D01*
X170793153Y-74054960D01*
X170759900Y-74264913D01*
X170759900Y-74477486D01*
X170779181Y-74599225D01*
X170793154Y-74687443D01*
X170857588Y-74885750D01*
X170858844Y-74889614D01*
X170955351Y-75079020D01*
X171080290Y-75250986D01*
X171230613Y-75401309D01*
X171402582Y-75526250D01*
X171411346Y-75530716D01*
X171462142Y-75578691D01*
X171478936Y-75646512D01*
X171456398Y-75712647D01*
X171411346Y-75751684D01*
X171402582Y-75756149D01*
X171230613Y-75881090D01*
X171080290Y-76031413D01*
X170955349Y-76203382D01*
X170950884Y-76212146D01*
X170902909Y-76262942D01*
X170835088Y-76279736D01*
X170768953Y-76257198D01*
X170729916Y-76212146D01*
X170725450Y-76203382D01*
X170600509Y-76031413D01*
X170450186Y-75881090D01*
X170278220Y-75756151D01*
X170088814Y-75659644D01*
X170088813Y-75659643D01*
X170088812Y-75659643D01*
X169886643Y-75593954D01*
X169886641Y-75593953D01*
X169886640Y-75593953D01*
X169692130Y-75563146D01*
X169676687Y-75560700D01*
X169464113Y-75560700D01*
X169448670Y-75563146D01*
X169254160Y-75593953D01*
X169254157Y-75593954D01*
X169064607Y-75655543D01*
X169051985Y-75659644D01*
X168862579Y-75756151D01*
X168690613Y-75881090D01*
X168540290Y-76031413D01*
X168415349Y-76203382D01*
X168410884Y-76212146D01*
X168362909Y-76262942D01*
X168295088Y-76279736D01*
X168228953Y-76257198D01*
X168189916Y-76212146D01*
X168185450Y-76203382D01*
X168060509Y-76031413D01*
X167910186Y-75881090D01*
X167738220Y-75756151D01*
X167737515Y-75755791D01*
X167729454Y-75751685D01*
X167678659Y-75703712D01*
X167661863Y-75635892D01*
X167684399Y-75569756D01*
X167729454Y-75530715D01*
X167738216Y-75526251D01*
X167818900Y-75467631D01*
X167910186Y-75401309D01*
X167910188Y-75401306D01*
X167910192Y-75401304D01*
X168060504Y-75250992D01*
X168060506Y-75250988D01*
X168060509Y-75250986D01*
X168185448Y-75079020D01*
X168185447Y-75079020D01*
X168185451Y-75079016D01*
X168281957Y-74889612D01*
X168347646Y-74687443D01*
X168380900Y-74477487D01*
X168380900Y-74264913D01*
X168347646Y-74054957D01*
X168281957Y-73852788D01*
X168185451Y-73663384D01*
X168185449Y-73663381D01*
X168185448Y-73663379D01*
X168060509Y-73491413D01*
X167910186Y-73341090D01*
X167738220Y-73216151D01*
X167548814Y-73119644D01*
X167548813Y-73119643D01*
X167548812Y-73119643D01*
X167346643Y-73053954D01*
X167346641Y-73053953D01*
X167346640Y-73053953D01*
X167185357Y-73028408D01*
X167136687Y-73020700D01*
X166924113Y-73020700D01*
X166875442Y-73028408D01*
X166714160Y-73053953D01*
X166511985Y-73119644D01*
X166322579Y-73216151D01*
X166150613Y-73341090D01*
X166000290Y-73491413D01*
X165875351Y-73663379D01*
X165778844Y-73852785D01*
X165713153Y-74054960D01*
X165679900Y-74264913D01*
X165679900Y-74477486D01*
X165699181Y-74599225D01*
X165713154Y-74687443D01*
X165777588Y-74885750D01*
X165778844Y-74889614D01*
X165875351Y-75079020D01*
X166000290Y-75250986D01*
X166150613Y-75401309D01*
X166322582Y-75526250D01*
X166331346Y-75530716D01*
X166382142Y-75578691D01*
X166398936Y-75646512D01*
X166376398Y-75712647D01*
X166331346Y-75751684D01*
X166322582Y-75756149D01*
X166150613Y-75881090D01*
X166000290Y-76031413D01*
X165875349Y-76203382D01*
X165870884Y-76212146D01*
X165822909Y-76262942D01*
X165755088Y-76279736D01*
X165688953Y-76257198D01*
X165649916Y-76212146D01*
X165645450Y-76203382D01*
X165520509Y-76031413D01*
X165370186Y-75881090D01*
X165198220Y-75756151D01*
X165008814Y-75659644D01*
X165008813Y-75659643D01*
X165008812Y-75659643D01*
X164806643Y-75593954D01*
X164806641Y-75593953D01*
X164806640Y-75593953D01*
X164612130Y-75563146D01*
X164596687Y-75560700D01*
X164384113Y-75560700D01*
X164368670Y-75563146D01*
X164174160Y-75593953D01*
X164174157Y-75593954D01*
X163984607Y-75655543D01*
X163971985Y-75659644D01*
X163782579Y-75756151D01*
X163610613Y-75881090D01*
X163460290Y-76031413D01*
X163335349Y-76203382D01*
X163330884Y-76212146D01*
X163282909Y-76262942D01*
X163215088Y-76279736D01*
X163148953Y-76257198D01*
X163109916Y-76212146D01*
X163105450Y-76203382D01*
X162980509Y-76031413D01*
X162830186Y-75881090D01*
X162658220Y-75756151D01*
X162657515Y-75755791D01*
X162649454Y-75751685D01*
X162598659Y-75703712D01*
X162581863Y-75635892D01*
X162604399Y-75569756D01*
X162649454Y-75530715D01*
X162658216Y-75526251D01*
X162738900Y-75467631D01*
X162830186Y-75401309D01*
X162830188Y-75401306D01*
X162830192Y-75401304D01*
X162980504Y-75250992D01*
X162980506Y-75250988D01*
X162980509Y-75250986D01*
X163105448Y-75079020D01*
X163105447Y-75079020D01*
X163105451Y-75079016D01*
X163201957Y-74889612D01*
X163267646Y-74687443D01*
X163300900Y-74477487D01*
X163300900Y-74264913D01*
X163267646Y-74054957D01*
X163201957Y-73852788D01*
X163105451Y-73663384D01*
X163105449Y-73663381D01*
X163105448Y-73663379D01*
X162980509Y-73491413D01*
X162830186Y-73341090D01*
X162658220Y-73216151D01*
X162468814Y-73119644D01*
X162468813Y-73119643D01*
X162468812Y-73119643D01*
X162266643Y-73053954D01*
X162266641Y-73053953D01*
X162266640Y-73053953D01*
X162105357Y-73028408D01*
X162056687Y-73020700D01*
X161844113Y-73020700D01*
X161795442Y-73028408D01*
X161634160Y-73053953D01*
X161431985Y-73119644D01*
X161242579Y-73216151D01*
X161070613Y-73341090D01*
X160920290Y-73491413D01*
X160795349Y-73663382D01*
X160790884Y-73672146D01*
X160742909Y-73722942D01*
X160675088Y-73739736D01*
X160608953Y-73717198D01*
X160569916Y-73672146D01*
X160565450Y-73663382D01*
X160440509Y-73491413D01*
X160290186Y-73341090D01*
X160118220Y-73216151D01*
X159928814Y-73119644D01*
X159928813Y-73119643D01*
X159928812Y-73119643D01*
X159726643Y-73053954D01*
X159726641Y-73053953D01*
X159726640Y-73053953D01*
X159565357Y-73028408D01*
X159516687Y-73020700D01*
X159304113Y-73020700D01*
X159255442Y-73028408D01*
X159094160Y-73053953D01*
X158891985Y-73119644D01*
X158702579Y-73216151D01*
X158530613Y-73341090D01*
X158380290Y-73491413D01*
X158255349Y-73663382D01*
X158250884Y-73672146D01*
X158202909Y-73722942D01*
X158135088Y-73739736D01*
X158068953Y-73717198D01*
X158029916Y-73672146D01*
X158025450Y-73663382D01*
X157900509Y-73491413D01*
X157750186Y-73341090D01*
X157578220Y-73216151D01*
X157388814Y-73119644D01*
X157388813Y-73119643D01*
X157388812Y-73119643D01*
X157186643Y-73053954D01*
X157186641Y-73053953D01*
X157186640Y-73053953D01*
X157025357Y-73028408D01*
X156976687Y-73020700D01*
X156764113Y-73020700D01*
X156715442Y-73028408D01*
X156554160Y-73053953D01*
X156351985Y-73119644D01*
X156162579Y-73216151D01*
X155990613Y-73341090D01*
X155840290Y-73491413D01*
X155715349Y-73663382D01*
X155710884Y-73672146D01*
X155662909Y-73722942D01*
X155595088Y-73739736D01*
X155528953Y-73717198D01*
X155489916Y-73672146D01*
X155485450Y-73663382D01*
X155360509Y-73491413D01*
X155210186Y-73341090D01*
X155038220Y-73216151D01*
X154848814Y-73119644D01*
X154848813Y-73119643D01*
X154848812Y-73119643D01*
X154646643Y-73053954D01*
X154646641Y-73053953D01*
X154646640Y-73053953D01*
X154485357Y-73028408D01*
X154436687Y-73020700D01*
X154224113Y-73020700D01*
X154175442Y-73028408D01*
X154014160Y-73053953D01*
X153811985Y-73119644D01*
X153622579Y-73216151D01*
X153450613Y-73341090D01*
X153300290Y-73491413D01*
X153175351Y-73663379D01*
X153078844Y-73852785D01*
X153013153Y-74054960D01*
X152979900Y-74264913D01*
X152979900Y-74477486D01*
X153013154Y-74687444D01*
X153013154Y-74687447D01*
X153026891Y-74729723D01*
X153027325Y-74744934D01*
X153032644Y-74759193D01*
X153028302Y-74779150D01*
X153028886Y-74799564D01*
X153020798Y-74813650D01*
X153017793Y-74827466D01*
X152996643Y-74855721D01*
X152966985Y-74885380D01*
X152905662Y-74918866D01*
X152879302Y-74921700D01*
X151564470Y-74921700D01*
X151564454Y-74921699D01*
X151556858Y-74921699D01*
X151398743Y-74921699D01*
X151322379Y-74942161D01*
X151246014Y-74962623D01*
X151246009Y-74962626D01*
X151109090Y-75041675D01*
X151109082Y-75041681D01*
X150285862Y-75864901D01*
X150256638Y-75880858D01*
X150227836Y-75897622D01*
X150226080Y-75897544D01*
X150224539Y-75898386D01*
X150191314Y-75896009D01*
X150158034Y-75894541D01*
X150155999Y-75893484D01*
X150154847Y-75893402D01*
X150126607Y-75878478D01*
X150125928Y-75877998D01*
X149958216Y-75756149D01*
X149941480Y-75747621D01*
X149934175Y-75742458D01*
X149917815Y-75721803D01*
X149898659Y-75703712D01*
X149896463Y-75694847D01*
X149890793Y-75687688D01*
X149888197Y-75661467D01*
X149881863Y-75635892D01*
X149884808Y-75627246D01*
X149883909Y-75618158D01*
X149895899Y-75594697D01*
X149904399Y-75569756D01*
X149912026Y-75563146D01*
X149915708Y-75555944D01*
X149929813Y-75547734D01*
X149949454Y-75530715D01*
X149958216Y-75526251D01*
X150038900Y-75467631D01*
X150130186Y-75401309D01*
X150130188Y-75401306D01*
X150130192Y-75401304D01*
X150280504Y-75250992D01*
X150280506Y-75250988D01*
X150280509Y-75250986D01*
X150405448Y-75079020D01*
X150405447Y-75079020D01*
X150405451Y-75079016D01*
X150501957Y-74889612D01*
X150567646Y-74687443D01*
X150600900Y-74477487D01*
X150600900Y-74264913D01*
X150567646Y-74054957D01*
X150501957Y-73852788D01*
X150405451Y-73663384D01*
X150405449Y-73663381D01*
X150405448Y-73663379D01*
X150280509Y-73491413D01*
X150130186Y-73341090D01*
X149958220Y-73216151D01*
X149768814Y-73119644D01*
X149768813Y-73119643D01*
X149768812Y-73119643D01*
X149566643Y-73053954D01*
X149566641Y-73053953D01*
X149566640Y-73053953D01*
X149405357Y-73028408D01*
X149356687Y-73020700D01*
X149144113Y-73020700D01*
X149095442Y-73028408D01*
X148934160Y-73053953D01*
X148731985Y-73119644D01*
X148542579Y-73216151D01*
X148370613Y-73341090D01*
X148220290Y-73491413D01*
X148095349Y-73663382D01*
X148090884Y-73672146D01*
X148042909Y-73722942D01*
X147975088Y-73739736D01*
X147908953Y-73717198D01*
X147869916Y-73672146D01*
X147865450Y-73663382D01*
X147740509Y-73491413D01*
X147590186Y-73341090D01*
X147418220Y-73216151D01*
X147228814Y-73119644D01*
X147228813Y-73119643D01*
X147228812Y-73119643D01*
X147026643Y-73053954D01*
X147026641Y-73053953D01*
X147026640Y-73053953D01*
X146865357Y-73028408D01*
X146816687Y-73020700D01*
X146604113Y-73020700D01*
X146555442Y-73028408D01*
X146394160Y-73053953D01*
X146191985Y-73119644D01*
X146002579Y-73216151D01*
X145830613Y-73341090D01*
X145680290Y-73491413D01*
X145555351Y-73663379D01*
X145458844Y-73852785D01*
X145393153Y-74054960D01*
X145359900Y-74264913D01*
X145359900Y-74477486D01*
X145379181Y-74599225D01*
X145393154Y-74687443D01*
X145457588Y-74885750D01*
X145458844Y-74889614D01*
X145555351Y-75079020D01*
X145680290Y-75250986D01*
X145830613Y-75401309D01*
X146002582Y-75526250D01*
X146011346Y-75530716D01*
X146062142Y-75578691D01*
X146078936Y-75646512D01*
X146056398Y-75712647D01*
X146011346Y-75751684D01*
X146002582Y-75756149D01*
X145830613Y-75881090D01*
X145680290Y-76031413D01*
X145555349Y-76203382D01*
X145550884Y-76212146D01*
X145502909Y-76262942D01*
X145435088Y-76279736D01*
X145368953Y-76257198D01*
X145329916Y-76212146D01*
X145325450Y-76203382D01*
X145200509Y-76031413D01*
X145050186Y-75881090D01*
X144878220Y-75756151D01*
X144688814Y-75659644D01*
X144688813Y-75659643D01*
X144688812Y-75659643D01*
X144486643Y-75593954D01*
X144486641Y-75593953D01*
X144486640Y-75593953D01*
X144292130Y-75563146D01*
X144276687Y-75560700D01*
X144064113Y-75560700D01*
X144048670Y-75563146D01*
X143854160Y-75593953D01*
X143854157Y-75593954D01*
X143664607Y-75655543D01*
X143651985Y-75659644D01*
X143462579Y-75756151D01*
X143290613Y-75881090D01*
X143140290Y-76031413D01*
X143015349Y-76203382D01*
X143010884Y-76212146D01*
X142962909Y-76262942D01*
X142895088Y-76279736D01*
X142828953Y-76257198D01*
X142789916Y-76212146D01*
X142785450Y-76203382D01*
X142660509Y-76031413D01*
X142510186Y-75881090D01*
X142338220Y-75756151D01*
X142337515Y-75755791D01*
X142329454Y-75751685D01*
X142278659Y-75703712D01*
X142261863Y-75635892D01*
X142284399Y-75569756D01*
X142329454Y-75530715D01*
X142338216Y-75526251D01*
X142418900Y-75467631D01*
X142510186Y-75401309D01*
X142510188Y-75401306D01*
X142510192Y-75401304D01*
X142660504Y-75250992D01*
X142660506Y-75250988D01*
X142660509Y-75250986D01*
X142785448Y-75079020D01*
X142785447Y-75079020D01*
X142785451Y-75079016D01*
X142881957Y-74889612D01*
X142947646Y-74687443D01*
X142980900Y-74477487D01*
X142980900Y-74264913D01*
X142947646Y-74054957D01*
X142881957Y-73852788D01*
X142785451Y-73663384D01*
X142785449Y-73663381D01*
X142785448Y-73663379D01*
X142660509Y-73491413D01*
X142510186Y-73341090D01*
X142338220Y-73216151D01*
X142148814Y-73119644D01*
X142148813Y-73119643D01*
X142148812Y-73119643D01*
X141946643Y-73053954D01*
X141946641Y-73053953D01*
X141946640Y-73053953D01*
X141785357Y-73028408D01*
X141736687Y-73020700D01*
X141524113Y-73020700D01*
X141475442Y-73028408D01*
X141314160Y-73053953D01*
X141111985Y-73119644D01*
X140922579Y-73216151D01*
X140750613Y-73341090D01*
X140600290Y-73491413D01*
X140475349Y-73663382D01*
X140470884Y-73672146D01*
X140422909Y-73722942D01*
X140355088Y-73739736D01*
X140288953Y-73717198D01*
X140249916Y-73672146D01*
X140245450Y-73663382D01*
X140120509Y-73491413D01*
X139970186Y-73341090D01*
X139798220Y-73216151D01*
X139608814Y-73119644D01*
X139608813Y-73119643D01*
X139608812Y-73119643D01*
X139406643Y-73053954D01*
X139406641Y-73053953D01*
X139406640Y-73053953D01*
X139245357Y-73028408D01*
X139196687Y-73020700D01*
X138984113Y-73020700D01*
X138935442Y-73028408D01*
X138774160Y-73053953D01*
X138571985Y-73119644D01*
X138382579Y-73216151D01*
X138210613Y-73341090D01*
X138060290Y-73491413D01*
X137935349Y-73663382D01*
X137930884Y-73672146D01*
X137882909Y-73722942D01*
X137815088Y-73739736D01*
X137748953Y-73717198D01*
X137709916Y-73672146D01*
X137705450Y-73663382D01*
X137580509Y-73491413D01*
X137430186Y-73341090D01*
X137258220Y-73216151D01*
X137068814Y-73119644D01*
X137068813Y-73119643D01*
X137068812Y-73119643D01*
X136866643Y-73053954D01*
X136866641Y-73053953D01*
X136866640Y-73053953D01*
X136705357Y-73028408D01*
X136656687Y-73020700D01*
X136444113Y-73020700D01*
X136415406Y-73025246D01*
X136234157Y-73053953D01*
X136191873Y-73067692D01*
X136122032Y-73069686D01*
X136065876Y-73037441D01*
X135666789Y-72638354D01*
X135659720Y-72631285D01*
X135659720Y-72631284D01*
X135622616Y-72594180D01*
X135589131Y-72532857D01*
X135591802Y-72495519D01*
X135594116Y-72463166D01*
X135635988Y-72407233D01*
X135635988Y-72407232D01*
X135635989Y-72407232D01*
X135677036Y-72391922D01*
X135701452Y-72382816D01*
X135710298Y-72382500D01*
X182482508Y-72382500D01*
X182544649Y-72382500D01*
X182552136Y-72382726D01*
X182842196Y-72400271D01*
X182857057Y-72402075D01*
X183139197Y-72453780D01*
X183153734Y-72457363D01*
X183427582Y-72542698D01*
X183441563Y-72548000D01*
X183703134Y-72665724D01*
X183716387Y-72672680D01*
X183961858Y-72821071D01*
X183974176Y-72829573D01*
X184199973Y-73006474D01*
X184211181Y-73016404D01*
X184413995Y-73219218D01*
X184423925Y-73230426D01*
X184567682Y-73413918D01*
X184600822Y-73456217D01*
X184609328Y-73468541D01*
X184757719Y-73714012D01*
X184764677Y-73727269D01*
X184875497Y-73973500D01*
X184882394Y-73988823D01*
X184887704Y-74002825D01*
X184973035Y-74276664D01*
X184976619Y-74291202D01*
X185028323Y-74573340D01*
X185030128Y-74588205D01*
X185047674Y-74878263D01*
X185047900Y-74885750D01*
X185047900Y-124921049D01*
X185047674Y-124928536D01*
X185030128Y-125218594D01*
X185028323Y-125233459D01*
X184976619Y-125515597D01*
X184973035Y-125530135D01*
X184887704Y-125803974D01*
X184882394Y-125817976D01*
X184764677Y-126079530D01*
X184757719Y-126092787D01*
X184609328Y-126338258D01*
X184600822Y-126350582D01*
X184423925Y-126576373D01*
X184413995Y-126587581D01*
X184211181Y-126790395D01*
X184199973Y-126800325D01*
X183974182Y-126977222D01*
X183961858Y-126985728D01*
X183716387Y-127134119D01*
X183703130Y-127141077D01*
X183441576Y-127258794D01*
X183427574Y-127264104D01*
X183153735Y-127349435D01*
X183139197Y-127353019D01*
X182857059Y-127404723D01*
X182842194Y-127406528D01*
X182552136Y-127424074D01*
X182544649Y-127424300D01*
X123552151Y-127424300D01*
X123544664Y-127424074D01*
X123254605Y-127406528D01*
X123239740Y-127404723D01*
X122957602Y-127353019D01*
X122943064Y-127349435D01*
X122669225Y-127264104D01*
X122655227Y-127258795D01*
X122502496Y-127190056D01*
X122393669Y-127141077D01*
X122380412Y-127134119D01*
X122134941Y-126985728D01*
X122122617Y-126977222D01*
X122121182Y-126976098D01*
X121896826Y-126800325D01*
X121885618Y-126790395D01*
X121682804Y-126587581D01*
X121672874Y-126576373D01*
X121640069Y-126534501D01*
X121495973Y-126350576D01*
X121487471Y-126338258D01*
X121339080Y-126092787D01*
X121332122Y-126079530D01*
X121214400Y-125817963D01*
X121209098Y-125803982D01*
X121123763Y-125530134D01*
X121120180Y-125515597D01*
X121101728Y-125414910D01*
X121068475Y-125233457D01*
X121066671Y-125218594D01*
X121065068Y-125192100D01*
X121053709Y-125004311D01*
X122209900Y-125004311D01*
X122209900Y-125246888D01*
X122241561Y-125487385D01*
X122304347Y-125721704D01*
X122394156Y-125938521D01*
X122397176Y-125945812D01*
X122518464Y-126155889D01*
X122518466Y-126155892D01*
X122518467Y-126155893D01*
X122666133Y-126348336D01*
X122666139Y-126348343D01*
X122837656Y-126519860D01*
X122837663Y-126519866D01*
X122911305Y-126576373D01*
X123030111Y-126667536D01*
X123240188Y-126788824D01*
X123464300Y-126881654D01*
X123698611Y-126944438D01*
X123856887Y-126965275D01*
X123939111Y-126976100D01*
X123939112Y-126976100D01*
X124181689Y-126976100D01*
X124263913Y-126965275D01*
X124422189Y-126944438D01*
X124656500Y-126881654D01*
X124880612Y-126788824D01*
X125090689Y-126667536D01*
X125283138Y-126519865D01*
X125454665Y-126348338D01*
X125602336Y-126155889D01*
X125723624Y-125945812D01*
X125816454Y-125721700D01*
X125879238Y-125487389D01*
X125910900Y-125246888D01*
X125910900Y-125004312D01*
X125879238Y-124763811D01*
X125816454Y-124529500D01*
X125810761Y-124515757D01*
X125770786Y-124419248D01*
X125723624Y-124305388D01*
X125602336Y-124095311D01*
X125454665Y-123902862D01*
X125454660Y-123902856D01*
X125283143Y-123731339D01*
X125283136Y-123731333D01*
X125090693Y-123583667D01*
X125090692Y-123583666D01*
X125090689Y-123583664D01*
X124880612Y-123462376D01*
X124865383Y-123456068D01*
X124656504Y-123369547D01*
X124422185Y-123306761D01*
X124181689Y-123275100D01*
X124181688Y-123275100D01*
X123939112Y-123275100D01*
X123939111Y-123275100D01*
X123698614Y-123306761D01*
X123464295Y-123369547D01*
X123240194Y-123462373D01*
X123240185Y-123462377D01*
X123030106Y-123583667D01*
X122837663Y-123731333D01*
X122837656Y-123731339D01*
X122666139Y-123902856D01*
X122666133Y-123902863D01*
X122518467Y-124095306D01*
X122397177Y-124305385D01*
X122397173Y-124305394D01*
X122304347Y-124529495D01*
X122241561Y-124763814D01*
X122209900Y-125004311D01*
X121053709Y-125004311D01*
X121049126Y-124928536D01*
X121048900Y-124921049D01*
X121048900Y-74885750D01*
X121049126Y-74878263D01*
X121065056Y-74614901D01*
X121066671Y-74588201D01*
X121068476Y-74573340D01*
X121099718Y-74402862D01*
X121120180Y-74291198D01*
X121123764Y-74276664D01*
X121137890Y-74231333D01*
X121209099Y-74002812D01*
X121214397Y-73988842D01*
X121332127Y-73727258D01*
X121339080Y-73714012D01*
X121400424Y-73612536D01*
X121487475Y-73468534D01*
X121495967Y-73456230D01*
X121672881Y-73230417D01*
X121682796Y-73219226D01*
X121885626Y-73016396D01*
X121896817Y-73006481D01*
X122122630Y-72829567D01*
X122134934Y-72821075D01*
X122380412Y-72672680D01*
X122393658Y-72665727D01*
X122655242Y-72547997D01*
X122669212Y-72542699D01*
X122943068Y-72457362D01*
X122957598Y-72453780D01*
X123239744Y-72402075D01*
X123254601Y-72400271D01*
X123544664Y-72382726D01*
X123552151Y-72382500D01*
X123614292Y-72382500D01*
X128142742Y-72382500D01*
X128209781Y-72402185D01*
G37*
%TD.AperFunction*%
%TA.AperFunction,Conductor*%
G36*
X123805703Y-114655384D02*
G01*
X123812181Y-114661416D01*
X134055817Y-124905052D01*
X134078621Y-124936438D01*
X134114951Y-125007740D01*
X134135968Y-125048988D01*
X134237786Y-125189128D01*
X134360272Y-125311614D01*
X134414733Y-125351182D01*
X134457398Y-125406512D01*
X134463377Y-125476126D01*
X134430771Y-125537921D01*
X134369932Y-125572278D01*
X134341847Y-125575500D01*
X132926892Y-125575500D01*
X132859853Y-125555815D01*
X132839211Y-125539181D01*
X123636819Y-116336789D01*
X123603334Y-116275466D01*
X123600500Y-116249108D01*
X123600500Y-114749097D01*
X123620185Y-114682058D01*
X123672989Y-114636303D01*
X123742147Y-114626359D01*
X123805703Y-114655384D01*
G37*
%TD.AperFunction*%
%TA.AperFunction,Conductor*%
G36*
X141599142Y-112620185D02*
G01*
X141619784Y-112636819D01*
X144022625Y-115039660D01*
X144056110Y-115100983D01*
X144056561Y-115103149D01*
X144087461Y-115258491D01*
X144087464Y-115258501D01*
X144147802Y-115404172D01*
X144147809Y-115404185D01*
X144235410Y-115535288D01*
X144235413Y-115535292D01*
X144346907Y-115646786D01*
X144346911Y-115646789D01*
X144478014Y-115734390D01*
X144478027Y-115734397D01*
X144572895Y-115773692D01*
X144623703Y-115794737D01*
X144778353Y-115825499D01*
X144778356Y-115825500D01*
X144778358Y-115825500D01*
X144936044Y-115825500D01*
X144936045Y-115825499D01*
X145090697Y-115794737D01*
X145236379Y-115734394D01*
X145290863Y-115697989D01*
X145368075Y-115646398D01*
X145434753Y-115625520D01*
X145436966Y-115625500D01*
X146450501Y-115625500D01*
X146517540Y-115645185D01*
X146563295Y-115697989D01*
X146574501Y-115749500D01*
X146574501Y-115863175D01*
X146577290Y-115898625D01*
X146577291Y-115898627D01*
X146596691Y-115965407D01*
X146596691Y-116034591D01*
X146577292Y-116101366D01*
X146577290Y-116101379D01*
X146574500Y-116136829D01*
X146574500Y-116513150D01*
X146574501Y-116513175D01*
X146577291Y-116548627D01*
X146621380Y-116700385D01*
X146621382Y-116700390D01*
X146629634Y-116714344D01*
X146643849Y-116738379D01*
X146661032Y-116806103D01*
X146638872Y-116872365D01*
X146584406Y-116916129D01*
X146537117Y-116925500D01*
X142826098Y-116925500D01*
X142759059Y-116905815D01*
X142738417Y-116889181D01*
X140734822Y-114885586D01*
X138661415Y-112812180D01*
X138627931Y-112750858D01*
X138632915Y-112681166D01*
X138674787Y-112625233D01*
X138740251Y-112600816D01*
X138749097Y-112600500D01*
X141532103Y-112600500D01*
X141599142Y-112620185D01*
G37*
%TD.AperFunction*%
%TA.AperFunction,Conductor*%
G36*
X160840724Y-109111025D02*
G01*
X160896657Y-109152897D01*
X160921074Y-109218361D01*
X160916466Y-109261802D01*
X160873402Y-109410026D01*
X160873401Y-109410032D01*
X160870500Y-109446898D01*
X160870500Y-111228301D01*
X160873401Y-111265167D01*
X160873402Y-111265173D01*
X160919254Y-111422993D01*
X160919255Y-111422996D01*
X160919256Y-111422998D01*
X160929561Y-111440423D01*
X161002917Y-111564462D01*
X161002923Y-111564470D01*
X161019711Y-111581258D01*
X161053196Y-111642581D01*
X161048212Y-111712273D01*
X161019711Y-111756620D01*
X159401552Y-113374781D01*
X159340229Y-113408266D01*
X159313871Y-113411100D01*
X155325069Y-113411100D01*
X155325053Y-113411099D01*
X155317457Y-113411099D01*
X155159342Y-113411099D01*
X155082978Y-113431561D01*
X155006613Y-113452023D01*
X155006608Y-113452026D01*
X154869689Y-113531075D01*
X154869681Y-113531081D01*
X153917133Y-114483628D01*
X153855810Y-114517113D01*
X153786118Y-114512129D01*
X153760561Y-114499049D01*
X153647656Y-114423608D01*
X153647643Y-114423601D01*
X153500349Y-114362591D01*
X153484786Y-114350050D01*
X153466603Y-114341747D01*
X153458136Y-114328574D01*
X153445945Y-114318750D01*
X153439632Y-114299784D01*
X153428826Y-114282971D01*
X153424861Y-114255405D01*
X153423880Y-114252456D01*
X153423801Y-114248036D01*
X153423801Y-114238181D01*
X153423801Y-114235143D01*
X153423800Y-114235139D01*
X153423800Y-113971567D01*
X153443485Y-113904528D01*
X153482701Y-113866030D01*
X153629456Y-113775512D01*
X153753512Y-113651456D01*
X153845614Y-113502134D01*
X153900799Y-113335597D01*
X153911300Y-113232809D01*
X153911299Y-112520395D01*
X153930983Y-112453357D01*
X153947613Y-112432720D01*
X156848819Y-109531515D01*
X156910142Y-109498030D01*
X156979834Y-109503014D01*
X157035767Y-109544886D01*
X157060184Y-109610350D01*
X157060500Y-109619196D01*
X157060500Y-111228301D01*
X157063401Y-111265167D01*
X157063402Y-111265173D01*
X157109254Y-111422993D01*
X157109255Y-111422996D01*
X157109256Y-111422998D01*
X157119561Y-111440423D01*
X157192917Y-111564462D01*
X157192923Y-111564470D01*
X157309129Y-111680676D01*
X157309138Y-111680683D01*
X157450593Y-111764339D01*
X157450595Y-111764339D01*
X157450602Y-111764344D01*
X157450609Y-111764346D01*
X157451632Y-111764789D01*
X157453503Y-111766060D01*
X157457317Y-111768316D01*
X157457175Y-111768555D01*
X157457599Y-111768844D01*
X157461824Y-111769763D01*
X157490071Y-111790909D01*
X157490079Y-111790914D01*
X157508655Y-111809489D01*
X157793285Y-112094120D01*
X157793287Y-112094121D01*
X157793291Y-112094124D01*
X157930210Y-112173173D01*
X157930217Y-112173177D01*
X158082944Y-112214101D01*
X158082946Y-112214101D01*
X158248655Y-112214101D01*
X158248671Y-112214100D01*
X159385299Y-112214100D01*
X159385315Y-112214101D01*
X159392911Y-112214101D01*
X159551022Y-112214101D01*
X159551025Y-112214101D01*
X159703753Y-112173177D01*
X159753872Y-112144239D01*
X159840684Y-112094120D01*
X159952488Y-111982316D01*
X159952488Y-111982314D01*
X160212520Y-111722284D01*
X160291577Y-111585352D01*
X160332501Y-111432625D01*
X160332501Y-111274510D01*
X160332501Y-111266915D01*
X160332500Y-111266897D01*
X160332500Y-109568097D01*
X160352185Y-109501058D01*
X160368819Y-109480416D01*
X160709709Y-109139526D01*
X160771032Y-109106041D01*
X160840724Y-109111025D01*
G37*
%TD.AperFunction*%
%TA.AperFunction,Conductor*%
G36*
X148738265Y-78168524D02*
G01*
X148742147Y-78167966D01*
X148762801Y-78172768D01*
X148934157Y-78228446D01*
X149144113Y-78261700D01*
X149144114Y-78261700D01*
X149356686Y-78261700D01*
X149356687Y-78261700D01*
X149566643Y-78228446D01*
X149608923Y-78214707D01*
X149678762Y-78212711D01*
X149734922Y-78244957D01*
X151858678Y-80368713D01*
X151858680Y-80368716D01*
X151970484Y-80480520D01*
X151970486Y-80480521D01*
X152387181Y-80897216D01*
X152420666Y-80958539D01*
X152423500Y-80984897D01*
X152423500Y-89794298D01*
X152423499Y-89794316D01*
X152423499Y-89960022D01*
X152423498Y-89960022D01*
X152464424Y-90112757D01*
X152464425Y-90112758D01*
X152481261Y-90141918D01*
X152481262Y-90141919D01*
X152543477Y-90249680D01*
X152543481Y-90249685D01*
X152672716Y-90378920D01*
X152672720Y-90378924D01*
X152788719Y-90494923D01*
X152822203Y-90556245D01*
X152824656Y-90592320D01*
X152824500Y-90594295D01*
X152824500Y-91025701D01*
X152827401Y-91062567D01*
X152827402Y-91062573D01*
X152873254Y-91220393D01*
X152873255Y-91220396D01*
X152956917Y-91361862D01*
X152956923Y-91361870D01*
X153073129Y-91478076D01*
X153073133Y-91478079D01*
X153073135Y-91478081D01*
X153214602Y-91561744D01*
X153256224Y-91573836D01*
X153372426Y-91607597D01*
X153372429Y-91607597D01*
X153372431Y-91607598D01*
X153409306Y-91610500D01*
X153409314Y-91610500D01*
X155274902Y-91610500D01*
X155341941Y-91630185D01*
X155362583Y-91646819D01*
X155927181Y-92211417D01*
X155960666Y-92272740D01*
X155963500Y-92299098D01*
X155963500Y-95753803D01*
X155943815Y-95820842D01*
X155912386Y-95854121D01*
X155749352Y-95972573D01*
X155610174Y-96111751D01*
X155610174Y-96111752D01*
X155610172Y-96111754D01*
X155560485Y-96180141D01*
X155494476Y-96270994D01*
X155405117Y-96446370D01*
X155344290Y-96633573D01*
X155313500Y-96827977D01*
X155313500Y-97024822D01*
X155344290Y-97219226D01*
X155405117Y-97406429D01*
X155487706Y-97568519D01*
X155494476Y-97581805D01*
X155610172Y-97741046D01*
X155749354Y-97880228D01*
X155908595Y-97995924D01*
X155912386Y-97998678D01*
X155955051Y-98054008D01*
X155963500Y-98098996D01*
X155963500Y-99781132D01*
X155943815Y-99848171D01*
X155891011Y-99893926D01*
X155878507Y-99898836D01*
X155850903Y-99907984D01*
X155777868Y-99932185D01*
X155777863Y-99932187D01*
X155628542Y-100024289D01*
X155504489Y-100148342D01*
X155412387Y-100297663D01*
X155412385Y-100297668D01*
X155395552Y-100348468D01*
X155357201Y-100464203D01*
X155357201Y-100464204D01*
X155357200Y-100464204D01*
X155346700Y-100566983D01*
X155346700Y-101617001D01*
X155346701Y-101617019D01*
X155357200Y-101719796D01*
X155357201Y-101719799D01*
X155412385Y-101886331D01*
X155412387Y-101886336D01*
X155504489Y-102035657D01*
X155628544Y-102159712D01*
X155655997Y-102176645D01*
X155666008Y-102187775D01*
X155679104Y-102195028D01*
X155688900Y-102213226D01*
X155702722Y-102228593D01*
X155705126Y-102243369D01*
X155712222Y-102256550D01*
X155710624Y-102277153D01*
X155713945Y-102297555D01*
X155707978Y-102311286D01*
X155706822Y-102326210D01*
X155694338Y-102342679D01*
X155686102Y-102361637D01*
X155672962Y-102370882D01*
X155664617Y-102381893D01*
X155641424Y-102393074D01*
X155633540Y-102398622D01*
X155628332Y-102400528D01*
X155529455Y-102427023D01*
X155492736Y-102448223D01*
X155483451Y-102453583D01*
X155483447Y-102453585D01*
X155392527Y-102506077D01*
X155392522Y-102506081D01*
X154964881Y-102933722D01*
X154964880Y-102933724D01*
X154929106Y-102995688D01*
X154914761Y-103020534D01*
X154914759Y-103020536D01*
X154885825Y-103070649D01*
X154885824Y-103070650D01*
X154885823Y-103070655D01*
X154844899Y-103223383D01*
X154844899Y-103223385D01*
X154844899Y-103391486D01*
X154844900Y-103391499D01*
X154844900Y-107532490D01*
X154844899Y-107532508D01*
X154844899Y-107698214D01*
X154844898Y-107698214D01*
X154885822Y-107850944D01*
X154888703Y-107855932D01*
X154888706Y-107855945D01*
X154888709Y-107855944D01*
X154964875Y-107987869D01*
X154964881Y-107987877D01*
X155083749Y-108106745D01*
X155083755Y-108106750D01*
X155276379Y-108299374D01*
X155276389Y-108299385D01*
X155280719Y-108303715D01*
X155280720Y-108303716D01*
X155392524Y-108415520D01*
X155479335Y-108465639D01*
X155479337Y-108465641D01*
X155529453Y-108494576D01*
X155529455Y-108494577D01*
X155682182Y-108535500D01*
X155682183Y-108535500D01*
X155847003Y-108535500D01*
X155914042Y-108555185D01*
X155959797Y-108607989D01*
X155969741Y-108677147D01*
X155940716Y-108740703D01*
X155934684Y-108747181D01*
X153235882Y-111445981D01*
X153174559Y-111479466D01*
X153148201Y-111482300D01*
X152435798Y-111482300D01*
X152435780Y-111482301D01*
X152333003Y-111492800D01*
X152333000Y-111492801D01*
X152166468Y-111547985D01*
X152166463Y-111547987D01*
X152017142Y-111640089D01*
X151893089Y-111764142D01*
X151800987Y-111913463D01*
X151800985Y-111913468D01*
X151764921Y-112022304D01*
X151725148Y-112079749D01*
X151660633Y-112106572D01*
X151647215Y-112107300D01*
X148285152Y-112107300D01*
X148218113Y-112087615D01*
X148172358Y-112034811D01*
X148167446Y-112022305D01*
X148167446Y-112022304D01*
X148148214Y-111964266D01*
X148056112Y-111814944D01*
X147932056Y-111690888D01*
X147782734Y-111598786D01*
X147616197Y-111543601D01*
X147616195Y-111543600D01*
X147513410Y-111533100D01*
X146738398Y-111533100D01*
X146738380Y-111533101D01*
X146635603Y-111543600D01*
X146635600Y-111543601D01*
X146469068Y-111598785D01*
X146469063Y-111598787D01*
X146319742Y-111690889D01*
X146195689Y-111814942D01*
X146103587Y-111964263D01*
X146103586Y-111964266D01*
X146048401Y-112130803D01*
X146048401Y-112130804D01*
X146048400Y-112130804D01*
X146037900Y-112233583D01*
X146037900Y-112946001D01*
X146018215Y-113013040D01*
X146001585Y-113033677D01*
X145672082Y-113363182D01*
X145645153Y-113377886D01*
X145619338Y-113394477D01*
X145613137Y-113395368D01*
X145610761Y-113396666D01*
X145584403Y-113399500D01*
X145579766Y-113399500D01*
X145512727Y-113379815D01*
X145510875Y-113378602D01*
X145379185Y-113290609D01*
X145379172Y-113290602D01*
X145233501Y-113230264D01*
X145233489Y-113230261D01*
X145078845Y-113199500D01*
X145078842Y-113199500D01*
X144921158Y-113199500D01*
X144921155Y-113199500D01*
X144766510Y-113230261D01*
X144766498Y-113230264D01*
X144620827Y-113290602D01*
X144620814Y-113290609D01*
X144489711Y-113378210D01*
X144489707Y-113378213D01*
X144378213Y-113489707D01*
X144374347Y-113494419D01*
X144373055Y-113493358D01*
X144325589Y-113533018D01*
X144256263Y-113541717D01*
X144193239Y-113511555D01*
X144188432Y-113506997D01*
X142319790Y-111638355D01*
X142319788Y-111638352D01*
X142200917Y-111519481D01*
X142200916Y-111519480D01*
X142114104Y-111469360D01*
X142114104Y-111469359D01*
X142114100Y-111469358D01*
X142063985Y-111440423D01*
X141911257Y-111399499D01*
X141753143Y-111399499D01*
X141745547Y-111399499D01*
X141745531Y-111399500D01*
X126300097Y-111399500D01*
X126233058Y-111379815D01*
X126212416Y-111363181D01*
X125641819Y-110792584D01*
X125608334Y-110731261D01*
X125605500Y-110704903D01*
X125605500Y-110096865D01*
X125625185Y-110029826D01*
X125677989Y-109984071D01*
X125747147Y-109974127D01*
X125791496Y-109989476D01*
X125867214Y-110033192D01*
X125994508Y-110067300D01*
X125994510Y-110067300D01*
X150449890Y-110067300D01*
X150449892Y-110067300D01*
X150577186Y-110033192D01*
X150691314Y-109967300D01*
X150784500Y-109874114D01*
X150850392Y-109759986D01*
X150884500Y-109632692D01*
X150884500Y-87735308D01*
X150850392Y-87608014D01*
X150784500Y-87493886D01*
X150691314Y-87400700D01*
X150634250Y-87367754D01*
X150577187Y-87334808D01*
X150513539Y-87317754D01*
X150449892Y-87300700D01*
X150449891Y-87300700D01*
X126847897Y-87300700D01*
X126780858Y-87281015D01*
X126735103Y-87228211D01*
X126725159Y-87159053D01*
X126754184Y-87095497D01*
X126760216Y-87089019D01*
X131212416Y-82636819D01*
X131273739Y-82603334D01*
X131300097Y-82600500D01*
X132293826Y-82600500D01*
X132360865Y-82620185D01*
X132406620Y-82672989D01*
X132416564Y-82742147D01*
X132387539Y-82805703D01*
X132366713Y-82824816D01*
X132283072Y-82885586D01*
X132283070Y-82885588D01*
X132283069Y-82885588D01*
X132160588Y-83008069D01*
X132160588Y-83008070D01*
X132160586Y-83008072D01*
X132145752Y-83028489D01*
X132058768Y-83148211D01*
X131980128Y-83302552D01*
X131926597Y-83467302D01*
X131899500Y-83638389D01*
X131899500Y-84361611D01*
X131905582Y-84400009D01*
X131925076Y-84523095D01*
X131926598Y-84532701D01*
X131980127Y-84697445D01*
X132058768Y-84851788D01*
X132160586Y-84991928D01*
X132283072Y-85114414D01*
X132423212Y-85216232D01*
X132577555Y-85294873D01*
X132742299Y-85348402D01*
X132913389Y-85375500D01*
X132913390Y-85375500D01*
X133086610Y-85375500D01*
X133086611Y-85375500D01*
X133257701Y-85348402D01*
X133367684Y-85312665D01*
X133437522Y-85310671D01*
X133493681Y-85342916D01*
X134114139Y-85963374D01*
X134114149Y-85963385D01*
X134118479Y-85967715D01*
X134118480Y-85967716D01*
X134230284Y-86079520D01*
X134230286Y-86079521D01*
X134230290Y-86079524D01*
X134367209Y-86158573D01*
X134367216Y-86158577D01*
X134479019Y-86188534D01*
X134519942Y-86199500D01*
X134519943Y-86199500D01*
X134519944Y-86199500D01*
X142078055Y-86199500D01*
X142078057Y-86199500D01*
X142230784Y-86158577D01*
X142367716Y-86079520D01*
X142479520Y-85967716D01*
X142558577Y-85830784D01*
X142595655Y-85692405D01*
X142632020Y-85632746D01*
X142694867Y-85602217D01*
X142715430Y-85600500D01*
X146499491Y-85600500D01*
X146499507Y-85600501D01*
X146507103Y-85600501D01*
X146665214Y-85600501D01*
X146665217Y-85600501D01*
X146817945Y-85559577D01*
X146868064Y-85530639D01*
X146954876Y-85480520D01*
X147066680Y-85368716D01*
X147066680Y-85368714D01*
X147076888Y-85358507D01*
X147076890Y-85358504D01*
X147359506Y-85075888D01*
X147359511Y-85075884D01*
X147369714Y-85065680D01*
X147369716Y-85065680D01*
X147481520Y-84953876D01*
X147560577Y-84816944D01*
X147594113Y-84691785D01*
X147601500Y-84664218D01*
X147601500Y-84633256D01*
X147602729Y-84624592D01*
X147613708Y-84600428D01*
X147621185Y-84574967D01*
X147627936Y-84569117D01*
X147631633Y-84560981D01*
X147653936Y-84546587D01*
X147673989Y-84529212D01*
X147682831Y-84527940D01*
X147690340Y-84523095D01*
X147716879Y-84523044D01*
X147743147Y-84519268D01*
X147751274Y-84522979D01*
X147760209Y-84522963D01*
X147782560Y-84537267D01*
X147806703Y-84548293D01*
X147811856Y-84556016D01*
X147819059Y-84560626D01*
X147828155Y-84580444D01*
X147843205Y-84603001D01*
X147865186Y-84669334D01*
X147957288Y-84818656D01*
X148081344Y-84942712D01*
X148230666Y-85034814D01*
X148397203Y-85089999D01*
X148499991Y-85100500D01*
X149500008Y-85100499D01*
X149500016Y-85100498D01*
X149500019Y-85100498D01*
X149556302Y-85094748D01*
X149602797Y-85089999D01*
X149769334Y-85034814D01*
X149918656Y-84942712D01*
X150042712Y-84818656D01*
X150134814Y-84669334D01*
X150189999Y-84502797D01*
X150200500Y-84400009D01*
X150200499Y-83599992D01*
X150189999Y-83497203D01*
X150134814Y-83330666D01*
X150042712Y-83181344D01*
X149949049Y-83087681D01*
X149915564Y-83026358D01*
X149920548Y-82956666D01*
X149949049Y-82912319D01*
X149975782Y-82885586D01*
X150042712Y-82818656D01*
X150134814Y-82669334D01*
X150189999Y-82502797D01*
X150200500Y-82400009D01*
X150200499Y-81649992D01*
X150199153Y-81636819D01*
X150189999Y-81547203D01*
X150189998Y-81547200D01*
X150134814Y-81380666D01*
X150042712Y-81231344D01*
X149918656Y-81107288D01*
X149915819Y-81105538D01*
X149914283Y-81103830D01*
X149912989Y-81102807D01*
X149913163Y-81102585D01*
X149869096Y-81053594D01*
X149857872Y-80984632D01*
X149885713Y-80920549D01*
X149915817Y-80894462D01*
X149918656Y-80892712D01*
X150042712Y-80768656D01*
X150134814Y-80619334D01*
X150189999Y-80452797D01*
X150200500Y-80350009D01*
X150200499Y-79599992D01*
X150199214Y-79587416D01*
X150189999Y-79497203D01*
X150189998Y-79497200D01*
X150176187Y-79455521D01*
X150134814Y-79330666D01*
X150042712Y-79181344D01*
X149918656Y-79057288D01*
X149786607Y-78975840D01*
X149769336Y-78965187D01*
X149769331Y-78965185D01*
X149735598Y-78954007D01*
X149602797Y-78910001D01*
X149602795Y-78910000D01*
X149500016Y-78899500D01*
X149500009Y-78899500D01*
X148825098Y-78899500D01*
X148758059Y-78879815D01*
X148737417Y-78863181D01*
X148636819Y-78762583D01*
X148603334Y-78701260D01*
X148600500Y-78674902D01*
X148600500Y-78290704D01*
X148608425Y-78263713D01*
X148613223Y-78235992D01*
X148618137Y-78230636D01*
X148620185Y-78223665D01*
X148641439Y-78205247D01*
X148660467Y-78184516D01*
X148667497Y-78182668D01*
X148672989Y-78177910D01*
X148700833Y-78173906D01*
X148728042Y-78166755D01*
X148738265Y-78168524D01*
G37*
%TD.AperFunction*%
%TA.AperFunction,Conductor*%
G36*
X164318539Y-92900185D02*
G01*
X164364294Y-92952989D01*
X164375500Y-93004500D01*
X164375500Y-102777318D01*
X164355815Y-102844357D01*
X164303011Y-102890112D01*
X164233853Y-102900056D01*
X164212496Y-102895024D01*
X164175393Y-102882729D01*
X164071797Y-102848401D01*
X164071795Y-102848400D01*
X163969016Y-102837900D01*
X163969009Y-102837900D01*
X163294097Y-102837900D01*
X163264656Y-102829255D01*
X163234670Y-102822732D01*
X163229654Y-102818977D01*
X163227058Y-102818215D01*
X163206416Y-102801581D01*
X163200219Y-102795384D01*
X163166734Y-102734061D01*
X163163900Y-102707703D01*
X163163900Y-93004500D01*
X163183585Y-92937461D01*
X163236389Y-92891706D01*
X163287900Y-92880500D01*
X164251500Y-92880500D01*
X164318539Y-92900185D01*
G37*
%TD.AperFunction*%
%TA.AperFunction,Conductor*%
G36*
X140431844Y-75025199D02*
G01*
X140470886Y-75070256D01*
X140475351Y-75079020D01*
X140600290Y-75250986D01*
X140750613Y-75401309D01*
X140922582Y-75526250D01*
X140931346Y-75530716D01*
X140982142Y-75578691D01*
X140998936Y-75646512D01*
X140976398Y-75712647D01*
X140931346Y-75751684D01*
X140922582Y-75756149D01*
X140750613Y-75881090D01*
X140600290Y-76031413D01*
X140475351Y-76203379D01*
X140378844Y-76392785D01*
X140313153Y-76594960D01*
X140279900Y-76804913D01*
X140279900Y-77017487D01*
X140282513Y-77033986D01*
X140303665Y-77167536D01*
X140313154Y-77227443D01*
X140363260Y-77381654D01*
X140378844Y-77429614D01*
X140475351Y-77619020D01*
X140600290Y-77790986D01*
X140750613Y-77941309D01*
X140922579Y-78066248D01*
X140922581Y-78066249D01*
X140922584Y-78066251D01*
X141111988Y-78162757D01*
X141314157Y-78228446D01*
X141524113Y-78261700D01*
X141524114Y-78261700D01*
X141671302Y-78261700D01*
X141738341Y-78281385D01*
X141784096Y-78334189D01*
X141794040Y-78403347D01*
X141765015Y-78466903D01*
X141758983Y-78473381D01*
X141295184Y-78937181D01*
X141233861Y-78970666D01*
X141207503Y-78973500D01*
X140779843Y-78973500D01*
X140627114Y-79014423D01*
X140627113Y-79014423D01*
X140605572Y-79026859D01*
X140605573Y-79026860D01*
X140490187Y-79093477D01*
X140490182Y-79093481D01*
X140434162Y-79149502D01*
X140378380Y-79205284D01*
X140378378Y-79205286D01*
X139299343Y-80284322D01*
X138220484Y-81363181D01*
X138159161Y-81396666D01*
X138132803Y-81399500D01*
X135749096Y-81399500D01*
X135682057Y-81379815D01*
X135636302Y-81327011D01*
X135626358Y-81257853D01*
X135655383Y-81194297D01*
X135661415Y-81187819D01*
X135864602Y-80984632D01*
X137030920Y-79818316D01*
X137109977Y-79681384D01*
X137150901Y-79528657D01*
X137150901Y-79370542D01*
X137150901Y-79362947D01*
X137150900Y-79362929D01*
X137150900Y-78196918D01*
X137170585Y-78129879D01*
X137218607Y-78086433D01*
X137258215Y-78066252D01*
X137258215Y-78066251D01*
X137258216Y-78066251D01*
X137384522Y-77974485D01*
X137430186Y-77941309D01*
X137430188Y-77941306D01*
X137430192Y-77941304D01*
X137580504Y-77790992D01*
X137580506Y-77790988D01*
X137580509Y-77790986D01*
X137705448Y-77619020D01*
X137705447Y-77619020D01*
X137705451Y-77619016D01*
X137801957Y-77429612D01*
X137867646Y-77227443D01*
X137900900Y-77017487D01*
X137900900Y-76804913D01*
X137867646Y-76594957D01*
X137831021Y-76482240D01*
X137829027Y-76412403D01*
X137865107Y-76352570D01*
X137894477Y-76332532D01*
X137905255Y-76327260D01*
X137933185Y-76319777D01*
X137999408Y-76281543D01*
X138070116Y-76240720D01*
X138181920Y-76128916D01*
X138181920Y-76128914D01*
X138192124Y-76118711D01*
X138192128Y-76118706D01*
X138605878Y-75704955D01*
X138667199Y-75671472D01*
X138731873Y-75674706D01*
X138774157Y-75688446D01*
X138984113Y-75721700D01*
X138984114Y-75721700D01*
X139196686Y-75721700D01*
X139196687Y-75721700D01*
X139406643Y-75688446D01*
X139608812Y-75622757D01*
X139798216Y-75526251D01*
X139878900Y-75467631D01*
X139970186Y-75401309D01*
X139970188Y-75401306D01*
X139970192Y-75401304D01*
X140120504Y-75250992D01*
X140120506Y-75250988D01*
X140120509Y-75250986D01*
X140245448Y-75079020D01*
X140245447Y-75079020D01*
X140245451Y-75079016D01*
X140249914Y-75070254D01*
X140297888Y-75019459D01*
X140365708Y-75002663D01*
X140431844Y-75025199D01*
G37*
%TD.AperFunction*%
%TA.AperFunction,Conductor*%
G36*
X160751844Y-75025199D02*
G01*
X160790886Y-75070256D01*
X160795351Y-75079020D01*
X160920290Y-75250986D01*
X161070613Y-75401309D01*
X161242582Y-75526250D01*
X161251346Y-75530716D01*
X161302142Y-75578691D01*
X161318936Y-75646512D01*
X161296398Y-75712647D01*
X161251346Y-75751684D01*
X161242582Y-75756149D01*
X161070613Y-75881090D01*
X160920290Y-76031413D01*
X160795351Y-76203379D01*
X160698844Y-76392785D01*
X160633153Y-76594960D01*
X160599900Y-76804913D01*
X160599900Y-77017487D01*
X160602513Y-77033986D01*
X160623665Y-77167536D01*
X160633154Y-77227443D01*
X160683260Y-77381654D01*
X160698844Y-77429614D01*
X160795351Y-77619020D01*
X160920290Y-77790986D01*
X161070613Y-77941309D01*
X161242579Y-78066248D01*
X161242581Y-78066249D01*
X161242584Y-78066251D01*
X161431988Y-78162757D01*
X161634157Y-78228446D01*
X161844113Y-78261700D01*
X161844114Y-78261700D01*
X162056686Y-78261700D01*
X162056687Y-78261700D01*
X162266643Y-78228446D01*
X162468812Y-78162757D01*
X162658216Y-78066251D01*
X162744538Y-78003535D01*
X162830186Y-77941309D01*
X162830188Y-77941306D01*
X162830192Y-77941304D01*
X162980504Y-77790992D01*
X162980506Y-77790988D01*
X162980509Y-77790986D01*
X163105448Y-77619020D01*
X163105447Y-77619020D01*
X163105451Y-77619016D01*
X163109914Y-77610254D01*
X163157888Y-77559459D01*
X163225708Y-77542663D01*
X163291844Y-77565199D01*
X163330886Y-77610256D01*
X163335351Y-77619020D01*
X163460290Y-77790986D01*
X163610613Y-77941309D01*
X163782579Y-78066248D01*
X163782581Y-78066249D01*
X163782584Y-78066251D01*
X163971988Y-78162757D01*
X164174157Y-78228446D01*
X164384113Y-78261700D01*
X164384114Y-78261700D01*
X164596686Y-78261700D01*
X164596687Y-78261700D01*
X164806643Y-78228446D01*
X165008812Y-78162757D01*
X165130398Y-78100805D01*
X165199067Y-78087909D01*
X165263807Y-78114185D01*
X165274374Y-78123609D01*
X165838583Y-78687819D01*
X165872068Y-78749142D01*
X165867084Y-78818834D01*
X165825212Y-78874767D01*
X165759748Y-78899184D01*
X165750902Y-78899500D01*
X165499999Y-78899500D01*
X165499980Y-78899501D01*
X165397203Y-78910000D01*
X165397200Y-78910001D01*
X165230668Y-78965185D01*
X165230663Y-78965187D01*
X165081342Y-79057289D01*
X164957289Y-79181342D01*
X164865187Y-79330663D01*
X164865185Y-79330668D01*
X164851974Y-79370538D01*
X164810001Y-79497203D01*
X164810001Y-79497204D01*
X164810000Y-79497204D01*
X164799500Y-79599983D01*
X164799500Y-79869902D01*
X164779815Y-79936941D01*
X164763181Y-79957583D01*
X163637584Y-81083181D01*
X163576261Y-81116666D01*
X163549903Y-81119500D01*
X162709298Y-81119500D01*
X162672432Y-81122401D01*
X162672426Y-81122402D01*
X162514606Y-81168254D01*
X162514603Y-81168255D01*
X162373137Y-81251917D01*
X162373129Y-81251923D01*
X162341874Y-81283180D01*
X162280552Y-81316666D01*
X162254192Y-81319500D01*
X161233627Y-81319500D01*
X161166588Y-81299815D01*
X161145946Y-81283181D01*
X159841339Y-79978574D01*
X159807854Y-79917251D01*
X159807403Y-79915084D01*
X159776503Y-79759745D01*
X159776502Y-79759738D01*
X159758559Y-79716419D01*
X159716162Y-79614062D01*
X159716155Y-79614049D01*
X159628554Y-79482946D01*
X159628551Y-79482942D01*
X159517057Y-79371448D01*
X159517053Y-79371445D01*
X159385950Y-79283844D01*
X159385937Y-79283837D01*
X159240266Y-79223499D01*
X159240254Y-79223496D01*
X159085610Y-79192735D01*
X159085607Y-79192735D01*
X158927923Y-79192735D01*
X158927918Y-79192735D01*
X158770091Y-79224129D01*
X158700500Y-79217902D01*
X158645322Y-79175039D01*
X158622078Y-79109149D01*
X158621900Y-79102512D01*
X158621900Y-75687490D01*
X158641585Y-75620451D01*
X158694389Y-75574696D01*
X158763547Y-75564752D01*
X158802193Y-75577004D01*
X158891988Y-75622757D01*
X159094157Y-75688446D01*
X159304113Y-75721700D01*
X159304114Y-75721700D01*
X159516686Y-75721700D01*
X159516687Y-75721700D01*
X159726643Y-75688446D01*
X159928812Y-75622757D01*
X160118216Y-75526251D01*
X160198900Y-75467631D01*
X160290186Y-75401309D01*
X160290188Y-75401306D01*
X160290192Y-75401304D01*
X160440504Y-75250992D01*
X160440506Y-75250988D01*
X160440509Y-75250986D01*
X160565448Y-75079020D01*
X160565447Y-75079020D01*
X160565451Y-75079016D01*
X160569914Y-75070254D01*
X160617888Y-75019459D01*
X160685708Y-75002663D01*
X160751844Y-75025199D01*
G37*
%TD.AperFunction*%
%TA.AperFunction,Conductor*%
G36*
X134946142Y-73620185D02*
G01*
X134966784Y-73636819D01*
X135216641Y-73886676D01*
X135250126Y-73947999D01*
X135246892Y-74012673D01*
X135233153Y-74054957D01*
X135199900Y-74264913D01*
X135199900Y-74477486D01*
X135219181Y-74599225D01*
X135233154Y-74687443D01*
X135298843Y-74889612D01*
X135339256Y-74968928D01*
X135344595Y-74979405D01*
X135357491Y-75048074D01*
X135331215Y-75112815D01*
X135274109Y-75153072D01*
X135234110Y-75159700D01*
X132786690Y-75159700D01*
X132719651Y-75140015D01*
X132673896Y-75087211D01*
X132663952Y-75018053D01*
X132676205Y-74979405D01*
X132721957Y-74889612D01*
X132787646Y-74687443D01*
X132820900Y-74477487D01*
X132820900Y-74264913D01*
X132787646Y-74054957D01*
X132721957Y-73852788D01*
X132685275Y-73780795D01*
X132672379Y-73712125D01*
X132698655Y-73647385D01*
X132755762Y-73607128D01*
X132795760Y-73600500D01*
X134879103Y-73600500D01*
X134946142Y-73620185D01*
G37*
%TD.AperFunction*%
%TD*%
M02*
