  0
SECTION
  2
HEADER
  9
$ACADVER
  1
AC1009
  9
$INSBASE
 10
0.0
 20
0.0
 30
0.0
  9
$EXTMIN
 10
0.0
 20
0.0
 30
0.0
  9
$EXTMAX
 10
0.0
 20
0.0
 30
0.0
  0
ENDSEC
  0
SECTION
  2
TABLES
  0
TABLE
  2
VPORT
 70
0
  0
ENDTAB
  0
TABLE
  2
LTYPE
 70
1
  0
LTYPE
  2
CONTINUOUS
 70
0
  3
Solid line
 72
65
 73
0
 40
0.0
  0
ENDTAB
  0
TABLE
  2
LAYER
 70
1
  0
LAYER
  2
0
 70
64
 62
7
  6
continuous
  0
ENDTAB
  0
TABLE
  2
STYLE
 70
1
  0
STYLE
  2
STANDARD
 70
0
 40
0
 41
1.0
 50
0.0
 71
0
 42
1
 3
ARIAL.TTF
 4

  0
ENDTAB
  0
TABLE
  2
VIEW
 70
0
  0
ENDTAB
  0
ENDSEC
  0
SECTION
  2
BLOCKS
  0
BLOCK
  8
0
  2
FILLET001
 70
0
 10
0.0
 20
0.0
 30
0.0
  3
FILLET001
  0
LINE
  8
0
 62
0
 10
-86.0
 20
279.0
 30
0.0
 11
-86.0
 21
345.0
 31
0.0
  0
ARC
  8
0
 62
0
 10
-91.0
 20
279.0
 30
0.0
 40
5.0
 50
-90.0
 51
-0.0
  0
ARC
  8
0
 62
0
 10
-81.0
 20
345.0
 30
0.0
 40
5.0
 50
90.0
 51
-180.0
  0
LINE
  8
0
 62
0
 10
-219.0
 20
274.0
 30
0.0
 11
-91.0
 21
274.0
 31
0.0
  0
LINE
  8
0
 62
0
 10
81.0
 20
350.0
 30
0.0
 11
-81.0
 21
350.0
 31
0.0
  0
ARC
  8
0
 62
0
 10
-219.0
 20
269.0
 30
0.0
 40
5.0
 50
90.0
 51
-180.0
  0
ARC
  8
0
 62
0
 10
81.0
 20
345.0
 30
0.0
 40
5.0
 50
-0.0
 51
90.0
  0
LINE
  8
0
 62
0
 10
-224.0
 20
51.0
 30
0.0
 11
-224.0
 21
269.0
 31
0.0
  0
LINE
  8
0
 62
0
 10
86.0
 20
345.0
 30
0.0
 11
86.0
 21
279.0
 31
0.0
  0
ARC
  8
0
 62
0
 10
-219.0
 20
51.0
 30
0.0
 40
5.0
 50
-180.0
 51
-90.0
  0
ARC
  8
0
 62
0
 10
91.0
 20
279.0
 30
0.0
 40
5.0
 50
-180.0
 51
-90.0
  0
LINE
  8
0
 62
0
 10
-219.0
 20
46.0
 30
0.0
 11
-91.0
 21
46.0
 31
0.0
  0
LINE
  8
0
 62
0
 10
219.0
 20
274.0
 30
0.0
 11
91.0
 21
274.0
 31
0.0
  0
ARC
  8
0
 62
0
 10
-91.0
 20
41.0
 30
0.0
 40
5.0
 50
-0.0
 51
90.0
  0
ARC
  8
0
 62
0
 10
219.0
 20
269.0
 30
0.0
 40
5.0
 50
-0.0
 51
90.0
  0
LINE
  8
0
 62
0
 10
-86.0
 20
41.0
 30
0.0
 11
-86.0
 21
-25.0
 31
0.0
  0
LINE
  8
0
 62
0
 10
224.0
 20
51.0
 30
0.0
 11
224.0
 21
269.0
 31
0.0
  0
ARC
  8
0
 62
0
 10
-81.0
 20
-25.0
 30
0.0
 40
5.0
 50
-180.0
 51
-90.0
  0
ARC
  8
0
 62
0
 10
219.0
 20
51.0
 30
0.0
 40
5.0
 50
-90.0
 51
-0.0
  0
LINE
  8
0
 62
0
 10
-81.0
 20
-30.0
 30
0.0
 11
81.0
 21
-30.0
 31
0.0
  0
LINE
  8
0
 62
0
 10
91.0
 20
46.0
 30
0.0
 11
219.0
 21
46.0
 31
0.0
  0
ARC
  8
0
 62
0
 10
81.0
 20
-25.0
 30
0.0
 40
5.0
 50
-90.0
 51
-0.0
  0
ARC
  8
0
 62
0
 10
91.0
 20
41.0
 30
0.0
 40
5.0
 50
90.0
 51
-180.0
  0
LINE
  8
0
 62
0
 10
86.0
 20
41.0
 30
0.0
 11
86.0
 21
-25.0
 31
0.0
  0
CIRCLE
  8
0
 62
0
 10
217.5
 20
52.5
 30
0.0
 40
1.65
  0
CIRCLE
  8
0
 62
0
 10
175.05
 20
55.65
 30
0.0
 40
1.64999999999999
  0
CIRCLE
  8
0
 62
0
 10
144.95
 20
55.65
 30
0.0
 40
1.64999999999999
  0
CIRCLE
  8
0
 62
0
 10
79.5
 20
-23.5
 30
0.0
 40
1.65
  0
CIRCLE
  8
0
 62
0
 10
26.5
 20
-23.5
 30
0.0
 40
1.65
  0
CIRCLE
  8
0
 62
0
 10
79.5
 20
39.5
 30
0.0
 40
1.65
  0
CIRCLE
  8
0
 62
0
 10
102.5
 20
52.5
 30
0.0
 40
1.65
  0
CIRCLE
  8
0
 62
0
 10
175.05
 20
79.85
 30
0.0
 40
1.64999999999999
  0
CIRCLE
  8
0
 62
0
 10
144.95
 20
79.85
 30
0.0
 40
1.64999999999999
  0
CIRCLE
  8
0
 62
0
 10
217.5
 20
124.166667
 30
0.0
 40
1.65
  0
CIRCLE
  8
0
 62
0
 10
-26.5
 20
-23.5
 30
0.0
 40
1.65
  0
CIRCLE
  8
0
 62
0
 10
-79.5
 20
-23.5
 30
0.0
 40
1.65
  0
CIRCLE
  8
0
 62
0
 10
-79.5
 20
39.5
 30
0.0
 40
1.65
  0
CIRCLE
  8
0
 62
0
 10
-102.5
 20
52.5
 30
0.0
 40
1.65
  0
CIRCLE
  8
0
 62
0
 10
-144.95
 20
55.65
 30
0.0
 40
1.64999999999999
  0
CIRCLE
  8
0
 62
0
 10
-175.05
 20
55.65
 30
0.0
 40
1.64999999999999
  0
CIRCLE
  8
0
 62
0
 10
-217.5
 20
52.5
 30
0.0
 40
1.65
  0
CIRCLE
  8
0
 62
0
 10
-144.95
 20
79.85
 30
0.0
 40
1.64999999999999
  0
CIRCLE
  8
0
 62
0
 10
-175.05
 20
79.85
 30
0.0
 40
1.64999999999999
  0
CIRCLE
  8
0
 62
0
 10
-217.5
 20
124.166667
 30
0.0
 40
1.65
  0
CIRCLE
  8
0
 62
0
 10
217.5
 20
195.833333
 30
0.0
 40
1.65
  0
CIRCLE
  8
0
 62
0
 10
175.05
 20
240.15
 30
0.0
 40
1.64999999999999
  0
CIRCLE
  8
0
 62
0
 10
144.95
 20
240.15
 30
0.0
 40
1.64999999999999
  0
CIRCLE
  8
0
 62
0
 10
217.50000000000003
 20
267.4999999999143
 30
0.0
 40
1.65
  0
CIRCLE
  8
0
 62
0
 10
175.05
 20
264.35
 30
0.0
 40
1.64999999999999
  0
CIRCLE
  8
0
 62
0
 10
144.95
 20
264.35
 30
0.0
 40
1.64999999999999
  0
CIRCLE
  8
0
 62
0
 10
102.5
 20
267.5
 30
0.0
 40
1.65
  0
CIRCLE
  8
0
 62
0
 10
79.5
 20
280.5
 30
0.0
 40
1.65
  0
CIRCLE
  8
0
 62
0
 10
79.5
 20
343.5
 30
0.0
 40
1.65
  0
CIRCLE
  8
0
 62
0
 10
26.5
 20
343.5
 30
0.0
 40
1.65
  0
CIRCLE
  8
0
 62
0
 10
-217.5
 20
195.833333
 30
0.0
 40
1.65
  0
CIRCLE
  8
0
 62
0
 10
-144.95
 20
240.15
 30
0.0
 40
1.64999999999999
  0
CIRCLE
  8
0
 62
0
 10
-175.05
 20
240.15
 30
0.0
 40
1.64999999999999
  0
CIRCLE
  8
0
 62
0
 10
-102.5
 20
267.5
 30
0.0
 40
1.65
  0
CIRCLE
  8
0
 62
0
 10
-79.5
 20
280.5
 30
0.0
 40
1.65
  0
CIRCLE
  8
0
 62
0
 10
-26.5
 20
343.5
 30
0.0
 40
1.65
  0
CIRCLE
  8
0
 62
0
 10
-79.5
 20
343.5
 30
0.0
 40
1.65
  0
CIRCLE
  8
0
 62
0
 10
-144.95
 20
264.35
 30
0.0
 40
1.64999999999999
  0
CIRCLE
  8
0
 62
0
 10
-175.05
 20
264.35
 30
0.0
 40
1.64999999999999
  0
CIRCLE
  8
0
 62
0
 10
-217.5
 20
267.5
 30
0.0
 40
1.65
  0
ENDBLK
  0
ENDSEC
  0
SECTION
  2
ENTITIES
  0
INSERT
  2
FILLET001
  8
0
 62
0
 10
0.0
 20
0.0
 30
0.0
  0
ENDSEC
  0
EOF
